/* XPM */
static char *result[] = {
/* columns rows colors chars-per-pixel */
"64 64 17 1 ",
"  c #3F3E3D",
". c #4B4A49",
"X c #454443",
"o c #50504E",
"O c #383837",
"+ c #565654",
"@ c #5C5B59",
"# c #31302F",
"$ c #626160",
"% c #282727",
"& c #1E1E1D",
"* c #696967",
"= c #737270",
"- c #7B7B79",
"; c #858483",
": c #908E8C",
"> c #80807E",
/* pixels */
" +oo.......X.X.. XXXX  ##  OO#&&.====*=*********=*$$***$@$+@*+ %",
"+@.o.oo+@+@$$$@@++o+o...O . X O&$-$$$$$*$$*=**==-;:;;;>-=-*=*$o%",
".X#O###O XXX.o.o..X..XX  #OX  O%$$...o..XX.XXX..o+$****$@@ooooX%",
".X#OOO#O OOOOXXXXX  XX   O%OOOO%$$.o++o........X.o..+*$+.o..o..#",
"oXOOO OOOOOO O   X....X.XX%%##O%*@oo.oo.oX.ooo.o.ooo.o$+...o..X#",
".XO#OO O# O  O    .oooXXXXO##%%%*+X..+@@@+oo+++@ooo+oo$@++oooo.%",
".XOOO   OO   X  X  X.o...XXO%##&*$.o+ooo+@++@@@+ooo+@+@$@$$@ooo%",
"oXOOO      O  XXXX...+++oo. %O.#*=oX.o..o+++@@@@+@@@@@$$**$@@oo#",
"+.OO O      O  XX.oooo+$++o %++#$-@+XXo..o@@@@+@@@@$$$**$$@@++o#",
"+.O OOOO  O     X.ooo+@@@++ #@.%+-$o.+@+o++@@@@@@$$$**=*$@+@$@+#",
"o+ OOOOO    XXXXX.o+++...ooO#@X%+*$+@@*$$$$$$@@@@$**=*=*$@oooo.#",
".+   X  O O XXX.ooo.XX   X %O. #+=@..o+@@@++@$**$$$$@@$@++o..o.%",
".@    XXXXX...XXX    OOOOX#%.O#%+=@.XXX.......o+@+o@++o....o.XX#",
"X$.X.X...X XXXX   OOO   ##% XO%&.@o.  XXXX.ooo..o+.o.o.oo.XXX.X%",
"#X.X       XOOOO#OOOOOOOO%%O##%&#.XX  OO   XXX  .XX  XX XXXX   &",
"&&%%%&%%%%%%%&&&&%%%%&&&%&&%%&&&%%%%#%%%%%%%%%%%%%%%%##%%%%###%&",
".oXXXXXX..XXXX#& +$$$*$$@@@@@@@+@@+o@@+oo++o.X#%O+@+o+$@@*$$@@$@",
"$$@++@@$*$$**$.%@@oo+++@+@$$*===-;>=--****$$@+X%+$++++$=****=**=",
"OO OO XXXXX...X%$+o....X  XX.o.++@$*$@oooo.... %@.XXX X.XXX....o",
"OO    X XO X X &@oXXX .X .X..o+++++@@o..X..X..X%@. XXX.oXXX.X.oo",
"OOXX OO  OOO OO%$+.X.oooX++++++oooo+$@+++o+ooo.#@.  XXo.XX..X.o.",
"OO X OO X XXOOO&@@.o.oo+o....oo..o.o+$@o+@+o...#+.XXXXXX.X......",
"OOOO O  X.o.  O&@*X.Xoo.oo..o++..oooo@*+++ooooo#+. XXX .o.o..o.X",
"O      X.o. O  %@*..Xo+.oooo++oo.o+o++$**@+@@+o#@oXX.XXoo.o.oooo",
"OO    X..XXOOOO%+*o.oo.+++ooo++o+ooo+@$@$$oooo.#@o XX.o.o+ooo...",
"O    X.X OOOO##%+-*ooo.o@+oo+o+@++o++@$+o@$+X.X#@@..ooo++o++o..o",
"   X..XXOO#####%@=@++@++$$++@+++@@++@+.o...+oX %@*.oo+o+@++$@@oo",
"X  OOOOOOO####%&+*o.....o+$@@$***$@$+oo.XXX...O%o*.oooo+@@+@$*$@",
" O############%&o@..XXX...ooo++@$*$*@oo.o...XX %.*+o.oo+++oo@@@o",
"OOOOO#%#######%&.+.X    X....o@+o+@@+oo.XXX..X %X$.  XXo.o..o+..",
"O######%%%#%%%%&Oo  O OOX  XXXooo.oooo..XXXX O#&Oo   O X XX X.X.",
"&&&&&&&&&&&&&&&&%%%%%%&%%%%%%%%%#############%&&###%%%%##%###%%%",
"&&&&&&&&&%&&%&&&%%%%&&&&&&%&%&&& @+@@$$++@+++oooo@@+oo.o+o+o+.O%",
"%O       O          O  X #O    &+-====---=====****====**===**$o%",
"%.o.XXX   XXXX..XX.XXXoo.#OXX.X%o=$$$$$$$*$$$+@@$$$$$$@@@$$@+@.%",
"%.oX  X.XXX.....X..XX.+oX#OX.  %+=$oo+++@$*$@+@++@@@+@++@@++o++#",
"#oo...oo...o.oo+oooo.ooo+XOO#%O#+=$o..++$***=******$$**@++@@@$+O",
"%.oX.o++....oo....X..XXX.+o.X #%$;*+oo++@*-*$$$$*****=**$$*$@+.#",
"%.oooo+o.XXXX X.XXX X  X   Xoo &@;$o+@@$*$@**$$@@@$@++$=*$+.XX %",
"% ..oo+o..  XXXXX XXXX.X OOO  #%@;*++@**@@@$@@$**$@@+@$$@@+.XXO%",
"%O X.X.oo.XX.XXX     XXX  OOO#%&@;*$@$*$$@++++@@@@+++@$+o+o..  %",
"%O    X.o+oXXX..XX           #%%@;******$@@+++++++@+@$@o..X..X %",
"%OOOO  X.oo...oX..XX    O O  #%%$:-*$$$$@+@++@+oo@@@@$@.X  X.  #",
"%#OOOO    X..o.oooX X O   O   #%$:=@@@++oo+oo+oo@@@@$@+oo.XXXX %",
"&#OOOOOOO    O Xo..X....X X  O #$:$@$@@@++@+.+oo$+@$$o.++.X.XXO%",
"&#O####O OOOOOO  O XXX.o.XXXXO %$-@@@oo++o+ooo+@@@$**@+++o.oXX %",
"&%O#OO##OO##OOO##OO   O  XX..  &X*$$$$$@++++++@**$@+oo@oo+...  &",
"&&&&%&&&&%&&&&&&&&%%%&%%%%%%%%&&#O OOXXX  XX O#OOO##%#########%&",
" X   XX  XX   #&%OO O           XXXX    XX   O%& @@$@+@++@$@@@$$",
"$$$****@$*$@@+X&O+.oooo++++oooo+++@@@$@+++o..XO&+->;--;>;:::>-;;",
"XX.X..oo+o.XXX % oO###OOO  OOOO   XX.+oX     O#&o=$$$*=**==*@@@@",
"XX     XX OOOOO&O.##%######O#OOO X  XX  O##OO##&o=@+$$@@@$=$@@+@",
"XXX O    OOOOOO&  ######O#OOO#OOO X     OO####%%o*+o@+@++$*$+oo+",
"  XX XXXXX O   %  #O#O####OOOO#OOO X   O#######&o*ooo++oo$*@@@oo",
"XXXXX....XX X  %XX##OOOOO#OOOOOOOO   XX O#OO###&o*+oo+o+@$*$$*$@",
"XXXXXo..oX     % .##OO#OOOOOOO OO O   XX OO####&o*+o+@+$***$$$$$",
"X.XXo...oooXX  % o##OO OOOO O       XXXX  O####&o=@o+++$**$$$$@$",
"XX....oo+@+.XXO% +O#OOOOO#OO   X    XX..XX ####&@-$+++@****@@$@+",
"X.o.+@+ooooo.X % .X OOO    O  XXXX  X..o.X O##%&+*@oooo@$*=*$$*$",
"+ooo...X X..X.X%OXO##OOO   OO  XXXXX  OO  X O#%&o*++oo+@@*=****=",
"XXX  XXXXO     %O ##%%###OO###OO  OOO#####OOOO#&.*+oo.+$$@++o+@@",
"  O O OO OOOO O&#O############OO OO###O###%##O#&X$o.o+$@o.ooo@$@",
"OOO##O###OOO###&%##%%%%%#%##########%%#####%%%%&#...oooX X X..oo",
"&&%&&&&&&&&&%&&&&&&&&&&&&&&&&&&&&&&&&&&&&&&&&&&&%%%##%#%%%%##%%%"
};
