/* XPM */
static char *result[] = {
/* columns rows colors chars-per-pixel */
"64 64 10 1 ",
"  c #3B3B39",
". c #454443",
"X c #353534",
"o c #403F3E",
"O c #4B4A49",
"+ c #525250",
"@ c #2D2D2C",
"# c #242323",
"$ c #1C1B1B",
"% c #61615F",
/* pixels */
".+O+OOOOOOO.O.OO.....oo@@o   X#$ ++++O++OOO+++O+++OOO+OO.Oo.Oo@$",
"+%O+O+++%+%%%%%%+++++OOO oOo.oX$O%OOOOO+OO+++++++%%%%%%%+%+++O $",
"O.XXXXX o...O+O+OO.OO..oo@X. o #OOXX   XXXXXXX  ooOO++OO..    X$",
"O.XX XX  X X .....oo..ooo #X   #OO  oo  X X X XXXo Xo+Oo  XX XX$",
"+OX     X X o .oo.OOOO.O..@#@XX#O.  X    XX  o  X o  oOo X    X$",
"O. XX o X  oo ooooO+++OO.. @@@##+oX  ....o  ooo.  ooo O.ooo   X$",
"O.XXX o X o o.oo..o.O+OOO..X@@@$OO  oo oo.oo...o o o.o...O..o  $",
"+OX X ooo    o...OOOO+++++Oo# O@O+ X   X o.o....o.....OOOOO.. X$",
"+OXXXo.oo o   o..O++++%%+++o@++@O%.oXX   o....o....OOO++OO..oo@#",
"+O@@    oo o.ooo.O+++++%%++o@%O#o%O  o.o oo.......OOO+++O...O @@",
".o@X.o  o  oo....O+++%OOO++ @%.@o+Oo..OO..OOO...OOO+++++O.   # @",
"X @@o+.o   o...O+O+O..oooOo#XOo@.+.   o...oo.O+OO..O..O.oo X@@.#",
"XO  Xo+O..OOOO...oooo    o@@O X#o+.XXXX X XXXX ..o .oo   XX@@X #",
"@+..oX.+O.o....    X oo @X#o. @$X.  @@XXXX     X o  X    X#@ oX$",
"$ .o X@oO  .    XX XXXX X@@ @X@$#XXX@@@@@@@XXX@@XXX@@XX@@#X XXX$",
"$$##$##@X######$$###$$$$#$$#$$$$$$$$$$$$$$$$$$$#$$$$$$#$$#####$$",
".+......OO....X$$##@@@@@##@#@#@#############$$$$#o.o .O..OOO..O.",
"%%%++%%%%%%%%%O###@@@@@@@XXX ooo.OO...o   XXX@#$oOooooO++O++++++",
"XXo  o..OO.OOO.#@@XXXXXX@@@XX X  oOO.o  X XXXX@$. @XX@XXXXXX  X ",
"X o   ooo o.o. $#@XXX@XX@XXXX oo.oo..  XXXXXXXX$. @XXX  XXXXXX  ",
"X ..o  oo X o  $#@XXXo  Xoooo.. oo o..ooooo    #. @@XXXXXXXXX   ",
"   .o Xo.oo.  X$#XX   oo  X Xo XX   oO. o.oo  X#.XXX@XXXXX XX XX",
"X X o oo.O+OooX$#XX X     X  ooX oo  .Oooo  oo #oX@XXX@X    X XX",
"   oo o.O+Oo  o$#XX Xoo    oooo   o ooO++.o..o #. XXXXX  X      ",
"  oooo.OO..X X ##      .o.o  ooooo  o.O.OOo   X#. @XXXo  o     X",
"  oo .O.oXXXXX@##.O   X .o  ooo.ooooo.O.o.OoXXX#..     ooooo    ",
" oo.OO.. X@@@@X##o.o..ooOOo..ooo...o.o  XX o X@$.OX  o o.ooO..  ",
". o XX  XXXX@X@$# XX  XX oO..O+OOO.Oo  XXXX X @$ +    oo..o.OO..",
"o X@@@@@@X@XX@@$#XXXXXXXX    o..O+OO.       XX@$ +o X  ooooo... ",
"X XXXX@@X@@@@@@$$@XX@@@@XX   o.ooo...  XXXXX X@$X.X@@XX X  X o  ",
"XX@@@@@@@@@@@##$$@@@@@@@X@@XXX o X  o   XXXX@@#$@ X@@@@X@XX@XXXX",
"###$$#$$$$$$$$$$$$$#$$$$$####$$#$############$$$###$$$$##$####$$",
"Xo     o o  o   oo o o    ooo @##@#@oO..o.oooo   ..  o oooooo #$",
".%++++++++++++O+++++++++++++++O#XO.o.+%%%++++++O++++++O+++++OO $",
"o%+OO......O..OOO.O.OO+++.OOOO.# +..  .OOOOOO...OOOO.O...OO... $",
".+OOoo.....OOOOO.OO..O+O..o.O.o#.%O.. X@ .OO.o...... o.o..ooooo#",
"O%O++O++OOO+O+++++O+O+OO+OOO++O@.+Oo o. X.++++O+O+OOOO+.o....oX$",
".+.o++++OOOOO+OOOO.OO...O..O..O@O%+o o... O+OOOO++OOO.++OOOOo@#$",
" +o.+%++O....o.O...o.oo.o o.Oo.@.%O o..O+O .+O....O.o@ +O. ###X#",
"@XoO+%%+OOoo.....o....O.o o ooo@.%+oo.OO..Oo .OO+O.. @@X@@###@X#",
"@oOo.O%++O..O...ooooo...oo   Xo@.%O..O+OO.o.  ..... @@  XX@@X X$",
"@O.   +++++...OO..oooooooooo  o@.%+O+O+OO..o.o oooX#@oOo o XXX@#",
" O. X O+OO+OOOO.OO..o     oo Xo@O%%+OOOO.o.oo.o@@@#@o++oXXXX @@#",
" oo   o..o.OO+O+++.o.o ooo  o .@O%+...oo  oooooX@@X.++.o XXXXX@$",
"X XoXX  Xoo o  .+OO.OOOO.oooooO@O%O.O...oo.o o X@@ ++. ooXXXXX@$",
"@ X X@ oXXX  XX o  ...O+O...O.O@O%...oo.ooo   oo@@o%+.oooo  XX@$",
"#@X    XXX@X XXXXX o    o..O+O.#X+OOOOOooooooo..@# Ooo.ooo  X@@$",
"$$$$##$$$#####$$$###########@@###@X@@XXXXXXX@@##$$$#$#####$###$$",
"##############$$@o....O.@$o++OOOO++OOO..OOOOO @$$##@######@###@@",
"O..OO+O.O+O..oX$.%%%%%%+@@%%%%%%%%%%%%%%%%%++Oo$# .O..OOO++O...O",
".o...OOO+O.... #.%o    @$@ .O...O++++%%+OOOOOo ## ...O+OO++Oo...",
"..o ooo..o    X#.+X XX@##@ ..oo.OOOO++O.o  oo X##ooo.O...O+O....",
"...o ooo  XXX X#.OX  X##@@XO. oo..OOOOO.ooXX XX## oo.o..oO+O.  o",
" o..o.....o  o #  @@@##@@@@ .o ..o.OOOO.     XX##    oooo.O...o ",
".o...OOOO..o.  #  @@XX@X XX@ O.o....OO+.o oo XX$# oo ooo.O+OOOO.",
"....OOOO+.ooooo#+%o.. Xo.. X@o+.....OO++O.o   X##   o.oO+++OOOOO",
".O..OOOO++O..o #O%o .ooOOOOo XOO.OOOO++OOO.   X$#.o oooO++O.OO.O",
"..OOOO+O+++O.. #O%. oo.+o .O.  OO..O+++++O.   X##..ooo.+O+O..O.o",
".OOO+%++O+++O.o#.%OO. o+O...O.  oOOO+++%+O.oXXX##oo o  .O++OO.OO",
"++O+OOO.o.OO.O.#o+.  X.O.O...O..  ++OO..OO+Oo X$# oo  o..O++O+++",
"...o ....  ooo #oO XX@ooXoo X oooXX..  X  o..oX$$ o o oO...oo...",
"oo  X X o     X# o   @  X     o.. @@  o  XXX oX$$X   oO.     ...",
" X X@X@XXXXXXX@$@ XX@@X@X@X  XX o @#@XXXXXX@@X@$$@X   oX@X@XX  o",
"#$##$#$$$$####$$$$$$$$#$##$$$$#$###$$$###$$$$$$$$$$####$$#$###$#"
};
