/* XPM */
static char *result[] = {
/* columns rows colors chars-per-pixel */
"64 64 28 1 ",
"  c #361C14",
". c #3D1D13",
"X c #3F2016",
"o c #3F211A",
"O c #431E13",
"+ c #481F12",
"@ c #452115",
"# c #4C2215",
"$ c #452319",
"% c #4C2519",
"& c #4E281B",
"* c #532415",
"= c #5A2616",
"- c #5D2817",
"; c #522619",
": c #5B2718",
"> c #53291A",
", c #5C2919",
"< c #612716",
"1 c #682716",
"2 c #632817",
"3 c #6B2917",
"4 c #602718",
"5 c #632A19",
"6 c #6B2B19",
"7 c #712A17",
"8 c #712C19",
"9 c #68301E",
/* pixels */
"*@*=*+##*=*-==<<2==%%$o%%**==**#=*****>*****###.OOO+*2232=*>-232",
"1<=-<*@@#===-==<2=2=;%%$$@###**#=****##*****+O...O+**##+OO##=-22",
"++***>=#@+@#++****==>**=*##O++#+#****##**##+O+#+#######O... X  .",
"..O+#%*<=#@@##*#***--225-2-==***=*+*#**##+#+#***&##++##++OX@X@+O",
"++OOO+*=<<***##*#**-====*===>=-*****=**+##***###*@@@++###*>>$***",
"*+@+...OO****+.OX@#*=***##%%#**##>###+++##*++O##@+#####***#&&&**",
"*+*+O+OO++*=#O.. X.#*****###***##$$$#@#+##@@+##**#&&*******####*",
"****+*#**=**+##*@@O.O******=***####&#&****&#*****#&#********&***",
"=+***********=***=%##*===*==;;;%&$&&>>*****&**#*#%>*************",
"====***==********;%**#*****=**%&#&$##*****&&****%>%>*>*=********",
"*<==********=**##@#@@@#*=#####&%&&&>#%#****&***>*>&*=--***===<==",
"=**=*************&%#@@OO*===*;%%%&&>#####*********=-=*##*======*",
"=**===-==******#&@&;&#++++=**;%&$#$>#&>*=**=**#*==*###**-*#**=<*",
"1<<1-==********#%#@%&&;*#***=,>;#&>>&&**=***#**#++##****#+###**<",
"#@++##***#*#####@*###*#;;;###;>,>,,,>>>=****=****=2-*##+#**#****",
"O.O+%##**######***#*#*****##@#@#%%@$$$#>*==-<223932*##**#**#*#O.",
"225,,,>>*+####***;@%****#***#+++O$#####+##**#&&&%#-552---==>%$%=",
"6365>>********=*******#**#*#*;**#####*+*+##+++.o@@#=16663-*;;,53",
"#+#%#%#*******=*%****+#***#***+*##**##**#&+#**#***#***>##%**-2*%",
"#+#+####***+****##*#****;;;%*****;;;;#+*##****=---*=*#@+#-2-=*##",
"****************#******=;*#########*=******==*-==**#@O#*<<=**#**",
"**%#*###*==*====********==*#%&&&;**2-=****==-=*;=-*#*=21<*****#*",
"**===**=**=*=======****+#*%%%&;>,22-*#**=***;*****=2315=***%####",
"#*==<====*=====<====****#;&>%%*&;*+*##**==***#*##@##**%#+##OO..O",
"*###***=***==<====**;=*=**&%&&%%;*++**#****###++###**##*#*=****#",
"#@####*>=*===***==-,,254=*#;;;&;;*=<<-===**#*******===22<666635;",
">>>,>=*=**=-=*#***>*;*;**====**#****====**=****==****=2--,;=*=-5",
"*%>>>**######+###*%&%*;*;=**=**##*=*#***=******+*##>#%%>*%@@##*;",
"+@#$#$#@@O@O..++##&%&#;###;*;*:=***==*#+#******==**>&;;&@$++O+O@",
"#%>>,>>>*==-<===<=;%%$####+#*+#==***=<-->*=*==*===>>;$XX.@++O@@*",
"%>>>99561231<******%$##+##++*#*#*#+*##*===-**=***##%%$$$%######;",
"*>%#%=2-=*###**=--**;*;***;**;=********##*>>=--******%&;;&**==55",
"&;>>--==***#**%%*#===***#*#*#****++###+####@#####*=*==--,>*====*",
"%;,232**==***%%#@*=<61<<*;;><=*#****=**=*>**##*%*##**=-*##**=<->",
".X OO#***#****>;;===<=<<-,,55:*#**-====**==>**>****#****=-263=#@",
"*%#+. O;*%*,-15-5-=*****$XO+*==<2-==<======**%***#*=**-1312*#+%*",
"==***+.@*--==<1=***++*<<1-*@#:====-<11176135-,**>*=*#+###@#+##==",
"*=****+++*--*##**=*@+.O#=566<=##***==<<66<1--*--22=*##+###++%**=",
"*=*=**=**++#=2-====**#+++##**#+***=****#@###;*===**###**######**",
"-=>***===**+O#*>===-<-<---=*#;*#**#+++.O.O+#%**=>***###***#**=--",
"#@%%%%#***=>>+$@+*=--<--<1--==--=*+@OO..OO+@#;;**%##*##%#****=*+",
"**>*%$@%+###*#%#OO##*=;*;*#O++**+#+#+#***#*++#****===--=****#++#",
"2<,>;&%%#%#%#%*######**=*#@+#=;+O#**-<<555=**+#**&#****==<<<<51<",
"**%%;&$%&%%&%&>*;;,-=*%#@>562=*+*==<<56<561161=******#@@*<677761",
"##%%&&&*>,,>*=*=,,,>*@@++#%#*=-*==;===-556965=*=**>=**&%##O.O.O+",
"O#**>,;,,-,,22=>$$$@#++@.  .O#=-25-=;;;;;>%###*****###&*#+......",
"<<2155,*%*#***%$$$@$####+&#+OOO++**=;*#%$O.O$#;;*#*##%%&**+*+#*=",
"+##@$%*=%#O.O.#%;&>*#****;;*#+*#+#+##*>;&&%>==&#%****%****#***=+",
"#++OO .#***@+O#$%>*=-=*;*=;;*=;**###%%%&&&&,-,;&%*%#**;**=***+++",
"==*#@OoO#*25-*&&%%;*=25->****;=*#*#*%$$%&>>,,,>,>,>==552-;***#*-",
"8662=*@O++#=56=;&##*##*&>,>&%**;***#@$$$%$$%*;>,5659687<-=-:-167",
"8613<<=+#+++#=,52-**##@+@##&#******%%%@$$O$.OO%=----;===5<686688",
"=,-2--2==+++OO$*=-=>*****===;=*=***@$$oXoO.$O+*+%@**##**=**@@#**",
"%*%;=----=*##O#O@%******=--2--==*##%$%$$$%%%*=;*%*#+@...OO@*;;**",
"**&;*;==-===***######****=**####*#%>>&>>,=>;#*##@@%#@#+#*2--==**",
"*>&;;;;;;;*==*=;**####**=;*=*#**=*>%>>,64=#;*;;-2-****---,-=*##+",
"%#%%%%#;*++#**##@++@O@$%**+*#***##*>-,,&@#****;-<=;==2--*;#%#++O",
"%%%%$O#+***++#;*#%@@@@$$#++#****>*=>%$X$@*****#**;=2===;*;=;#**;",
"%%&#%####+***+****==,>,,,>**=<=*-**%**;==**=*=**:<<5<565-=**,*;*",
"%%#&*;=:-=--:-=;=5535,9>,*=****#*#*#*%,--=**-====:;=--;#$#*****;",
"$..$++*=:===-2;=22->>$$#%*==**++*##@@OO@O$$$+%**##***+OO#****==@",
",,,,=====***++####>%#%>&&>**>>=*=***####%%$%%%%+*==####**=<63=**",
"-624<==:*++#+#*=>##&&&>&#**##>*===*==**;%%%%%%;*++++++++#*55*@##",
".++OO+++#++*==*==%##$$$##*******-======**;&;+;;%+O+++#+=-<*##OOO"
};
