/* XPM */
static char *result[] = {
/* columns rows colors chars-per-pixel */
"64 64 117 2 ",
"   c #3C1F12",
".  c #372216",
"X  c #3D2216",
"o  c #362519",
"O  c #3C2519",
"+  c #3E2B1E",
"@  c #362D23",
"#  c #3B2E22",
"$  c #3C3126",
"%  c #3E342A",
"&  c #411F12",
"*  c #452315",
"=  c #4C2516",
"-  c #4E2817",
";  c #442619",
":  c #4B2719",
">  c #452B1C",
",  c #4C2B1B",
"<  c #522716",
"1  c #542817",
"2  c #592917",
"3  c #512719",
"4  c #532B1A",
"5  c #5A2B1A",
"6  c #4C301F",
"7  c #53311E",
"8  c #5B311E",
"9  c #632A17",
"0  c #622D1A",
"q  c #63321D",
"w  c #60381E",
"e  c #6C391C",
"r  c #703F1F",
"t  c #442E21",
"y  c #4B2F20",
"u  c #453224",
"i  c #4B3324",
"p  c #4D3827",
"a  c #43362A",
"s  c #4B3728",
"d  c #45392E",
"f  c #4C3A2C",
"g  c #523423",
"h  c #5B3522",
"j  c #533926",
"k  c #5B3926",
"l  c #503728",
"z  c #523C2B",
"x  c #5A3D2B",
"c  c #473C30",
"v  c #4B3E31",
"b  c #523F31",
"n  c #633522",
"m  c #643B24",
"M  c #6B3E23",
"N  c #623E28",
"B  c #55402E",
"V  c #5B402D",
"C  c #4E4134",
"Z  c #524334",
"A  c #5A4533",
"S  c #5D4935",
"D  c #534638",
"F  c #594738",
"G  c #56493B",
"H  c #5B4B3C",
"J  c #674027",
"K  c #6C4126",
"L  c #63432C",
"P  c #6B452C",
"I  c #65492F",
"U  c #6C492E",
"Y  c #744424",
"T  c #7A4424",
"R  c #774A25",
"E  c #7A4924",
"W  c #70452A",
"Q  c #774D2B",
"!  c #7A4D2B",
"~  c #7E5027",
"^  c #7E522C",
"/  c #604632",
"(  c #624A35",
")  c #6C4C32",
"_  c #634E3A",
"`  c #6A4F38",
"'  c #744D31",
"]  c #6E5036",
"[  c #64513F",
"{  c #6B533C",
"}  c #745235",
"|  c #7B5332",
" . c #7A5936",
".. c #71563D",
"X. c #785738",
"o. c #75593E",
"O. c #7C5B3C",
"+. c #5D4F40",
"@. c #5F5041",
"#. c #615242",
"$. c #6E5740",
"%. c #6F5842",
"&. c #725B43",
"*. c #7D6245",
"=. c #7E664B",
"-. c #7D6952",
";. c #845327",
":. c #84542D",
">. c #86582E",
",. c #8D5B2E",
"<. c #845630",
"1. c #8E5C31",
"2. c #815D3C",
"3. c #8A6134",
"4. c #816543",
"5. c #836A4D",
"6. c #8A7458",
/* pixels */
"f d u { f $ u = - < < 2 2 2 2 h j 5 4 , a a a > i f , l C C v C C s 4 - - : - 3 < < s v i = =     & X u 7 5 5 k x 7 - E ] G _ G ",
"( F z ..A C u ; - < 1 2 2 2 5 z D k k Z Z f d t t u > d d f c d C f , - - - - - - - 6 f t         & * , i : - > # > > R U C G H ",
"a v v ( B C B - * X * * = * , i f C z Z g B C B f f d a a a c d C c d , - = , = - = : # > ; * * = , , > a > * + + + @ J s @ $ @ ",
"$ $ $ z s d f 8 1 = & * = = : i s v C z 8 7 Z G G Z Z C C C v f C C d 6 : = , , * : > * = : - - - , > u s > = u > # % U V % c % ",
"c a # f > u 6 4 9 2 = - * - = - , i l j j 7 B C C v j C D C l p v v p f p - s > : , , - = : , = a t ; ; ; > * 6 6 d f { B s D C ",
"v v a z + . . X & = < < = * X + + ; , i j , s s s s 6 c v p s 6 f v s d s ; t t > 6 : = & & * > u u ; = ; , , s d B s ..L : f C ",
"c v c ( z $ X * & = < 4 * * X + o . X u f 6 - , , - , s 6 - s u s a a d a s ; > > , > * = = = - f s , - - - : s f s 6 ^ K : i C ",
"f C c S j 6 - - 1 < < = * > s d > * . O a i 1 4 , > 4 7 3 p s s d d i v c f - - 3 - , ; = = - - f s d , - < 3 i i i = ^ Y = s C ",
"l v v $.V , p s i i f i 6 p p z p 7 6 6 d s 7 7 z i 7 7 s v v v f f d v v g 3 - 3 - - , = - = , f v v p - - : , 6 , = | K - p f ",
"l C v &.U p v Z B f C g 6 p f 6 6 i 6 , s a - - g - 3 3 l v v v v v c f f , = 3 3 - , - - < i f C C C g < 3 3 j 4 < - ^ Y - 7 , ",
"b F v 2.Y , p s f v s , 7 , , 6 6 $ > * ; u u - 1 - : : i v v f s f C C f y - - : : - , 4 p f C v v v 4 1 5 5 s - < < <.T 2 5 1 ",
"z z s :.Y 3 3 - 4 f i 3 < - < i B i 6 u u $ # * = 1 4 g v v v y , , s f f u : : i , - < , s f C c C D z 4 < : s g 1 < :.Y < 2 < ",
"4 4 4 <.T 1 2 1 1 - i i 7 4 - p v s , s s t ; & * * < g z p , , ; * s y y y i 3 g z 4 < < > s f C v v f u ; - f b , = ^ Y 1 5 5 ",
"n 8 5 1.E < 2 < < - 6 6 6 > 6 p v s 6 d f - 3 < < - : , g g l - : - , 3 , , i 4 l v 3 - , - a C c a a c v 7 , s u u * Q M - 4 5 ",
", > ; Q m , - - - = - - * > > 6 d f > f f y - : 3 < = : = , l 4 4 4 5 4 4 7 s g f s < 3 7 < p C v D G D f > = u u f > Q K , 7 - ",
"+ # + } w - * < - : * = - : * 6 s s s p d s , p - : , ; * > > = : : * ; ; u s y f j 1 2 5 0 h _ @.H G v u = , , s v , | P u u # ",
"h A Z 3.:.4 3 3 < = = = = : y p v i s 6 s C d f , i i = = , = * * * * , > 6 a d a u : - = , : s f s D D A 8 2 5 5 l f  .L > f g ",
"q L F 3.T , < = : < , : - s 7 p v s s , i f c s , 6 i = , , - < * * = - = , > s a s : = & & O   * X s z A m q 9 q h v O.K l ( n ",
"= u a Q e = = 3 < = < < 3 f f f v v s f d d d i , i i : - - : : - = 6 i : - > i c s = * = 3 : = : - i u s 6 , : ; i v _ A D Z y ",
"= > u R e & = = = = - = , f C C v f s i C C C f s p , y = 3 , : = = > 7 > : - i d , : - 3 2 g k 5 5 3 g 7 > > ; > Z D { A v v s ",
", , f ~ e < < = - - = = , s d C C C 6 < , p C C g i t y : - : = = = : i g 4 4 i , , < 1 1 < g z 4 4 < = O + u f h x Z _ z c C C ",
"l 4 i Q e & = = - 1 1 < 4 7 Z C C f , - - s C f g g s y : : ; : - < 3 Z j 3 - , - 3 2 1 2 < g v 4 2 < , s Z A A 4 p v _ z c C C ",
"i 1 3 ^ r < < < < < 1 < 7 B C C C f 4 1 3 i a d d f v , : : 4 4 5 5 5 x , = , 3 < < < < 1 < y s 4 = 4 Z H F V l y z f ( p t f c ",
"y 1 2 :.T 2 < < 1 1 1 2 7 j D A z 7 7 4 3 i f f v g y , ; : 3 : 3 - = , = , - < 4 < - < 3 - , , = * ; s C s i ; ; u u j u # % % ",
"f - * R e - - 1 < < < g 7 8 Z j 5 1 < - 3 4 g z f 1 - , : , , : : - = * - = - = - - y : : > ; * * * = s v f f - : p s A f v C v ",
"s , * Y w : - 1 < 1 4 j 7 6 f 6 < 7 5 7 4 8 5 z l < : : 4 - , : - : 1 5 2 5 4 1 < - , - 3 : = = < g i j f b Z h 5 q m o.( H H D ",
"z 4 4 ;.Y , < 6 - < 4 h 7 6 d u - - < , 3 3 2 y y g 2 3 3 3 : - g 4 - - < 2 1 2 2 3 4 3 < < < < 4 v s 6 l Z z 5 5 7 g / f C G H ",
"z , = :.T 6 , i 6 > : > > > s 6 - < , , : - : 3 i z - < < < < = - , < < = = < 1 1 3 4 - - - = = , f y - i s f i s s a b f c C C ",
"a > * P m t a u + # > O O O ; : > - - , : : = : , s , : < - 4 4 < : < < 2 = = : = : g , , 3 < g v v i 4 p f , , a a u f u % a a ",
"f g : | ' Z C C p B Z C Z B 4 7 7 < : , ; ; = : : > = = = = , < 2 < < 2 2 2 2 3 , 4 f f g 4 7 v D z j g , > O * O u % B a % c c ",
"v p , O.} F H A 8 V H A D C p 7 7 4 , * t : , & * , = & = : = - - & & 3 = < 3 2 4 j Z l f j f C C f 6 > , ; ; * * , a [ f c C C ",
"Z z s ] F b V h 7 f C d d d f 6 5 4 < - : y v 7 , , - - : 4 3 - 3 < = = = 3 & : y p v v C j f C C f d i , 6 - , , , s { Z C G +.",
"C 7 p *.] C j 7 p c c a c C c 6 = - < 1 2 y v s , , - - : 4 = = = = & = = & < & = > d d s t s c c C C f 7 2 5 4 4 4 , { Z C D C ",
"a B B =.{ B 7 6 j C C C C f f 6 : - 1 0 0 n F D 4 , - 4 4 l 3 = = < < < < < 2 4 < i f f d d v c c c c s , 1 5 - = = , ` A Z G D ",
"# $ # I j u 6 i u f C C C c f p 6 4 4 7 5 5 x D h 7 5 5 V D g = < < 2 2 2 1 2 , 7 z b f f p Z C C v c u i - : 3 1 2 k 5.[ C c % ",
"4 6 > U 7 o + B s v C D D G H Z 8 7 7 4 3 : i d ; X X * s C j 5 2 2 2 < 5 2 4 g 7 l z l 6 > p s C v v v 4 3 5 k x 0 j %.Z a f f ",
"5 2 = ^ J ; . > B D D C C D G B 7 i , = * - j F k g - > i p v p l 5 2 2 9 9 N m q x x h A j 7 i C C C C t * * , u ; > ( V a h g ",
"7 7 - } m : > > + s D D C C d C 6 4 , * *   t d z A m / F f f c f - 1 4 5 2 h n q x k h B g 7 x Z Z C C d ; * t u 6 $ _ V s p 4 ",
"1 4 - ^ M - < 7 , u a d C B x j 4 < < - - = > d a a = i c d , i f p 3 3 < - : , , u * = - - 7 j j f C v c u - - - > u S k 6 j 7 ",
"2 8 - >.Y : < 4 7 f c a a u 6 6 4 4 5 2 2 2 k z Z g 3 i v f , - i f s : & & O # $ + * * = - 7 f g f f d c s - - - , u ) A p 8 4 ",
"* > s { V > - , 4 p l s s 6 u $ * < 4 1 2 5 5 8 A z j j C v 4 4 g s a u + O o @ $ $ * * = - p s p f c c f i , = > 7 s { A f i : ",
"j x C S p > O 6 > > s 6 > 6 s a > ; ; = < 1 , 7 C C i u $ d i - i s % a 6 > 6 B C a - * * ; i s p v v D z 7 4 1 - < a $.A % a s ",
"B B C ( z > 6 d d u u s 6 6 d C d > = = - - 4 f f u > % f C f t u v c z 7 8 8 B F H j < - , , i i f v c i - 4 4 1 5 Z -.[ G H H ",
"p B f { B i s f C f f v f f C C B 6 3 1 < < s d > , h A Z Z p s d v C B x V V V F H h 9 9 0 5 i f C v s - = * * < x H 6.%.S [ A ",
"f p s X.S a , Z D z z D C Z C Z G Z 4 3 - = u > ; > , > y 4 4 - 4 p p 7 l z C A F H n 0 5 2 3 p v C C l < - > , : > $ I f + % u ",
"$ > ,  .{ j z Z V h 7 x x D D v f a t ; & * > O X X     & : 2 5 2 8 h 4 3 i B p f Z u 6 , = = f v v f , * * - - : > $ A s @ @ + ",
"z m 1 2.] 8 V C i < = - - i s a + u > ; * = i , = ; : & & & * & - = - 3 < - f f d a $ $ u s s C C s s , = : : : : 6 s B C a D B ",
"s i * L x > g Z i * X X   X > s , i - - - - f , = 3 < = = = = = * = > i = - f C f C C C C C v v d i 6 , < : - - - 1 u S p C C s ",
"% s X x g   o s s < - * * * u s > 4 4 2 2 4 b y 3 4 3 3 < < 3 < = - t , : ; s C C C C D D D C C f > 6 - < - 6 < < 4 s _ z a a u ",
"D z i [ x X O # > < 5 9 2 - s c i ; : < 1 h Z b 4 < - - < < 3 < = = - , , ; t y p C D D D D z D Z j j 7 7 h x 5 1 4 f } V C C C ",
"#._ F *.U : * # ; & = 1 0 8 j C s = : = - = s f 4 4 < : : = - 2 = = , , ; * ; ; > d c c C C f G F n m ( H L I 8 5 7 Z 2.} +.#.@.",
"#.#.F 4.' 2 2 - , * & * : 4 x H x 4 < - = * > ; : = : : : = - < < < , , , ; ; ; ; a % % % u s z z 7 l D D B f 7 8 x H 5.&.@.#.#.",
"D D p O.! 4 5 4 1 = = * & X t v l 2 2 < - , i i - 3 2 2 3 2 < 1 < - : = ; # O   + % % % a u d u > i d f C d s 6 7 s d A f d C C ",
"C f i ..W 4 5 2 2 1 = - : ; u a ; : < < 3 , f v z g 2 5 2 2 1 < = = , > > i ; * ; d v v z i 4 i d s 6 % $ + $ # $ % d S B C C C ",
"C Z v { / 7 4 4 1 2 1 1 3 - , > : * = = - p C C C v y < * : : = - 3 i s l , 4 4 h Z Z v s , : > > > i s a u d d B C D &.F C C C ",
"C p f *.) y , 3 < < < 1 < < 4 - - = : > ; i v v D v l 4 = = : 3 4 l f v i 4 8 0 h v f v s 3 < 2 5 7 p 6 6 i B Z D F D $.B c c d ",
"s , > X.L * ; = = = & = = < = : & & > O * O s c v f * = = - < p i u v z 5 8 7 y a a v v s : 3 5 2 7 p 8 7 B B C f C d { B $ % % ",
"f 7 ; Q m * ; = = = = : & = : : : = y > ; ; u d d > * = < < , f f 4 v i : *   # d v v v , < = = < 1 4 7 8 7 7 B f B f %.A C D D ",
"v z , :.r = - - = = = = = = < 3 : 3 5 4 4 4 Z D Z 4 1 < 1 4 j v z , f i 2 & 3 5 g Z v s 4 2 3 3 1 5 8 8 7 V 8 h z p s { F C D C ",
"v v , ;.r - 1 5 2 1 2 2 1 5 4 3 4 5 0 0 h 5 A Z g 1 1 < - < i c v i , , 3 3 3 2 4 Z Z g 2 2 2 3 1 2 7 7 7 B 6 > > 6 6 X.( d C C ",
"t % O Y q ; > 4 2 < 1 2 2 2 4 4 g 5 5 4 , * i u , - 4 1 3 - t a v y = & & & & & ; s a t * = - = - - - 6 u 6 + * 6 7 6 ^ R z h > ",
"h F z  .Y f 7 4 < < = = = & = , : = : : , = , , 6 4 4 4 g g b v v s = < 3 & = : ; u c a > : = = - 1 , 6 a 6 : = 6 6 5 ,.X.l 4 < ",
"8 A Z 4.U C g 3 < = = = = - < , - = : , , , , , 6 6 , i y i C C D b 3 1 2 3 3 3 - , v f 6 * : = * ; ; + u ; * : > p 8 ;.A u > * ",
"+ u a I s a t & = * & - < 4 < 4 4 - > ; ; ; u > i i - p i f v v D b 4 < 2 2 3 2 < , v v s - < = * ; ; ; > * = 4 7 j - Y B $ a ; "
};
