/* XPM */
static char *result[] = {
/* columns rows colors chars-per-pixel */
"64 64 151 2 ",
"   c #32230C",
".  c #3D270D",
"X  c #3D290E",
"o  c #2C2717",
"O  c #2B2917",
"+  c #262C1D",
"@  c #2B2D1D",
"#  c #332612",
"$  c #342B15",
"%  c #3C2D14",
"&  c #342E1B",
"*  c #3B2E1A",
"=  c #2E311E",
"-  c #3C3116",
";  c #34321D",
":  c #3C331C",
">  c #3D381E",
",  c #292F20",
"<  c #362E22",
"1  c #3B2F22",
"2  c #372F28",
"3  c #2E3322",
"4  c #2F3824",
"5  c #333523",
"6  c #3B3522",
"7  c #343925",
"8  c #3B3A24",
"9  c #3D352B",
"0  c #353C29",
"q  c #3B3C29",
"w  c #452D0E",
"e  c #4B2E0D",
"r  c #4D320F",
"t  c #52330E",
"y  c #5B360E",
"u  c #432E12",
"i  c #482F12",
"p  c #402F18",
"a  c #443215",
"s  c #4B3313",
"d  c #4C3817",
"f  c #43341B",
"g  c #4A351B",
"h  c #43391E",
"j  c #4C3A1D",
"k  c #523514",
"l  c #5B3517",
"z  c #543915",
"x  c #593914",
"c  c #52371A",
"v  c #5C3518",
"b  c #523B1D",
"n  c #5C3D1C",
"m  c #623D1D",
"M  c #433523",
"N  c #493621",
"B  c #443A24",
"V  c #4B3A24",
"C  c #42362A",
"Z  c #443A2B",
"A  c #4B3C2B",
"S  c #533C24",
"D  c #5A3D22",
"F  c #523F2B",
"G  c #453C32",
"H  c #4A3E33",
"J  c #503F30",
"K  c #613D20",
"L  c #37412A",
"P  c #3C412A",
"I  c #4B401F",
"U  c #55401F",
"Y  c #5F401F",
"T  c #63411E",
"R  c #6B421C",
"E  c #74461D",
"W  c #7D551F",
"Q  c #434125",
"!  c #4E4326",
"~  c #44412A",
"^  c #4C412D",
"/  c #544125",
"(  c #5C4225",
")  c #53412C",
"_  c #5B442C",
"`  c #5D482F",
"'  c #454632",
"]  c #4C4135",
"[  c #4D4339",
"{  c #534433",
"}  c #5A4633",
"|  c #564836",
" . c #5C4935",
".. c #51463A",
"X. c #54493D",
"o. c #5B4C3C",
"O. c #644222",
"+. c #6B4523",
"@. c #6C4926",
"#. c #63452B",
"$. c #694729",
"%. c #654C2F",
"&. c #6C4C2A",
"*. c #744720",
"=. c #734C23",
"-. c #794E25",
";. c #714C29",
":. c #794F2D",
">. c #6E5129",
",. c #755325",
"<. c #7C5324",
"1. c #73542B",
"2. c #79562C",
"3. c #76582C",
"4. c #795A2C",
"5. c #604631",
"6. c #624B35",
"7. c #6C4F34",
"8. c #624D39",
"9. c #6C5234",
"0. c #6E5936",
"q. c #64513D",
"w. c #6A533C",
"e. c #745433",
"r. c #745B32",
"t. c #7A5D32",
"y. c #73553A",
"u. c #74593D",
"i. c #7A5B3B",
"p. c #7E622E",
"a. c #7B6334",
"s. c #574C41",
"d. c #5A4D41",
"f. c #5D5145",
"g. c #615346",
"h. c #6D5742",
"j. c #6E5843",
"k. c #635649",
"l. c #725B44",
"z. c #7D674F",
"x. c #7C684F",
"c. c #835B2B",
"v. c #885F2B",
"b. c #825D34",
"n. c #86632D",
"m. c #8D652E",
"M. c #856833",
"N. c #816439",
"B. c #816241",
"V. c #83684A",
"C. c #8A734F",
/* pixels */
"f Z N | ] C M ; 4 0 7 0 0 0 0 b ) h > f g g M * B H > V J J H H J V 6 7 7 5 q : 0 7 V ] Z 3 3 + + @ $ u d P P z y s > 7 { f.f...",
"`  .F | X.[ 9 3 7 0 0 L L 0 Q / | A ! ( F H ] M 6 M * A H A s.G ..A 6 6 > 7 7 : 7 7 8 H 6 @ @ + , , = a g 6 ; a w a : 6 ^ X.s.s.",
"G H J A ] ..^ ; + + + + , , & s Z H F A g A ] ^ Z C M 9 6 M G C G G M 6 3 3 = = 3 , $ * $ O = @ = ; * $ M $ + * . * < # < < 9 2 ",
"2 2 9 C G A V / p.,.1.3.r.3.,.,.e.9.y.r.<.<.t.w.w.u.i.w.8.6.w.6.8.h.7.&.9.r.0.3.3.1.1.1.2.2.3.3.r.1.4.e.y.1.@.O.% * M % p G G 9 ",
"H M 1 9 6 * k c.,.;.+.@.@.@.+.K K S / O.R R #.) ) } @._ { { _ D J F D 6.@.&.6.$.+.+.@.@.$.O.O.R $.O.O.K K K n m +.N V A N A { ] ",
"H G C 9 * . E g + 3 3 4 3 , + * $ $ X s f : M B C f * G H M N % H A N C M & ; * X X ; @ + + + & M 6 , , & ; ; f { 6.k A N ; H ] ",
"H G G G N $.p @ , 3 5 0 3 @ O * # o @ 6 V f ; : - % 6 C 6 ; i i N g N C G B * % - a % @ 3 3 4 6 G g : 5 5 5 ; B g _ *.s $ ; Z ] ",
"H ] ] [ e.v & 6 6 5 ; ; @ * g A * $ O $ C B : - a - > h 6 B j j G N u A H Z 5 ; ; : : 5 4 3 5 5 A f A * 5 5 5 N g f S 2.h ; G ] ",
"N ] ] w._ a g j f h V f a t c V i s u 6 G M > h ! a f h c H ] Z N H A H H Z 5 ; 8 ; 8 5 5 ; 5 ; G H ] Z 5 5 4 : : - 3 2.O.; j A ",
"g { ] l.+.N H F S A ] f r r g a i e a 6 N Z 6 5 q : ; ; N Z [ ] H H H A V M 3 : : ; 7 5 5 ; B V ] [ [ B 4 5 7 N q 5 3 3.@.5 f > ",
"^ X.] b.@.6 V N N H Z > > - a a u g % & & f 9 5 7 5 5 5 Z G ] A C G H F H M 5 5 : 3 5 6 > Z Z ] ] ] H 6 7 0 q A ; 4 4 t.&.7 8 0 ",
"A A Z 2.E ; 7 ; 6 A a : 5 - : f A g u p : M 2 , 5 7 q q ] ] H 6 5 6 N V B M ; ; f 6 4 5 5 B A ] H ] ..H 0 7 5 Z B 0 7 r.&.7 7 7 ",
"8 8 : t.;.5 0 5 0 : s s a - : g H c u M M 6 5 , 3 5 ; q A j - 5 < ; M M : f f 6 f A 7 7 7 - N ] [ F H A M & ; B F 6 3 ;.$.7 0 6 ",
"d I 8 a.;.7 0 5 7 4 - w - w w N H g u A V 6 5 5 4 3 6 : g N V 6 5 6 6 5 6 : a a V ] 0 ; - - N H G 6 C G A f a a f 6 & 1.T ; 8 > ",
"- - $ >.O.; 4 7 3 3 ; ; ; % - a Z A u Z Z 6 5 6 7 5 3 5 ; > V M 6 8 B q 6 f V s d V 5 : : ; B [ [ ..s...H ; * u i Z 5 ,.R - h : ",
"% u X E D 3 3 4 5 5 3 3 ; = ; - N V s N Z N 6 M ; 5 - & = $ & 5 6 < < 5 5 M M f H B 5 8 0 P / d.g.s.s.H h = ; a g G f ,.m w f % ",
"j _ S m.1.q 5 7 4 3 3 = = ; f f ^ g s i C H A A : a a 5 5 u & 3 < & , ; & i N f Z M 5 3 3 5 5 N C Z .. .{ P 8 P 8 B N <.O.p A N ",
"I U | n.;.7 5 4 7 ; - 8 7 B 8 B H V s u f A G N - a s ; 4 : 5 5 3 , 5 5 - u ; V G B ; ; 3 @ @ @ & @ M A _ b P P Q j H t.+.j X.' ",
"; a 9 ,.O., 5 7 4 5 : 5 8 A A V H A k N H G G N u i s ; 3 5 5 5 3 3 q q ; ; : a Z M ; $ 3 5 5 7 3 - f f N > 6 ; & a H q.} X.] > ",
"= ; 9 ,.K 3 , 3 3 4 3 3 ; A A ] H A g f H H ] Z g g 6 > 5 7 7 5 3 5 6 f - ; ; s N : ; 5 7 5 V B 8 8 6 N f - . $ a ) ..w.} G ] Z ",
"6 > Z ,.O.4 4 3 4 3 3 5 ; f A ] ] ] 8 ; : Z [ ] f s 6 6 < 6 < 5 4 4 < N s : : f : - 7 7 7 7 G S 6 0 7 = $ X s A B ^ [ 8.) G [ ] ",
"h M 8 ,.K 3 3 3 = 7 0 7 h d ) [ ] A f = 5 N ] ] g s V 6 5 6 5 6 5 5 > { ~ 5 : : 5 7 7 7 0 5 q A > L 7 ; j ) ( ) B Z H 8.A H ] [ ",
"N 7 > ,.O.5 4 5 = 7 7 7 d V [ [ ] V f 7 7 M B G Z A H 6 < 6 6 6 q L 8 V 6 3 - : 7 7 4 4 5 4 8 Z 7 3 6 { s.| / V h A G 6.N : A G ",
"6 7 7 4.=.7 7 7 8 7 7 0 d B ..{ d h h 5 6 h A Z G Z 6 6 < 7 6 6 6 7 = a 5 4 ; 5 7 5 5 7 4 5 f - , = ; Z ] B a ; $ M u F M 1 9 9 ",
"Z 6 3 @.n ; 7 7 7 4 7 B j h { N > 6 7 8 7 : s V A 7 5 7 5 7 6 < 6 4 3 * 3 4 7 3 3 5 a 5 3 ; ; = = = & h ] Z Z ; 5 s d 5.A H [ H ",
"g : = @.n ; 5 7 7 4 h g f > A 8 6 > 8 0 8 h 8 ^ Z 7 5 5 6 7 7 6 6 5 7 0 0 6 > 7 7 7 > 5 5 ; ; 5 7 M g c S ] ) B 8 Q b u.8.s.s.s.",
"V h 6 4.E : 5 h : 7 8 h a f H 6 ; 5 7 > 6 5 7 6 : B 7 7 7 6 8 ; a > 3 4 7 7 7 0 7 4 > 8 7 5 4 5 7 ] V f d { A B > h M 5.H [ s.s.",
"A > ; 4.*.- * f w * ; - - % N a 5 4 6 - 6 5 5 5 h A 8 5 7 7 3 ; - - 5 5 5 4 4 4 7 7 ; 5 5 5 3 3 : Z 8 ; : V Z g j g B J Z G ] [ ",
"C 6 & @.m p M f X * - $ # $ $ $ * = 5 ; 6 ; 5 ; ; Z ; ; 4 7 6 0 7 5 5 7 7 3 3 3 = 5 a : : 5 7 B S A h - f b M M N C M F C 9 C G ",
"A f 5 1.*.F { F d A ] { { A h h d : 7 5 ; & 3 ; * - ; 3 4 = : 5 7 5 7 7 0 0 0 7 8 5 A Z g > 8 ] ..F k s f % @ o & p C F M G G G ",
"F b f 2.-.#. .} j { o.{ X.] g - s - 4 3 * * ; ; = - = = 5 ; ; 3 5 3 3 3 3 4 7 7 q A ] A A g Z ] ] N e * 6 * & < < * C 6.G G H [ ",
"{ c e ;.5.J v d h Z ] Z G G G h 8 ; 0 7 5 f A 8 - : 5 4 5 a 5 7 4 4 3 5 3 4 3 4 q f ] ^ ] j ] ] ] H V M 6 - 6 6 6 6 C w.J s.s.s.",
"j k r c.7.! r s i G G H G H A u ; 4 7 ; 8 9 ] Z - - ; 3 ; s ; 4 3 3 3 3 3 3 3 , = ; Z G M p C G H H s.A f 8 L L 6 0 8 9.{ [ ..[ ",
"c l c z.y.b d s g F s.H H A Z u : ; 7 P P Q X.[ 8 > 6 q 8 Q ; = 3 4 4 3 4 4 5 6 6 a A Z A G H H H G C M - 8 0 ; = = - %. .[ s.[ ",
"1 f < +.l u w r u A H [ ..H A j h > > > P > ) X.Z B q q / ..N 3 7 7 0 0 0 7 0 : a c F A M V [ [ [ H H M a ; 5 ; 8 7 ~ x.w.[ G C ",
": M * +.v   . z V H G ..s.d.o.) V h a : 7 ; B G 3 $ & @ B ] ] 8 0 0 0 4 0 7 h a h j V j s - M Z H H ] A 8 ; 8 ! U P ^ h.J C V V ",
"6 8 7 1.O.$ # w S | s.[ [ ..s.{ > h : = = ; ^ | j B : ; e N ] M h 0 0 0 L P / n Q ) { Q ` j s f H [ H H 9 , = - f & * 6.D i s g ",
"a 8 > E Y : % X . N X...[ H G H f a ; & @ O ; Z b Y U ( _ F G Z A : 4 0 0 0 Q Q Q A ~ Q ^ g r z D | s.H G 3 = : f f * 6.K g k f ",
"> 7 4 1.T ; 6 - % p G C ../ V j > ; ; ; 7 = : C Z a $ N G Z 6 8 A g 8 3 5 4 - - % f ; 3 ; ; a t k c H H G 9 5 ; & * f 6.S w d f ",
"0 L > 3.O.; 8 M s V G C C f s 6 0 0 > L 0 7 A ^ ) h : s A A 6 ; s V M * @ @ @ * 5 * = 3 7 ; s t t g H G G M - 5 ; : a %._ k h 8 ",
"@ : M 9._ * 5 f a f V j g w p C = ; : 0 0 L 8 B ) n z k F ] 8 8 s g A f . O # * 9 6 & , ; ; s c k g G H ] a * 3 ; s f w._ A M * ",
"j b ] 6.A * & u % u N u u w g G ; ; * 3 5 7 7 8 ] ] i p 9 C a : s M C p w - - ^ H Z 5 3 = & h j s F ] [ V a 7 7 5 : M y.{ C M N ",
"n z ..8.A : p N Z M f N i w N H Z ; * 3 3 5 6 V A 6 % Z A { V * p G H S s k j / | X.Z 5 ; ; a g f H ] G 8 5 5 8 7 q ..x.q.o.5.X.",
"g S G 9.F N N H [ N V ] j A H ..] B q 7 7 5 B Z - : Z { { ^ M C c A { S z x x n  .s.' L P P 6 f A [ ] Z 5 5 & ; 4 ' d.C.h.o.7.( ",
"Z g M 3.$.M f H ..S ^ ..J [ ....X.{ B 6 4 ; M ; % % - * f 7 7 6 f N V > s z S / o.o.] P q 0 5 f H [ ] N 7 3 5 5 5 9 C +.V * p e ",
"M - ; 0.&.k S | _ V B ^ ) | ..H Z Z * $ , & * $ O # o + , 4 7 0 q B d 8 6 N S k S ] f 6 ; = ; A H H A % < , 7 6 < 1 2 F M * 1 . ",
"l V 6 a.&.j S J g ; ; ; ; f M M * p * * 3 ; f 5 3 < < , @ , , , 3 3 ; 6 5 : V A Z G 9 9 6 q Z [ ] V s ; 5 5 5 7 5 - C } A G ..F ",
"M f @ #.S & V J f & @ o @ O p f f g : ; 5 ; N 6 4 5 4 4 3 3 3 3 3 = 6 q 3 5 V ] F A A H ..[ H H G a w f 5 < 6 5 5 7 M } F H J g ",
"Z N O _ g   # M N 7 5 $ = & M M p 6 6 7 0 6 ^ h 5 7 4 7 4 7 7 7 3 3 6 5 ; & B H S H { ..X...[ H A s w - 7 7 a 7 3 0 Z 8.F G C f ",
"..V f 7.S $ % % * 5 P q 0 5 B G f 5 7 5 0 B | [ q 5 7 5 4 7 7 4 4 3 ; - ; 5 * f N H s.s...X.[ ..F t t a h j b P 0 6 H 1.$.G [ [ ",
"f.8.| b.+.5 ; % $ @ 5 7 P 8 ) [ Z ; 5 = 3 ; Z Z q 7 7 2 2 4 4 7 4 4 * % * 5 $ & * C G G H ..b | ` b /  .8.U T B 0 h ] c.:.s.g.g.",
"k.g.` B.>.0 ; ; 5 , @ @ ; h ] s.' 0 7 5 3 ; % $ < 3 4 4 3 4 5 4 4 5 f : : & < < & C 9 G 9 p N A ^ B ! ....S c f > U X.V.u.f.k.g.",
"[ | b i.&.8 B 7 7 3 3 = @ O 9 H q 8 0 3 5 - a M 6 7 7 0 7 7 7 7 5 5 : & * 1 @ $ * C 9 G M u j u % a N H H N g i h M G  .A G [ [ ",
"] ] u 9.$.f > 8 0 4 4 3 ; ; 6 9 ; ; 7 8 : a A H A Z 0 L 0 0 7 7 4 3 - * 6 M 1 @ < C G H V a f s V f u C f % 9 1 * 9 C 6.J H [ [ ",
"[ ] A w.( f : 7 0 0 7 7 ; 3 - f ; 5 ; & ; f ] [ ] ] : 8 4 3 * 3 5 ; N V N 6 6 q A { J [ N a 3 * : - i N p N C G H s...l.o.[ ..H ",
"] V A i.-.: : 7 7 4 7 0 7 3 8 : ; 5 ; % $ h H ] [ ] d ; 4 3 5 ; q B A H h 8 ~ Z j F Z H Z 5 7 7 q f t a u i F F ..{ ..j.H G G G ",
"N 6 f g E S & 5 3 3 3 3 3 3 3 ; = = $ $ # $ M G H Z 5 3 3 3 7 f h 6 H A Z q q 6 6 G H H Z 5 4 0 7 8 r s s z S ) S Z 8.F C C G G ",
"c f - * p K S 3 3 3 5 3 3 3 ; ; = = - % ; ; f G A 1 , 3 5 5 a j g 6 ] B 5 3 @ ; Z ] H G 6 4 5 5 4 0 ; s r r s V j :.7.N H H s.H ",
"A S M * 6 ; @./ 3 3 , 3 , 3 3 3 = 4 8 : : 8 ] [ A 6 4 4 7 8 s S V ; Z 6 4 3 7 7 9 ] J Z 5 5 4 4 4 L > h s z d I ,.c.g N ..H H H ",
"H H : 6 6 ; h 4.a.a.a.i.a.4.3.,.,.3.p.M.M.n.N.i.v.4.r.r.>.>.=.} 6.9.-.-.=.=.1.,.,.9.h.9.1.1.1.3.1.,.W <.<.<.E =.K i i g G A ..[ ",
"p 6 & @ @ % - B >.%.>.>.&.&.R E E =.@.@.@.+.( n R R O.@.R D D C A ( D D K n v m n A A S K O.$.O.O.T O.O.m v z c a a - - f c h : ",
"Z o.^ Z > A f > 7 3 3 , + + = ; ; = ; ; & < : - i p 5 : f B H ] ] B 5 3 4 , 3 3 & M G M - ; 3 3 4 ; - : M X * ; w a B ~ S l 6 5 ",
"B } o.] ) { B > 7 5 3 3 = 4 7 > 8 = ; 7 6 6 f f s s - s : A ..[ X.) q 7 0 0 7 0 7 6 ] A f 6 7 3 3 & % % Z 5 = - w Q Z ~ H i - 3 ",
"# f V 6 h M 9 ; = = = 4 0 0 > - 6 5 * 6 * * a ; f s : h f A [ [ s.) 0 0 0 7 7 7 7 M ] ] C 5 0 3 = @ % $ - 3 4 : z j 8 7 C M 6 o "
};
