/* XPM */
static char *result[] = {
/* columns rows colors chars-per-pixel */
"64 64 71 1 ",
"  c #1B1C2C",
". c #1E1E34",
"X c #1E1F39",
"o c #1F203C",
"O c #212135",
"+ c #22223C",
"@ c #28283D",
"# c #512D1E",
"$ c #4F2F24",
"% c #4F3028",
"& c #543125",
"* c #593425",
"= c #5F3A27",
"- c #53332A",
"; c #5B362A",
": c #57382F",
"> c #5D392C",
", c #5D3A31",
"< c #623B24",
"1 c #633C2C",
"2 c #623D33",
"3 c #683F32",
"4 c #623E38",
"5 c #65412E",
"6 c #69432D",
"7 c #6D492E",
"8 c #664132",
"9 c #6A4333",
"0 c #6C4A34",
"q c #664239",
"w c #6A443A",
"e c #6D4C3A",
"r c #714D35",
"t c #70473C",
"y c #72493D",
"u c #6F503C",
"i c #745136",
"p c #73523B",
"a c #78563A",
"s c #1F2141",
"d c #242444",
"f c #292945",
"g c #26264B",
"h c #2A2A4C",
"j c #30304D",
"k c #262752",
"l c #272952",
"z c #292953",
"x c #26275A",
"c c #27285C",
"v c #2A2A5B",
"b c #303056",
"n c #31315D",
"m c #262760",
"M c #272864",
"N c #2C2C63",
"B c #2B2C6B",
"V c #333364",
"C c #34346E",
"Z c #38386F",
"A c #333374",
"S c #6C4744",
"D c #6D4C41",
"F c #734D4C",
"G c #745442",
"H c #785743",
"J c #775944",
"K c #7A5B45",
"L c #7B5D4C",
"P c #7A5D51",
"I c #7F645F",
/* pixels */
"z@dD,Xdddggzgkkzxzgd++O+ddggggd+kdgddddgkdgdds+....+gkvmvkdt3mBV",
"CvgGqd+Xdgggllzxzkzzgdd++++++gdsgddggdddddd+X..  .+dddd+..+33kvB",
"fgsD4ggd..+++Xdddgggggghdd+++++dddddddddg++X..+++++++++... <#  O",
"o o8-dgvzd.++ddddggkzzxvzzzgdggdggd+ddddd+++dggggd+++d++...3*O@@",
"fO.=%odkccd+sdddddgzzzgkggkghgkdggddgdd+d+gdd++d+++.+.+++d+7<ggh",
"ffo1# ...ddgd+..O++fgdgdddd+ggd+ddd+d++.+d+++.+++.+++gdddgfy3shh",
"h@o0;X.X++gkd.    .+ddgdddddd+d+++++++++++++++dgd+dgddd+dddy3+dj",
"jhse,sddggddXddd+O..Odggdsdgggdd+++ddddddddddddddd+ddggddddy3dhh",
"hgde2ddddggdddggggddOdkkgggzggdf+@dddggdddddddddd@fdgdddgddy2dgh",
"jzdy4dgkggdggddgdfddddddgdddddd++d+ddddggdd@dgdddfdgdgggggdr2dzh",
"nvgF4dddggddgdddd+++O++dgddd+ddd@d@@+@ddddggdddddfddgxkdddgyqgzb",
"zhdy4ggddddggdgdg@+d+OOOggzgd+@fdfdd++ddddgdgdggddzxggddgzkFqgzj",
"bzgH3kkgkgdgggddd++dd++OOdgggd+++@@@ddddfggggd+ggggd++ddggs0qkzn",
"VvkK4gkggddddddddd@d@dddddddggff@dddfdggkgddd+ddsXXdddg+++Xe2shn",
"fdoe2sddddddd++dd+++dddfggd+dgggggzfffgggddgggdddzczgd+++dse,dhh",
"+O.72+ddddd++++dddddddddddd++++d+@+++++gdgkkvvvbnvvd+dddddgr4++O",
"VNcKelggdd++dddggddddddddddd+d+++++++d++X+dddddfddzvvvxzkkde>+gb",
"AVMJ9gdddggddddgdgdddddddddddddd+++d+d+dodd++..O+OdkMNNNNzdp,zVZ",
"f@+0>+ddddddggggddddddddddddddd+dddddddddd++dddddd+ddggd+ddyqlgh",
"f+X9>s+dddddddddddddgddddgdfdgdddddddddd+ddggglzzzgggdOOdkxy,dfh",
"hfd0>gsdddddddddddddgdgkgdd++dd+d++dgggdddgggglggkgd..+gvvsw>sgh",
"bgd0=d+d@kkgkckgddggddddggd++f+fddkckgdddggkggggkzgddkvclgge,dhh",
"hhg02sggdgkggkkgkkgggdd+ddf@@ffgzxzzgdddgggggdddgdgvBMvkdgd0;off",
"fgkpwkggkgggkkzzzhzgddgdddd@++ddgg+dddddgggdgddd+++dgdd+ooo5& o@",
"hfs0>sggdggglzzzkgggfgggggdf+f@+dd++ddgddddd+++X++dddddddfge:gfh",
"f@o7*dgggghggdddkgzhzvvzgddddffdgdkzkkkgggdfgdddgdggghzxcNMPSMbb",
"bhgi2gggdglgggddddhdgdgddhgggdgdggddgkkggggggddgggdgglzzglge,kvV",
"jddu3ddd++dd+Xdddddd+dgdghgdggd+ddggddgggdgdddddd+@ddddfdfo8-ofb",
"@+o6;o+XXXX...XX+ddd++ddd+ddgdkkgdggkdd+ddgddgggggdhffd+ooo5%oo@",
"ffdr6ghhgglzzzzkzgfd++++++++d+dgkdgdkzzggggdghggkghhf+o..oo5&o@f",
"jhfieNvvvvNxcggghddd++dd+d++d++dddd+ddgkzgggggddgdd+@oOOO@d6;sfj",
"jf+7,kxzkdd++ddgzggdfdfddgddgggggddddddd+dgghzzdgdddgdfdfds0>kvn",
"jfhy3kkggd++ddd+dggkk+dd+dddddddd+++ddd+++++O+++gdggkkzzzggy3kzj",
"ffhytkgggzggfdd+++kMBNMkggdgzkd+ddgddddggggg+dddd+dddkzd++g33xvb",
"OO.<*sdg+dgggdgdgggkvvmvzbbzNkg+ggzkkggggggggggdhdd+ddddkkvLSk@@",
"jf+3# .gdd+zzvvhzkgdgdgd+..+dgzvzkkgzkkgkgzgd+dddddgkdzMNNx3;Xdj",
"bbg3;s.+gvkggkvkgdd++dmNvkg++gkdgkxkNNNNBNNvzzggfggdd++s+o.5;dkv",
"jzv3;dsX.gkzgddggg++...+kMBBMg+dddgkzxxNNzzzzggkzzzd++++ddX8;dhj",
"zggy;gggd.++gvzhggggd+.+O++dg++dgdgggddd++++gdkgggdd++gd+d+92+hz",
"bbga3dgzkgd+++dggkkvkvvvkvgdddd+gd++OO ...++dggggg@d+ddddddy3gvn",
"ff+y2d+ggggdg++O+ggkzvzzvvzgggkkgd++.. ...++ddddddddd+ddddsu4slh",
"zhdy1+o++++d+dd++.+ddgggggdO.+dgd+O++ddgdds+++ddddggzklgddsw,X+f",
"nvhy2++++++++dd++++++dggd+++gkd+Oddgzvvvvvgggddgdgd+dddgkzxPScBC",
"jh+r>d@@d@f@fddgggzgggd++dzNvgd+dgkzkvvvNNNMNNgdgggdddoddvBIFBAV",
"hddr1+dffgggggghhhzgg+O++++ddkkdgggggzzvxnNNNhggdghgdddd+o.>% od",
"+dsi9ghhbhhvzvzf@+OO+OO.    Odgzxvkkdggfdfd++ddgdddd+ddfdo.5$ oO",
"nNkGechddd++dgdOO+++++dddd++..+O+dddgdd++OO.+dgfddd+d+ddfdow:+hz",
"fdX71dggg+....++dfddg+ggddddddd++++dddfd+d@gggddddgdddfddgoe2dhh",
"@@.6* .+gdg++O++@fgzkgggdgggddggdd+d+d+fdfhzzkghdd@ddgdfggd9>s+d",
"bzdr1. O+gzckd@+++fgzzxzfgd+ggggddddd++@dhhzzhhhhhgdlvvvhgg0>dhb",
"AAMH9d+.+.dkvchdg+ddddddhhfdddggddd++++O++O+dgfhznNNNBBczlki8xCC",
"AAMLSkgdd..+dgbvxkdd++++++dd+dgdddf+@+OOOOOO.++dhzzhzgggvmBLDNAZ",
"bzkKwkxgg++OOO+dkzzgddddggzzgggggdd+OOOOOOOO++dd+dddd+dgkgd01sgh",
"hhdrwkllkkdd++++.+dgggddgzzzkzggdd++++@OO++@dggddddX... .XX01dhj",
"bhdi3dgzzkkggd+d+ddd+fggfgddd++dddgffddgbzhddd++++d+++dddzlpwdzh",
"jfda9dfdgdgggdkddd+++dgdggggdddgggfddhbbzgdddgdkzhddddgzzzgy3+ff",
"ff+r3++d@++d+d++OOO..O+ddd+dsddddddgzjzd++ddfdfzhzkkkzllgds0<X+d",
"jf+7<.Oddd+d+ddd+dds++O+dOOddgdggggdf+..Odddddddddgzglggggdr2szj",
"j@+i3sd+d++dd+dgddzhggjgzgggkkkggdgdfdggkgkdkgggkvzvcNvvzlgr3ghj",
"j@+y3sgzkkkzkzggzvvvvhjgfggdgg+dfdd+ddzxkkdkzkkgghgkkzgdX+dr3sgj",
"OO 6;odgkkkzhkggzvkhf+++ddzkgdOOdd+.O.O+O+OO+dddddddd+.+dgdr3gzh",
"VngG4kgkgdd++++dddddd+@@dfggggggggddd++++@+@d+ddgggdd++ddgxKykgj",
"nNxG4kggd++++dddf++@@dd+dddd+dgdzgggggggfd++++g+++X..XXX+dcH3+@f",
"+do2&Xo++++gdggkgd+++++ddddddgggzkzkkgggddgdddg+++OO+Xdgkkg6*.O+"
};
