/* XPM */
static char *result[] = {
/* columns rows colors chars-per-pixel */
"64 64 85 1 ",
"  c #22261F",
". c #2C2E1F",
"X c #1E2C23",
"o c #222E24",
"O c #292E24",
"+ c #223126",
"@ c #2B3127",
"# c #25352A",
"$ c #2B352B",
"% c #27392D",
"& c #293A2E",
"* c #333525",
"= c #31362B",
"- c #393729",
"; c #333A2E",
": c #383C2F",
"> c #273C30",
", c #2B3D31",
"< c #323D31",
"1 c #393D31",
"2 c #45331E",
"3 c #4F381F",
"4 c #52361E",
"5 c #54391F",
"6 c #5B3B1E",
"7 c #4C3C25",
"8 c #513721",
"9 c #563C23",
"0 c #5C3E23",
"q c #613E22",
"w c #37412E",
"e c #2D4234",
"r c #2E4638",
"t c #2F483A",
"y c #324336",
"u c #3A4134",
"i c #3C4A34",
"p c #324639",
"a c #394639",
"s c #334A3C",
"d c #3A493C",
"f c #64421F",
"g c #6C461E",
"h c #71471F",
"j c #4E4227",
"k c #5D4224",
"l c #50432B",
"z c #5F4329",
"x c #574A28",
"c c #5F512F",
"v c #404437",
"b c #5E5533",
"n c #634424",
"m c #684524",
"M c #654825",
"N c #6B4A26",
"B c #644629",
"V c #65492A",
"C c #6B4C2A",
"Z c #724D26",
"A c #6E5226",
"S c #6D532C",
"D c #6F592A",
"F c #715427",
"G c #72542A",
"H c #745B2D",
"J c #7A5B2D",
"K c #6C5531",
"L c #6F5933",
"P c #725631",
"I c #735B33",
"U c #7A5B33",
"Y c #7A612F",
"T c #766134",
"R c #7A6232",
"E c #7E6A36",
"W c #76633B",
"Q c #7B673A",
"! c #7C6A3A",
"~ c #374F40",
"^ c #375041",
"/ c #385142",
"( c #815E2F",
") c #806430",
"_ c #827141",
/* pixels */
"&&,pe#&&yeeppypptty:-=$=<,yyee,,eey,e<1eee,,,&###+#$essspryrs~^e",
"sp,ry&&#&eeeeeeprrry1,&&$##&>>,%,&,,,,,,,,,,#+#Xo##,,,,###&$,yss",
"%&&%#&&#oX++#X###%%&&%%&###X+#+###%######++XoX#+###+#+#Xooo  ooo",
"oX++#&&iYFAIIHDAADDDGDHYURTILLDLIGDGIIIPISSIIPHHHPIGSSVzOooOOO@#",
"&#oX++wYGCMmCVMnn0fkkkMCNNCmVBzzBnnVVCCVBMVVVnnnmmV000kkm;$,$,,<",
",&#XX.h2X#%%#+XXX+#%e%%%###$$#%####+#++X###+XX+##XX#+%##jC<$$$,,",
"&&##@g2o+#%e#+o  . #%%%%#%$&%%####@++##+##++##&%#$,>>,###lC-$#,,",
"e&&wG7#&&&%###%&#++X##&&%#%,>%%%#@=$=&%>&&$&&%%%%$$$#,#&%%lG;$,,",
"e&%LN%%#%%%&%%%e&,$##%,,,&,&%&&;$&$==<&%&%$=$%##@$=;&%$%%%%Iz%e&",
"ee%LV%%e&&&&e#%##,$%,#%%&%%%#%&$$$$$$=#&&%&;$&%&$<;$&&,,&&#DV&&e",
"re%TV%%%&&#%e%##%@@##o#%&%%%#$$$=;;;@=#&&#%=&&%&$;$&&ee&%%&INeer",
"e,#IV>&%&&&&#%#e&$$$#oX+%,&&&&==$,$==@%##&&&,#&&%&,e,%##&&eLV%ee",
"ee%IV&e&e&&&e#e#=*@$$@++##%%&;$=@@@=$=&&,&,%%##,,&&%####,,#SV>rr",
"sreQS&e##&&&+###=&@=$=&&%%#&,;;;=;<$=<&&,&,#%#&$#+##%%,##++Kn#,p",
"&$+Sk%%&########@@@#&&$&&&&##&;;;;:<<;<,&#>%,%&&&&ee,######Kz%,,",
"#+XCf##&&$#####&#&&$#&%%%%$##+#&$=@$+$+%#,,,eyuuvye%####>#%PB$++",
"speES,&,&#%#%#%%%&#$#%%&#%#%###++@#$*###+##&#&@$;&&rreee&&%DB+,p",
"~prTC,$$%%%%%%&&%&#&%%#&&%%&%&%&#@####+#+###++++@o#&rprrpe%IB<a~",
"&##Sq#$&#%%%&%e%&&&#%##&%%&#%%###&&%%#&%%&+#&&#%%%#&%&&%#%#KB<,,",
"&#+N0###%%%#%%&%@&#&&&#&%&&&&&#%#&%%&######&&&eeee&&&#++#eeDV#&,",
",,#Dn%%###%+%##%+e##%&e%&##$==@$%$*%&e####%&%%e&&&&%+X#&re>S0#,,",
",,#Ak####eeeeee%e#e#%%#%,,$$$===&#&ee&#e%e&eee%&,e&#%eer>>#Kz#,,",
"<e>Gk#%&#%e%&e%e#e#ee####&$===<;weee&##&%e&&&%%&&%&erre&%&%C9#$<",
",,>YAe&&e&&&%e&eeeew##e##,======;&##%#%#e%%&%%%%#+#%%#%#+##m8X+#",
",&#Cn#&,%%,,eeee#e#&&&&&&%&&$&=$=%##%#%%&&#####+###%%#%$#&>Sz#,,",
";$#m9#%,&&,,&&#%e#eeweeee%$&;;;$&&&eeee%&&%%&%%%%&%e,,eeett!Kepa",
"u1;Hm>,,%&,>&%%#&#&*;%e#%,&&;;&#&&#%%&%&,&,%&&%%,%%%,,,ee,&Dz>ed",
",;$HC$#########%#&&&-#%%&,&&&#&##&%%%&%e&%&%%%#%%##>$$&=%$@m9+,<",
"$$@Cq@#o+++oXoXX##$**$$#%###%&ee%%%ee%%#%%&%&&&&&%&,=;==@@+k7X##",
"<<=Gm<<,&&,,,eeeee&$$#######%#%%e%%%e%e&&%&%&,&,e&<<=*OOO@XM5+$,",
"1;$GZpaprerre&&%&#&####+####%#%%&####%%&,ee&&e%%&%#$=O@@$$#A6#,<",
"1<$Gn,,,>%####%&%e&&&&&&&%%%&&&%%#%%%%%%#%%%&e,&&#&&&==;;$#Ak>rd",
":;$JN>e&&%%#&$&%%#e%&##%###&%%%#%#+#%+######+##+&&&&eeeee#%DMeee",
"11,RS,&&&&&%&&$$$#%etree;;&&&e%#&%&%e##e,$&%#%%$##%%#e%%###Dkeee",
"oo f6#&&%%%&&$;$;e%eeeeeyyuyre&#%&e%%ee#&&&&&&&&&&%#%%#&%eeRK%&$",
"<,#m4X+$&%%,eeu;;ee%%%%#+OO+&%eeee%ee#eee&,&$$&&&&&&%%erppeAk+%e",
"pe%KkXX+&ee&&er,%%#+#%eee&&#%&&%eeeeeeerreryuw&%;;%##+####XM0#,p",
"ee>Sk%%#+#&e%%%%%e&#+X+#&pppe%%%++#eeeerreee<&&ey&e%##+###+M0#,e",
"ee%Kk&e%#+##%eee%#%%%#+++##%%##%e+e##e##%###%%&&%&&%##&&##+Sk#,,",
"ye>UM%%e&%##+#&$eeee&eeeee%%%%%%+e#+++X+oX+#%&e&&&%####&#%#UV%pp",
"#$@Uq$$&%&&&&#$++&&eeeeeeee,%,e&weo++XXXX+++#%%%%%%#%####&#Lc%>>",
"e<=PB@O$+#$$&$$@+.+#%&&&,&#+X#&%+#++++%e%##++#%%&$,,,,,,%&#SkX#&",
"pp<Pq$$$$@@@*$$$##@##&&,###+%>&++#e#eeeeeee%##%%&$$#%%,,eeeWKrps",
"e,#Gq%=%;==$$=$&&;we%&&#$$yre,%###eeeeeeerrerre&&,&%%#@##ee_Itss",
"&,#Gq==;:;:;%,%,<1;,&+@#+@$#&&&%ee+eeeeeriarr&&&&&&&%%,$##Xn8Xo#",
"#%#HZ1;1111yee,,$@@@#+o+o.o X%&eeee#*#%w*;=+##%,%%%##$$=##XB3Xoo",
"yp,RP<<=$&#%#%#$#+@@###%#$##X#+#oe+e##*##@o.#&$$&#%%#$$$$%#Vz+,p",
"&#+Cq#,,=@+Xoo@===-=#%%&#&&%#%##+++e#ee**;&&&,$$$%&&&$=&%,#Sz#,,",
"#$XN6 o#$,%#++@*==;,e>&&&&&&%&&&#%###%$,$,,y,,&&==$$%%&&&e%Sk+##",
"p,%Gnooo#%eee#=@$$$,,eey;&&$&&,&%#%#$+$$$;11e<<<;:;&eeeee&%Ak#ee",
"~~rRC$+#++#ery1$$$#%##%;<<&$&&&&%&%$$+@$@@@@&$;1uaaapppee&%YMrss",
"^~eEP>$#%+X##,1aee&%##++$#&,%#&&%&&$=$@@#@OO++$;<;y;;&e&eer!Hss/",
"re,RG,,,&###o+#$&e,%%%&%&&&e&>&>&&$$OOOO@OOO+#%###%&$#%%,%#Ak%&e",
"e%#GC>,,e&%%#++###%,&&%%%eee&e&&%#$$=@@@@@$$%&&%#%#+ooooXX+Af&&e",
"e<$JC,,,e&,&%%%#$###%%&%&&%%%##%&&&;;;;;a<,$%%#######+##%eeYN&e&",
",<$PZ$$,&%&,&%,>$&####%&&&&e%#%&,&&$;;uu<$#&%&%&e,&%#&&eee&Jn##&",
"<;@-N7@$########+++oo+##>###%#,#$##<1p<%###%%%&e%e&%,ee,&$xm@o#$",
"1==$*m7+%&#%##%%####@+@O@###,%#%,&,,$@@+#%%%%%$&%%ee,,%&&bZ&#&ew",
"<;====Nj##+###%%#%>>,&<;<,>#>,%>%#%+%#&>%%>%%>%&>eeeeeeebZ->,&,,",
"1;==@$;UQWWTLHDSDHUQ!)((JUIKKKKSPGCSZSAGGSKCKDKPSSSSLKSNq@%%%&,1",
"@OOoX##yKCCCKMMmBCCCCmmqmnVVn090nn00q05q0qq0qqBBxkkn0943@>&%&&e$",
"~<,,,,>,>%%#X#####$$@@=@$$%%,,,#%%###+##O$O@%@$#%>######%%err,,e",
"p~ppre,,>>$%%&>,,#,;;;<;<$>%&<,,re,ee,,,<<==;&,,&#######&,sp,%&&",
"o&,%$#>#>#&,eeee<,;;;$&<<,e,,1<epppypeye<:::;<,,$###&$,,rpe>$@#X"
};
