/* XPM */
static char *result[] = {
/* columns rows colors chars-per-pixel */
"64 64 69 1 ",
"  c #3C1F12",
". c #372116",
"X c #3D2216",
"o c #362419",
"O c #3C2519",
"+ c #3D2A1E",
"@ c #362C23",
"# c #3B2E23",
"$ c #3D3126",
"% c #3E332A",
"& c #411F12",
"* c #452315",
"= c #4C2516",
"- c #4E2817",
"; c #442619",
": c #4B2719",
"> c #452B1C",
", c #4C2B1B",
"< c #522716",
"1 c #542817",
"2 c #592917",
"3 c #512719",
"4 c #532B1A",
"5 c #5A2B1A",
"6 c #4D301F",
"7 c #53311E",
"8 c #5B311E",
"9 c #632A17",
"0 c #622D1A",
"q c #63311E",
"w c #68301C",
"e c #442E21",
"r c #4B2F20",
"t c #443224",
"y c #4B3324",
"u c #4D3827",
"i c #43362A",
"p c #4B3728",
"a c #45392E",
"s c #4B3A2C",
"d c #523423",
"f c #5B3422",
"g c #533926",
"h c #5B3926",
"j c #503728",
"k c #533C2B",
"l c #5A3D2B",
"z c #473C30",
"x c #4B3E31",
"c c #523F30",
"v c #613523",
"b c #623A25",
"n c #603D29",
"m c #55402E",
"M c #5B412E",
"N c #4E4134",
"B c #524334",
"V c #5A4433",
"C c #544638",
"Z c #594738",
"A c #56483A",
"S c #5B4B3C",
"D c #63422D",
"F c #604632",
"G c #624937",
"H c #604C3B",
"J c #5E4F40",
"K c #5F5041",
"L c #605141",
/* pixels */
"uiyBz%t=<3<2212fg81,yii>ys,jNNxNNp4--:-111pxr==  &*td25hhf,1mASA",
"VCkBCxt*=411225lCfgBBNa>tt>paszaNs,---,--=yse X  &*,y-=e>+6:sCCS",
"%zNsNCB:&*****:pxNsBdkNBsap%iizazNp,==:=-=*t+;**=>>>i>*>#$@o@@@@",
"$@%iasu82=&*==:ypsBk78BAACCNNNxsNNat-=,:*:>*=-=<-:,ti,*t+>%>t%z%",
"z$#%#e6492=====,,6ugf7kNNxgCCNkuNxusj<p>:,6-=;,:it;>;>;66psxssNN",
"xai%@o.X&=<<=*X++;,uu,uppy6aNyp6sxpaa>>e,,:*&**:it*:;,-iNsksy,pN",
"zzzzttX*&=<2=XX+o.Xts616,:,p,,ttippaai>>>>>*===,ppr-=<-spp,6:>tx",
"sxxNpy=-12-=*>ps>*X+%y,16,,74yupaptsxp--1-,:===-syp,=1-yyp-:--yN",
"paNNy6uuyysy6gsky76tai77sdd5jxxsasaNxd<=11::===,sxNy--=,,,=1,-ps",
"gNNNyuNNNsNj6yu66p6,pp,-d-:4uxxxzNzas4=1---,-<uuNNNd<-4g41=<-146",
"kNNj1,puuxp,7,,y6t>;:$i-1=::pzxxpuNNzt==-:-,,uaNxxx,125s,=142242",
"gsu4111,4sy-1,-6Ny,y>%>*<14dxxxr,,uspp:=u,:14psNxNCl43>pd2241111",
"417211212,667,,uxp6ppr;**=3dku,:;;yrrrt1ds44<:yNNxNst::pm,=:,221",
"885522111,66,6,uxy>ss-=:==:,dgu-::,,r4d7jx--,,yxz$aaN666tt===-17",
">:>:>,=<-=-:=>>6isesat=13<=:=,j424443rjjjj1141uBNNACs,>>ta,::66-",
"+#++:===-=*=::*6spuypu,u-:,;*:>=:::*;tp,sj1455hSKSAxt:-6yN666y$+",
"8VVh77-1==:*::,pxuy6pxss,yy==,:*;**:+6ipii-==::pppCCM8225juu6esd",
"wMS821<=-1,1-pdjxuutyxzp,6y--,-==*::*,tpap:=*& ;;*ikZbq0qfNpygZ0",
"*>N>*=====1<4sxuxxppxazt,tt:=<::==y6-:,yay=*==:::-typ6-:>ysNBAc,",
"=;i*========-sNxzsyusxNspu4r:4,-==,6,::ype:311dg551d7>>>>BACBxzt",
"6,u,=<======:usNxxt-4pNNdyrr:::====yd4,y,,1111gl141=O+tkflcxzxzx",
"u,y,=====1217fNNNs4=-pxxdda,::::=<1Cg1-4-1122<ys521=yBBV8sxxxxxx",
"y371<=<<-1117kNNNk711uyzasx:;,44555k,=,113=<3<rp-=5BJZBursxapeiz",
"t<22522211127gBNgd411yszxyr,:::=4==,::-31<-<<=6,;*>aNp6:;iee##%%",
"p-=;:,11-=1d78Bg54--1,dkk1:,>,,::<*:==-==-t:=>:***:yzsa,=yjxxxxz",
"p;=::==2114g76m61457585kj<::133,--2225421-,13-==<dujkccf5qbJJJJN",
"k,417416,12d76a6-:1,4<1rrd1113-:d4-=<2413<53<<<<4xs,jBl587dxNNCJ",
"s,-,76,y>>:>>>a6-1,,::3:ds334:-::,1<=<<123,::===,sy-,spuypaizzzx",
"i;;>>tit>t>OO+*;;:,,::==:p:-1:51<=<11<==::u,-12jxx,7rk,rta%%%%%%",
"sr-7gBNB6NNBmm75f4-:;;:*:>;===-<1<<<4213-,kuu46NCcjd,eXXXeia%zzx",
"xu4jMGSV8mABCNy674=:;:,==:*==:-:<===&<115kBjsjsNNu6:,>;;;ezazxxx",
"NuypxBmf8mNaaNa6444=,rxr,,-=-,1-<==33===ryxsBgsNNaay,,-,1:axNNAA",
"N6mmmmm6pszaaNs6:=122tzp,,==-,===&&==&<&*>pattiazNNs7455417NCNNN",
"N6mCAm76jNNNNsx>:=10wvZB7,-25j1=<<<<<<3546NsapNzzzxp,25-==,sNCCN",
"o@#++u666aNNNNNu644752lC7885MNd=3<2121147kBsppNNNNzyr:=<12lSSNz%",
"666O+o+mpNNNCAZm877,1<us*OO;pNk52221215d7jkjy,ppzNNs415hl5lBzapu",
"121,::o>NBZNNCAN76,**=lZhj-:6pNuf25509nbwMMfBf7uNNNNe*=>t;t%apyd",
"6176,,>>+uCCNsNN67::* +akMbVZsaaa:<155fqqkh8md7gmCNNa>*tt6tpypu4",
"41-16114>6%NNmgu,11-<=>i%t:uNa,6xu4:<=,,6>*=,17dusNzar=-::tat6p4",
"11741:177sa%iyu7254555gmmg1ysx:-ysy:**X#$+**--dsduNazi,-=6tuNj84",
"*>tat:=67yjpu6>%;-712558BMfgNN74duii+OO@$#**=-juppxzNy:*,6pNNsy:",
"6uNNN>O>>>yy>6pi>*:=-116xNt>%a6:tpat6:6mNa:**;ypuxNNk742-,puiati",
"mmBNN66upiyi66iNi::*=-4ssi>iNNut%szj7h8MAAg=<:,uyNxz6-1418CAAAAA",
"muNNNyiNNssxaNNNN7111-ya>4fVBNyppNNmgMMMSSq90046uNNp-=*><hSHHHHm",
"pypiuptBCmkBNCNBCM41=*t>>::>r4447dj7jkmmASv0023uNNNy-=::>>%o$#$6",
"%>,gBgkBMf7lkCCxaa#;=*>+... &=1258g41yNssNt6:*:uxxa,=*:-=>%@@@@@",
"mf2hVfmmy====ypiet>>=*t-=::&&&*&==14--usai%$tiyNNup:*=:::6aN%NNm",
"i6:>t,dNy**. *ey-y,-=-p4=3<:====**6>=-sNmaNNNCNxa6661-,--1>NNNNt",
"itO$+.;pu11:**ti,,1127xr1133=11<==e,::sxxNBCCCNNs66:1-6411jNsz%t",
"NkyptOO+>=552=yay;,318Zc413:<<3<==:,;*eepNCCCCcBBgu777l524xupxNN",
"LSSmu-*#>&=208kCy=:==:ss443::=<1<=-,:;e;>azzxNkCVbbFSDM847BgjSJJ",
"KHSZh22-:**&=1kSl41==*;*:=:::=3<=<,,,;*;>i%%%ipkl7gCCmm78lSHSKKK",
"NCkmf552<=****tzd22-1-yy43153111<=-;>#  Oi%%itiy>tpNzip64ixzaxxN",
"zsysd4722<<=**ti>*114ruxkd202211<=>,,y;;;axxkyrypp6t%$$$$%zxNNNz",
"NNNNs74422211::6>==::uNxxxr==::=::ujp,41fCBxp4&rt,iittiaNCCCCNNN",
"Nyusjy,11=<1-11,--::*txNBNj3===:5dsxy480fxsxs11327u66ymBCCCNNz%a",
"i:rt,*:=====*==*&&>OO;izsa;====yytxj587riazxp31524m77mmBuNssa%%a",
"sr:,;;;:===:=*:-=:,>;;#aa>==11,uu4cy:; #axxz4=:=1147777sksssaNNN",
"xp,4:::=======<3:35445CCB42=24ucc4se3335dNBj411115888MfbkguNNNNN",
"xsr:::1522122411458qf5VBd24<=-yzxtr,3&225BNj121115777g6:>tyysaxN",
"#%+ &>,41121221df551,*yt,-221:eazr=&&&&&;iie;===---6t,>*>d,,dkf>",
"5Ckd7kr51<===*=:-=,:,:,>t417ddcxNj:=3&:3;tzt>:===1,6it::,7fqMj1=",
"5BBlkBd1<=*====-<*:-::,,66,tryNNCc31<133:,sx6*:=*;O>$**>,uf0st>*",
"+aieeie&=*==<4144:>;>>6>yy-uysxxCc2221131,xxy-1=**>;>==,fg4=i$$+"
};
