/* XPM */
static char *result[] = {
/* columns rows colors chars-per-pixel */
"64 64 90 1 ",
"  c #34230D",
". c #3B260D",
"X c #3D2A0E",
"o c #2C2716",
"O c #2B2917",
"+ c #272B1C",
"@ c #2B2D1D",
"# c #332612",
"$ c #352B15",
"% c #3C2D14",
"& c #342E1A",
"* c #3B2E1A",
"= c #2E311E",
"- c #3C3116",
"; c #34321D",
": c #3B331C",
"> c #3D381E",
", c #2A2F20",
"< c #352E23",
"1 c #392E22",
"2 c #2E3422",
"3 c #2F3824",
"4 c #333522",
"5 c #3B3522",
"6 c #343926",
"7 c #3B3A24",
"8 c #373029",
"9 c #3D352B",
"0 c #353C29",
"q c #3B3C29",
"w c #432C0E",
"e c #4A2E0C",
"r c #4D310F",
"t c #52330E",
"y c #5A360D",
"u c #432E13",
"i c #482F11",
"p c #402E1A",
"a c #443215",
"s c #4B3314",
"d c #4D3916",
"f c #43341B",
"g c #4A351B",
"h c #42391E",
"j c #4B3A1D",
"k c #523615",
"l c #543915",
"z c #593914",
"x c #50371A",
"c c #533B1D",
"v c #5B3D1C",
"b c #443523",
"n c #493621",
"m c #443A24",
"M c #4B3A24",
"N c #42362A",
"B c #443B2B",
"V c #4B3C2B",
"C c #533D24",
"Z c #593D21",
"A c #513E2A",
"S c #453C32",
"D c #4A3E33",
"F c #37412A",
"G c #3C412A",
"H c #54401F",
"J c #604019",
"K c #444125",
"L c #4A4024",
"P c #42422A",
"I c #4C412D",
"U c #524126",
"Y c #5B4326",
"T c #53422C",
"R c #5A452D",
"E c #474534",
"W c #4C4135",
"Q c #4D4339",
"! c #524433",
"~ c #594734",
"^ c #5B4934",
"/ c #52463B",
"( c #55493D",
") c #5B4C3C",
"_ c #61482E",
"` c #604C36",
"' c #614D39",
"] c #574C41",
"[ c #5A4D41",
"{ c #5E5144",
/* pixels */
"gNf!SN5;3660030jLh:fsbN$bS:MADDDWM;6645466BD542+++$us0qlyd>5W({(",
"R!V!(W9@4660007C~BMYCDS>5f%NSVDDDV:8;44;627V5@+++@@as4;-w%*;B((]",
"9DTVW/T4+@2@,2:aDWVTfVWWVbbSbbSSDDM542;;42;-$&@22;;*b;@*.*1#<8<8",
"819NBDMm03+223;snDTCmdY](~!WWDDE/DSf427;==X;;444::wfb%;f.*N%pS99",
"D5191pa>0032222-:5njdhMQQWM!//VnDDnMm5q4;--;24:;n:&$&%$uanjVMMWQ",
"DBN9$#oO,34622+*%$usgfmmBffDDbgfVVnSm&9*%%;;2+@;bN,2&>:fVWkVf:DD",
"SSSSbp&,,2662@O*#oO5Mf4-:%5m5:aubggSSB&%$%%@2235Bg:543;mnn:-%;9D",
"DDDQbi&546;;@*gV*$+&Nm:aa%:>5mggSnpMDB;:>::42244VfN:444ngg;::49Q",
"jDQVmagjffMfatxMsau5Smh>MahhgDWVMSVDDB4;5>44;44;DDWB4335::4;:>fV",
"gWQWsMWACVWgesxaitu5bV54q:4;nVQWDDDVM54::;5444mMWQWm356M744>44:f",
"V/!m45MnnDB>:--aupu&&:940444BDDVNSDADb42:2465mBWDQD5000M43640070",
"mVB7;>4;7Va:>::fVguppb8@35qqDDD545MMmb;;a5305mVWDD/D034Nm0664666",
"7>:067060:ara:-jDgubb52,2&4qMnf4&1Nbfff7fV666-bWWVWMf&:MV:;;:00>",
"d77F060466-i%wwnDguVM5433245gmn748655:saMW0;--nDSNNSDf-af5;;;;>>",
"$%%;-;3422;;=%-aNVuVV545464;&>M57bmq5fMsgn4>:;mQW/]/D;$uiB4;-a:;",
"%%wX*4236422;;=-MMifVb5m:;:&2%;;44&&2bn:VB470GU){[]Df4;anDs:ai:%",
"jAYk7q36622=;;hfVgiuNDVM:as44u=2=@2;&ibbNm;2345mBB/~TG07qmMsfaBm",
"Ll^Mqq436;:46m7mDMkugVDb:ui;3:444=44*%:nSm;;,@@@,&NARcPGKjWmfc)G",
";%B4224432:;4VMMDVknDVSbuaa:244422q9;:-sSb&&24;34:ffnf5;&aWWW(W:",
"=;N422223232:VWWDVgfDDDDgs>:365434::-;:an:4435ML775fh%%$aT(/!DD9",
"5:D4363222244gMWWW>;5BWQfg5954;4341bd::h:-6663DM743=$%iVmI/DDDES",
"m:b:22222606>dIQWV:64mDWdsM5451142>!P;::4666049V70>;nCYTqBDDDDDQ",
"m47>5436;666gcQQWM:46nbSBVD51557qF7M64%:6633035m427!{~YMfVDD5bbS",
"537>70666607fm(!xhh74fVBB9q51455q4=a;2;4044634f:2=;BEb:&$fi58189",
"S5=;;>36436mgh!M>:654:sMV4466684522$224224a;2;;==@;fWBB;4gsIWQDD",
"n&2;&;4666>dhhM77>7qqhGLB6445554:400F7>066543:;46mgxCWUm7LH){[]Q",
"Mb56h:4f:46js:D7;;0:5465>760674;f:;2466063>664346WMfs!Wm>hnWQQQ]",
"M:>7ma;gw*;:*%na424>5435fI54646::-46363364:44322fB54>MbgjgBNSSEQ",
"911*%fbpX:;##$$$;;4:4:4;:N;;6474543064224;f::46mCVfffcbbbNpN999S",
"Mf5fx!!AkV!W!T:hd:641&2&%:;23=;60435000664VVh:7W/Vksfp@O$bNNS9SS",
"Dgfxv_`~j!)R(Dfaa-22;*;22-=24;;232222363qVWVCgBWQMe::&<&<*SSSSS]",
"DktsVTzs>BDSSDD>7>064fM7:-424a46322423237fWIWMDQDVmb::5555SDDD]]",
"CskxYCtriSDSDDVu;36;57DB--;2;-;222,222,2=;BD9*NSDQ]Vh7FF76>V/QQQ",
"gkZR^UsagV]DDMVi:;6GPK(/7>56qm>=33023345:aVVBBDSSSNba40;;2:MQ((Q",
"**1%%saruVQQQQVgm>>h77T(BmBGU!m=3600060:sxTBMMWQQQDba;4440I{)QS9",
":p5.. XsnDSQ]])Tjha:46BS;O&@mQW7000306hahjMjs*mMDDDV>;7LUKIQBNnj",
"564a-$#eC!(WW]]W>h:&=;I~jM;:enWnh700FGHHKTEMRjsfDWDD822%g&*Nnkag",
"f5>ua;-XuM/]WSDSh-;&@+4NZHHYRVDBM;6000LKKIIPThrlv/]DS4=:p*fNgsi>",
">4>;:>7a%pNS/YMg>;;;3=:NNf$nDV55Vn4644:-u*;=;;srkxDDS86:;*bVfesf",
"00704:45snDNNfs5067F07VLTd>aVV4;gMb*,,O*5&==64sttgDSSb-4;:fmVkm7",
"=-MBb:1:afMgxepN=;:700qnRvkkAW77skNbX##*95&,;;dxkgSDDf;2:anVAV5&",
"jgWWD:&u%unau%nS5&&23067DDuu9Nf:anNgw%:IDB42=&fjsVWQCs634;fMSSNn",
"Zl//WffnBbfnuenEB:*2265MV5%NDWMufSDgsdnY!(N34&agnDDD54450G/)([R^",
"gnDVDfnDWMMWgAWWW77064bB*>P~~VbNxV!Zlzll){IFFK7fMWWB43&42E{`{'_Z",
"MfmnMbbDQCIQ!/W/(!m53:N&$u;*b505anM>gkZY))IGF06fDQWm3354<89.**pe",
"9*:nRyc/YCBIV//DBB*$,@%$o#oO@200Fmg75fCgMWf5;2=MDDV*&24541981*1.",
"zn7LYjZAa4;;;fnb*f$*2;f4242,+,,,23:55:MVBSN9N9BWDMs*24484fSDNDDC",
"na&::*B!g;@#+O*naf:54;n52533222,2,5624M!MVVWWQWWDar:44:444NDDDAg",
"9b$5$ $MM46;@&bm%57005I>4036366622:4;=MDCD!/)//WMue-34a666mWDSNf",
"QMfBf$#**37q0;bDb:530m~Qq464366332;-;1**nD]]//D/AkthhdC760WnmDQW",
"{)^Ck;&%$+40GGVQq46=22MB9668443633:%;&*&*NSDD!C/RHU^`YJm0h!xI[{[",
"{[_^L74;4@@@;fW[I06==;%&4233234644:*:51&*N9N8bgVInV!/AcfhU['){{{",
"//cAm>m63222@O5DB006;:u>:500606634:&&1&@&8NNnfgu-anDDMgifNSSSDDE",
"DVsVfh>70622;=bN;;6;:fMDVq0F006662%*5b4&1SDQMafaMfuNp%N*19NSWQQS",
"QDDDCfh60066;4;a;4=;;fWQQW:>22&244nMn57qB!DWnu2;:-inpbbSD(]]]QQD",
"DbVCj>:46330664:;4;%%fWWQQs423;47mVDj7BmjAVDB435qftuukAD/!D]SSSS",
"b55su4143222222&=@#X$$NDDB;2424nf5DVmq05bSDDB4606>rsrlCTCVDVN9S9",
"na***&&22242224;=2:%;=fNV:,362axg7Dm44@1NEES>24233>srssCCcMMVD]D",
"Anb:4&;222222244=67h>7//D56367sCC5BN4456BW!B5660FF>LdldjxkgVQQDD",
"DV*5547600000F4:7qGGKm~!n5633;aDQ5:433007!QB60303>hrdta;*uigVDDD",
"*8;@O*-7063000;sj7705&9ba:664;5SS>,,,,,,@NS8,422222haw%&-sa-bkf5",
"B!IBhVh>33322==:;;>4:*:faa4hjnVW/m83222,;bSb:4533>:fbu&;ad7qCx:4",
"7R!WI!j:62@2==3-4=*454f:ue-a:B/W/V53636645DVf&622$.$5&=$XnPGDu&=",
"%bn5pb6===23666>6;*4**a;fg:gfVWW/A60006445WQ9532=@$%:22:dd5&NNp&"
};
