/* XPM */
static char *result[] = {
/* columns rows colors chars-per-pixel */
"64 64 92 1 ",
"  c #301D0C",
". c #2B1C15",
"X c #251B1E",
"o c #2B1E1C",
"O c #321F12",
"+ c #301F18",
"@ c #37210D",
"# c #3D250E",
"$ c #2F2014",
"% c #2E211C",
"& c #352214",
"* c #3B2515",
"= c #3D2816",
"- c #34241C",
"; c #3A261B",
": c #36281E",
"> c #3C2A1D",
", c #251E25",
"< c #291F24",
"1 c #241F2B",
"2 c #281F2A",
"3 c #272023",
"4 c #2D2224",
"5 c #2F2822",
"6 c #26202D",
"7 c #2C222C",
"8 c #2F2828",
"9 c #342423",
"0 c #392623",
"q c #352B24",
"w c #3C2C23",
"e c #32252B",
"r c #38272B",
"t c #352A2C",
"y c #3A2C2B",
"u c #3D3126",
"i c #3D332B",
"p c #272132",
"a c #2B2434",
"s c #2F2837",
"d c #2C263B",
"f c #2F283D",
"g c #322633",
"h c #342934",
"j c #3B2C33",
"k c #31273A",
"l c #32293B",
"z c #392C3C",
"x c #3C3133",
"c c #3D313B",
"v c #45270D",
"b c #44280F",
"n c #412613",
"m c #432A15",
"M c #4A2D14",
"N c #402719",
"B c #422C1C",
"V c #4A2D19",
"C c #45311E",
"Z c #4B331D",
"A c #51331E",
"S c #412D22",
"D c #432E2C",
"F c #433325",
"G c #4A3523",
"H c #4E3825",
"J c #42352B",
"K c #49362A",
"L c #43392E",
"P c #4B3A2C",
"I c #523C27",
"U c #533D29",
"Y c #412E31",
"T c #423432",
"R c #453A31",
"E c #4A3E33",
"W c #42353A",
"Q c #503E33",
"! c #52402D",
"~ c #4D4136",
"^ c #4F4439",
"/ c #524334",
"( c #52453A",
") c #54483C",
"_ c #2E2741",
"` c #2F2843",
"' c #322943",
"] c #392D42",
"[ c #332B4A",
"{ c #382D4C",
"} c #3E3243",
"| c #342C51",
/* pixels */
">w>Liqqadsd____yJeg0=>w4titwFLLiLFadsdaalayJtap11,X&;''BM0edT~^~",
"PEFP~Lt6add__`lGExYGFJirq:9wiFLiLF9seaaeadji9,1,,12->7a-OO9ax~~~",
"iiLFRRK766p6pp4=FLFKwJPJiu>iq>iiiiieaapaap<-%4ppp749w56-O&q.%55q",
"5:quiuFz`p66pae;uJKFj0K~~PPLRRJJRRi>apeea2-97asae9-:w94-O;:&:iiq",
"i:5qq:;h[`dpppp99rySS0FRLLSLERiwLJ>Jisi7a99ap8ep>94o4-9*-wSFwuLL",
"iiiq$.X,1ddddp1-&<-=;rwyu>riJyC-FFuiw49-+;22p664>w6p497=FJVF:eiL",
"iiii::%11pdfp6,&.X,8F0g9899wt9**w==iiw8+oO-4ppaei>eddd7uCw9-48tL",
"ii~iu*68dde764>F9,,%wye9-9eegyw>iu-FTiaege7pddsauwu9pda0=>a78axi",
"wiLLq;wB0qF0;*BBN;-riuttF;trBJLiCiuJJhdagaasppaeiiRidaareraeea>F",
"BLRJ>SLGCFL>*bB;*n;eyueszea80JLLiLiFFeaee7sasaySLRRhdddwhsaaagr9",
"JEEygeySSJuer99;;;+64:tadpaauiRiuxLLitpseaddeyJJLRLed`'F7adf__kd",
"yJyggeaehi0ea9a>F>->::86dlszLRJra8uCuy97*7ddgwJRRiETkdaizd`fddfd",
"ggr`fd`dfeN;;e9wJ=-wwq7667azFS9a6atqq9qgqJlda4wJRJLu>84wKep7e``g",
"yhl[ld_dda0*--+BL=:Fuaaddaa9qyyaasssae0;SJd749wJuquiJ99;;0777agh",
"9+929edddpg<29-;uu-iiqasddaa7eDkslffsruNByger7yRLR~~J84**u7e9;9e",
"O@OO<apaddaa2e29uCn0Fwete7942-4app777qw9Jidl'[Y()^~i077-wi09;*-&",
"jKHSl'dddpp6720wJ>=*uiFu9;;ep-7p66p77*>>iqadaaawuy~PEl``lDS>9:iy",
"WSEjlfaddgeggyyyJSn*0JFu9**ade7aap7a7-qBuw72666666uFID{{z0JJ0SE{",
"2+DepppdpaedkFJwJFbuFiiq-;;8aaeaaahh79e;Jq<9aa7da7:qw0g74;JJL~Te",
"p4y7pdapdaapeFJJJi>0LLLiB>eqddgapae0972=B9aafdwjlheyr-+%-K~ELLLt",
"g9iadddpddppewFJRJqagiRRw=qtpa7pdpauw0e099ddd_xFglk2o&*FjL~iJLLi",
"weyedppppll_hqKRLFraawLiw>wepss7pdhRjkeeff__ddxil`aewKHRzxiLJiJL",
"ysggssddad_d;SRRRurdh0uiiFL8sssk`[`Dkp-9fdddddrydahE/PKS:iiitqui",
"ealhh_d_kddkSjEPBrrkaqiiihtsp6sadd7*6aeafdpddaq92p2yLu;4%>*q5:qq",
"ia77egdfaddywjJjhgadae;SJsdaaaaapdp4pdadaa;ape96624qJiwe70NJJRJi",
"w4a4<aadfde0rrFyghll`jzYjdadadsaaa_``lgddaegde7akqwVFLKz'zJ/((~E",
"Jedsyrstedlw0-Jt7alasadtqyd_ddde0rpaddf_fdeaddddkJF0BPTleyyLR~E~",
"iaase97>O9e9--w;adg9gaaarJaaddd<99ddddddfkeapapa9ita9wwqBwwuiiiR",
"w474-:w* -5o..<+47ag7ps7ewe7dskld7ddddapaa>eesfyGJ0rqSrt:u:qt8qi",
"uqs9BLPKNKKPPJjr0ekd77p2497pa2eddddkk``_dsJi0ehLEFm;8-635:uuiiii",
"KwqSZI!PyW/PERw9;9a64<e7746pp7aadpp6pd__'JRiF>uRRB*77463p:iiiiiR",
"Jm#nFPMBriJiiiiellddg0Fh99sdg9gddddpddppewJFLDxLRJSqaqassaiiR~~~",
"u>MMKGn*=JiiLJJ*7dddkhii99pa7;aaappppppp29uiw9uiiERJrk''ldeJEERR",
"mMCHUSS;BFERLwu-2ak[{]EEhegshya7dd_adddgh;JiuuJiiiiw9d`aap9SREER",
"--9&O=*N>uiRRLK>jgee'lT~zl''KEypdd`__dde0BGJiwLRRiiw-eaag'W(^Riq",
"qq9.O.Om>JRR~~~Pjr0esaii7,66wRT'____`kg0rSSw;9wiRLLJeglTK'YEiuwB",
"sfa99o.*FP~LRE^Jr092ppTPDw79#uJwyl``|[DD{KWYPy;0JLRitpp-*4qu=m>q",
"-he;9e+O&w~~RiiJ00e72,9uCZDPHFiiS7d_``Y]]TzzKw;VZLRLi769::-w=mmr",
"ekageesr--uiRKJwegaas69u0;4yJi9tJwgddd99::76a70nnCJLiyae84wi9*N9",
"__hga7sh;Ciww>=tdll``'xJFDe=FJa8;B><21<+9-2pag;bbBLiiu5a7e=wFVjl",
"27uuw47r90SFm&*q6grl``'yPZBmFRhk;mu>Oo.-w966a7NMnBiiJ=8a9;>FKFt8",
"wNLLJ8,&-&w*:&wie24pd_feLL*&qu0e;Su=O99JJi8p2<>SmFLEJqdds7w>ii>>",
"ZBPRLq0wuq=u-*>Lye7ppdgFiq-wJLF-=iiF;SyKEEjdae0=wLJiesps_lE~~/P~",
"BCLiK0wLLCFLNFLRLhkddstu9ezTPJwu=KLCVMVZP^}||]k0iRRyaa77d}(/)!!Z",
"u0w>CwtLEFKLLRR~~Rhkd4q8.-7-0afgqwwtBMGH/(}|[_dwJRLyddssptq$:&=@",
":-ewGmFEKjzxJERLiy-<22&<,.,,2d__'zSkstCNFLqt7a7uLJu-6paaa5q5%-: ",
"VjkTIyFK>ap77ww>-:44p7;ap7pp111ppaekdeCiwiwqqiiLJw=9aaaasquiuuLu",
">;29-9yL072o,,:090eaa8whdaddppdpp6qe7puKFFFLRRxLJ;;9daasaauLi~J=",
"u>oq-..wwds<2<qy:gd``hFydfddadddpae777wLCLL~~ERRu-*9da;kdlyTJiq>",
"LJ>u;<o&:d''`awJqpaa_jPWdddaddddda794a-9uL~~E~RRFVN9rDG`dkJSwRLR",
"((EGna2-o2p_[lTRj7aaaaFi'ddadddddd7-7p54-uiiiRCEPYTQ/KAj`rJBi^)^",
")(IPY`a9a2218hW~cldpp2+2apadpaddpa9987764qqiq>>FJlDEEFCqlG((/)))",
"RPBKjghddppp2,tJjl_sa9*qes__ffdfdae775333qit>*C;;-wiiF>>eiiiiiRR",
"JJ;Fyeh_`dda72qw47dse9uLFz''__f_da948q768uiiS;t*S>*u;&:::qiiTRRi",
"RLKLS0rl_`_faa9-7ap<90LRRiqaaa4asaqwuesfz!~Lw:p99-*N=:uiL~~~R~Ri",
"LqiFS9edfddfddseape-40LLRLwgdppghyJJtl['tFiiusdklyn;**JP!LRRRiii",
"w78>977apa6apaa422..o<wiJi7apds00qJxl''eqiiLuad_kkN;;VSJuFiiuqqi",
"B94-9226pdappaaea69-470iu96pda:mBgLyap65uLRieaddddg0NNNSCCCFiLRR",
"J>eeaaappdpsdpdaadlehhEEJkdd_g=GFrurddsdzRLisd_d_'gYSSSYCBBF~LRi",
"JJeaaag``____`geg[]]]lRKydfdda>iLte8pd``hLLc__d__krSNv0e%**>wiRL",
"-q362+9g___`__g0ylldgptq9e_lg79uJ961p16p7qu8padaaaa0; -2:099qVw8",
"zEJhhJ0hddpapp797pgg8pr9*9dewyJRRiadppppptiy2apader0>*<e;0j]FBed",
"zPEWJLyhd6p2paaea79asp99-;9=9yLREKs_dddda8JF02dap<.+q219+wc[J*42",
"$=>q>0r266pdddaefa4p4-;7;;9wqJRLRJd_`_dddgRTyddap2++06p9;Sg7qq:%"
};
