/* XPM */
static char *result[] = {
/* columns rows colors chars-per-pixel */
"64 64 96 2 ",
"   c #1B1B27",
".  c #1B1C2C",
"X  c #1E1E34",
"o  c #1E1F3A",
"O  c #1F2036",
"+  c #1F203D",
"@  c #2A222A",
"#  c #212135",
"$  c #2A2335",
"%  c #2E2834",
"&  c #22223D",
"*  c #2C263C",
"=  c #29293E",
"-  c #442C27",
";  c #422728",
":  c #4D2F28",
">  c #46302F",
",  c #4F3028",
"<  c #533224",
"1  c #5B3525",
"2  c #55342A",
"3  c #5B362A",
"4  c #57382F",
"5  c #5D392C",
"6  c #492F34",
"7  c #4B3634",
"8  c #4F373A",
"9  c #5D3B32",
"0  c #633C26",
"q  c #613728",
"w  c #623C2C",
"e  c #633D32",
"r  c #683F32",
"t  c #613E38",
"y  c #5C453E",
"u  c #6B4023",
"i  c #66412E",
"p  c #69432D",
"a  c #6D492E",
"s  c #704125",
"d  c #734F2F",
"f  c #664132",
"g  c #6A4334",
"h  c #6D4A34",
"j  c #664239",
"k  c #6A443A",
"l  c #6D4C3B",
"z  c #714630",
"x  c #714D35",
"c  c #70473C",
"v  c #714D3C",
"b  c #6F503C",
"n  c #735137",
"m  c #73523C",
"M  c #78553D",
"N  c #74593D",
"B  c #7C583A",
"V  c #1F2040",
"C  c #242444",
"Z  c #2D2641",
"A  c #292944",
"S  c #26264B",
"D  c #2A2A4C",
"F  c #322C44",
"G  c #342E48",
"H  c #30304D",
"J  c #262752",
"K  c #272952",
"L  c #2A2A53",
"P  c #262759",
"I  c #27295C",
"U  c #2B2B5B",
"Y  c #303055",
"T  c #393556",
"R  c #31315B",
"E  c #262760",
"W  c #272864",
"Q  c #2C2C63",
"!  c #2B2C6B",
"~  c #333363",
"^  c #34346D",
"/  c #38386F",
"(  c #333374",
")  c #5B4649",
"_  c #6C4744",
"`  c #674A40",
"'  c #6E4B42",
"]  c #734D4C",
"[  c #6F5545",
"{  c #745541",
"}  c #785542",
"|  c #765A45",
" . c #7A5B44",
".. c #7B5D4B",
"X. c #7A5D51",
"o. c #7F645F",
/* pixels */
"D D D R G C A D D L L T R R R ~ ~ R Y H D A = A D D L Y Y L D A Y D D H H D Y H Y D H H D D A # # = # A Y ~ ~ ~ ~ Y H R ~ ^ / U ",
"^ U L U U S = = A L L L L U U U U U R L D D C C = = = A C S A S D D S D D S S D D S S C C # # O # = = C S A A A & & A S L U ~ ^ ",
"= S S C C S S C X X o o + + V C V C S S S S V S C + + X o o o o C C C S C V & V V V + X X o o + + + & + + + o X X . .       . O ",
"# # # # + C S T N n d x n n x h h h h l b x [ { M  .{ b m [ b [ x l h h b n { b b x h l m m b x m m m h x k g 9 $ O O O # # & = ",
"A & X X X # F B c j e r j f w w 5 5 w 9 9 9 e r f f e e t 9 9 9 e 9 e e j k k e r r j j e w w w p 0 w 5 5 3 2 5 p * C A C A D D ",
"D C & X X @ s - o C C C V + X X X X V S S C C C & C C C C C C V V C V C C o o X o & V o o o & o + + + + + C C V 7 g F C C C D D ",
"D = & & % 0 ; O + & S J C X . . . X X & S C S C C C C C C C C & + # & # & & + + C & # + C o C C = & C C C S C C C 8 g * & & D D ",
"H D S F x 6 & C S S C C o = C S & # X X # C S S C V C S S S C C & C & = C C C C S C C C C C C C C C C C C C C C C C 8 x F C D D ",
"D S S v r V C S C C C S C S S S S S C C & C J S S C S S S S Z C & C = C C D C C S S C C C C C C C C Z C S C C C C C V m 9 C S D ",
"H L C v e S S S S S C S C C S C C Z C C C C C C S C S S C C C C C & & C C C C S C C Z C C S C C C A C S C S S S S S C b f S L D ",
"R U S ' t S S C S C C S S C C & C & & & # # C C S C C C C & & C = A Z A & C C C C C C S S C S C C C C C S U J S C C S { f K L Y ",
"L D S v e S S C S C S C S C S S C C = C # & X o C J J S C = = C C C C C & & & C C C S C C S C S C C L L J C & C S J J ' j S L D ",
"R L S } r J J S S S S S S S S & C & & & & = & # # & S S S C C = & & C A = C A S S S S S S C C C S S S C + & C C K C V l j J L U ",
"~ U J ..t J S S S C C C & C C C C = C C C A C C S C C C S D S = & = C C A C C S S S C C C C C = C # + C C S C C # & + h 9 C L R ",
"A C o h e V C S C C S & & & & C & C C & & C C S S S C & C C S D D S D D C D S S S C S S S S S D C L U J C C C # C C C k 9 C D D ",
"= # X g w C & C C C C & C & & C C C C C C C C C C C C & & & & C & = & # # C # S C S S L J U L L U U U C & C C C C C C l e & = # ",
"~ U I  .l K S S C V & & & C C S C C Z C C C C C C C C C & C & o + + & & & C & & o & C C C C C Z A S L U U U P P J S C l 9 + A R ",
"( ~ W | g S C C C S S S C C S S C S C C S C & C C C C C C C C C & & & C & C & C & C V & & # X O # # C J U ! Q Q Q L S l 9 L ~ ^ ",
"A C & h 5 + C C C C S S S S S D C S C C C V C C C C C C C C C C C C Z C C C C C C C & & C C C C C S C & C S C C & C C x j K S D ",
"A & + p 5 C & C Z C C & C C C C & C C C S C S C S C C C C C C C C C C S C & C C & C C S S S J L J J S S S C + o Z J P ' 9 C A D ",
"D S C h 5 S C C C C C C S C C Z Z C C S S S S J S C C = = C & & C & C C S S S C C S S S S S J D S J S C O X & S U U S j 5 V S L ",
"H S C h 5 & C & C S J S J J J S C S C C C & & S S S C & & = C C C C S U J S C C C S J S S S S S J L C C S J U U K K V l 5 C A D ",
"D L S h e V C S S S S S S J J D J S S S S & C & C C A & & C A D L U I J C C C S S S S C S C C S C S S U ! Q I J C S C h 3 & C D ",
"A S J m k J S S D S S D J J J J J J J S S S S C C C C Z & = C C S C & C C C C C S S S C S C C C & # C C C C C & + + + i < . # = ",
"D C C a 5 S C S S S S S J J J J J S S S S S C S S S Z C = = = C C C & & C C C C C C C C C & # # # + = C C C C C C C V l 9 V S D ",
"A A + p 2 V C S S S D S S S C S J S L D L L U L S S C C A Z C C S C S P P P S S S C C C C C C C S S S L K S L U U Q Q X._ ! R Y ",
"Y D S n r S S S S C S K S C C & C S D C C S S C C S S D S S S C S S C C S L J J S S S S S C S S S S C C S S P L S L S b 9 K R ~ ",
"H C C n f C C C & C C & & & C C C C C Z C C C C S D S C S C C & C C S S C C S S S Z S C C C C C C & C C C C C C C C + f 2 + S H ",
"= = O f 3 + # & o o O X X X & + & C C C = & C C C C C C C C J J S C S S S C & V C C S C C S S S S S C D A A C = + + o i , O + = ",
"D C = x p S D S S S J J J J J J J C S Z = # & & C # & C C V C S L S C S L L L L S S S S S S S S J S D D C & # # O O o i < + = A ",
"H A A n l Q Q U U I U U U J S C S C C & & C C C & & & o C & C C C & C & V S S S J S D S S S S C S C C & = & # # & & V a 2 V C H ",
"H A & h 9 J P K S S C C C & C S L J S S C C C C C S C S C S S S S C C C C C & C & C S S D L L C S C C C C C S C A A V h 5 J ~ R ",
"G A C M t J J S C C C C C C C C C C S J J Z & C C C C C C S S & & C & & & C V V & & C & + & & & C S S S J J L L S S C x e J J L ",
"D A S } c J S S J S S C C C C & & & J W ! Q W L S Z C S J S S & S C S C S Z C S S S C C & C C C C & C C C J L S C C C c t J Y Y ",
"$ # . 0 1 V C C C C S S C C S Z S S S J U P U P L L L U U P S & S S L J S S S S S S S S S C S S S C & C & C C S S P P ..' J Z = ",
"H D & r < . X S C C C L L U U D L P S S C S S C & # # # C S L P P S J S L J L J J S D S Z C C C C = S S S C P Q Q U P c 3 + C D ",
"H L C l 9 o X O C U J S S J U J S Z C & V S P W I P C & C S S S J J L P Q W Q ! ! Q Q U L L S S S S S C C + & V C + O i 3 V D R ",
"Y L S j 4 C & + o C L J S C C S S S V & o . X & J Q ! ! Q S & C C C S S L P L W Q J U L L S S L J D S S & & & & C V O f 4 C D L ",
"H L S b 9 C S S C + & C S U L S S S S S S & o & & & & C C & & C S C S S S C Z V & & & C C C S S S S S C & & S S & & + h 9 V D H ",
"R L S b e C S J S C C + o & S S S J P L L P L L L P S C C S & C S C & & # # X X X X + & C S J S S S = & & C & C C C V n j S U R ",
"A = + b 9 & C S S S S C S & & # & S L J J U L L L U J J S S J S S Z V & X X . X X X & & & C S C C C C C C & C & C C V [ 9 V K D ",
"L D S b 5 & O # # & C C C & C # # o # V C S S S S S & O O & S C & & # & & C S S C V V & + + Z C C C S S L P S D S C V h 9 o & D ",
"R Y K b w & C = & & & & & C C C & Z & & V S S S S & + & C S S & # C C J L U U U U U S S C C C S C C C & C C S S S P J X._ E ! ~ ",
"H S V x w C C & C C = = Z C C S S S S L S Z C & & S L U U J C & C S S P L U U U U Q W W ! Q J C S D S C C C & C S U ! o.] ! ( ~ ",
"D C & h w C A C A D D D C S S S J D L S C V # & # & C C S S S S S S S S S L J U U Q Q Q U L C S S S S S C C C C C + . w : . + C ",
"= C C m g S C D D L L L U U L S * & # # & # o # X . . . O C J L L U L S S S S S Z Z C & & C Z S C C C C + C C C C + X i : . # # ",
"U Q J | l U L C C C & C C S Z # O # & & V & & C C & C # X X # # V & C J Z S C & & O X X & C C S C C C & C & A C C C + j 9 & D L ",
"A C + a q V D S C & X X X X & & S Z Z S C & S S C S C C & C C C V & & & V C Z C Z C = S S S C S C C S C C C A C C S V h 9 C L D ",
"= = X p 1   X & S C S & o + & + C Z S K K S S C C S C S S C S C C C C & C & = A Z S D L P K S C C C = & C S C S C D C g 5 V & C ",
"Y L C h q X X O & S U U J Z * & & = C S S U U L D S C C C S S S & C C C & + & & C S D J L L D D D D S S J U U U S S S h 5 C D Y ",
"( ( W } g C + X O O & S Q U D C C C C C C C C S D D C A S Z S S C C C & & & # & # = & = C S C D L R Q Q ~ ! ! U U J J m f I ^ ^ ",
"( ( W ..' J S C C + O + & S L U L L C C & & # & & & C C & & S S C C C C = & = # # O X # O # = S L L L D J S S S U U W ..' Q ( ^ ",
"R L J | k J U S S & & # # O & C J L J S C C C C S S S J S S S S S C C & # # # # # # # # # C C & & & C C C & C S J S C h q C S D ",
"D D C n k S J K J S S C & & & + # & C S S S S C S L U U J L S S C C & & & = # # # & & = C S S C C C & + O X X . X X o g w S D G ",
"H D C m r S S L J J S J S C & Z & C C C & C S S S C C C C & & C C C S S C A A D L L S C C C C & & & C & & & & C C L L } f S K D ",
"H D C h z C A C S S S S S S S C C C + & & C C C S S S S C C C S L S C Z A D U L L S C C C S C S L L C C C C J J J L S m w C C A ",
"A C & % p > & C & = o C & C C # + O O O X # & = C & C V C V S S C & C D L L L C + & C C S C S J L S S S S L P S S C y 0 $ X & = ",
"H Z = = % w > & C C & C & C C C & C C # & # & & C & + S S S C V S S S S A # # # & V C C C C C S C S L P K L S S S y z Z C C D L ",
"D A = C C * p 7 & V C C V V C C V C K S K S C C D S V V S J S J S C C V S C S S K S V S S S V S J P P I J W I U ) z Z S S D D H ",
"G A & C C C D }  .| { { { { x h h m |  ... . .m  .b [ [ l k k h l x g h g g l l k b l l ' l [ ' l l l l ' ' k g 0 $ C C C C D D ",
"= O . O o & C G ` j k k j j r e f g p f p i u 5 w 5 y t 9 9 2 3 5 e 5 1 q 1 1 1 1 1 1 3 3 5 e e 9 9 9 5 5 2 < : * S S S S S L D ",
"R R S L J S S S S C C o o o o C C V C & & + & = C C V S S S S C S S V C V + + C + = & # & C & C C S C V & o V C C S L Q Q K D D ",
"~ ~ ~ Q U L J D S C C = C S S D C C A A S A A A D A S C A D D D L L L L L S D D D A = A Z C S S S & V & # C = = C D ~ U C = C A ",
"# A A & = A Z A A S A D H Y H L Y D A F A = A H A D L D D Y D L ~ R Y R R R Y H D H H D D D H A = & = = A A A L Y U L A A = = # "
};
