/* XPM */
static char *result[] = {
/* columns rows colors chars-per-pixel */
"64 64 142 2 ",
"   c #2B1B0E",
".  c #321F0D",
"X  c #271911",
"o  c #2A1C16",
"O  c #251C1E",
"+  c #2B1E1C",
"@  c #321F12",
"#  c #301F18",
"$  c #37200C",
"%  c #3D240E",
"&  c #2E211D",
"*  c #352214",
"=  c #3B2515",
"-  c #3E2816",
";  c #34241C",
":  c #3A261B",
">  c #36291E",
",  c #3C2A1D",
"<  c #251D25",
"1  c #2A1F24",
"2  c #241F2B",
"3  c #281F2A",
"4  c #272023",
"5  c #2D2225",
"6  c #26202D",
"7  c #2C222C",
"8  c #2F2828",
"9  c #332423",
"0  c #392623",
"q  c #362B24",
"w  c #3C2C23",
"e  c #32252B",
"r  c #38272B",
"t  c #352A2B",
"y  c #3A2C2B",
"u  c #3D3126",
"i  c #3D332B",
"p  c #272132",
"a  c #2B2434",
"s  c #2F2837",
"d  c #2C253B",
"f  c #2F283D",
"g  c #322633",
"h  c #342934",
"j  c #3B2C33",
"k  c #31273A",
"l  c #33293B",
"z  c #392C3B",
"x  c #3C3133",
"c  c #3E323A",
"v  c #44280F",
"b  c #412613",
"n  c #422915",
"m  c #4A2D14",
"M  c #402719",
"N  c #422C1C",
"B  c #4A2E1B",
"V  c #45311E",
"C  c #4A311C",
"Z  c #54311A",
"A  c #61361B",
"S  c #643A1C",
"D  c #412E22",
"F  c #4A2F23",
"G  c #422D2B",
"H  c #433325",
"J  c #4A3524",
"K  c #4E3925",
"L  c #42352B",
"P  c #49362B",
"I  c #44392E",
"U  c #4B3A2C",
"Y  c #513623",
"T  c #5B3523",
"R  c #533B26",
"E  c #5C3924",
"W  c #533C2B",
"Q  c #5A3C2D",
"!  c #412D31",
"~  c #423432",
"^  c #453A31",
"/  c #493E33",
"(  c #42353B",
")  c #503E33",
"_  c #633C24",
"`  c #693D25",
"'  c #633C29",
"]  c #693F2C",
"[  c #633F30",
"{  c #55402D",
"}  c #5B432D",
"|  c #4C4136",
" . c #4F4339",
".. c #534233",
"X. c #5A4532",
"o. c #5D4835",
"O. c #52453A",
"+. c #55493C",
"@. c #5B4C3D",
"#. c #654326",
"$. c #6C4324",
"%. c #6D4827",
"&. c #63442B",
"*. c #6A422B",
"=. c #6D4B2C",
"-. c #704421",
";. c #744C25",
":. c #714728",
">. c #734C2B",
",. c #75512B",
"<. c #7B542B",
"1. c #6B4332",
"2. c #644B33",
"3. c #6C4C32",
"4. c #66453A",
"5. c #644E38",
"6. c #6F4A39",
"7. c #714E34",
"8. c #6D5134",
"9. c #6A533D",
"0. c #755234",
"q. c #785433",
"w. c #7F5A33",
"e. c #73543B",
"r. c #7B5C3B",
"t. c #7E6036",
"y. c #2D2741",
"u. c #2F2843",
"i. c #322943",
"p. c #3A2D42",
"a. c #332A4B",
"s. c #392C4D",
"d. c #3E3243",
"f. c #3A304F",
"g. c #342C51",
"h. c #6D5640",
"j. c #7C5C43",
"k. c #7C6245",
"l. c #77634A",
"z. c #815B33",
"x. c #866030",
"c. c #846D4B",
/* pixels */
"N u , 5.L q q a d s d y.y.y.y.y L r g 9 - 0 y 5 y i 9 w J I i i | , a a d d d 7 f a G I t p p 2 2 2 O * 0 l i.D b D 7 3.=.| O. .",
"W / H 5.{ I q 6 a f f y.y.u.k J U x ! J J I i e q > 9 u i u ^ i I H q s e a d e a d h u q 2 2 < < 2 3 ; , 8 a : . @ 9 $.$.^  .| ",
"i i L } U ^ I 7 2 6 p 6 p p 9 - L I J P w L P L i H , i u , i u i i i t d a 6 7 d p 1 > & 4 p p a 7 9 ; w 5 6 & . ; ; A V 4 8 > ",
"q > q U H u H z u.p 6 6 a a 7 : w L L H y y J | | U I I I I L L | i i > a a e e a 5 # 1 6 e g d e 9 # > w ; 7 : @ > q #.E i i q ",
"i q & I , ; : h a.a.d p p d p 9 9 q y D M 0 H ^ I I D I / / i y I J w H i a i 5 7 5 9 a p 7 e a 0 9 4 ; 5 ; & = : u N 5.{ u I I ",
"I i q { *   O 4 2 p d d p p < ; & 1 ; b D r y w u , 9 L L y w : i L , i y 5 8 : # ; e 3 p 2 7 4 , q 6 6 4 e e : H L M 3.R 5 L I ",
"i i i X.J > & 6 2 p d l p 2 < & o O < q H 0 d 9 7 9 e y t e = = u , , i u w 5 ; ; * * 6 p p d t i , t a a d e u , u 9 >.#.4 x i ",
"L I i o.J * 4 7 d d a 5 6 9 , H ; < < & y t e 9 > ; 9 e g t N , u , > H i i d 5 g 7 e a d a a 7 H w y e d a a 0 , , p 0.*.7 x I ",
"w I i 5.K : w D , 0 H 0 : b N V M : > t i y t r H : r t N L L L V i i I L j d a a a a d 7 a a e i i ^ i d d a e t 9 p 7.' 7 D L ",
"M I ^ e.' w L J V L I , = v M > = b : e w u t a j e a 8 w i ^ I i I i H u t p t e 7 a a a d y u I ^ I h d d d w h a p 0.&.d e 9 ",
"I | ^ w.] e w D w L y e e 9 9 : : : ; 4 5 > t a y.a a a y I I i i x I H L t a a e a s d e y i I ^ ^ I e d i.i.H g d d e.[ y.l l ",
"y L y q.` a a e t L 0 e g 9 a , H , ; : > > 8 6 d f s z L I i t p 8 u J , y e 7 = g d s g w L I ^ i / ~ k a a i j d y.6.1.d f f ",
"h h e e.] k i.y.k e : : : e e N L n : y y q 7 6 2 6 a j H , 9 a 6 a t t q 9 , a 0 L k g d 9 , I ^ H ^ u , 8 5 u L g p >.] y.u.k ",
"G z k j.1.d u.d d a 0 = ; # * w L , > u H a a a d a a e w y y g a a s s s e r : D ^ d a 9 9 y L u q u i H 9 9 : = 0 3 1.' p h h ",
"9 ; + 1.E 7 p d d a a 9 3 9 ; : u u : u u q a d d d a p 7 e G k s s f s s t D M N w d e e a 0 I ^ ^ | | L e 5 * = i 3 7._ ; 0 e ",
"@ = . :.Q p p d d a a a 3 e 3 9 u N - w u w e y e 7 9 e p ; 5 a s p 6 7 7 q w 9 L y d k f a.~ O.O. .| i 0 7 a : , L : 7.S = : ; ",
"! K J x.6.u.d d d a p p 7 7 9 w L M - * u L H u 9 : - 7 a # 5 p 6 p 7 7 7 = , , u 0 a a a a 7 y u x | U U z y.u.l G w ,.E ; i y ",
"z F / z.*.d d d d a 9 a g y y y L H v : 0 L H u 9 * : g a h a a a p 7 a 5 ; q , i y 5 7 6 6 6 6 6 6 , H R G a.g.z D i q._ D  .f.",
"3 ; y >.Q p p d d p e a g D L w L H v u i L i q > : : 5 a a e 7 a p h h 7 e e : i y 5 5 a a 7 d d 7 > q w r g 7 1 : i 2.} / ^ e ",
"a 9 q :.E a p p a d a p e L L L i L , > I i I L N , e q d d g d d a e 9 e 5 e - V 9 a a f d w j k h t y r 9 @ + : P | 5.W ~ L i ",
"g 9 i 7.' d p p a d a a e w H I L L t e g i ^ ^ w , q t p a 7 p a p a y , 9 r 9 e e d d f d j H g k k p + * = H z I ^ o.U I ^ L ",
"w e t :.E a p d a k k y.g w L U ^ L 9 d a w L L , w w e a s 7 a d a h I x d e e a s d f y.f j L g i.a e w J K ^ h x i o.L L I ^ ",
"y g g >.' p y.d a d u.d 0 F ^ / ^ H 9 d h w y i u H i 8 s s s h a.a.l L g a ; e f f d d d a t w d d h ^ O./ K D : L i X.u q u i ",
"q d y.q.*.y.y.d k d f k 0 y / ^ N r h s s 0 i u i x h s 6 p s a d d 3 ; p a e a d d p d d a q e p 2 7 w I w : 5 & , = U w & q i ",
"i a 6 :.E a d d a a d y w j P y h d d d d 9 : D L d a d a s a p p a p 1 p d a d a a : a p e 5 < p 6 5 w i i u e p , - Q L I I i ",
", e p *.T 7 d k f f e D y 9 L e g r l l l j l ~ j f a a d a s a e a y.i.i.l g d k d r a d e e d k 0 w M H P L z i.z G 8.X. . .| ",
"L t s 0.S r a y e d k 0 0 9 i y 7 7 d e g d d t 9 y f f d d d e 0 e a a d f d y.d d h g d d a d k I H 0 N U ~ l r r y } I ^ |  .",
"y a a 0.$.9 e : = 9 7 9 ; ; w : g d a e a 7 d d y L d a d d d 1 9 9 d d d d d d d a e p p d a p q u t a q w u 0 , w w U H i ^ ^ ",
"u e 6 *.Z , w : . ; 9 o o & 1 + 5 p a g 7 a d 5 5 y e a d d k f g a d d d d p p a a , e 9 d f i H J 9 e 0 N g q > u , K u q i u ",
"H q a =.-.L I J b L U ^ U L r r w e k a 5 6 p 3 9 9 5 p a 7 e d d d d d k u.u.u.s a L L 0 e h L U L n , e ; 4 6 4 > u K u u i i ",
"L H 9 8.;.R { U ! ^ | U / ^ w 9 : 0 a p 5 9 5 p 6 9 2 p a 5 a a d p p a p d y.y.i.x ^ i J 0 u ^ I D = e 7 8 6 4 6 q u o.i i i | ",
"U n % %.X.L m D r y L i i i i r k k d d g r L r 9 9 d a g 9 g d y.p p a d d p p t w L L L H x I ^ L u 0 a q s a s a q @.{ |  .| ",
"V n n <.=.H n : , i i i L i L * e p y.k s t ~ i ; e 6 a 7 > d a p p p p p p p p 3 5 i i 0 > u i i ^ ^ L r k a.i.g f t 2./ ^ ^ ^ ",
"N V V r.3.F 0 : N J ^ ^ ^ u H : 3 a d i.f.p.| ^ h e g d h y e 6 d d d d d d d g g : L L u u I L i i u w 9 k k d p p 5 X...^ | / ",
"> > ; S Z - = b : H i ^ ^ I H , z g e r i.k L | z l p.i.P ^ y p d y.u.d y.y.k e r n J L i w I I ^ ^ I w ; 7 a a g y.( j.5.I L y ",
"9 q 8 ` Z   @ m , L ^ ^ | | | U j r r e a a x i 7 < 6 6 w ^ ~ l i.y.y.y.i.d r 0 y N G w : 9 y u I i I i r g k i P i.! h.U w u N ",
"k l a 3.E 1 o * H U | I ^ |  .I r : 9 6 6 a ~ U G w g 5 = u L y y k u.u.g.a.G G s.P ( ! P G : 0 L ^ I i t 6 6 9 = 5 9 X.R % , D ",
"0 h e $.E 5 # * * u | | I i i L r 0 e 5 2 < 9 u V C G R K H L u H 7 d y.u.u.! p.i.~ c z P w : N C I | ^ i 7 p > , > > X.E - n t ",
"r k d 7.' 7 g 9 5 ; u i I U L w g a a a a p 9 y w : 5 y L i q t L : g d d d 9 9 > > 5 p a 7 0 b b V L i i h s t 7 5 0 } Y = N r ",
"y.i.a 0.' 7 k h , V i , y : - t k k h a.y.a.i L J y e - V L a 7 , D , 1 3 2 1 # ; 9 3 p a g - v v N I i i u & a 5 e : &.R n h h ",
"6 e w 2.W 8 7 e 9 , D V N $ - q 3 g r y.u.u.i.j U C N n J ^ h k : n u , @ + o ; 0 q 2 p a g M B v N i i L - 8 p e : , 5.W u t 4 ",
"w N I } J 7 4 * & : w : ; ; u i e 3 5 p d f d e I L = = q u 0 7 - w u , @ 9 9 L L i 7 p 3 1 : N n H ^ ^ H r k y.a 7 , 8.{ i u w ",
"C C U X.J q 0 u i , , , : = w i y 9 5 p p d g J u q ; y i I H : > i i H M D y U / | x d d 5 : , y i I i t a a s y.z ^ l.@.| { ..",
"N V i 2.K 0 w L I , H I , V I I I h f y.d a t u e e z ^ U I q u n J I C B m B C U  .d.a.a.s.g w u ^ ^ y a a 7 7 d d. .c.9.{ } C ",
"u , 0 ,.&.q q ^ / J J ^ I ^ ^ ^ / ^ h d d 5 w 5 + ; 5 ; r g k g q w w r N B C K ..O.d.g.a.y.k w L ^ I y s d a a 6 8 > S J * > % ",
"w 9 9 9.&.n H / P j k ( L / | I i u ; & 6 6 ; & 1 o O < 2 d y.u.i.z D k d q H M H I y 8 7 p 6 i I I u ; p a s a s 8 q { , > ; . ",
"m ~ d h.&.j H J , a p 7 7 0 w , ; q 5 7 a 7 > 7 p p p 2 2 2 2 2 p a e d d g N H w u q q u t i I L u - 9 p p s p s q u | V i | u ",
", 9 7 Q Y 5 y I w 6 1 O < 5 > 0 9 0 e a a 7 w h d a d d p p d p p 2 q t 6 7 H L H J H ^ ^ ^ ^ i L : : 9 d a a a s a q { { i U - ",
"u , + R B X + w i d g 1 3 1 0 y > g d d i.t J t d d d d p d f d d a e e 7 6 y I V L I | / / ^ ^ u : = 9 d a 0 g d k y X.U i u > ",
"/ L 9 2.Y < + * 9 a i.i.a.a u u q 7 d d f z U ( f d a d d d d d p a 6 9 7 7 ; ; u I | | | / ^ / J M b 9 y y F u.y.k L =.#.i ^ ^ ",
"+.O./ z.` p 2 ; # 2 6 u.i.p.x I h a a p p a w i u.f d s d d d d d d 5 ; 7 7 5 8 & u i i ^ ^ V / U ! ( ) | P Z j i.y L <.>.| +.+.",
"+.+.R r.4.f g 9 a 2 3 6 7 t ( O.( k g a p 7 ; 1 p p d p a p d d d a e 5 q 7 a 4 8 q i q q : , H L h ~ ^ | J V q l H ) k.9.+.@.+.",
"^ / , e.1.k h d d p p p 6 < t L j i.y.a a 9 = q t d f y.d y.d f d a e 7 8 5 4 4 5 q q i w - , : : ; , L L , , , t q i { L i ^ ^ ",
"^ L : 3.&.e h y.u.d d a 7 4 w q 9 p d d r 9 u I L j i.a.y.y.f y.d p ; & 7 q 7 6 4 i i I D : q - D , * y , * > > > q i X.K ^ ^ I ",
"^ U i 3.Q 0 e l y.u.f f a a 7 > 5 a a 5 5 w I I ^ I e 7 a a 4 a d a y w u t s f c U I ^ N > p 9 9 9 = N , , u i I | ^ h...^ ^ ^ ",
"I w i r.*.9 r d d d f d d d g e a a 3 ; + 0 L I ^ I , g a a a g h y L i t l a.i.h H u I y d d k i.0 v : = - H I | I ^ h.{ i i i ",
", e e ,.' 6 7 a a p p a p a a 4 6 3 # @ + 1 y i H i 5 a p d a w 0 y L i l i.i.e q i ^ I u p d u.k k M # M N N J V u i 5.K i i i ",
"V 9 5 -.E 2 5 6 p d a a p a d e p p 9 ; 1 7 0 i u 7 p a d a : N , t I y d 6 6 5 u i i I t a p d k k h D M M M G V V , 8.{ i ^ ^ ",
"J w e ,.] p a p d p a a d p d a a d k r h h ^ / ^ k f p f g n H H r i y d p s f c ^ I i d f f d y.i.k j 0 F D ! V N - 8.+.i | i ",
"L L 5 q.] a g k y.y.y.y.y.l g e h a.i.p.z l / U y s f d d a : i I q e 7 d d y.u.h I I x y.y.f y.y.k 0 D M v r 5 ; : * =.&.u ^ ^ ",
": q 4 #.Z 9 9 h y.y.y.u.y.y.g 0 y l l l g 6 y q e e k f g 7 e u i 9 6 6 6 2 p 6 6 y u 8 p a d p a a a 0 : @ # 3 9 : 9 ;.-.- y t ",
"p.| x q.*.i r g f d a a p p 6 9 7 e g a 7 a e 9 = 9 d r w y L I I i a d p p p p p t i y e a p d d e e 0 N * 5 e : q h r.,.n g a ",
"z { U t.#.I y h a p p 6 6 a d e a 6 e a s 7 9 9 : * 9 = q y I ^ | J d d d d d d a 8 i H : 6 d a p 1 # # q 3 p # @ w z e.} * 5 7 ",
"& , , &.C , e 3 6 3 6 d d d d 9 d 7 5 6 8 5 > 5 0 , e 0 0 i ^ ^ ^ L f y.y.y.f d d g ^ I j a d p p 3 # # > p a e : D g #.R q > & "
};
