/* XPM */
static char *result[] = {
/* columns rows colors chars-per-pixel */
"64 64 17 1 ",
"  c #1C1C27",
". c #1C1C2D",
"X c #1E1E34",
"o c #1F1F38",
"O c #202035",
"+ c #22223C",
"@ c #242444",
"# c #282844",
"$ c #26264B",
"% c #29294C",
"& c #272751",
"* c #292953",
"= c #272758",
"- c #2A2A5B",
"; c #2C2C63",
": c #2D2D6B",
"> c #2C2C73",
/* pixels */
"$+@$@o+@@$$*$&=*=&$#@o++@@#$$$@@$@$@@@#$$$@@@@oXXXXo$=-===$$=-;-",
";=$=&$o+@$$$&&=*=&*%$#+++++@@@@@$@@$$@@@$@$ooXXXXXo@@#@oX++@&==;",
"o@$@@&$@XX++o+@@@$$$$$$*@@++o@oo@@@$@o@@@++oooo+++@+++ooXX.    X",
".Xooo@&==@X+@@+@@$$&&*===**$$$$@$@@o@@@@@+++@@$@#@++o+@oXXXOO+oX",
"@XXXo+@&==$o+@@@#@$&&&&$@$&$*$&$$##$&@@o@@@@@@@o+oooo+o@o@#@@#$#",
"@o+X..XXX$@$@oXXX+@#$$@#@@+@##@@@@@+@o@oo@@oooo@+oo@+@@@$$$#@@$@",
"@@ooooXXo@$&oXX...Xo#@$@@@o@@@@oo+++@ooo@oooo@@@@@@##@@@@@@@@+@@",
"@@$$@@@@$$$@o@@@+XXXo@$$@@$$$$@@++++@@@$$#@@@@@@@@+@@$@@@@@@@@@@",
"@@@$@@@$@@@@$$@$$$@@+@&$$$&$$$@@@+@@@$$@$@@@@@@@+@@#@@@@$@@@@@@@",
"$$$$$$$$$$$$@@@$##@@@+@@$@@@@#@@+@+@@#@#@$@@@$@@@##$$$$$$$@$$$$$",
"&=$$$@@@$@@@$@@@+++++++@$@@@+@##+##++@@@@@##@@@$@@#@$==@@@$&&&$$",
"@$@$$$$@$@$@$@$$%@+@+XXo$$&$#++#@###+++@@@@$$@$#@$$=&#@@$&&&$$$$",
"&$$&$$&$&@$$$@$@@@++@+oo+o$$$#+++++##+##$$&$@@+$$$$@o+@@$$@@$&&$",
"====&$&$$@@@@@@@+@@@@@#@#@@@$$#@++#+##%#$$@@@@@@@ooo$$$+o+o+@@$&",
"++++@@@$@@@+@oo@@++++@@#$$@+@@$$%%*%#%%%$@@$$$$#$*-=$o@o+@@@@@$@",
"XOO+o@@@@@@+@@o@@#@@@#@@@@@@++@@+++++++#$$$&==*---=#+@@@@#@#@@XX",
"=--***#$$@oo@@#$@$@@@@@@@@@@o@ooo++++@@ooo@@@@@@##&---==&$@#@+@$",
";;;*%%##@@$#@@$$@@@@@$@@@@@@@$@@@++@+@o@@+@@++XX+O@&;;;;;*$$#*-:",
"++@+o@@@@@$@$$$$@@@@@@o@@@@@@@@@@@@@@@@@@@o+@@@#@$+@@$$@+@##**$@",
"++++@@o@@@@@@@@@@@@@@@@$$@@#@@@@@@@@@@@@+@@@$$&*&&$$$@oX@*=&*@++",
"@@@#$@@@@@@@@@@#@$@$$@$&$#@++#@+@+@@$$$@@$$$$$&$$&$@XX+$-=$@@@@#",
"$$#@@@o@@$&$$=&$@@@@@@@@$$@++++@@@$=&$@@@$&$$$$$&*$@$&;=&$$$@@@@",
"@$$$$@$$$$&$&&&$&$$$@@@o@##+###%=-=*@@@$$$$@$@@@#@&-;;==@$@@@++@",
"o@=&==$$$$$$&&&&=&&&$$$@###+++@#$@+@@@@@$$$@$@@@+o+@$@@oo++XX.XX",
"@@@@@#$$$@$$&=&&&&$##$$$$$@@++#+#@@o@@$@@@@@++oo++@@@@@#@#$$$$@@",
"++@o+@@$$$&$$@#$$$*&*==*$$@##@##@#&=&&&$$$@@$@@@$$@%$$===;;;;;=$",
"$###%$#%$$%$$$@@@@$#$#$@#$$$$$#@$$@@$&&$$$$$$@$$$$$#$&=*&*$#$$&=",
"$@@#$#@#o+@@+o@@@@#@+@$@$$$#$@$+@$@$@@$$$@@@@@@@@o+@@@##@@++o@#$",
"X++++++Ooo+X.XXoo@@@+@@@@+@@$@&&$@$$&@@@@@$@@$$$$$#$@##+++oXoXX+",
"+@##%%%%$$&**==&=$#@+++o++oo@@@$&@@$&&&$$#$$$$$$&$%%#+OOX+oo++++",
"@#+#*;;;-=;==$$$$#@+++@@+@o@@o@@$@o@@@$&%&*$$$$@$@@+++OO++@++@@#",
"@@++#**%&$@++@#$&$$$#@##@$$@@$$$@@@@@@@@+@$$$&&#$@@###$##@@$$==*",
"@##$$=&$$@@@@@@@@@$&$@@#@@@#@$$@@oo@o@+@++++++o+@#$$&&==$$$$$$$$",
"+#%=;=$$$$$@#@@+o@&;>;;=$@#%&$@o$@$$$@$@$$$@+@@@@@@@$$&#+@@#==*%",
".O.Xo@$@@@#$#@%#$$$&=====**=-=#@$$=$$$$$$$%$#@$$$@@o@@@$$==:;&+O",
"#@@XX X#@@@&=-=%=&$$@$$@+OXX#$==&&&$=&=$&$*$@@@##@$$$@=-;-=*@++$",
"$$$@@oX+@==$$=-&$@@o+$==*=$+@$$@$&==;;;;;;;=**$$#$$@@o@@@ooX+@$&",
"#$$$@@ooo@=&$@@@$$@+XXX@&;;:=$@@@@@&=&=;;==**$$==&$$@ooo@++o@@$$",
"$$$$$$$$@o+@$=*$$$$@$+o++o@@@@+@$@$@#@@@+@+@##$$$$$@@@@@+@+@@+@$",
"$&$#$@$&$#@oo@#$$&===***==$@@@@@$@@+oo.XXXoo@$$$$#@o+@@@@@@@$$*=",
"+++#+#+%%#%%#++Xo$$&&=**=-*&$$&&$@++XX.XXX++@@$$@@+@@@+@@@@@$$$o",
"$$#@++O+++@++@@oo++@#$$$$#@XX+@$@+o++@$$@+@o@oo@@$$&&&&$@@@@@oo@",
"==$%#++++++++@@@@++++#$$@+o+$&$oo@@$*---;=$$@@@@#@@o@#$$&==;;=;;",
"@#@+##+##+#+@##$$$%%$$@++%*;=$@+#$$=*---=;;;;;=#$$$@@@o@@-;>>>:=",
"@@@+++###%%%$%$%%%%$@@oo+++@@$$$$$$$$=*=-;;;;*$$$$$$$@@@o@X.X.oo",
"X+#%**#%%*%**=%#+++X+o+X....o#&&=-*$$#$#@#++++@$@@@oo@#@@oX....X",
"==*=;-%#@@@@@$#+OO++o@@++@@oXXXoo@@$$@@+++OO+###@@$@o@@@$@o@o@$&",
"o@+O+@%%@+XXXX++##$@@@#$@$@$o@@@+++@+@$@+++%%%#@@@#@@@@@$$@@$@@@",
"++XXX.X@#@$+oO++@#$&&$$##$#$@$$@@+#+#+++##%***$$@@+@#$#$#$$@@+o+",
"&$$@+XXXo$=-=@++++#@$-==$$@@@$$$@@##++++@%%***$%$%$$*=-=&$$#@@$$",
":>;*$#+Xoo@&--%##@@+#@$#%$#@@@$$@@#+++++++++###%---;;::=*&&&&-;;",
">:;;-=$@@oXo#%*-*&$@o++o++@@@@@#####+++OOOXXXo+#%%***$$&--;>;:::",
"$$&====$$@ooOO+@&*&$@@@#$$&*$$$$$@@+OOOOOOOOo+@@++@@@+@#&$@@+@@@",
"@#@$$$&=&$$@+++Oo+#$$$@#$*==*&&$@@++++OOOO+#$@$@##@OOOXXXXo@#$#@",
"$@@###$&&&$$$@@+o@@@@@%$%#@@+++@#@$####%**%#@@+@++++++++@*=*$$$@",
"####@###$#$$$#%%@@@oo@##$$$$#@@$&$##%#-**#@#$@$$**%@@@&&=*=$@@@o",
"++++++++@++@+@+++OOXXO++@@@@@@@$@o@$*%*@o+#@$@$&$**$&*=$##+@oXo+",
"#++++O++@@+@+@@@++@+++++ooo@@@@$$$$#@+OO+#@@@@@#$$$*$&$$$$$$@#$$",
"#++#@+#@+@@@o@#$@%%*%%%#*$$@&&$$$@$@#@%%&$$%$$$$&*=-=;--=$$$$$$+",
"#++#@$$=&$&&&&$$*---*%*%%$$$@$@+$@@+@@&*&$#%&&$&$*%$**$@o+#@@#$#",
"OOOOo+@$&&$=&&$$*-*%#+++@#&&$#oo@@+ooXo+O+O++@@@#@@@@oo+@$$$$$$@",
"-*%%&&$$$@@@+++@@@@+++#+@#$$$$$$$$@@@++++++O++@+@$$@++@@@%=;;&$#",
"*---=&&$#@ooo@#$@++###@+@@@@+@@$&&$$$$$$@@++++@@@ooXoooo+#=-$+o+",
"O++Oooo+oo@@$$$$%#+++O+o@@$@@$$$*$&&&$$#$#$@##$@+ooo++@$&$$+oXXX"
};
