/* XPM */
static char *result[] = {
/* columns rows colors chars-per-pixel */
"64 64 80 1 ",
"  c #361C13",
". c #3D1D13",
"X c #3F2016",
"o c #3F2119",
"O c #441E13",
"+ c #491F13",
"@ c #452115",
"# c #4C2215",
"$ c #452319",
"% c #4C2519",
"& c #4E281C",
"* c #532415",
"= c #5A2616",
"- c #562C15",
"; c #5D2817",
": c #532619",
"> c #5B2718",
", c #54291B",
"< c #5B2A1A",
"1 c #5E3017",
"2 c #5D311B",
"3 c #612716",
"4 c #682716",
"5 c #632917",
"6 c #6B2917",
"7 c #602718",
"8 c #632A1A",
"9 c #6A2C1A",
"0 c #742F1C",
"q c #623116",
"w c #6B3516",
"e c #6F3917",
"r c #64341A",
"t c #6B351B",
"y c #6D391C",
"u c #713917",
"i c #72321D",
"p c #743B1B",
"a c #7A3E1C",
"s c #4E2A20",
"d c #542C20",
"f c #5B2F20",
"g c #5B3020",
"h c #663021",
"j c #6A3222",
"k c #6E3D22",
"l c #743220",
"z c #743E21",
"x c #793E20",
"c c #774017",
"v c #77401D",
"b c #7C421D",
"n c #764321",
"m c #7C4421",
"M c #7E4A22",
"N c #7D4929",
"B c #7F5029",
"V c #81431C",
"C c #89461F",
"Z c #834B1E",
"A c #8B491E",
"S c #8B511E",
"D c #824521",
"F c #894722",
"G c #834C23",
"H c #894C22",
"J c #824E29",
"K c #914C26",
"L c #855225",
"P c #8B5323",
"I c #8D5927",
"U c #84532A",
"Y c #8A5329",
"T c #8A592F",
"R c #915624",
"E c #935927",
"W c #935C2C",
"Q c #995D2A",
"! c #8F5E33",
"~ c #A06332",
/* pixels */
"::,8<%%,<<<r888rt4<dd&s&&,<<<<>><<<<<,f<<<<,,:%O$#$:8jj9j8<8jll<",
"t9;85*#%:<;888884388,&%&%%*::,:*<>:,<:,,>*<*##$O@@#*:>:##$%*<89t",
"%*=**->#OXO@+O+*#***,***##+OOO++%##*######@O.OOO#$$+O+OO..    ..",
"O.OO#%*wIMbULLZGZZZSZSSPRIYLUBLLGGGZJUYGUMMNUGHLPLBGGMmp#O@X$$@$",
":@.OOO-RAVaamaapuupcauaVaVbvvpppppaaDDmzpammauuapakyytwyv*:%&:<<",
",*#O.@c-O***++..X.+*****+#%$##*#*%+#++OO###OOO++O@O#####wD,%%%=,",
":*+##a=OO+*=#O.. XO+*****###**##+@@@$#++##%@###**%&*****#ym,##::",
"<>:<Zw+*==**O#**O+..O******==**##%%%@:****#%#****#%#*****#tG,*:<",
">=*Ja*=********=*-####--**==**,%%%s&%-*****:#**##%::**#***#Lp**<",
"<=*Ga************%%*****=*****#%@%@%::****:%****:&::*::==**Jn*>>",
"88*Ya**********+#$#@@@+*=****#%&%::,###**%:%-***:#%*=;;****Lb=<8",
"<>*Ha****=******::##@@O+**;**%%:%&&%%####**:***-**>;;**#*==Hm*<<",
"f7:YV====***=***%#%:#%#@@#***,%%%$%%%%**-==***#*==**+#**>*#Ga=88",
"987WD*=*******##:%$%:&#*****>,,%#&,%&,*==******%#@O#****+#+Np+;h",
"%%ODy#***######*######*:**#%#*:<<,<<,,,*****=****=5=**#+#*+Dz:>:",
"$@.Mp##****######***#:#***####@###%$$$#****33455995*+%*#***Jp@O$",
"987WG<::**#+##***-##****#***##++@@#@@#+#@##*#%%%,#>8855;==*Gp@:8",
"l09Im:*##**********+***##**#****###%####+###+@$.@@#=49696;*Gzd9j",
"%##Mp##*******=*%%***+#*#**#*****##****:*###*##***#***:*#*#Gx;<,",
"%#+be###**#*****#********:*:#,*##*:*:#**##***==;==*=*#@@#<=Pp*:,",
"<=*Zu*****#************=**##%%##*#%*=******========#O.@*55*Mu*:;",
"<:%Zu+*+*==*===*********>>#%%,%#***5==****====*:==*#*=447**Gp+:<",
",<*Zp*****=*======*=**#+#:&%%&,,;77;*##*==**:*****=8664<***meO%%",
":**KV=========3=====****#*#,%%,:**#*#***=****#**#@##**#@++On8.O&",
",-+bu**=**=*=3=3==**:=*=*=%&%%,@%*##*******###+O###***#****Mz**:",
",%#bw#*:=*>;=***==<<<757=*#%::,%:**33=**=**#*******;=-33794QF5hf",
"f<,Lb**=**==***+**-:,****==>:::******==3**=*=***=****>3;=<:Gp=8j",
"<:%La**######+*##*%%%***:******+********=*****+**##:##%:*%@nr+:<",
"%%%nw@#OOO@O..O+#*%%%%:*%#*#**;=****3**+#****==****--,&%@$Op<O@%",
",,%Gb,,,*===7=7=7*:&$$#+###+*#**=***====::=*=**===,,&$XX@@Oaq+%,",
"d,&LC89444843***=**%$%++##+**#****#*#*==<===*****#*#$@@$%#+bw+:d",
"<,%Mp*77=**##**===**:*:=**********#***###***;<<=:**#:::&,#*Zp=6h",
"g,,PV===**#***:#**3***#**##****#*+##*+#+####@+##**=*==8<>**Za*7<",
"s,*RA==*==***%%%##=36653*:*-==*#*******=*::**#*####**==*###Za=4g",
"oo u6#***#*:*#,%:*==5333<<<85=****7==*=*==:**-:****#*#**=57QC=%$",
"<,#c1 .:%**>744<5;=*****$@@@*=733===3=3*===-##:*:**==*=565=ZeO,<",
"8<*GyO.#*7===74-***#+*345=*#**=*==3364669564<<-*:***######@pw#<<",
"<<*Ze*#O+*7=*#***>*@O.O#=5697=##***=3336674<<==;8;=*#O###*Ony#<<",
"<<*Gp*=**++*=5;******#+@@##**+#***-***#*####**=*=***##**##OMy#<<",
"8<:Lp#===*#+@#**==7=3=353;****#***#O++.O.OO##*==*****##*#*#Pb:88",
"%&$Uz@%>**=**#%@#*-=375=355======*++OO..OOO##****##***##***Jp**:",
"<<%NpOO$###%###$#@##*=:***#OO#**##+###***##+O##*#*===-;>**#Di@#:",
"88:Lz@$%#%%#%%#*#####**>#%@##=*+O*#*=58488=**##**&##**:*===WD49t",
"<<%La%%s&%%%%,****>>-*###*897=*#*=-3;585466466=**-***##@*76~K60j",
":*#Gp@::-<<,***=<<<-*+#+@$##*==**===*=;589895;*=**=***%%#@ v<.#%",
"@#*SV,<<<<<<45;:%$X@#@O@X  .O*>;35==,:**%,%%##*,***###&:##.p<...",
"89=RC<<*&*+***#$o$$$#####%#+.OO@+**=**%%@$XO#*#****#*%%%*,Omt+<8",
"%*ODu$>:##OO.X%#&,:*#*******+**###+##*,:&%%:*>#&%****#:***#Gp*<:",
"%%Obw .#***#+O@%%:-===*:**::*=***###%%%,:sd;;;:%%%#****:*;*Ze##@",
"8<*ZpO.O#*74;*%%%%%*=38<<**:**>**#**%$$$%,,<;<,<:<::;777=>*Ve#<<",
"003RV#+OOO#=98<:&##**#**<,*&::*:*###@@@$$$$%*::<8ht96995;>=PV50i",
"l03QC=***O+O#:<48;**##O@##*&@******#%%%$$$.oOO%:;>;;>>==754QC00l",
"88=RC=7==+++OO$*=;>*******=<*=*=*:*%$XX.O$.$+#%#+%**%+****#mu@>;",
"<,#PV==;==**#+@O@%*******<<4====*##$$%$$$$%#****#*#+OOO.OO#Vp*,<",
"<,%La*=;;===****#####***=****####:%-,&,,<<:***%++@%+#+#+*==RV=;:",
"f,%GD%::***=**>:**####**=*=**#**-:::&-888******>;;:*#*;;=8=Hp+%:",
",&$,m2@:*####*##OOOOO@%#:*##****##*,<<f%O#****:;=;>==;=<*,pv+@#%",
",,&%%z2@#*#*##%*####@$$$#+##****=*=,:$oO+*****:**=*;===:*nV*#*<-",
"d,&#%&ar#++*+#****==,,,*,:**==****#@*#::********===7=534MG**>:<,",
"d&%#**;Y!TYYLPGVZHRWWEEPRLUJmDGDGZZbVCZAAZZGFZGGFFGFHHZbe#****<,",
"$oXXO+*<NmMDDbaaVVannpvppppapyetpputuwwwetyrtzzizpupprq8#**:*=5,",
"hh,>====**+#+++*##*@%@&$%***:,:*=*+*#O##$$$$$%@*#*:++O#+*=795;=,",
"896857=<>*#:#*==<%%&&,,,,*>:%,>=57<<>>,,,d,,:%,:**++###:*>98:#%:",
"@%,%%%%:*%:,<8;<<,,&&&ss,:<,,<<<h82888h<<,d,,dd:%@%%%::<888,%%$."
};
