/* XPM */
static char *result[] = {
/* columns rows colors chars-per-pixel */
"64 64 66 1 ",
"  c #1F251F",
". c #1E2B22",
"X c #1F3026",
"o c #222E24",
"O c #292E24",
"+ c #233126",
"@ c #2B3127",
"# c #25352A",
"$ c #2B352B",
"% c #27392C",
"& c #293A2E",
"* c #31362B",
"= c #323A2E",
"- c #383C2F",
"; c #273D30",
": c #2B3E31",
"> c #333D31",
", c #393E31",
"< c #52341C",
"1 c #54391F",
"2 c #5B3B1E",
"3 c #643E1E",
"4 c #513721",
"5 c #553C24",
"6 c #5C3E22",
"7 c #623E21",
"8 c #2C4234",
"9 c #2E4638",
"0 c #2F483A",
"q c #324336",
"w c #3B4134",
"e c #324639",
"r c #394639",
"t c #334A3C",
"y c #3A493C",
"u c #64421F",
"i c #5D4224",
"p c #5F4329",
"a c #404437",
"s c #634424",
"d c #6A4524",
"f c #654826",
"g c #6B4B26",
"h c #644629",
"j c #65492A",
"k c #6B4D2A",
"l c #714B28",
"z c #6E5126",
"x c #6D532C",
"c c #72542B",
"v c #755B2D",
"b c #795A2D",
"n c #6D5531",
"m c #6E5934",
"M c #715531",
"N c #735B33",
"B c #7B5B30",
"V c #79632F",
"C c #766234",
"Z c #7A6332",
"A c #7E6A36",
"S c #7A673A",
"D c #7C6A3A",
"F c #374F40",
"G c #375141",
"H c #385142",
/* pixels */
"8%#mpX%#%&&8:&8888%*$@+$$%::&&%#8%&&&%=%&&&%#%#..XX+&88988%xf80t",
"t8&Nk#+#%:&:8&88888:=$$$@++##%%#&#%%&%$%%%%#+++ X++%%%%++X+gs89t",
"%&%nf;8#+++##+##%%:%&%%&%##+X##+%%%&%%$%%#++X+#####$##+X . u< .+",
"+.Xf6#%88#++#%%#%&&:88q8888&8%&%8%####%%#######&&$@++#+@+++g3O##",
"&#.i1+%888%####%#%:::8::%&>:>:8#&&%&&%%+%#%%#####$++++###%%c3%8>",
":%#s<  o+%%%##X+oO#::%%%%#$$&%%#%%####+++#%+++##+++$$%%%&&:cd+::",
"&%#k2XX+++&8#+ .ooo#%%%%%$%$$%###$@+$+#+##+@##%%%#&&%&%%%%%cd#%:",
"8:#xi%%%%8%#+#%&#Ooo+#%:%#%:&%%%$@*@*&%%&&%%%#%%%&*%%%%%%%#Ng%::",
"8&%xfX#%#%%%%8#8%&&%+%::&%8&%%%*$%$**=&%:#&*$$%$$$=$$%%%%%#mf#&8",
"88&mf8%8%8%8&%%#%$$%%%%%&%%%%%&*$$$$$*%%#&:*&&%%*===%&::&%#nj&&8",
"888mj%##%%%%8%##$$@+@+##&%#%$#$&*=*=**#%#$$=&&:%$*&%::8%%%%Cj88q",
"88XCj%8X%%&%%%%%&&$#++++%88&&***$:$=@$###%%:%%%:%%>:::##&8&Nj&88",
"q8&Cf&888##8%8#$*@**$@#+++&&&***$@***&&&::::%%%%::%####%:;#xj;98",
"t8;Sk88##8##%##$*&@*&$&%%%%%8==&***&==&:::%%%#%$#++%#::#+#+ns%89",
":&+xs##8#%#####%@@@@@&$=%%%$#&=-=-=>=-&:##%%&%%&&:88###+###np%&:",
"@+.zu##%%$$####%%&&%%%%%%%%##+##$*@@+$@%%:::8qwwar8%##:%#;%Mh#@+",
"ee8Dc:&&&##X%#%%&8$##%%##%%#%##++@#$@$##@#%##%$**%:89888::;ns+:q",
"Ft9Ck:$&&%&&&%%&#%%%&&#&&&%%#&%&#@######+###++@++O#:8te998%Nh>eF",
"%##x7#$%%%&%&&&&%&%$%##%%#%%&&####%%#%&%%%##%%#%%%###%%%+%%xj>>:",
"%#Xk6#+$%%##&&%&#%%%&%%%%&%%%&%%&&&&%##%##%%&&&88::::%++#8:Nh#%:",
":;%cs%%###%+%##&%%%%&&8%&%$***@$%$*#%%%&#%&8&&88:&:$o.#&89;ki#::",
"q:#zi####888888&%%%%#%%%8&#@**$*&#&q88%%%&8&8&%%:8%#%888:;#ni%::",
"::;cs%%:#%8%&8&&8&%%%####&&***==w888&##%%8#%&%&&%%:8988:%;%xiX&>",
"%:;Vk;&:8%&&8&8:8888%8%%#&***$**=####%%#8&%%%%%#++%%%%%%+#+j4.@+",
">%#k7#%:%%::88&8%%&=&%8%%8@%%****#+##%%#%%%%###+##%%###$#%%ni%::",
">$#g5#%::&::&%%&8%8qq8888$#***8*&&8888%8&&%%%%&%&&%&8888809DM9e>",
"w>=vd::;%&::;%##%%&**%8##%888**#&&#%%88%8&&%&%%%&&%&&&88&q&xi;ey",
">=$bk###########%%&**$%%88%##8#+#&&%%%%&&&&%%%#%%#%%%$&*%&Og5#:>",
"#$@g7@@+X++..o++##$**$%%#$#%8#888%%88###%%&%&&8&&&&&*==*@@+i4.#%",
">>$vd>>:&&:888:88&&$$@###++####88%%%8&88&%&&8&%&8&q==@OOO#+f4+#:",
">=$blere98988&%%8##$$#$##############%%%&88%%%%%%%$@*@@@*@#k6#:>",
",=*ls;8::%####%;&88#%#%%%%%%8%8#%#%%%%%##%%%888&&&%%****=##zi;qy",
"--$bf&8&%#%#%$%#%%8%&%#%$%%#%%%###++#+##++##+####8%88888&%%vf;88",
">>=Zc8&%&8&&%&$$%#%80088:&=:8:%#8#8#8##8&&&#%##@%##+%&8%##%zf;88",
"OO.u2#%%%%%&%$=*=&&89&88>w>q9::#%#88888#%8%%&&=&&&##%%&&&88Az#8#",
"::#f<.O&%%%:8qqwq8&&&%%%+OO@#::8888#8#888%88*&&&&&#8&%88898zuX88",
"e8%niXX#&88&&88:&&%##%888:###::;88888888989qw-8#*-%%#++#%+Xfi%88",
"88;xi&#X@#88&%%%&%%++..#;9et8:##+###8888q8888&&8888&#+@###XfiX88",
"q:%ni&8%%+++&88&&&%%%#++++######8+88#8########8%%%&###%&##Xxi#&8",
"e8:Ns%%8&%%++#%&&&888:8888:%#:%#8##+o+XX.++@&&%8&&%#%##%#%XVk&8e",
"#$@Mh$$:%%&&&#@@#&&88888:8::::::&&+@++.+++++#%8%:%##;##+%%Xmj%8&",
"8>*M7@O@#+$$$$&@@@+%%&&&&:&+.#&;+#+#+##%#+##+###%$::::::%&#npX#&",
"te=N7$$$$$@*@&@*#$@##%&:&++@#::++##88888988####%%$$##:&:888Dn90t",
"::$c7$&&******&&&&=8&%%$+:qe::%##8#8888889989q8#%::%##@$#88DN0tt",
"%;#cd**===-*%:%:>,=:&#@+o@$+%:::8#+%88&8qrr988&8%:&&:#:%#+.s4.+%",
"+%%vl>-,w->q88::$$@@#+++oOo.+#::8888*#88*-*@###&%%%$#@$*%#.i4 .o",
"ee:BM>>$&*#%%%#+O+@@$####$##.++++#88*8&@@@+.+%#&%%%#%$*$%%+n5#:9",
"%%+k7#::*@+.oO$$*=**#%&&&$&%######+###*****&8%&*$%%%%&*$%:#xh%::",
"%%og2.o+:%:++@$O**>:::::%:%&%::%%%####$:&:>>8:&&=*$@%%&&&8%ziX8#",
"e:#c7+Oo+%888%**$*$;::8>=&&&&%:%#####@$$&*>>8>==,-=&&8q88&%kiX88",
"FF9Zk#@@++#:eq,$:$$#%#&&>:&*&%%::#%$%@@@$@@$$==qrrrrttt88&8Vf9tt",
"GF8AM;%#%+++#:>w::;###+@@#&$$%%%#:&$*$$@OOOOo+$*>=>>=:&&888DvtHt",
"88;Zc::::##+oo#:::::%%%%::::::%:::&@@OOOOOOO+#%%##%%$#%%&%#ku#&q",
":;#bk;::8%%##++++#:;&%:#&:8:::::##$*@$@@$O*$&%&%$##+Oo.o.+Xzs%&8",
"q>%bd:::::::;##%$####%:%&&%%%###%&&=====w>:&%%$#########&8;Vg&8&",
">>$Bl&&&:%%::%::&$&#+#%::&:&%#&&:&&$==ww>*%%%&%&8:%%#%;:888vg+$&",
"-*@cd$@%#####%##++++o@##%###%#%%$#%=,>q&+#%%%%&8&8&8:88:%&+k6.#%",
",=$lu@@#%%#%##%%###+++#+$#+$:%%%:&:&$@o@#%%#%%&&&&&8::%:&:;zd%:q",
">=$Bd@########%%:&::>:>>>>:%:::::#:%&$::8&&&&&8&8888888eq:%vg;:>",
",*@Bg#%88::8:::;::eeq>5>==:%%%##&###%&::&8&&8&&&%8&&88%%O##vk%>>",
"@OohiX%%8&888;%::8::**$*$%:&&$@+##+++o++@@O@$%%####%##++#%#cd%8:",
"F>:Np%88&%######;#:**@=*==%&&>:#::%#####@&@@@*@%%8&%####%%8Zc:::",
"e0:Cx%%8%#+##%%%&+$**$*$*%%#$&&;::&::%::***@@&&%#+XXX+X##%8Zh#@&",
"###h1XX+#+#%%;&&:##$@@%$$%&%&&%;:::;:&:&&****&&%+++++##&:8%g6X+#"
};
