/* XPM */
static char *result[] = {
/* columns rows colors chars-per-pixel */
"64 64 23 1 ",
"  c #21271E",
". c #1F2D22",
"X c #222E23",
"o c #292E24",
"O c #223126",
"+ c #2B3126",
"@ c #25362A",
"# c #2C352B",
"$ c #27392C",
"% c #293A2E",
"& c #31362B",
"* c #32392E",
"= c #2B3D31",
"- c #333D31",
"; c #393D32",
": c #2D4134",
"> c #2F4538",
", c #334236",
"< c #3B4135",
"1 c #314539",
"2 c #3A4539",
"3 c #33483B",
"4 c #404438",
/* pixels */
"%O$=$O@@$=$:=%=:>==*#+O##$%%=$$@=$%%%$#==$$$@@@..@.@=:>>==%==>>>",
"::===$@O$==:=:::===--###+O@@$$$@$$$%%$%$=$$$@......$@$@OOO@@%-=>",
"O@$$$==$.O@O@@@$$$==%===%$@..$OO$$%%$$#@$O@...$@@$%@@@OO...   ..",
"..OO@$%:=@OO@@$@$$===-=>===%==$$==@@#$$@$O@@@$$$$##@O@@OOO.@o+O.",
"@..O.@@=::$$@@@@%$=====%==-=-==$%%$%%%$O@@%$$$@@@O@OOO#O@%%%%*=%",
"$@@....O.$$$@@O.XO@$=$$$$@##%$$@$$$O@.@.@@@O@..@OO@@@@$@%%%*&$$$",
"@@@$..OOO@$:@O...X.@$$%$@$%#@$#@O@#+#O@@@O@O@@$%$%%$$%$$@%%##@@$",
"$$$$@$$$$=$$O@@$@O..@$%%$$$==$$$@####%$$=$$%%@@$$###$%$$$@$@$$%$",
"$$=$$%$$$$$$==$==#$@@@===$==%%%#####&*%$%$%###@##&&&%$$$%$$$$%$$",
"=$=$$%$=:$$=$$$$$##%$$%%%$$$$%%####&&*@%%%#&%$%$%**%$$===%$$%%%$",
"=:==%$%$$$$$:$$@@#+OOOO$=$$$@###&***+&@%$@*#%$$=##%%=>:$$@======",
"$$$=$=%$$$$$$$$$=###@OO.$%==$#&&%-####@@$$===$$%$$-==$@@=======$",
":$$:===%=%$$$$$$&++###OO@@$%%*&&++&#&#%%===%%$@%===$O@@$=$@$====",
"::::===$=$$$$$$$&#&&#%#%$$$$%-**&&*&**%%=$$$$@$$#.O@$==@@@@@@@==",
"O@@@@$$$$#@@O@$$#####%#%%%#@@%*-*;--*-&=$$$$%%%*%=:=$@@O@@@@$==@",
"..OO+$$$$#@@$@@@@$@$@=$$$$$@@@O#&#++@@@@$====1;241==@@$$$$%%$$..",
">>>-;-$=:@@@@@$$$$@@@%$$$@$$@@@OO+#@@@@@.@$$$%##*#==:>=====%#+$=",
">>>>-=#$$$$$$$=$$=$$%%@$$$$$$%$$#O@##@@$@@@OOOOO+O$=>>>13===*-,1",
"O@@@@##$$@$$=$==$%#$$@@$$$$@$$@$@@$$$@$$%$O#$$$$$$@$$%%$$$$==-#$",
"@O@@@@@$$$@@$$$$@@#$$$$%$$$#$%$$$$$%$@$$@@$$%=====%==$O.$====$@$",
"$$%%%%@$@$@@$$$$$%$%%$%:=$@#&&##$##$==$$@%%%=$=====@..$=>==$%$$$",
"=$$%@$@@@:::=::$$$$$$$$$==###&+&%$%==$$%%%=========$==>:==%$$%$$",
"$%=%=$%%$$:$==$=:$$%$$@O@%#&&&**-===$@$$=$$$=$$$=$==>::=%=%%$@##",
"@$==::%=:$$:$:=:::::$$$$$%&&&&&&-$#=$$$$==$%$$$$@.$@%$$O.O@.....",
"+$@@$$%=$$===::=$%%%%%%%==%%$&&&&%#@@$$$$$$$@@@OO@@$$$$$$=%$$%$$",
"+$+@@@$==%==:$$$:$:,-:>=%%%#*&-%#%======$=$$$$$$%%$====>=>111>=-",
"-&-=-=%=$===$$@@$$=&*%%@$=%=%*%@=$$$$==%=$=%=$$$=$%%===-==-====;",
"=&&*-%@$O@$O@@@@$#%&&%$$==%$%%%@$$%$$=$%=$$@$$@@$@@%###&=%#O@@%=",
"X+&+&+OOXOO....@$$%&&&%$@@$$$$:==$$==$$@@%%$%$=%=$%=&*&&++O...@O",
"##&&*--=====:::=:$%#++@@@@O@$@$%=$$$=====%%%==%%====&++oo#OO.@@$",
"&*-*;222>=1>:%%%$$$@@@@@@@@@$@$$$@@@@$$====%$=%%=$%#&#o###@@$$@=",
"&&##=====$$O@@$%::$%%#%$%$$$%$$%$$$$$$$$@$=%===%$$%##&&&&#$%%==-",
"&&*&===%$@$O$%$#%$$=%$$%$%%@$$$@$@@@@$@@O@@OO@@@@%%==>=>%%%===$=",
"&*->>:%%===$%####@=>>>:=%*#===$@$$$$$$$$=%%$@$$#$@$@$%=$@$$%==>=",
"XX..O@%%@@%=$##**=$=:=::,-2->==@=$:========%%%=%%$@$$$$%%=>>>=@O",
"%#@O..+%%%$=:12--==$=$$@OXX@$=:=:===:====%==###%%$$=%%=>>>==@O@=",
"%=%@$O.@%:==$:>===@@@$:>1=@@$==$=:::>>>>1>>-;-==**%$$..$@@OO@$$=",
"%==$$$OOO$:=$$$$#=$OO..@*131:$@@@@$=:=:>>>=>-#==-==$$O@@@@OO%#$=",
"%==%$%=$$OO@=>==$=%$%OOOOO@@$@@$$$=$$$@@$O@$$$=$=%%$$@$$@@@@$$=$",
"=====%$==%$OOO%-==:=::::::=%$$$$=$$@OO.O..OO$===%%$$@@$$@@@$$===",
"O@&&&##%%%%%%@@o@%===>-=:::=%====$O@X....OO@$$=$$#@$$$@@$$$$=%$@",
"%**##+o+O+#####++X@@%====%@O.@$$@@O@O$$%%@@OOO@$$%=%===%$$$$@O.@",
"==-*-##############O@@%%#@O@@==OO@@==>1=>>=%$@$$=#$@$%#====>=>>>",
"$=#&*#=#&+&&&&#%%=*==$%@O*11:=@@$=%::=11>3:>>>=$%=%$$$#@$>3331>>",
"@@@#&*&&--;*#===-<;=$O@OO##@$==$$=%=====:2211=$=$==$%#%%$@....O@",
"O@%%--;;;;-->:=%##X+@OXXX  .O$==>:===%=*&&#+@@$=$$$@@@#&@@......",
"=>=>12*#*##$%%%XX+@o@@@%@#@@.OOOO@$%#%##++XXO$$$%@$@@###%#O@@@$=",
"OO@X@@=*#OO...+#&***#@%%@%$$@@$@@@@@$$=*#&&===#&#$%$=#&$$=@$$$=@",
"O@.O..X#%%@@OX#+&**=:=%=%=%%$%=$@$@@@@#%%%--===&&&&@=$==$=$$$@OO",
"==%@@XXX@$>>=%&##&#%=:>:#*#%%==$$@$$@###*&--=-----&%==>=====@$$=",
"331:=#XOO.@=11-*#@$$$$$#--=##%$=$$@##++##++#=%*-;242213>=====111",
"31>>>==@@OOO#-;->=%$OOO@O@%=@$$$$%$###+o+oooX+&%-----=%%>=333333",
"===>=>:==@OOO.@%===$$$$$%==:%=%=$%%++ooo+ooo@@@$$$$$#@$$=$$####%",
"@=#%%=====$$@O@OO#%%=$%$===:====%@##&#++++##%$$$@$@OXXX..XO$%%%$",
"=%#*%-======%$@@%@@$@$%$%%@$@@@@%$%*-&--;-#=$$@@@@$@@@@@$==>=%=@",
"%#***#%=$=$=%$=%#@$O@$%%====$$$%=-##--;;-#%$$%$===$$@$===1==$$@O",
"#&#&##@$$@O$@$$OOOO.OX#@$$@@@$$$@@$---=%O@$$$$===========%#$OOOO",
"&+&&+o#@$$@$O$$$@@@@#O+o@OO@%$$$%=%=##o@@#$$$$$#$======%%=%%@$=%",
"&##*&+$$@@@$@@$$%%===--*--=$=====%%$%$*===%%=====>=>>>>>-=%%%=%#",
"&&+&&%$:===:=====:111-<;;#=$%$$@%@@@$$====#%===$$=====$$O@$$$#%*",
"ooXXO@$====::==$::==&#&##%==%@OO$@@.O.O@O#oo#$$@$$$$$OO@%%$$%==#",
":--==$$==$@$O@@$$$%&#&&&**$==-*%==$@$O@#+&+&##$$$=$$@@@$$%=>>=$$",
"=>>>:==$$@O@@@$$$O#&*#*#&@$###$======$%%&#####$$@O.@.OO@@$>>%$@@",
".O@.OOO@O@@$$=$==@###o@@&$$$$%=$=====%==%&&&##=$OOOOO@@%==%@O..."
};
