/* XPM */
static char *result[] = {
/* columns rows colors chars-per-pixel */
"64 64 148 2 ",
"   c #32230C",
".  c #3D270D",
"X  c #3E2A0E",
"o  c #2C2716",
"O  c #2B2917",
"+  c #272B1C",
"@  c #2B2D1D",
"#  c #332612",
"$  c #352B15",
"%  c #3C2D14",
"&  c #332E1B",
"*  c #3B2E1A",
"=  c #2E311E",
"-  c #3D3116",
";  c #34321D",
":  c #3B331C",
">  c #3D381E",
",  c #2A2F20",
"<  c #352E22",
"1  c #3B2E20",
"2  c #2E3322",
"3  c #2F3824",
"4  c #333523",
"5  c #3B3522",
"6  c #333926",
"7  c #3B3A24",
"8  c #373028",
"9  c #3D352B",
"0  c #353C29",
"q  c #3B3C29",
"w  c #442D0E",
"e  c #4B2E0D",
"r  c #4D310F",
"t  c #52330E",
"y  c #5A360D",
"u  c #432E12",
"i  c #482F12",
"p  c #412F1C",
"a  c #443215",
"s  c #4B3314",
"d  c #4D3916",
"f  c #43341B",
"g  c #4A351B",
"h  c #42391E",
"j  c #4B3A1D",
"k  c #513513",
"l  c #583317",
"z  c #543915",
"x  c #593914",
"c  c #50371A",
"v  c #5C3518",
"b  c #533B1D",
"n  c #5B3D1C",
"m  c #643D1C",
"M  c #433523",
"N  c #493621",
"B  c #443A24",
"V  c #4B3A24",
"C  c #42362A",
"Z  c #443A2B",
"A  c #4B3C2B",
"S  c #533C24",
"D  c #583D25",
"F  c #523E2B",
"G  c #453C32",
"H  c #4A3E33",
"J  c #513F30",
"K  c #613D22",
"L  c #37412A",
"P  c #3C412A",
"I  c #4B401F",
"U  c #55401F",
"Y  c #5F401F",
"T  c #63411D",
"R  c #6B401B",
"E  c #73461E",
"W  c #7B511F",
"Q  c #444125",
"!  c #43412A",
"~  c #4C412D",
"^  c #524126",
"/  c #5C4224",
"(  c #53412C",
")  c #5B442C",
"_  c #454632",
"`  c #4C4135",
"'  c #4D4339",
"]  c #534433",
"[  c #5A4633",
"{  c #564836",
"}  c #5C4935",
"|  c #51463B",
" . c #54493D",
".. c #5B4C3C",
"X. c #5F513F",
"o. c #644121",
"O. c #6C4622",
"+. c #6C4A25",
"@. c #63452B",
"#. c #65492D",
"$. c #6B4B2B",
"%. c #744720",
"&. c #734C23",
"*. c #784D26",
"=. c #714B29",
"-. c #794F2D",
";. c #6F5129",
":. c #775225",
">. c #7C5527",
",. c #74532B",
"<. c #7A552D",
"1. c #775A2E",
"2. c #7A5A2C",
"3. c #604631",
"4. c #624B35",
"5. c #6B4F36",
"6. c #634D3A",
"7. c #6B5136",
"8. c #63513F",
"9. c #6B533B",
"0. c #725535",
"q. c #735D34",
"w. c #7A5C32",
"e. c #74553B",
"r. c #76593D",
"t. c #7C5B38",
"y. c #7E632E",
"u. c #756030",
"i. c #7F6536",
"p. c #574C41",
"a. c #594D41",
"s. c #5E5145",
"d. c #615346",
"f. c #6D5742",
"g. c #6D5843",
"h. c #635649",
"j. c #725B44",
"k. c #7D674F",
"l. c #7C684F",
"z. c #835A2C",
"x. c #825D34",
"c. c #86632E",
"v. c #8D652E",
"b. c #846036",
"n. c #81623C",
"m. c #816241",
"M. c #83684A",
"N. c #8A734F",
/* pixels */
"j Z f 9.A C 5 4 4 4 4 0 0 6 0 j A h : a g f M $ M Z > N F ` H ` ` V 5 4 4 6 5 4 6 4 Z H 9 3 2 + + + $ u s 7 P k y d : ;.5. .a.a.",
") } F 9.[ H 9 @ 3 6 6 6 0 0 7 ^ [ ! ^ S F H H 5 5 M * C H Z H G H A : 6 ; 4 4 ; 4 3 7 A 5 O + + + + @ a f 5 = - w X & %.$.| a.a.",
"G H H @.J | ( 4 + + 2 2 2 = - s A ` F ] g A ` ] A A V 9 M N G G H H Z 5 3 2 ; ; 3 3 & : $ & 2 2 2 ; : * C & , : . * < m N 8 8 8 ",
"8 1 9 F C A V B 0 3 + 2 2 3 ; f M H F S h j ^  .| ] ] ' ' ` Z ` ' H A f 4 3 : ; = ; X & ; ; 4 4 : : % a N $ ; a % * 5 %.D 9 G C ",
"H M < A p p u 7 0 0 2 2 2 2 2 - : 5 V d d f S ' ` ` b ] | ' A N H J N A Z 6 C 4 ; - : ; 3 4 5 ; M f & $ & % & w p V g 7.D V ' H ",
"H G C J %   o O , 2 3 6 2 , + * % $ % s g : B B Z f : H H Z N % H A f G N & 5 * w % ; = = + + ; M 5 = < ; : : f A A d 0.K 5 H ' ",
"H H G 4.S * & , 2 2 3 0 4 @ @ * # o O 5 V f ; : : % > Z 5 : a i M g N C G C & % $ u X @ 2 2 3 : H g : 6 3 4 ; V N N - <.O.& C ` ",
"H ` G ..V i * : 5 4 : ; @ $ g A * & O & C M : > a % : f : Z j g Z N u A H Z 4 : 4 : : 4 3 2 4 4 C j C : 4 4 4 f g f = 1.O.; G ` ",
"V ` H 9.S a g N f M V f a r c V s s u 9 G M f f V f f h c H H H S G A H H Z 6 ; 5 ; 5 5 ; 3 ; ; H ` ` C 4 4 4 > > : 2 ,.O.; g H ",
"d ` ` j.O.V ` S S A ` g r r c a w t u 7 N Z 5 4 P : ; ; N H H H G H H A V M 4 ; : ; 4 6 5 4 B A ` ' ' B 6 6 6 M 5 4 2 1.+.4 f > ",
"~  .` x.+.5 M V N A Z > > : - a u p u & & 5 C 4 6 4 6 4 Z H H A Z Z J H A 5 4 4 : 4 6 4 : q A ` H ` H 5 6 0 0 A 4 3 3 1.$.4 7 0 ",
"A A Z >.O.; 4 : 7 Z f : ; - : f F g % p : p 4 , 6 6 6 Z H H H 5 4 8 N S Z N ; ; a 6 4 4 5 N A ` H `  .A 6 3 6 C B 4 0 q.$.6 6 6 ",
"7 > > w.=.4 0 6 6 : a s a - : h H c u N N 5 4 + , @ 4 Z S V a 4 5 & B M a : f 5 j A 6 6 > - M ` ` A ' V f & : V A 5 @ ,.O.4 L 0 ",
"d B 5 i.=.6 0 6 4 3 a w a w w g H g u Z V 4 4 4 6 4 ; > f B B 7 5 4 8 7 5 M a a V ` 6 ; - - M H G 5 C G H f > u f 5 & ,.o.; > h ",
"- - $ ;.K 5 3 4 3 3 ; ; ; $ - a Z Z u Z G M 5 6 6 6 3 & ; f V 7 7 5 q q 7 M V d g N 6 : ; ; B ` H ' p.p.A ; $ u i Z ; ,.T - h ; ",
"% % X &.D 2 2 3 4 4 3 2 ; ; ; - V N s g C N 5 5 : ; : ; 2 $ & ; < < ; & @ M f f A Z 4 6 L P ~ X.s.a.p.H M ; 4 a g H f ,.R e f % ",
"j / S v.,.q 6 6 3 3 2 = ; ; a M A g s i C H A Z : a a ; 2 u @ 2 , & , 5 ; i f M G M ; 3 3 4 5 B A C p.[ ( P 0 0 7 A N >.T % H N ",
"I U | c.+.0 6 2 4 ; : 4 6 B 7 B ` V s i g A H N : u s ; 3 : 5 2 4 , 2 4 & u 5 V C B ; ; + @ @ + , @ M F ) ^ Q P I j H w.O.j  ._ ",
"; a C :.K , 4 4 3 2 : 4 5 A A V H A k N A G G M i i u : 3 4 4 5 2 2 q q : : : a G M ; $ 4 4 ; 6 3 : p f N > 5 ; & f H 8.} ' ` h ",
"= ; 9 :.K 2 2 2 3 3 2 2 ; A ~ ` H A f f ` H H A j g 5 5 6 6 4 4 2 6 : - - ; ; s N : 4 4 4 6 V Z 7 7 > M f % X % - ^ | 9.[ H ` Z ",
"5 : ! :.o.3 2 2 3 3 3 3 : f V ` H H 7 ; 5 Z ' ' f s 5 5 1 4 5 , 3 4 < M f a > a : > 4 4 4 4 H S : 6 4 = $ % u A B ] ' 6.F H ` ` ",
"N > 7 :.T 2 2 2 3 6 5 4 > j ( ' ` A > ; 3 M H ~ g s V 5 4 7 & 5 4 4 > ] Q 6 ; : 4 4 0 6 0 6 q A 7 0 > ; N ^ / ] 7 Z H 6.A H ' ` ",
"B 6 > ,.T 4 3 4 ; 3 6 6 f b ' ' ' V > 6 5 M C G C F H 5 < 9 5 M q 0 7 V 5 = - : 0 6 3 3 3 2 B B 4 3 5 ` s.{ ^ V f A H 4.V : A H ",
"5 6 5 2.;.0 4 0 5 6 6 6 j B | { c f > 6 5 f A A G q M 4 5 4 4 5 9 3 ; a ; 3 ; 4 0 4 4 4 6 4 > : 2 = ; Z ` B a & & f u F 1 < 9 9 ",
"Z 6 & +.m ; 3 4 4 3 4 Z j h ] B > > > 4 4 > s V A 6 4 4 4 8 6 < 8 4 3 - 2 3 3 3 4 4 f 4 3 ; & @ 2 = ; f ` Z Z : 4 s s #.A H ' ' ",
"g : = +.n ; 3 6 4 0 > d f > A > 6 > P q q h 7 A Z 6 3 4 7 7 7 5 > ; 4 0 0 5 : 3 4 4 7 4 3 : ; 4 4 h g d S ` ~ B 7 Q b r.4.a.p.p.",
"V f 7 1.E > 5 f > 4 7 j a f H 7 ; ; 4 : : 4 6 5 > B 6 6 6 6 5 ; a : 3 3 4 4 0 6 0 3 > 4 6 3 2 6 7 H V f s ] A B > B f [ H p.p.p.",
"A > ; 2.%.- ; p w ; ; : * % N a 4 4 4 > 5 4 6 4 f A 7 4 4 6 3 ; : - 6 4 3 0 3 4 4 4 : 4 ; 3 2 2 > Z 9 ; > V Z f j g Z ( C 9 ' ` ",
"Z 5 & =.m p M f . * ; $ # $ $ # ; ; 5 ; ; 5 6 ; : Z ; ; 3 6 5 6 4 5 6 6 0 3 3 2 4 ; f : : 4 4 Z S A f f f b M p N C M F C 9 9 G ",
"A f 4 ,.%.F ] F k A ( ` ] ~ h > h : 6 6 ; & = & & * ; 2 3 = : 4 4 4 6 6 0 0 0 4 6 5 A A j > 7 H | A k d f * @ & & p C F C C G G ",
"F c f <.*.@.} [ j ]  .[  .H g a r - 6 = & & : 2 = - = 2 ; ; 4 3 3 2 2 2 2 3 4 0 0 ! ] Z A g A ` H N e * : * < & < * Z 4.H G ' ' ",
"] c e =.[ F x d h Z ` Z G H H > > 6 6 6 5 f A 7 - > ; 3 4 a 4 4 3 2 2 2 3 3 2 2 5 M ` ~ ` j A ' ' H B M : : 5 5 5 5 C 9.] ' p.p.",
"V k l z.7.S r r s G G G H H A u ; 3 6 ; 4 Z ` C - - ; 3 4 a ; 2 3 2 2 2 2 2 2 2 = ; Z G C * C G H ' ' A h 6 P L 7 0 5 7.] ' | ' ",
"c z b m.0.S d a g F p.G H A Z i : ; 6 P P Q  .| 7 > 5 7 7 B : = 3 3 3 3 3 3 4 4 ; s A A A Z H G G G A M - 5 6 ; = = : $.] |  .| ",
"* p < K v u r r u A ' ' ` ` A b B > - h 7 7 (  .Z B q q ^ | B 3 4 3 0 4 0 6 6 : f c F A V V ` ' ' ` H M - ; 4 4 7 6 ~ k.8.` H C ",
"f M : O.l   . k N H H ' p.p. .( h h > > 5 ; 7 H ; @ & @ N ` ~ 7 0 0 0 0 0 6 > g f j S j s * B Z H H ` A > > 7 V U P ! f.( C V V ",
"7 q 4 ;.T $ # a S |  .| '  .p.~ > f > ; 3 ; ~ [ j V ; ; i V H M h 7 0 0 L P U b Q ( ' Q ) j r j H ' ' H 7 , 2 % u & 5 4.D s g g ",
"a 7 : W Y ; % X X V | | ` H H H h a ; & + O < Z b n U / / A H G A ; 3 6 0 q Q Q Q A ! Q ^ h a k n | ' ' G < = > f f * 4.K s k f ",
"> 0 3 ,.T ; : : % * C H ' ( A j > ; ; ; 3 = 5 C C a $ N H A 5 5 ~ g 5 6 6 3 : - a : ; 2 4 ; a t k c H H G 9 3 : 5 * f } S w d f ",
"6 0 > 1.+.; 5 h s N H C C a r M 0 6 7 L 0 q B ( ^ j > a V H 4 ; g V M * + + & * 1 & @ = 4 7 s t t g H G H M $ 4 ; ; a #.@.k h 7 ",
"= : N 9.) * 4 : - g V j c w p M = ; : 7 0 0 q B ) S k k A ` 7 7 s d C N X o # * 9 5 & , 2 ; s c k N G G Z g ; 2 : a M 7.) A M ; ",
"j j ` 4.A * & u % u M a u w M H 5 & & 4 3 4 6 B ` A e u 9 Z a : a N C p w - - ~ H Z 5 2 2 $ f N i A J | ^ a 7 4 4 : f e.] C N N ",
"n x ' 4.A f p N Z M f N u i N H Z * ; 2 2 6 7 V A 5 * 9 H ` V * p H H b s k j ^ [  .q 6 3 - a g N H H H 7 6 4 7 4 q | l.8. .4. .",
"j S H 7.F f V H ` V V ` j V H ' ` 7 7 0 0 4 M Z * > ! ) [ A N Z g F J S z x z x ..a._ 0 P Q 7 f A ' H Z 4 2 & @ 3 _ a.N.j.4.4./ ",
"A f f 0.@.N p H | S A | ] ' ' | | ] M 5 2 & M : $ u & p M 6 4 7 a N V f g z S ) ....~ P P 6 4 f H ' ` N 3 3 4 5 4 8 8 =.V $ p i ",
"5 a ; q.$.k S { ) V B ~ A { | ` H Z % & , @ $ & o # o + @ 2 0 0 L B d 6 5 M S c S ` f 8 ; 3 4 B H H A - < 2 6 5 4 1 9 D N * 1 w ",
"x V 7 q.$.j S F s 4 ; ; ; f M M * p * & 4 & f 5 , 5 , , + + , , 2 2 ; 5 4 : j A C Z C 9 M 9 Z H ` V s & < 2 4 4 4 a C J A G H F ",
"V f & ) S * B ] f ; @ # @ O * g a f : : 4 ; M 7 6 4 6 6 2 3 2 2 2 = 5 q ; 4 V ` A A A ' ' ' ` ` H s w f 6 < 5 4 4 6 C 3.J H J c ",
"C M $ D j   # M C 6 5 ; = $ M Z a 7 6 q 0 5 ~ f 4 0 3 0 3 4 0 3 2 3 : 4 ; ; V H S J ] p. .| ' ' Z s w - 6 6 a 6 3 6 Z 4.J G C p ",
"| A a 5.S # $ u * 4 7 P 6 4 M H f 4 4 4 0 N ] ' q 4 4 6 3 0 4 0 2 3 ; - ; < * p M ' ' p. . .H | F t t a h h U 7 4 7 Z ,.@.H ' | ",
"d.8.| b.O.4 ; % $ @ 4 0 P B ~ ` Z ; 4 = 2 4 B A 9 0 4 4 4 4 3 0 3 3 : % ; & $ & * Z G G H ] b | ) U ^ } } / T B L h ~ z.-.p.d.s.",
"d.d.) m.;.0 ; ; ; , + @ ; > ` a._ 6 6 3 2 @ % & 4 2 3 4 2 3 4 4 3 4 : * : 5 < & & C C 9 9 p N A ~ B ^ |  .S z f B ^ a.M.e.s.h.h.",
"| | j t.=.7 B 6 0 2 2 + + @ 7 H B 0 0 6 ; : u > 5 6 6 0 6 0 6 4 4 5 * < & < & & * C 9 9 M u j u % - N H H V g i > N H [ A H ` ' ",
"` ` u 0.+.> f 0 0 4 4 3 ; ; M 9 & 4 4 5 : a A H A Z 0 L 0 0 6 6 3 2 - $ 5 M 5 @ < C H ' A a f s N g u 9 p % 9 < 1 9 C 4.J ` ' ` ",
"' | A 7.@.f f 6 0 3 6 0 ; 4 ; u ; 4 = ; : f ` ` ' H : 4 2 2 & 4 4 ; N B V 5 5 7 Z ] J ' N u 2 * 5 % s N p p C H H | | j. .' ' ' ",
"` V Z n.O.: : 6 0 3 3 0 4 6 4 : ; 4 ; $ - f ` ` ` ` g > 3 2 ; 4 7 B A H N 7 Z ! j A A H B 4 6 6 7 h t u i s F (  .] | g.] G G G ",
"N : : <.o.< & 4 3 2 , 2 2 2 2 & + @ % X o $ C H H Z ; 3 3 3 4 M M B H A 7 q q 5 5 G H H C 4 3 0 L > s a s z b ( V A Z 5.A 9 G 9 ",
"c f * *.m & * 2 3 2 4 2 2 2 4 : = 2 : % & ; f C C : , 3 4 4 a c g 5 H B 6 < @ ; G H H H 5 2 6 3 3 3 > d r s s S b S V e.[ H p.' ",
"F V : >.+., 4 2 2 2 2 2 2 2 3 4 3 3 7 > 7 7 | | ] 5 4 3 4 7 s S V > Z 9 4 4 7 6 q ] ] B 7 4 0 0 3 L h d d z d j b k g e.} ' ' H ",
"] H * >.=.; > 6 0 0 0 0 L 0 5 : > P P ! Q B ) | V 5 0 3 4 ; a G ` 7 : 5 2 4 0 0 7 ] ' H 6 6 0 4 4 7 > s k t a ; * u u *.#.C ' ' ",
"* M & +.m $ % 7 0 4 3 0 0 0 ; a h P 7 7 5 & 5 M : : 6 6 5 ; 5 G H : < , , , , , @ C C 8 < 4 2 2 3 3 4 a a w % & a a a :.%.d V : ",
"Z | A w.O.A f 7 0 3 3 2 2 , = : ; ; : 4 : < M a e a 4 h g h A ` ' Z 2 4 2 2 2 , & M G C : 4 4 2 3 > : : M u & ; a a > y.-.l ; 6 ",
"B ) | n.+.H N : 3 = 2 2 = 3 6 - 3 = ; 4 8 ; : : i a - a 5 Z ` ' | F 6 6 0 3 4 0 6 5 H A u 5 6 3 2 $ % # 5 & = $ X N 7 u.) i * = ",
"$ g M #.j M 6 = = = 2 3 3 6 ; > 5 ; * 5 * * a : f s - M a A ' ' | F 6 3 0 0 0 4 6 5 H ` 9 3 3 2 = @ % % : 2 3 - d j 7 +.D 8 M & "
};
