/* XPM */
static char *result[] = {
/* columns rows colors chars-per-pixel */
"64 64 37 1 ",
"  c #5F3D25",
". c #623F27",
"X c #633F28",
"o c #66422B",
"O c #6A452E",
"+ c #6C482F",
"@ c #664631",
"# c #6A4730",
"$ c #664935",
"% c #6D4A33",
"& c #674D3C",
"* c #6C4E3A",
"= c #714C35",
"- c #724F39",
"; c #6D513E",
": c #73513C",
"> c #79533C",
", c #664F41",
"< c #6A4F40",
"1 c #665144",
"2 c #6D5343",
"3 c #67554A",
"4 c #6C5649",
"5 c #6D594C",
"6 c #735543",
"7 c #795641",
"8 c #745846",
"9 c #7A5945",
"0 c #715748",
"q c #735A4B",
"w c #795C4A",
"e c #6D5D52",
"r c #725E52",
"t c #6F6056",
"y c #736054",
"u c #786354",
"i c #726259",
/* pixels */
":=%+=+==-==->>X>++o.+ooo%+OoOoXXXo#+=:>>9907077000007030<-X-%X>>",
":%++=====>7->->X+o.oo+%**+O+%oXXXo+O=>=-79>90-0rrr0wrree<-%=--->",
"*#+#=X=X-77->-=Xoo+o#@*2-=OXOOOo.O==>==79w9w7>060riiirer07--->>-",
"-%%%=XX=-7677--7ooOoo**2-+OXXX#oX++==>>>9977067>06w00ee<0<0-->><",
"**%%#XX>>>=>922<+OOoo;46-#+oooO*#*--7>>=77>>6<67<X666<<<<*--*--6",
"**<**==+==>>704*$#oo+;q6=**+XOO#%#=89>==X>>>07<6>7-6-%%<*-*-=X%<",
"***-6-====>>-05<1#O#2::82:*$*%+*%+>79>>=7<7<<<-X-=*%*##%X-=%-XX-",
"**%==67>X==X<04<2%@5iq8q2*##$#+==+>->>>>><----<--=**<*$%-==X==X-",
"**-=--->>>=-6=**;&;te02;4-##==+O++===9ww9w9q606------<X%<--XXX>-",
"++*;:=>>=>76-*#*;24888%%65-==++%====-7w99rrq000<<<--<-<--%-X%%-<",
"+:88>7>-767260622e2::62%%4*=-==>==>==799906q056<<:<<-<<-XX-#X><-",
"::q::>:+76-60ye*;yq0$%+o;00=====>=77=%7979qrrr6600<>6<0<6>>->=-#",
"q>q6:9:++:;64e5$%yte<**%-26*=+=%=7799-79rrrrre5re3e<<0r000>0:-##",
"*-:>9::*;:::yy2%6it562*6::2-=====>=7w9qwrrrreeeeeee0>r0000<:::-#",
"o++>=++-rq6:8tqqte41**%0666-===+X===7wqqrrrre44<<000000w00r6-:-#",
"o-=+++=85;;842tt552<*%#-26===%+#X==X6q9wwrw054<<0<000r000000-60#",
"8q8%O+*;-+%42=04<<<&@=--:6=%=+O++:68wuyuuw::e44&<<0006667680<64@",
"q24%ooo%##**=#**@@@&XX%%*:::>;+++=:8tq:8utttt34;0066660666788040",
";;;%+%+o=%%*=*%*XX#XXX+=:qrqqe6%->69yuurt555334400000660060<<4*-",
">:-;2::+#=--6=%**@*-%#=78:6*:22-:78wu8uq98;55433<7rrrq00<60<20-6",
"**:%;:;%+=:6-:**<**%%+=6q9*%-*+;685qwwuyyt852;;;00qqr00<22<*-2<=",
"$*;*:22::>86*$;;<*##98-9:>::;;%2;;;669684;;&$&;;<6000277-&<*%&**",
"****260566q:#+;46*%%wrqwrq2364;&$6666668;*$$OO%;X662<6<X*<&****&",
"*$%:800qqq5:=%;%-=%#=---64;;;%%O+;r867686:$@oo*;=7607XX-***<<<*-",
"**2262q6006::*+o@=->::+%;2;%;;#o+:y::>;=;%oo#$%$;==::*O$*$*<*<<*",
"*22**42==:::;%oo@X#-::+#;%;2;;;o+-84;;;;@@o#;;;;%%%;;&@*&&*&%<22",
"221%256->>:8%Oo%*O%:%=##%+%&$$$OO=::;;;$$@@#;;;*++%%O$&&&<&<&&%&",
"21%;6rr6:-62+++=%%-6+#*%%O+$$%%*+;4;;;;&$##%*$*%+%+$#*;&*<<<<%#<",
"$*%*;0q6-:6;%+%%%=6%+#$*$%$o$#O%22446;;&$&;%+%;;%++Ooo%*&3333<**",
"***%;26-=**+%+%+-:52#oo%*;O+;%%%**;&***;##%**:*;%::##o$$<1,3553*",
"21-*:;22;%+%%-*+;23,#oo#&$O*;%+%%%++%+&4%**;%82;622###&*33350442",
"228q68q2;;*;:;#o$*,&&Oo$+O*;*=oO+**%%+*;6-=:6442;%%#%o*22e555452",
"8rqr85e4:;:q-%Oo.$$&&%&@+$%--$O@&2$*+=:+--66e5252$o+%%1;644451;:",
"2:26;;;;;;=;;%@o.o+%*45*O+o*%OO;2&+==+=+%=624e355;O%%%66>%%;;%-;",
";:;;442;4;%;;;@...@++;88wr2:OO&&.@&42++;O#=-*41;*Oo;;==>:=++*%%%",
"::56;;;:r8*:;;&@o++o+;;yiet2@o$@o+*;:+:+O@%6222%%+o*;>=++%o++#+;",
"*-;=;*=qt58*;&&&@.++=2;qee;;&#.o.o+-++++@OX@**##OOoo+%===+ooooo%",
"+==;568yr52%4334&@@+=-::=%$+&@ ...o++++==%XOX#XX@#oo++==%++o o++",
"=+*;qete;%%@&@$&++%;-:6-%o%o@X o.++++++=%%O#X@XXo+++==%%oXooo+o+",
"+=++44re;*;%$$Xo +**=:-==+%ooOooo*+:-2;+@XX%XO@Xo=*>%%%%oXo+++++",
"%===88we:22:#&@&&@-->;==%#OX@$2$+==-=-<%oooXXXXX==*-+%%Oo..o.++O",
"+*::*$:2-%;;+;;&52+:>>:-%+oooO2$++-++-*#@%#@XX==*=-=O%##XOOOOXoX",
"++-;:+=:o=;#O2e;8;-68:==*$OOO+%*=%=+O+++###+@**77=6==-@Xooo+OOoo",
"+;:;:;:=+%%+O%3t2++;6;--%OooO$%%+O++oXO+##O%===66=#****%+XOoXooO",
"=%2258:%#%%o+o*6%+++:6:+%$#++##O++=+o++%%=@-<--6*==*%%%OO.OOXOX=",
"=+4542:=#O+oo+%%+++++;;**$#$%%==-==+++%++%=--6<-><-#%=@@OOOOOX+=",
"%542;:::#+o+*%-++o+o*++++*%+##%-%+++++%=#==%=-6==6%XX##%@O+OXo++",
"+22::=:++%+%:==++++*++. o$$%###%+#+%+#-6-76%%==*XX=XO@%#O#=%%+++",
"=8287==+==-%--+++OX+O+XXOX##OXOOXXX=X+66::-=>:;*#X**#X#O%%%#*@%%",
"2556:=++++=++++=+XXX=XX#@O=#XOOXX=XX=+=--6-%6:%%=X*XX#%%%OO@%*4<",
"=662>:==+++++++++%oOOO#*%%%#O+OO>=X=====--==*#%$=#X#**#*-#%#62,*",
"2:8886=+==>==++++%oOO+#=-=--#+O=>=======--=::*+oX#XX#%X*&X%%*<<*",
";:688:===+:88-o+OXOOO+#=-==+oo+$7==>===>==76;%+o#XXX=XXO@#%:****",
":7::6:==+:8qq5%o%%%+O%#-:-=oo%O+====>=>=-=6r;;%o@%*X#XOX@%*-%2--",
"7q78;;;+-66rq;+o#=##+o=#%%+o%:#+=XX==>>==%-q51$&@#2#XX-*$:***20-",
"wwq8:6:+886>;o+ooXXX+O=%==OoO#=%==========*e5%;;<==*-=*<4212688w",
"q660::68wyu6=%oo###oXO#=7==+X+=7-=+=X=X=>:*2;%22;%%:4;o$111;2yq6",
"--62#%648q66:%++*6-#O+#===XX==>>===>==+>:2=%-*42%%%64&%;;*2;0q6>",
"-:q4:;866qyq=%%6042=#%=#XXX====>77==+=+=%;;===26-=%;;&;$;*2;68>>",
"=6qey6068qq8%%%22<6008=#>XXX==>X--=XXX==602%;$=%%*&$;$$*;2567q>:",
">7602%254q66+#%@66*<qq7X=X+======+-->=X=**%##--=%;;;;;22;ttw6>:6",
"6680%;8qq062O+%;q065q2===XX+===+==----=<%%;%%--*%;&&1&2;qii9>>:>",
":6-=:q:6q::;+o#60<<=<<=X=X+X==X=>=-=*%%***;*::*262&&;*525q>>7=--",
"6%+%%:6:-%%*+O+#+X==X=+==X====>=>==-=*%*2<22:-*254245244r679==->"
};
