/* XPM */
static char *result[] = {
/* columns rows colors chars-per-pixel */
"64 64 118 2 ",
"   c #3D342E",
".  c #373534",
"X  c #3D3632",
"o  c #4A3426",
"O  c #43352D",
"+  c #49362A",
"@  c #47382E",
"#  c #4A392E",
"$  c #573A26",
"%  c #593A26",
"&  c #523C2E",
"*  c #5D3E2A",
"=  c #443932",
"-  c #4B3D34",
";  c #453E3A",
":  c #4B3F38",
">  c #513F33",
",  c #5F402D",
"<  c #4E4037",
"1  c #4C423C",
"2  c #534136",
"3  c #5D4434",
"4  c #53443B",
"5  c #5B4639",
"6  c #57483F",
"7  c #5D493D",
"8  c #62422E",
"9  c #644633",
"0  c #684733",
"q  c #654836",
"w  c #6B4A36",
"e  c #614738",
"r  c #644B3C",
"t  c #6B4D3B",
"y  c #714E33",
"u  c #714F3A",
"i  c #6D503E",
"p  c #765236",
"a  c #785337",
"s  c #74523D",
"d  c #79553D",
"f  c #7D593E",
"g  c #4A4542",
"h  c #4D4845",
"j  c #514740",
"k  c #544A43",
"l  c #5C4C43",
"z  c #544D49",
"x  c #594F49",
"c  c #5F5046",
"v  c #55514E",
"b  c #5C524C",
"n  c #575453",
"m  c #5C5652",
"M  c #5E5855",
"N  c #634E42",
"B  c #694F40",
"V  c #645145",
"C  c #6B5343",
"Z  c #64544A",
"A  c #6B5649",
"S  c #67584E",
"D  c #6D594C",
"F  c #735543",
"G  c #7A5641",
"H  c #755846",
"J  c #7C5A44",
"K  c #735749",
"L  c #745B4B",
"P  c #7B5D4B",
"I  c #625750",
"U  c #645A53",
"Y  c #6D5D53",
"T  c #655E5A",
"R  c #6A5F59",
"E  c #735E52",
"W  c #7A5F50",
"Q  c #7F6047",
"!  c #7D614E",
"~  c #6F6057",
"^  c #65605D",
"/  c #6B625D",
"(  c #756155",
")  c #7C6353",
"_  c #7F6853",
"`  c #74645A",
"'  c #7B665A",
"]  c #7C695D",
"[  c #736661",
"{  c #756962",
"}  c #7D6C61",
"|  c #7D726A",
" . c #805B3F",
".. c #825D45",
"X. c #825E49",
"o. c #856146",
"O. c #886246",
"+. c #84624C",
"@. c #89644D",
"#. c #89684F",
"$. c #836552",
"%. c #8A6651",
"&. c #856954",
"*. c #8A6A54",
"=. c #806759",
"-. c #846B5B",
";. c #8A6D59",
":. c #87715E",
">. c #8B715C",
",. c #836E61",
"<. c #847163",
"1. c #897463",
"2. c #83756A",
"3. c #8A7768",
"4. c #87786B",
"5. c #89796D",
"6. c #857A71",
"7. c #8A7D73",
/* pixels */
"..o o o @ 8 9 9 9 9 9 w w 0 0 8 8 , * % * * $ , , , , % , % % % % % 8 , 8 w w w F B t B B 0 0 V Z N B B B N l N e 0 8 @ O + + X.",
"o.  O + # 3 3 5 9 q w q w e 8 , * % % % % , 8 e 9 , , 8 8 % % $ % % , % q w q q w B t t B 0 B Z Z Z Z B Z B V b e 9 3 > : O O ..",
"d   . < 2 < 2 2 6 q t t w 0 9 8 % * * * , , 3 r q 8 , % % , , , % , 8 0 q 0 0 y B B B B B t B t V Z Z Z U Z I N B B e e 4 : O ..",
"a   . < 1 < & 3 7 t t t B q 9 9 * , * * , 3 r r q 8 * % , % , , % 8 8 q 0 0 w t F s B t N r r t r t Z B Z V c N N 7 7 e 4 =   ..",
"J   = 2 4 2 3 9 t w w w B B B e , , , * % r V t e 8 , , , % , 3 8 9 q w i w w w w t t t B r t w 0 0 B B t e e e r 7 e e 4 X = X.",
"f   = 4 j 4 5 9 w w w u B A Z 3 8 8 , * 8 r A t 0 q q , , 8 8 3 9 8 w C F t 0 0 0 t 0 F B B t w r 0 0 B t e e t e e e 7 g O = @.",
"o.O < 6 N 7 r 0 w w w u w V Z N V q , 9 i i t A i t r 9 q 9 8 w 9 q u F F t u y t t t t r r r r 0 t 0 e e e 9 e e e e e 1 = O X.",
"Q @ - l V V H s w u w w C A C B V q q D ~ D D D V i q q w q 0 y w w u C u s H s F F s B B B B t t t B t t B e 0 B r 0 7 6 # O ,.",
",.@ > 1 4 t s s s u F F F C u u C N C R E L K t K F w w u u w 0 y w s G u X.K W K K K K K K K C u u t F F B 0 u K t t > - & # =.",
"' - 5 r N C J G u ..H F F u t F F K E P P K u F K L F F G u u u u s u s G K X.W X.' W ` E E K K K F F F F F B F C t t 5 2 2 : ' ",
"=.2 N E W W +.G P W W W P P W L W ` W J P P L s F W K G ..G s ........G G X.$.@.X.$.$.W ` W W K K K K K K K K K C B K B N 6 2 =.",
"&.5 Z L J ) L d $.X.X.+.) ,.{ P H } =.W H s d s W W W G G G d ....X.X.X.....X.$.$.=.=.' =.=.X.=.=.=.W W X.X.W X.X.K K X.K e > =.",
"$.4 b ( P ) ) F G o.Q ) ' } ' G J ,.} ,.P P X.K ..W W X...d G ....X.X.%.=...@.%.,.,.,.| } [ ' =.' =.' W $.W =.=.=.W W ` Y 6 > =.",
"$.2 l E $.) ! L ! X.P +.,.} ) G $.,.} [ W W P X.X.X.W X.G ........X...X.;.=.-.%.=.=.,.,.[ ,.=.[ ' [ [ =.+.=.[ =.' ' E E U x 4 =.",
"&.- 7 D H A C L } ' ! P $.} ' =.} { W W P P ..P W W =.X.....J d G ..G  .@.=.=.=.,.,.=.=.=.W W W W ' =.=.=.W ' =.W [ [ W D x 1 $.",
"-.2 9 A A C H ( ' P ! ) ) ) ] { ' ' R K K F F P W X.G G G G G G w G G s X.=.%.=.=.=.' W ' E ~ W W W K =.' ' E $.W =.E [ A l h W ",
"=.j k j 1 l L L F u F W K G W W L A A C u G G F J P F G u s u u t G P ! ' &.` ' ' ' P L ( ( L L K K W W W P P J W W Y x k j g W ",
"o.< h 1 < k r t u u F B C u C B t B t t 0 w u u s H F H H F w u s F G ! ` ( H Q ' ( ( ` ~ Y A A K D K K K K E L L Z U x x k ; J ",
"Q ; 1 j k 7 e 0 y w u t u u w t 9 0 w e 0 0 0 B F K E Y K E K w s F G H ( ( ( ( ( Y D A U D S A A K K L L C F A Z Z I v x 4 = J ",
") = < x b c t q w w C C B t t B e 0 r t 0 0 t F C C C t B A B t t F A Y D H ( D A H i A S Z Z Z C V L Y Y A A S C C b x x 4 @ X.",
"&.@ 1 4 7 r i 7 9 w B B t B t r N r r q 9 9 0 B A i t q t t q t C A A A D L D Y D D C S N N N t C Z A A Z B B C C V V l r > - P ",
"&.# - 6 V V i c t B C C r q r N N r 9 9 B K B K i i i t r r q N N r t t i i C C V V r r e q C r t B A A Z B t r r r 7 7 3 - @ ! ",
"+.# > 7 V C S S A F D C t 9 t A B t t w L E K K L D A Z A A t N q C A A A H i A C w r r 9 9 r B t C K A B B t w r C N r 7 < @ F ",
"#.- 1 Z U D Y L E P L H s u C s F F u u u F F F L D F L C t s t t H ( P H H ! Q H D t t w w B F t F K L H F B u C C V Z b < - ! ",
"o.< k z x E ` W =.) P W X.J s t u G J X.X.P d d J ) K F P L G t s X.-.W X...J J P J s t G G F H J J J P P L s F F K D x g g 1 f ",
"O.4 b Z D ] ' X.o.$.@.+.$...G G ..d ..%.%.+.J X.$.! +.=.+.$.! G ..+.=.=.%.$.&.) P G d G ) ) +.$.J X.X.$.$.P J ! P ) ( Z x b 4 J ",
"O.l S ! -.<.;.*.*.;.;.;.+.....&.$...X.;.@.@.X.X.+.X.o.=.P +.+.X.X.@.;.;.;.*.&.$.P P P o.&.=.$.$.X.X.$.+.X.+.) _ ) =.' ' ( b 4 J ",
"..6 V ( ] 3.7.1.*.*.;.1.+.....@.@.@.*.-.X.+.+.$.=.o.o.+.$.+.+.+.+.;.-.;.;.=.$.$.+.+.+.+.&.+.&.@.@.+.o.o.+.$.&.-.&.] ] ] ' V 5 f ",
"f 4 b U ` | 1.] %.;.;.;.+.X.+.+.+.@.;.$.....+.&.o.+.) J +.X.X.+.;.-.-.-.=.&.&.) +.) $.$.+.$.&.&.+...X...J P +.) ) ] { { ` b j J ",
"J < x U / ` ) ( ) ! P X...X.X...X.&.,.=...f d P +.! J J +.X.X.X.+.$.) ) +.) ) $.J J X.+.X.+.+.$.X.&.&.X.J J J o.) ' ` { ] M 4  .",
"p 2 7 S Y ( ) ( P L G J J X.P G X.) E E G s s H P H G P P J G H P J G J J G P ) P P X.P J =.) ! $.) P G G d P P ( ` ` ` ( V 6 o.",
"y < b / ~ ( ' ( L L J P J P G u H L E K K s s G F s J P P J s s s P J F F H J P ) J J X.! ) ) L P G H G F d K E E { ` { ~ v < o.",
"y 4 v m n ( ] ( W W o.) P J d a s F H K L P L s s s J J Q G d s L L J J J P J G X.J $.$.} ' ) ` ) F d d J H L ! ) ) ` I z j 1 ..",
"p 4 v m I ) ) ) ) ) X.+.+.P G F a d F J o.) -.+.J J G X.o.d H _ ) ! G P Q o...J ..+.$.) =.{ ] ] ' ) J P P o.&.&.+.P J D Z l 2  .",
"a 6 m / { } _ -.,.%.+.*.;.=.P J J G P +.o.-.>.1.3.3.<.;.P X.$.! P o.$.:.&.X.+.@.X.o.&.&.*.,.-.&.&.Q J #.&.+.#.*.*.$.X.o.! Z 2 ..",
"a x ^ ] } <.:.>.7.1.*.>.:.-.=.o.o.o.$.o.+.;.>.7.7.7.7.<.o.Q &.+.X.+.&.:.;.*.*.*.+.+.+.:.<.;.:.*.*.+.+.*.>.;.*.#.&.+.! ! D V 5 f ",
"p k M / | ] -.3.7.5.<.-.-.:.-.=.) Q o.+.*.1.>.3.5.5.1.;.&.$.Q ! Q +.+.*.*.+.+.*.+.+.+.$.=.=.X...+.+.+.+.+.#.*.*.$._ ! ` U v 4 a ",
"f 4 M { | | 3.7.6.3.<.*.4.2.2.2.-.#.$.&.*.*.>.>.;.*.&.+.:.! J Q Q Q +.#.#.+.#.*.*.&.o.Q @.X.X..._ +.+.O.#.+.#.*.&.#.) U m k 1 f ",
"f 4 m ` 2.| 6.6.:.*.*.+.-.Q ) -.+.#.&.*.*.>.>.*.&.o.#.o.o.P f J J +.+.@.+.#.#.#.+.&.X.X.X.X.....o.+.+.+.*.#.#.#.Q Q o.! D c 4 a ",
"f 5 c ~ | ] 2.2._ +.$.o.+.Q G J d J &.&.@.*.*.@.+.P o.J f P X.P J +.o.*.+.&.#.Q ..J J X.........J O.#.;.#.Q +.+.G d d ) L r 3 f ",
"a < k b m _ :.} $.$.' W J P F Q ! F P X.@.@.X...J J s d d G ) J d o.X.P X.X.$.G s d s u F u s u X.X.X.X.J J J J d i t l 1 1 2 f ",
"y < z x 7 A ! ! H G G P F K L H ( ! d X.X.X.J J G d i t s i L C d G G d F ..K F F F G u w F s ..J G J J u G s t t i C 7 1 ; ; d ",
"p < 2 c A V C H u G G u w L ` L ( H d P W J J F F i i t t p s F s d d s u u u u u u u u u F K K H G J F G F s t t t w r 7 - @ f ",
"a < 4 V D D H H u u F u u F Y ` ! t i H P H G F s p t 0 t s s s s s s t w w u u u F u u F F G W K G F F H C C s p q r r 6 < O a ",
"p = z M ~ U D f s G s u u t G P G u u d J P P F G F i s u u G p s d d u u s s d F G F F K ..K X.P K G K s F F t i t i V 6 < = d ",
"a = v T ^ ^ D P G s s s s G G ..s G ..d G P P J K K s G G G ....J G G d d G d G s G ..X.K X.W X.X.X...G G J s G d a C V N 2 # o.",
"f 4 b U T Y ) +.G G F ..X...X...G G G G X.J J F J W J G ..J ..X.P f ..........X...X.X.X.X.X.@.X...X.J F s J d X.d G H V i 5 2 a ",
"f 4 b / [ ) &.o...X...+.%.X...........X.....J u G X.X...X.......X...........X.*.@.%.%.X.@.@.@.X...X.X.G J J X.X.P L ~ ^ U k < a ",
"..h n m M ) ) +.+.+.*.O.@.@.....X.............d ....X..... ...............@.;.;.%.;.%.X.*.;.*.%.....X.+.X.....X.X.$.E v z z j a ",
"..l M T Y &.o.X.@.+.%.@.@.@.@.@...............X.X...@...................O.@.%.%.*.;.%.@.*.%.&.+.X.X.+.X.X.X.X.+.$.P P V Z Z k p ",
"o.l U { ] ' $.@.@.X.@.....@.X.@...X.........@.@.+.@.@.+...@.X...@.O.@.@.@.@.@.@.%.%.%.%.*.@.+.+.+.X...X.X.%.+.@.=...W E ' S j d ",
"O.l U ] ,.] ) @.X.@.@.@.@...................X.@.@.@.%.@.X.....X.%.@.O.@.@.@.@.@.%.%.%.%.%.+.o.J ..G G ....X.X.X.W P W W Y m :  .",
"o.5 A ) ;.=.X.+.X.X.X.;.*.X.....G d ....G ......@.@..... .f ..X.%.O.@.@.@.@.O.@.O.O.%.%.#.P J d ..G u ........F F P ! ) E x : X.",
"..4 x E ) P P J ..X.;.-.;.-.J u G ..d G d J J ..X.P J d u J d J X...............X...%.,.! J d s F F G d u u G B A K P P Z x 2 J ",
"f 4 v S D L L F ....W ' $.K u u p J u u u u G G d s s y G P u u d u s ..........G G ..W _ ( F H u F P F y u F F d D D A V l 4 d ",
"o.< x U I D A r L L P H F y w w w w q w w y u u s d t 0 w u s u u s u u u s s F u F K ` ~ i C C F u t F F u B C D S b U b k 2 ..",
"P - 1 h g N S D L E W L u w 0 0 w w w 0 8 0 w u F G w 0 0 w F K u u w u u 0 u u s s i S C w S C C y w F S i 0 r A Z b g g k 1 J ",
"Q X 1 g : 6 Z A A D A C B w 0 0 t C B 0 8 0 w w 0 0 0 8 0 w B F u 0 w u 0 0 0 w i V y y t i V i q 0 t i C r q t V r c 6 4 h < #.",
"f = g z k l Z t B D D K q 0 q B V V B 0 8 q q 0 8 8 * 8 w w w w u s w 0 0 0 0 0 9 t i w w q t i y r w i r r r q r r c r 7 4 @ Q ",
" .@ 1 x I N V N C C B B 0 8 0 N B e N B B F 0 8 0 * * 8 0 0 0 0 t 0 0 8 * 0 8 0 t V r q 7 9 q q 0 5 3 3 r 5 9 r 7 V c r r 4 # f ",
" .@ 2 l N 3 r V N C N N , 8 8 * N N 9 N B A e * 8 8 * 8 8 0 0 8 8 8 0 0 0 8 * 9 5 9 9 , , q q 8 9 q 5 5 r r 7 7 7 b m Z r < @ a ",
"f @ < k 2 7 N V N N r r * , 8 N N N N N V 7 9 8 8 * * 8 8 0 8 8 0 8 e 9 9 e 8 e 9 , 5 8 9 r 9 9 9 5 5 5 5 r 7 7 Z S b r r < O a ",
"J O = 1 4 V q r Z q 9 e * * 8 e N e e 9 e e 9 , 8 * * 8 0 0 8 8 w 0 0 9 e 8 3 e r 9 7 e q q r r i 7 9 5 5 9 7 c Z r 7 r 5 < O J ",
"Q o + 2 5 q N 9 9 9 9 9 9 * * 8 , * 8 , * 9 8 8 8 * 8 * 8 0 0 0 0 0 9 0 e 3 9 8 5 r 7 r w 8 3 7 c V r 7 c 7 l c V i w V 5 # + +."
};
