/* XPM */
static char *result[] = {
/* columns rows colors chars-per-pixel */
"64 64 61 1 ",
"  c #4C3F38",
". c #4F443C",
"X c #51463E",
"o c #54483F",
"O c #524740",
"+ c #554A43",
"@ c #594E45",
"# c #564E4A",
"$ c #594F49",
"% c #5C5147",
"& c #56504C",
"* c #5D534B",
"= c #534F50",
"- c #565252",
"; c #5C5552",
": c #5E5955",
"> c #555458",
", c #5B5759",
"< c #5E5B5B",
"1 c #615447",
"2 c #61564D",
"3 c #64594E",
"4 c #695D4F",
"5 c #615751",
"6 c #645B54",
"7 c #695E54",
"8 c #635D5A",
"9 c #695F58",
"0 c #6B6156",
"q c #66615D",
"w c #6B635C",
"e c #6F695F",
"r c #71665B",
"t c #72695E",
"y c #786E5E",
"u c #5F5E61",
"i c #625E60",
"p c #5F6063",
"a c #656363",
"s c #6A6562",
"d c #676867",
"f c #6D6964",
"g c #65666A",
"h c #696769",
"j c #67696C",
"k c #6C6B6B",
"l c #726B64",
"z c #716D6A",
"x c #767067",
"c c #7A7167",
"v c #74716D",
"b c #797369",
"n c #666970",
"m c #6C6D72",
"M c #6D7175",
"N c #737373",
"B c #787573",
"V c #7B7977",
"C c #727579",
"Z c #74787B",
"A c #787C7F",
/* pixels */
"e96**9s9#*9979777w3@22$*$1$@@$@@@OOO$$6$;<i<,83q<-#-8<>p8<661@@*",
"8w2$5795i9w9557336@@+2995+@+%*%%@OOOO-@$&-&68*8gp>->aapp<6566$&*",
";5*+$797978755552*%*;-5i8%@o@@55@*$@25@#;;;;;;q8u<ppmmnmkksw8;**",
",;55*5*7r9,59665***556,i92%@OO$#@@@$*52$&;,;<:8:::a<pdjgkkfq588q",
"8-#;#5$26lr9hiis63;35sa8i3$$$++;#$$&86*@$*86<898:*,i88hqaqq55858",
"8--#$2$*25999BBs*33368j8769$22@2#O$,89@ +5*8aaq;806aaasks8:8;2;-",
"--;;,;2*2O+*riBzw523;&;fi98595@5$XO#,95$;8,iaas658588is9q6*;;**#",
"=;$*688$2$O$9izfs86sjhwa8&O$;2$$@@$568;58,8issi88;;qss99q;*30**O",
"&568i9665$$5i686w0qapjs8q:****%%@*O976<hshkkkkh99i9fsf56s8&*%6;#",
";5skz9896ifwr6988qa8<ww8qfq;;&@++*+*6$8sshakmkfsii9isf8ww72*@9i,",
"59lzisi;sfsissvvlgq668q;*aq63**;$@+*25;68wihkmfeii88ssws73875wks",
"iszs59$+8iwiigN90jjs;5&%<<q8;;;*$28i7$;60hkmmkqfNANkfkfs8w80wsw9",
"Vzz9566$+98:ih825jNCsl8;:qq5***oO89ii@58dCCZCmdNAZCBlvzfimfzf999",
"rll99s86866;hm;28kkdzh9sqhh8**;*+%**i8,,mMmCCMNmmMMNxBkksflsss90",
"$6r92$*5Mq658jaikjh8w;$<<8a6****O %298=-pnmmgnmh8iNmvf8svvNzf990",
"2r9**328j88Bggaadkvsk6#;i6&$****+$%2li-;aggaujua9issiiifBBzzsskr",
"cBl6@*3,639Ni;8i8izi75558q2***@$+68<kkp-dp:<dp<psssi88sfzlszfzB7",
"lsBi@@33269h5*,;6i96+O$2385es5***60;dd;&<<p<<dpqsa;88sfslszzzzvz",
"rir93337428f;$*5;565O@$28apaks8*:q3*<qap,<<<>pd<aq5:8wzsfsz9zkel",
"rrllhs635$8i;;68*2si2$*68qq0ekw5*q:paqep;<;qdp<s:;q8ifNzsshsbzww",
"69srw999259868i956s6*1%9eeq6w8*68:<ddqqpuafjhqq;:qaq<qzzzziilks6",
"iwssrshw89ii8668i;%%9i29wlqew8*a<--88;:<uqqee0lw68s8,<efzzz8eki;",
"hi9szrzhkwss57eai552fhirsfskfs88-;<8<888;:*6ww0t38:>*6q0sfz89vzh",
"937llshhkfst76**5635279rwwwq56**%:<:::;&:q:*22086*&;:*80sffmhfss",
"wrssfss88sw8s8%+$27977200sq885*%%*p:%:@o:&%30;86*&@-686wisNzshs9",
"hhi6fks3279663122@2r0r10ewfe5w523:wk6:<;**o6s888*6**:;*eiizs8iil",
"fhh7sks7276l73%6612t007027ws8856*6<<::*&@&@*::gq#*58*868ssfiiiil",
"hzzi8kk9768f6222239w37w85@28w8730fq::6;;;;*3;6w*O*@*00qqslzff65l",
"rfswfkki0eew736735w0477w878*w828kvkq8q<<:::*;qe:@O*@2588immNNzis",
"sf99sif9w78077659wjf02%0ww38e568qsf<<8:q6;:::s08:wf*$166ihmmmhml",
"sl759w88q822*5w5skll0428ww;885*9:3q*0:6p;%;07qq8lle52$*9lkkkNfzz",
"999529kfw8ww882*6skfe075;;508832;se68008:#*:wq:wl800w768simkkssi",
"wpq<-ekkqw7hw7**@qqwqqw****3822*wlt055*@3*::wdwde430etw8wqdgaq:6",
"q;<q;<qq885shs55%8*8q:dq7*%;23%8qq85**O@23;*:dp8ae4e00lxe33wa;;6",
"0;:<<pdqa6388s6&2+273qasvfwq@%ef0wzq&O;012780dwee4*etttew2*8:@**",
":qdw<aqqkw3wssq&22w;76qkZkvf@@005we;&@*3*10wwbxet44tt0w76323*;*:",
"20eq<0:agdsqssq86@**5wwddqee8333%**$++%@$2369lr4r31344133433*123",
"460ewfqdjdq3vkfa8$**38068653;532++@*@O+&69313374003111233%%oo%%%",
"000efBMgq882f6;:&$;w;583330*@&**o22*O+&#*93573344331r041@@1%%414",
"4ey3gjkkww06782;@#:8*3;88*0*%****w8:#;8*$727777004wxro1*o@o40144",
"4ry0qqvd8sss7l7w6*666866765$2;865765$5i;5753%24360rl3@%*%%12o241",
"4eee00eq599e6wlsvf*;8w7885$$*2a63255$6885i95*373700w2373%%3%o%1o",
"177ee4062rl71wZfB8*6ws6s8**55*55566*+556997799ts72;*7w7*%o1%ooo4",
"34eeeeqq7095*5kNs+%5s96w8$2$$*62@@22@%3997*9st0s8+@008003%%%%%o1",
"06lljaq03573**68;%+%8w9w852$$35%2@$251579r698lsw*@&737332**%o%@3",
":0kkup0:7$@32#*6*@@@*8w8ss85222@22**1$77776w88w55003*8**%%1oXX*7",
"%qjp<0wq65@25@92@Oo+32**8s6%$$%5*@52$$37%59977w;@;;o.*27o122++%%",
"0dp,040*2652;6**+oO*%@@++$$O$@@%;*$1739l89956r96*3;%o&3414005***",
"&puqw6736ww$52+@$+@+ +X$@$$O%@@%+@@%49lklxq4:elf*30,+@%303:3q#;;",
";>pq6534125;5*@@**@@%o@2$*;+OO@1@+++170sfxw*00000*q6:*%*:*@;%+;<",
":<p<;;70222$$2$@$2@@@1%##997%@@%113@O@@16r;%:0r*;*20<q*%*330:-<>",
",-<<8;73*66$5**$%@O @12;599961%293%$@++$223&6e32:4%*;0%*&%3;:<u<",
"<:u<i8*$$25,f6O$X  O$*3699232%@595555$@$+27*673*03%***%*@*85*;qq",
"8sq;8a5$$*siks$+XO@$@@299662%2%*9;666*@+$*8s;w;%00;*1**@@50;*u8q",
"8q888s8O588im6@@@*O$+ 63;532392@$$$@*****67wfs;;33q&*%6;&5w86fs;",
"8:ags8;+wf886@@%++++O+675%1122*@O@++O@$@%;wkj;0wx2*07;0:qa<afwqw",
",8hmi5-88hi882*2*$$O.X*9t321@19i2%ooOO@O@*8qqwxve@@0ew*:gq<<qdq<",
";9si25isaa88s755596#+O;991@@$336* X@OO$$8g77wlvq*@;da<30q<u:qu:&",
"55i<$68isadh5;59ii8-#;*$$oO@2$@$$+XXO@%$3wewwwl0336fe,qw<,u:q<*q",
"$$iui-<ifai8$@+5-,i8,,+O6@OO5%@O$OoO+%%7qed085w7*w6<0<<w<qaq:<06",
"w66g8$5zzii6@.+$5>--,u;$2***5%@@@O+@$*%9fwq3;0w3*q::qqqfkMkf06wl",
"8wll79isi;i9*$558i5i8,$22@12353*%$O;$-$8qwsq:lewee<-<:uqzMjel0;6",
"86*58i998#6i@@69855*-8522$1*55525%+;8;;;<0q:%*w8p,,;<:dfjsq;0076",
"l6.+$885$;9r42*@%%5%O55$$@$$@75$52#$88;6<<a-#4wq,;-<aadpkw603220"
};
