/* XPM */
static char *result[] = {
/* columns rows colors chars-per-pixel */
"64 64 193 2 ",
"   c #3E2A1E",
".  c #2D2622",
"X  c #2F2823",
"o  c #332B25",
"O  c #382E27",
"+  c #342D29",
"@  c #392F29",
"#  c #34302D",
"$  c #3B332C",
"%  c #353534",
"&  c #3C3632",
"*  c #3A3836",
"=  c #373838",
"-  c #3C3C3C",
";  c #462D1E",
":  c #482F1F",
">  c #4B311F",
",  c #653D1E",
"<  c #442F20",
"1  c #463224",
"2  c #4C3324",
"3  c #44342A",
"4  c #4B3629",
"5  c #44392F",
"6  c #4C392D",
"7  c #513625",
"8  c #553925",
"9  c #5A3B24",
"0  c #533B2B",
"q  c #5A3E2A",
"w  c #413730",
"e  c #443C34",
"r  c #4A3D34",
"t  c #433E3B",
"y  c #483F39",
"u  c #523E31",
"i  c #623F27",
"p  c #613F28",
"a  c #3F403F",
"s  c #56402D",
"d  c #5C422C",
"f  c #474037",
"g  c #4B4036",
"h  c #42403E",
"j  c #4B433B",
"k  c #544135",
"l  c #5C4432",
"z  c #5D4836",
"x  c #54453B",
"c  c #59463B",
"v  c #57493F",
"b  c #5C4A3E",
"n  c #664224",
"m  c #6A4325",
"M  c #64422B",
"N  c #6B462D",
"B  c #6D482F",
"V  c #7A4B25",
"C  c #744A2D",
"Z  c #7A4D2B",
"A  c #7A512F",
"S  c #644632",
"D  c #6B4730",
"F  c #644935",
"G  c #6D4A33",
"H  c #644C3C",
"J  c #6C4E3A",
"K  c #734D34",
"L  c #7A4E31",
"P  c #724F39",
"I  c #6E513E",
"U  c #765037",
"Y  c #7C5135",
"T  c #74523C",
"R  c #7B543C",
"E  c #7F593E",
"W  c #3E3F40",
"Q  c #3F4040",
"!  c #444443",
"~  c #484746",
"^  c #474847",
"/  c #494847",
"(  c #474748",
")  c #474848",
"_  c #4C4C4B",
"`  c #534A42",
"'  c #5E4D43",
"]  c #504F4D",
"[  c #4F504E",
"{  c #575046",
"}  c #5A5247",
"|  c #51504F",
" . c #5D5149",
".. c #4F4F50",
"X. c #4F5050",
"o. c #545353",
"O. c #585655",
"+. c #575857",
"@. c #595857",
"#. c #575758",
"$. c #5C5B5A",
"%. c #644F43",
"&. c #645145",
"*. c #6C5343",
"=. c #655549",
"-. c #6C574A",
";. c #67584E",
":. c #6E594C",
">. c #735543",
",. c #7B5741",
"<. c #755946",
"1. c #7B5A44",
"2. c #745B4B",
"3. c #7B5D4A",
"4. c #6D5D53",
"5. c #605F5E",
"6. c #735F51",
"7. c #785F50",
"8. c #7D604E",
"9. c #61605F",
"0. c #756155",
"q. c #7A6354",
"w. c #736359",
"e. c #7A685D",
"r. c #5F6060",
"t. c #636362",
"y. c #686767",
"u. c #85511D",
"i. c #89521F",
"p. c #855424",
"a. c #8B5523",
"s. c #8E5926",
"d. c #83532A",
"f. c #8C562A",
"g. c #85582D",
"h. c #8D592B",
"j. c #905725",
"k. c #945A26",
"l. c #995D27",
"z. c #935B2C",
"x. c #995E2A",
"c. c #825435",
"v. c #8E5D31",
"b. c #835739",
"n. c #85593C",
"m. c #8B5C3C",
"M. c #935D32",
"N. c #915F3D",
"B. c #97602D",
"V. c #9B612B",
"C. c #8F603F",
"Z. c #956132",
"A. c #9A6334",
"S. c #A0652D",
"D. c #835D44",
"F. c #8B5E41",
"G. c #815F4A",
"H. c #8C6245",
"J. c #83624B",
"K. c #8B644A",
"L. c #8E694E",
"P. c #936444",
"I. c #996746",
"U. c #956847",
"Y. c #91664A",
"T. c #95694C",
"R. c #9A6C4C",
"E. c #826452",
"W. c #866954",
"Q. c #8B6B54",
"!. c #816A5C",
"~. c #8B6E5B",
"^. c #946C53",
"/. c #996E51",
"(. c #936F58",
"). c #8D715D",
"_. c #967056",
"`. c #9D7254",
"'. c #92725C",
"]. c #9C7459",
"[. c #9D785D",
"{. c #A17252",
"}. c #AA7D5D",
"|. c #8A7262",
" X c #8D7668",
".X c #8E7968",
"XX c #927461",
"oX c #907967",
"OX c #9D7A63",
"+X c #947B6A",
"@X c #9B7D6A",
"#X c #A37C61",
"$X c #A58168",
/* pixels */
"}.R.P.P.I.I./.T./.T.^./.{.R.I.I.N.P.m.m.N.m.b.m.P.C.C.N.F.N.c.i N.N.P.P.I.{.{.{.#X#XOXOXOX/.{.@X@X+XOXOX[.+XXX@X_.R.I.U.P.U.R.G ",
"].R K L U R ,.P U D.D.,.D.,.D.i C N N N N K U T T U K C K K N > c.C K K R 1.R ,.D.J.1.G.3.,.q.q.q.q.q.q.q.q.0.6.>.T T T T U ,.0 ",
"_.K N N G i K i D.D.G.G.D.D.D.i N N B N K G T <.T K N m p G B 2 c.C K G P U K ,.J.3.G.8.1.,.3.1.q.w.q.q.e.w.w.0.2.>.T K T T E 4 ",
"/.T D H *.i i K p q p p p p p i 9 9 9 8 9 9 l 8.>.D i z q i K 2 c.i G *.*.K U D.>.l F F H S F S F H H H H b ' 7.>.-.I -.&.T R 4 ",
"^.P p c u p G R G i V.A.I.M.x.j.a.a.i.i.u.u.Y E.P D M u r i N 7 F.U p c ' K U D.S N A.Z.M.h.z.z.s.B.Z.B.h.g.L 1.*.*.J c c G T 4 ",
"L.>.*.p p >.U i 2 O w x x w r w w = y g e @ e b P P J q q N N 7 H.P ,.%.*.U R p 1 @ @ e e t g j f e e e e # e l P P K F S N P 3 ",
"^.>.G >.>.U G < X - W - _ _ ! W ! ! Q ! - _ ! 3 H <.J D J D B 0 F.i U D.,.,.G 1 @ _ ! - _ ) _ ) ^ ^ ! ^ - _ ! $ p R K D B N K 1 ",
"^.>.K P ,.%.4 + - ! ..( t o._ ( ! _ X.t O.@.! ! e F K K J D K 0 F.D.K ,.>.P 4 + - _ O.~ ! o._ ) ! _ _ Q o.o./ = $ p K K K D K 2 ",
"T.T T F S 1 o - W ! ~ ] ~ h o./ _ ..! 5.5.o.] ] ! w p i U K G 7 F.i F.P i 0 @ - ! ~ ..$._ ! ] _ _ o.! $.@.~ o.~ % # p p K B K 2 ",
"Y.L T 0 n O - - ! ! ! / o./ h o._ ! r.t.o.O.O.../ h w i ,.K G 8 F.c.i 7 i @ W ~ _ _ _ $.o.! ! #.o.~ $.$.o.] o.~ Q - 3 i U U >.4 ",
"P.R 1.l M.@ - _ _ ! ~ / / o.] W - @.$.] @.5.] ] o.h e z.F.R K q P.,.D.i x.3 ! _ _ | o.o.....~ - W $.5.@.o.o.$.] ..Q w M.b.,.>.2 ",
"(.1.2.l h.j - / o._ ~ ~ ] _ ] % - $.] ~ ! o.` _ ~ /  .x.b.U U 8 Y.D.G.p z.r t _ ......~ $.@.$.= = O.] | ] ] 5.@.! Q ` M.F.R P 2 ",
"#X3.3.l z.e _ - _ o._ _ ] o.! $.o.h o.~ ! ! _ ~ ( 5.` k.b.K K 8 P.D.G.p A.r ~ t _ $.( o.o...! 5.O.! O.O.] ~ o.( ~ O.u M.F.U G 2 ",
"T.,.R q z.e ! [ ! ] @.O.$._ t.$.@.] ! $.O.#.~ _ @.~ r k.n.Y U 0 F.D.i 9 z.3 W o.! _ $.#.$.~ o.$.O.X.! #._ o.~ ] 5.( y M.D.,.P 2 ",
"N.K L q M.y / _ @.! o.@.! $.$._ _ @.] ! $._ ..y.o.h y l.m.R K 7 D.D.i 9 x.w - ..O.W o.O.~ $.O._ o.O._ ~ o.] ..t.o.( j z.D.1.U 2 ",
"m.T T 8 z.e ! ] O.O.! = #.@....._ o.@.] = ! 5._ o.! e l.n.Y B 7 c.i D.i S.r W _ ] o.= # #.o...o._ / | ! % ! 5.o.( Q e z.F.,.2.1 ",
"[.q.2.q z.e ! _ O.| h & o.$.@.o..._ O.` * ~ $.o.! ( f k.b.L D 7 n.R 1.d x.e ! ! _ +.! = o.o._ .._ ! X.) % Q @._ ( _ g z.J.<.:.1 ",
"@X2.2.s h.f _ ] | h 5.$.h / o._ ..$.] ] 5...~ $._ ! f x.K.>.D 7 H.R ,.l x.j ! ! O.! O.+.Q X.o._ _ o.) _ r...! $._ ! g z.K.0.2.6 ",
"R.T >.0 z.y o.| j 5.5.] | - _ $.$.] ] t.@.#._ ! [ ! f B.W.0.<.8 Y.,.,.d k.y ( _ Q @.o...+.! _ X.o._ ) r....._ ! _ ( y z.J.2.P 4 ",
"`.,.R q a.g _ ! 5.@.] | _ ] t _ _ _ t.o._ ~ o.~ - [ j l.D.3.>.0 T.G.3.z x.e ( W O.$..._ o.+.! _ _ ) $._ ~ ! $._ - ( & g.8.8.T 6 ",
"^.T >.9 a.y - O.@.! / / ! ~ ..% W t.@._ ..$.o.@.! - ` l.F.T G 0 ).3.2.z l.e - @.$.O.@.O.O.+.@.= W $._ W ! Q _ o.^ = j h.D.<.T 4 ",
"Y.T >.0 j.$ _ o.o./ ] / ~ [ ! ! ! O.@.@.o.o.#.o.| Q $ l.D.>.P u W.1.T s k.$ ] O.o.$.+.o.[ O.o.! Q ..+._ ( ) ! ! _ a $ h.Y T I 3 ",
"(.P P q Z e ! _ o.o.$.@.@._ ! O.o.Q _ @.! _ _ ~ ^ ! e Y J.2.T 6 H.2.2.l A y ! ! ! _ _ _ o._ | $.o.- _ X._ ( ! ! ! h r Z D.T J 4 ",
"^.J T ,.3.k $ ! / o.@.o./ _ r./ ! ..- _ _ _ _ - - r 1.8.G.P P 7 m.1.q.3.1.z & ! X._ X.+._ _ 5.@.o.+.Q _ o.! ) ^ - e 1.3.q.I T 4 ",
"/.T *.>.>.-.c w h ( o.~ / $.o._ ( ( ..- _ ..! t y W.3.K P *.K 2 n.E 0.>.R T s # t _ _ ! ! $.] | [ _ [ a ( _ _ - e 1.G.I J J >.4 ",
"(.2.*.J J 2.*.8 & t Q Q | a h / _ ( ( ( = ! - r J.1.T *.J *.P 2 m.T >.-.T T *.0 O ! / / o._ _ ! h ~ _ / - ! ! g 1.1.J H H *.>.6 ",
"XX:.&.G *.:.<.P q @ w ` y e j j j j t e j $ r Y n.D F J F F J 2 n.T >.*.I I I J 2 $ 5 } j f f h j g r g r $ w 3.1.J J J H %.J 1 ",
"(.>.J *.=.6.6.3.F i z.M.s.j.a.h.h.v.h.M.k.z.L D.I D S H H D K 8 H.1.*.*.&.I I J s m B.x.M.h.h.v.h.h.k.a.k.a.Y 3.*.*.&.;.&.D D 6 ",
"T.*.F c v -.:.>.T R 3.,.Y L Y R b.R 1.R L L b.G.G G D r k N D 0 ~.2.*.v v H I I F J R R Y T 1.E Y L U Z C C R G.*.&.&.` ` %.P 2 ",
"^.>.F S F >.>.P P T I P K L K K >.,.7.<.K B D P J J S l F F K 8 K.T I z F I H I G G I T T T T R T R 1.G K N K K *.%.=.%.%.;.2.6 ",
"'.<.T T T >.>.>.>.P D L K T >.K >.>.-.%.D i N D T J D T >.P D 2 J.U K J P G I -.P U T T K 2.<.>.<.>.I G G D J *.-.-.-.:.6.2.-.4 ",
"&.k k k u k x u 0 r 0 0 0 0 2 2 2 6 6 6 6 7 2 7 2 7 0 0 0 8 2 ; M 0 4 7 7 7 0 s k 0 8 s k g g g s 4 7 7 7 7 0 r u x ` j u u y 3 ",
"$X+X.XoXXX'. X).Q.L.L.'.K.H.n.n.c.D.J.J.W.H.K.b.c.n.K.H.K.H.n.M W.Q.H.H.K.H.U.C.K.L.Q.'.oX|.).).~.H.E C.H.H.W.L.Q.).|.|.~.W.W.S ",
"].8.<.<.2.2.>.>.<.<.T <.R T D G N B B T T 2.6.*.K U C U T B K k ~.1.K T T U U G L R 3.2.2.w.4.0.6.I G G T T <.3.E U U 2.>.T R 4 ",
"T.<.I T *.-.*.*.2.T K R <.>.S N N n N L D <.2.3.0.2.-.I N N *.4 Y G J =.I B G P B K T T >.:.<.T T G B T >.T T ,.T K D D G G K 4 ",
"`.3.-.:.&.I T >.;.s d M s l q 8 9 8 9 9 9 q F !.w.0.0.;.l M G 2 b.U G -.&.B P P M 7 d l l d l d d 9 9 d d M M Y K D N F z N G 4 ",
"U.R G v x J K 3.=.M a.f.d.a.a.u.u.a.i.i.s.k.d.!.0.2.&.v g S m 2 Y B M c k M B U q 9 g.p.p.f.p.p.u.i.u.p.s.s.g.n.L D M u r n K 2 ",
"U.U G H ' 2.2.4.y # @ y e w e e w g e y y $ e F T G D d z S p : Y B M d d B B B 1 o $ e & $ $ $ a a e f - $ r F P D N 8 8 i N 1 ",
"U.U G *.2.6.;.* # h - - ..! ! _ ! _ _ _ a _ h @ M K K M S N n > g.D B B B K M   . % - - o._ ^ h f a [ _ * / ! $ q N D N m N N : ",
"P.T G P 2.=.w + - ! ! ! W ...._ _ _ _ ! @.@._ - # q U N M D D > m.U B T T J 3 X % ! X._ ! @.O.O.$.+.[ h | [ a * O 9 m B K B K 2 ",
"U.U U G H 5 # * ! _ ) X...! $.o.! _ h O.+.o._ ! - $ 9 q N D -.2 n.U U D F 3 + ! _ .._ o._ h $.O...o.! @.O._ ( h = @ 9 i N N K 1 ",
"C.U T 0 n $ ! ^ _ O.+.( _ _ ( $.| h @.@._ O.o._ ! ! $ , L K -.7 H.U T 8 n $ ~ o.O.o.o.] @.] ! $...! @.O..._ _ ! t - @ m C N N ; ",
"C.T U d s.O ! _ _ o._ ( ( o.o.W ~ $.5.| ! ! _ _ ! - 5 j.Y K K 0 H.U K 8 M.$ _ $.o.| @.] | o.^ a ! $.@.( ! ! _ ~ ! = $ M.c.N N ; ",
"U.E <.8 k.y - / _ _ X.+.X.+.#.= - y.] _ | / ! _ ! h ` a.Y K G 0 C.U K 8 z.y - _ o.| o.| | o.| # - 5.o..._ _ _ #.~ ! ` z.d.N N ; ",
"R.T 2.s k.$ / - _ @.O._ o...! $.+.! +./ / | $.[ / o.j a.Y G K 7 H.U K 8 M.y / j | @.O.| ^ o.! +.O.! $.#.( ! _ .._ o.y z.L C i 7 ",
"R.T 2.k a.$ - o.! ..O.o.o.! $.r.$.[ ! $.o.o.[ _ $.! r j.b.L P 7 P.U L 8 h.w ! o.j | $.| _ h $.t.@._ ! @.$.o.( _ 5.Q y z.c.i K 2 ",
"U.3.2.0 z.g ! _ O.! _ X.! $.r._ _ @.X.! +./ / 9.X.! f f.R L K 7 H.K K 9 h.y ~ ] o.! | O.~ $.@. .o.o.( ! #._ ] 5.o.] y z.L N K 1 ",
"U.>.>.s V.g - a _ #.W % +.+._ ) ( _ @._ % ^ t.o._ _ f f.b.K K 7 D.K C 8 z.y _ _ X.@.h - @.$.[ _ _ _ _ ) # ~ t...h ~ y j.D.K K < ",
"T.2.<.d x.f ) ! ..$.! - X.X._ ) ! ! X._ = ! @...o.! y z.c.N N 7 b.B N 8 f.y ( _ | O.h a O.O._ | $.o.o.] = t $._ ~ ! g j.D.K G 2 ",
"_.0.2.d x.g ( Q _ ) @.@.! _ X._ _ _ ) _ $._ ! @...( e z.L N N : b.C N 8 M.h ) _ | / $.$.! | O._ | @.] ] $._ t O./ ~ g j.R T :.6 ",
"T.2.2.l V.y ! / ! @.@.X.@.! X.+.o._ ..t._ .._ ~ @.| / k.c.C D 2 H.U P 9 h.j _ _ j $.9.@.9.! o.@.| ] ] 9.o.$.| h ] / x x.J.:.*.4 ",
"].1.3.d B.j _ - +.O._ _ _ o.! X.( _ $._ ! ! ..~ h _ x x.c.K K 8 /.R K 9 h.y ) ! @.$./  .O.O.j | / | y.o.@.@.@._ ! | ` k.G.>.*.4 ",
"_.1.1.l x.e - o._ ~ ^ / ! [ O.% = $._ _ ( ..( ..! - j V.A C D 0 (.T U d z.e W #.+._ ] _ o.| o.- t 9.O.] $.] ] O.( W ` x.n.>.J 2 ",
"].1.,.s k.$ o.@._ ] ] _ X.o...! ! ..+.X...o./ ( [ ! 3 k.Y K B 8 K.U Y q j.$ _ o./ / o.| [ o.| / h ] o.] | | ] h _ Q 3 l.b.<.T 2 ",
"].q.1.l Z r | _ _ | O.o.O._ _ r.$.! _ O...$...~ ! - 3 V n.<.D 2 F.L K 9 Z r ! h ! ! o.+.@./ [ 9.$.! ] | _ _ ! - ! - e A D.2.2.8 ",
"$XJ.8.J.1.k $ ! ] / / _ _ _ $..._ O.W _ _ ] ( W - r R U Y K U 8 F.R K L U q $ h / ^ / o.| _ t.O._ | h ] O.] ! ! - j 3.3.~.2.3.u ",
"#X<.>.2.>.P l & h / o._ / $._ _ _ ....- ! o.] W y F.D.D.i K D.u K.Y K B K B 8 & ! _ _ ! ! 5.o./ _ _ o.- ~ _ h = y 3.8.T 2.0.3.6 ",
"/.R >.*.D K *.x & ~ _ ! @._ ! ! ( _ _ _ W ! Q r D.D.i i U p ,.u F.Y K R K D D 0 3 ! ! W O.! ! ^ _ _ _ ~ = W - r G.1.-.I >.2.1.6 ",
"/.1.2.-.P J 2.P q $ e { ` j y e y r r y y @ 6 Y c.i i p P P U q (.1.K B D K K D 0 @ e ` e e y j j j r y y @ e ,.3.I *.I >.2.,.0 ",
"R.1.2.y.4.>.2.2.%.D A.z.h.a.s.f.j.f.z.N.M.x.d.R D.i i p %.P U 0 (.R D %.F D K P F M h.g.g.h.f.f.h.h.f.d.h.a.Z D.>.*.-.:.:.2.,.2 ",
"{.3.>. .x D >.6.2.2.G.3.L U Y L D.D.,.G.G.E.D.b.i D.i u u ,.K 7 F.U G c u G p K J K L K L b.D.U Y ,.>.,.1.D.3.W.<.4.4. .b T R 6 ",
"{.3.>.%.l T >.2.2.3.3.>.B K T >.7.2.>.7.7.,.P D.i i i p p K K 8 I.U K J F *.G *.K K >.K K >.P R T >.*.*.>.-.-.>.6.4.w.J G T R 0 ",
"/.,.P P >.3.>.<.7.T R T B N D >.:.*.*.J *.>.P i P i ,.i U U C 7 ^.D.P P >.G P *.*.>.*.>.,.R >.<.>.>.J J >.P -.2.6.2.3.R 1.R T 2 ",
"J 4 : 2 1 6 0 8 4 1 1 4 2 : ; 2 : : : : : 2 2 2 2 : 7 7 2 7 7 1 p 2 7 2 2 2 2 2 6 4 4 4 4 1 2 5 e 5 6 e 5 6 5 r y 0 6 0 8 8 2   "
};
