/* XPM */
static char *result[] = {
/* columns rows colors chars-per-pixel */
"64 64 173 2 ",
"   c #25221F",
".  c #2D241C",
"X  c #2F281D",
"o  c #31261D",
"O  c #332A1E",
"+  c #262422",
"@  c #2A2622",
"#  c #272824",
"$  c #2C2A26",
"%  c #2E2D29",
"&  c #322720",
"*  c #342C24",
"=  c #392E24",
"-  c #312E2A",
";  c #392F28",
":  c #2F302C",
">  c #373025",
",  c #3A3125",
"<  c #34322D",
"1  c #3A342C",
"2  c #353531",
"3  c #3A3632",
"4  c #373834",
"5  c #3C3935",
"6  c #3D3C39",
"7  c #40372C",
"8  c #41392D",
"9  c #4A3B2E",
"0  c #433B35",
"q  c #4C3E32",
"w  c #433E3A",
"e  c #483F38",
"r  c #3F403C",
"t  c #5E432B",
"y  c #4D4134",
"u  c #44413D",
"i  c #4A433D",
"p  c #524436",
"a  c #51463C",
"s  c #55493E",
"d  c #594C3E",
"f  c #63462C",
"g  c #6B4B2E",
"h  c #644A34",
"j  c #6F5238",
"k  c #755234",
"l  c #71543A",
"z  c #77593E",
"x  c #7A5A3E",
"c  c #3C3D40",
"v  c #454442",
"b  c #4A4642",
"n  c #4C4945",
"m  c #4A4748",
"M  c #4D4C4A",
"N  c #514741",
"B  c #544B44",
"V  c #5A4E44",
"C  c #534E4A",
"Z  c #5A4F48",
"A  c #575047",
"S  c #5C5045",
"D  c #56514C",
"F  c #5D524B",
"G  c #545252",
"H  c #5C5652",
"J  c #5E5955",
"K  c #5E5759",
"L  c #5D5A5A",
"P  c #654F43",
"I  c #635344",
"U  c #6B5547",
"Y  c #61564D",
"T  c #6A564B",
"R  c #65594E",
"E  c #6C5B4D",
"W  c #765941",
"Q  c #7A5D43",
"!  c #745D4C",
"~  c #615751",
"^  c #645B54",
"/  c #6A5D54",
"(  c #635D5A",
")  c #695F59",
"_  c #725E52",
"`  c #76614F",
"'  c #6C6056",
"]  c #66615D",
"[  c #6B625C",
"{  c #6F6A5E",
"}  c #736255",
"|  c #796452",
" . c #72655B",
".. c #78675B",
"X. c #75695E",
"o. c #7A6A5D",
"O. c #5C5D62",
"+. c #615F61",
"@. c #656262",
"#. c #6A6562",
"$. c #6D6965",
"%. c #66676A",
"&. c #6A6768",
"*. c #67696D",
"=. c #6D6B6B",
"-. c #736662",
";. c #736B63",
":. c #7A6D63",
">. c #726E6B",
",. c #786F68",
"<. c #6F706F",
"1. c #757067",
"2. c #7D7166",
"3. c #74716D",
"4. c #7C736C",
"5. c #6D6D72",
"6. c #706F73",
"7. c #6D7177",
"8. c #6D7279",
"9. c #757272",
"0. c #7B7573",
"q. c #777976",
"w. c #7C7976",
"e. c #74757B",
"r. c #75797B",
"t. c #7D7B7C",
"y. c #85511E",
"u. c #88511F",
"i. c #865424",
"p. c #8B5524",
"a. c #8E5925",
"s. c #855529",
"d. c #8B562A",
"f. c #85592D",
"g. c #8D592D",
"h. c #925724",
"j. c #945B26",
"k. c #945C2B",
"l. c #995F29",
"z. c #8D5A31",
"x. c #935E31",
"c. c #95602F",
"v. c #9A612B",
"b. c #956234",
"n. c #996335",
"m. c #806F64",
"M. c #817165",
"N. c #82756B",
"B. c #85796E",
"V. c #8B7C6C",
"C. c #807771",
"Z. c #847B73",
"A. c #8B7E74",
"S. c #827C7A",
"D. c #887E79",
"F. c #8C806E",
"G. c #868077",
"H. c #8D8175",
"J. c #86817B",
"K. c #8B827A",
"L. c #928374",
"P. c #92857B",
"I. c #94897E",
"U. c #847F80",
"Y. c #848382",
"T. c #8B8684",
"R. c #8D8982",
"E. c #8E8D8C",
"W. c #948B83",
"Q. c #938D8A",
"!. c #97938F",
"~. c #A2998E",
"^. c #A6A29F",
/* pixels */
"~.W.A.N.m.D.Q.D.:.N.L.P.A.L.A.A.P.I.B.:.N.N.o.M.m.M.M.m.:.m...V m._ _ -.:.,.Z.,.0.S.T.t.S.D.Z.T.Y.>.>.9.J.U.e.Y.S.Z.A.B.M.:.:.B ",
"K.1.^ Y ) -.-.) -.+.-.-.) [  .) / ) Y I Z / ) -.) Z I Z ~ R R 0 ..Y B Z Z ~ Y ~ H K H [ @.~ [ <.%.L L ( $.*.*.*.@.) [ [ [ Y ~ 0 ",
"C.) F B Z ^ ) /  .) #.) ^ ^ ^ / ^ ~ F Y ^ ~ ( &.( Z V N V Z ~ w _ ^ D Z Y ~ V Z ( ( J ( ( ( #.] @.O.%.%.8.9.8.e.6.=.#.[ ( ~ F 5 ",
"S.( H ~ F Y Y ) / i N d V d d s p p p p a a N 6.$.Y Z Z V e H w _ ^ B D Z H Y Y B i B a N s s s s N F n D H G 9.>.=.$.] H ( [ u ",
"U.~ Z m i F Z ^ D f v.v.n.x.j.h.p.i.u.u.y.y.l =.[ ^ Z b e N V w _ ~ B m M ~ Y Z i f n.c.x.g.k.a.a.c.b.c.g.d.! 9.$.] ( C n ( ^ w ",
"U.K G m N ~ F Z 0 & o , ; = & & & X * = = X 6 D ) ^ ( B B ~ Y w -.Z B G G ) P e < @ . - * & & > O * & * O . 5 L =.( J H C F K 6 ",
"0.K F H K H Z ;   # % % 4 < : % % % % < % 4 $ % ( #.( ~ ) ~ Y w  .B N C K ) D <   < % $ 2 < < 4 < : : : $ 4 : - A [ Y H ~ Y F 3 ",
"9.+.F ~ ) K 5   + $ 2 - % w 2 - % < 2 % u u < $ - B Z Z ~ H Y 0  .^ Z ^ ) K 3 + $ < 6 < < 6 2 2 < 2 < : u w % # % A ^ ~ [ F ~ 1 ",
"4.( [ K K 0 + # - 2 2 4 - % 5 3 1 2 < b u 4 < < % % B B Y ~ F 0 _ ^ V ~ Z 4   # - 3 < 6 < < 5 2 < 2 < b 6 < 3 < + $ B N ~ ^ ~ 3 ",
"N.) $.N h # % % - % - < 4 2 - 3 < < n n 5 5 5 2 < $ - f / Y Z 0 ) ^ V 9 g & $ - - - 3 5 6 < < 5 4 < m v 5 , < < % + * f R #.+.c ",
"Z.#.,.Z k.. % < < - - - 3 5 < $ % u w 5 5 u 2 3 3 % = k...^ ~ w ) ~ B q l.. - 2 < 3 5 4 5 < % % : v v 2 5 3 5 4 2 $ * x.o.;.9.b ",
"T.;.9.B d.* % % 2 2 - - < < 5 @ : u 3 2 < r 5 1 % 2 p l. .( ~ 0 ..) ( N k.= $ 2 5 2 4 2 < 6 3 # % v 3 5 5 3 5 u - 2 0 k.m.;.-.i ",
"^.0.,.B a.* 2 % 3 5 2 < < 3 - w 5 < 5 < % < 2 < < n 8 k._ ^ Y 5 _ +.) a l.& 2 - 4 6 2 - 5 3 < b 6 * 5 2 3 2 5 2 2 6 = x.N.-.) i ",
"I.,.,.d k.* % 3 $ 1 5 2 5 2 M b 0 4 < 5 < < % 2 u 2 , l.! ^ ~ e _ R ^ q l.o $ 4 - 3 5 2 6 < b u u 4 % r 2 2 - 5 m 2 = x.N.>.) i ",
":./ -.s z.* < 1 6 < 4 5 2 M M 2 < 5 2 % 6 5 r M 4 $ O l._ ^ ~ 0 ) V Y q l.& @ - 5 - 5 5 2 M v < 2 6 3 < 6 2 r M 5 % = k.N.-.+.e ",
"V.-. .p g.* 2 2 4 0 $ % b 6 2 4 < 5 5 3 @ 2 n 3 1 < * j._ ~ Y e _ Y Z q v.= - - 4 4 $ @ b w < 1 < 1 5 - . < m 2 : % ; x.M.,.6.N ",
"~.S.3.s k.& % < 0 5 > % w 5 5 1 2 < 5 3 * < i 2 % % = j.} Y D 0 } [ [ i v.= % : : 5 % # 5 2 1 2 3 < < * . - v 3 % % > k.B.w.0.u ",
"!.>.q.V d.& - 1 1 < i u < 4 0 4 1 0 < 5 n 4 < u 2 % = j.M.( Y w :.[ [ p l.> : < 2 2 i u : 5 5 2 < 4 : 6 u 2 % 6 5 % 1 k.Z.0.3.C ",
"I.;.;.s g.* 1 5 - n i 8 5 $ 1 5 4 1 u A u 5 2 1 3 % > v.Z.>.[ e 4.;.^ y a.= : : : b r 2 5 : 2 2 2 : 5 m 3 5 < : 5 - , z.H.9.X.n ",
"W.;.;.S a.* 1 < n b 1 5 < < # 2 < 0 M 3 1 < 4 < $ < , l.M.9.$.i 2.$.J a k.* : : r r 2 : 2 5 < < 2 6 n 2 2 < 2 3 % < = f.H.q.[ i ",
"D.#.;.s a.= $ i i < < 4 - * < + % v 5 4 < < 4 5 - # 8 j.:.#.R v 0.( O.B l.& % v v 2 5 5 < 5 r # : v 2 $ % : - 5 - # ; g.B.9.=.0 ",
"T.;.=.V u.o 5 5 4 < < * $ * - < < r u 5 2 r 0 5 2 $ O k.m.[ ~ b 9.K J a l.X 6 r 2 5 u 5 4 r 2 2 < 6 5 < % % - < - % o g.M.9.&.6 ",
"Q.#.[ V z 3 < % 3 2 3 5 3 < 4 v 6 : 5 5 2 : 2 < - % 5 Q Z.,.( i -.( ( n j 2 2 : % 4 3 1 < < 5 n 6 % 2 5 < < : # $ % 5 W N.0.>.m ",
"K.)  .1.0.C % % < 5 6 w < 5 m - $ 2 # 2 < 1 2 % + 0 1.9.,.^ ( e  .( #.] ' n $ $ < < < 4 2 5 m 6 < 4 % 2 4 < $ $ % w 0.t.U.6.;.v ",
"W.;.$.;.>.] M % - - 0 < 3 b 4 - - - < % < 5 * $ 6 w.4.[ ^ J Y 0 X.^ ( ( F F 0 @ $ < 2 < 3 v < 2 4 2 < $ < : < $ 5 0.T.6.-.&.$.v ",
"Q.>.@.( $.>.[ i % % $ 2 w < % - - % 2 <   > $ 5 4.4.>.#.( [ ^ i N.) #.=.( ( ( w @ & < 2 u - < < * : 2 1 . : : 5 6.9.>.+.( @.&.b ",
"E.6.*.( #.=.#.^ i $ * q = * O = 1 1 = = , O 5 2. .' [ [ ( ( ( i X.) ( L J J F C 0 $ , a 1 * , , > , , , , O 4 >.0.$.$.#.+.+.( B ",
"Q.9.;.] ( =.&.$.D t c.z.a.a.a.g.a.g.z.g.j.h.` 4.' S H ] [ ^ ) i Z.4.( L J J K ( C f v.k.x.z.g.z.g.g.a.p.a.u.Q 9.-.=.=.=.$.( ^ b ",
"W.3.@.J H %.=.[ [ o.2.X.} } }  ._ } :. .| | o.w.( ' ( B G J / b T.w.*.G C L L ] ( ~ [ E E ..:. .T I E I T E :.4.#.<.*.O.L #.>.b ",
"!.,.] F J ] #.[ { ' [ X.' [ [ ^ $.-.3.>. .E R ' [ ] ( F J ~ ^ b S.,.$.G D ] L ] ^ ( ^ ] ' >.#.[ ^ { ,.^ R R [ ( ] =.5.%.+.5.6.m ",
"W.2.' ' { { ( @.#.] R E R ^ [ / ;.;.3.>. .' R ' $.{ ~ [ [ ^ Y b 4.) ' ~ [ [ ( #.R F ^ ] ( ] ] ] 1.1.-.^ R Y H ] =.=.5.5.9.=.>.b ",
"] n b u u n D M B m n n b b u e u M G M M a a u u u u i b b e 5 Z C C i b i b v u 0 u i M m b M A n N i N i i b M M G M G M m 6 ",
"W.Y.Y.q.3.K.E.E.G.Z.Z.U.Z.B.:.:. .S.Z.G.G.Z.K.;.:.o.2.2.B.2.o.B G.Q.K.Z.4.4. . .2.;.2.4.J.J.G.R.R.4.2.F.F.G.G.G.G.w.Y.Y.t.t.3.A ",
"R.#.] @.( ] $.$.] -.) =.;.>.^ ^ ^ [ ^ { [ [ <.[ ' ^ F ^ / ' ^ m J.;.[ ] R ^ S Y ^ ' ] ( ] <.$.#.$.1.{ { X.:.4.w.:.' ' =.<.' ' u ",
"G.] ( J L +.@.@.*.' T { #.>.) ~ / B R [ ( #.*.3.3.$.[ ] B S [ A C.;.>.' S B F ' E R [ [ ' 1.=.1.X.' E { 1.:.1.:.{ F S ' J C D 5 ",
"G.X.] #.] O.] ] @.a s V B Z d p p p d s s d A w.r.<.3.>.D B { B B.-.[ ( A B H ^ V y S S A I S I j d d I I d S ..E J F ' D F R u ",
"2.X.[ D D J J $.O.t d.d.s.p.i.y.u.p.u.u.a.h.x 9.=.@.] J C H / i ..^ Z B u N Z F N t f.i.s.d.i.i.k a.i.i.a.a.x [ E ^ D A i S ^ u ",
"H.{ ' J J $.#.@.v $ . - $ - O @ O = O = = X 0 A [ ' R A C ~ T e ) Z Z N b N V B 4 . . - X X X X O O O X $ X 5 B ' Y F i a S S 7 ",
"L.X.{ { $.q.*.c + % % + 4 : # 2 % - 1 2 % 5 : $ A ' [ S Z Z R 0 / ^ Y Z V Z B -   # $ $ 2 % $ $ : : $ 4 $ 5 : % a S I S Y R E y ",
"F.:.{ / =.%.c # # - - - % 4 2 2 3 2 3 - b 0 : $ $ B  .R Z ~ R e o.-.) ( Z C 4 @   @ - 2 < r 5 2 r 2 < : u 2 % # $ i S _ ' I E u ",
"F.o.2.R H r #   % < - 2 2 : 6 4 - - % v u 2 4 < @ $ B B ~ H ( v N. .) F B 4 + + % < < 2 < $ u 5 w 5 : m 6 - < % . $ N S S R / 0 ",
"F.2.1.s f O : < < 1 6 4 5 2 - v 3 - b w < 2 5 < < $ = f / ^ #.v m.^ ) e t $ < 2 5 5 3 3 6 1 > u 5 - v w 2 < < - % $ * f I F I 1 ",
"F.' ' d h.. : r < 5 4 < + 2 2 - - b u 2 < - 4 4 < $ = a...^ ~ i 2.) ) p x.o 2 w w 3 0 5 3 0 < $ - v u < < < < - $   O b.! S S 8 ",
"F.} { d h.>   < 5 < < 1 4 3 w + - M 6 2 2 < $ < $ % q p._ R ^ i  .Y ^ p x.= # 3 0 3 5 5 4 4 5   % M 2 2 < - < < : < 9 k.U S V 0 ",
"L.[ 1.S h.O : $ < 3 3 4 4 5 < u r < u : < 3 1 < 3 w = p._ ) ^ e m.Y Y y x.* 2 % 4 0 5 3 2 5 < u 5 2 w 4 2 < - 2 6 e ; k.T I Z e ",
"F.[ 9.A u.O   2 $ 6 u 2 4 - u v u 2 : 6 < 4 < 6 b % * h._ / Y 0 :./ Y q a.* * 3 - 4 w 5 < % b u w 2 2 w 4 2 % 5 b 3 * k.I B Y 0 ",
"2.$.7.a a.* $ 2 w - 2 3 < n u 4 2 6 2 < r 2 5 v 2 % O s.! F F e ,.Y ^ p z.; - 3 0 - 3 3 < b u 5 6 6 2 % 6 2 6 M 2 2 = g.U Z Y 3 ",
"A.=.$.i v., $ % - 4 %   i u 2 2 : 2 6 2 # 2 M 5 2 2 , d._ Y Z e :.~ Y q d.= ; 3 4 6 * - b v < < 4 2 4 -   2 M 5 % < 7 k.o.H Y 0 ",
"0.@.%.s j.= - - - 6 < % 6 6 < < < - 2 2 $ < v 5 2 : * z._ I Z 0  .I S y d.* < < 4 5 < $ u 0 < < 3 5 3 - X < u 3 * $ O j.o.F ~ 0 ",
"C.+.+.a k.* 2 - < < m u % 2 4 < < < % 5 b 2 - 6 2 : = g.U Z Z e } S S 9 z.= < 2 4 < i i < 5 0 1 0 0 2 0 m 1 - 5 < < = a.} F L c ",
"w.@.@.N l.= < - - v v 2 5 < 4 w 4 < 6 M 4 2 ; < 0 2 7 a.! I V e M./ R 9 g.< 2 2 > b n 3 u = 0 5 3 2 6 M 4 5 1 $ 5 - > j. .O.O.w ",
"S.L @.a k.; < - b v 2 < 4 0 % 4 < 5 m 4 * $ 2 < - 3 7 l.o.^ S e B.) Y y g.* 2 % i u 1 1 u 5 - 0 1 5 C 3 5 6 u 3 * 5 7 j.:.@.+.c ",
"S.( @.N l.* $ u 4 - - - * < 5 # - v < - : < 2 2 % # 1 j.| T S i D.) R a z.= $ v u < 1 % 5 5 5 $ - B w 3 5 e 3 6 - # 8 l._ ( +.b ",
"D.>.&.y h.o c 5 - - - < < 3 2 < - 2 5 3 2 2 2 < 2 - O k.` ^ F e C.) ^ p h.o 6 0 < < 2 < 5 4 < 3 < 5 5 1 5 3 2 < 1 - * j._ +.) e ",
"K.$.#.n l 3 5 4 < 2 5 5 5 < 5 n v < 2 5 2 5 2 - : % ; k o.;.Y 0  .Y F e g 1 2 * : $ < 5 5 < 5 M 6 - 3 5 < 1 2 @ $ # 3 Q :.>.&.w ",
"T.( &.>.,.M % - < 1 < 1 < w n 4 2 5 - 2 5 2 2 % + 3 / } o.^ Y 0 } I Z Z V 0 # # : < < 5 3 5 m w 4 5 - 3 5 < - % + 6 -.9.S.#.#.b ",
"S.] &.6.#.H v % * - ; - 5 b - 2 < 3 3 $ < 2 2 + w X.} Y P Y ) m -.R B B B N 0 $ % % 2 - 1 b 5 3 % - 3 $ < 5 %   5 6.=.( #.#.@.v ",
"C.-.&.+.F ~ +.M - $ < 4 b 2 % % % < < < + < 2 0 2.[ P V Z ~ ^ v X.V a B V N V e % < % < w 2 % < - 2 2 2 @ % # 5 6.;.O.J ] O.( 4 ",
"B.) +.L F ~ +.( C - 1 y 0 , = * ; ; ; 7 ; * 1 T [ B d N Y Z Z w X.F i a a V I Z u = = e 1 = O > 1 8 * = > o 3 4.9.L +.( +.( H w ",
":.K +.+.O.H J #.L h n.k.a.a.p.a.d.d.z.x.x.k.k ~ ^ V N B H Z P 7 X.B s V B Z Z ) F h g.f.d.s.s.s.g.a.d.s.d.p.z 0.[ ( +.@.K ( ) w ",
"I.[ J G M B ( 9.>.-.:.) Y V P T _ ) T _ +.-.) _ ~ F V n N Z Y 0 _ V N v u Z Z [ $.[ .._ E o.:.! E  .[ )  .X.,.Y.<.<.*.J A J X.b ",
"K.-.1.] F [ @.@.+.( +.-.Y P ^ ) +.+.+.+.#.+.~ ^ Y F Y V Z Y ^ e m.~ B B C D H ( ) ;.,.#.) ;.,.:.-.;.@.J ] @.%.#.<.8.*.( ' ' ~ w ",
"Z.[ F ^ ) #.) -.( D ) +.Z P ) -.+.~ ~ H ~ ( ~ ~ R Z Y Y ) ^ ^ e m.^ Z ^ ( H ~ K +.#.@.( F ^ [ +.#.L L K ] L @.<.<.$.] R [  .^ u ",
"[ w > 1 5 w w w 5 5 w b w 7 0 ; 0 3 0 0 ; w 0 0 3 0 5 1 3 w 0 ; m 0 3 5 u w 5 w 6 6 v 5 1 0 i c c 6 4 6 v v v v b u e u 0 e 0 < "
};
