/* XPM */
static char *result[] = {
/* columns rows colors chars-per-pixel */
"64 64 159 2 ",
"   c #221F1A",
".  c #24221E",
"X  c #2D241C",
"o  c #31261E",
"O  c #33291E",
"+  c #262522",
"@  c #292623",
"#  c #272926",
"$  c #2C2A26",
"%  c #2E2D2A",
"&  c #312720",
"*  c #342C24",
"=  c #392E24",
"-  c #312E2A",
";  c #392F29",
":  c #2F302D",
">  c #373025",
",  c #3B3125",
"<  c #34322D",
"1  c #3A342C",
"2  c #363531",
"3  c #393632",
"4  c #373834",
"5  c #3C3935",
"6  c #3D3D39",
"7  c #462D1E",
"8  c #482F1F",
"9  c #56381F",
"0  c #633D1F",
"q  c #463123",
"w  c #4B3324",
"e  c #41362B",
"r  c #4B3629",
"t  c #42392C",
"y  c #4B392E",
"u  c #523624",
"i  c #573B24",
"p  c #5A3C25",
"a  c #533B2B",
"s  c #593F29",
"d  c #413C36",
"f  c #4A3B32",
"g  c #413E3A",
"h  c #523F33",
"j  c #3F403B",
"k  c #57412E",
"l  c #5B412C",
"z  c #43413D",
"x  c #49443F",
"c  c #554335",
"v  c #5B4432",
"b  c #554438",
"n  c #59473C",
"m  c #57493F",
"M  c #5C4A3D",
"N  c #674125",
"B  c #63422B",
"V  c #6B462D",
"C  c #6E482F",
"Z  c #794C2F",
"A  c #7E512D",
"S  c #624632",
"D  c #6B4730",
"F  c #644934",
"G  c #6D4A33",
"H  c #634C3C",
"J  c #6D4D3B",
"K  c #734C34",
"L  c #7B4E31",
"P  c #724F39",
"I  c #6F513E",
"U  c #765037",
"Y  c #7D5135",
"T  c #74523C",
"R  c #7A543C",
"E  c #7F583E",
"W  c #454441",
"Q  c #494642",
"!  c #4C4945",
"~  c #4D4C49",
"^  c #5D4D40",
"/  c #514D48",
"(  c #5D5149",
")  c #674E40",
"_  c #6D5343",
"`  c #6D5648",
"'  c #6F594B",
"]  c #735543",
"[  c #7C5740",
"{  c #745846",
"}  c #7C5A44",
"|  c #745B4B",
" . c #7B5D4A",
".. c #6D5E55",
"X. c #735F52",
"o. c #785F50",
"O. c #7E604E",
"+. c #6E615A",
"@. c #756256",
"#. c #7A6254",
"$. c #746359",
"%. c #7A665B",
"&. c #7A695F",
"*. c #87511E",
"=. c #89521F",
"-. c #865124",
";. c #8C5524",
":. c #8F5923",
">. c #855328",
",. c #8B5629",
"<. c #8D592B",
"1. c #915725",
"2. c #945A25",
"3. c #995C26",
"4. c #915729",
"5. c #935B2B",
"6. c #9A5F29",
"7. c #835435",
"8. c #81563A",
"9. c #83593D",
"0. c #8D5C3B",
"q. c #925D31",
"w. c #915F3E",
"e. c #96622C",
"r. c #9C612A",
"t. c #8F603F",
"y. c #966232",
"u. c #9A6635",
"i. c #976638",
"p. c #835D44",
"a. c #815F49",
"s. c #81624D",
"d. c #946443",
"f. c #996746",
"g. c #956847",
"h. c #986847",
"j. c #93674B",
"k. c #96694C",
"l. c #9A6C4C",
"z. c #836553",
"x. c #856955",
"c. c #856C5D",
"v. c #956C52",
"b. c #996E51",
"n. c #946F58",
"m. c #967056",
"M. c #9C7255",
"N. c #94735C",
"B. c #9D7459",
"V. c #9D785D",
"C. c #A17252",
"Z. c #AA7D5D",
"A. c #8D7366",
"S. c #917360",
"D. c #9C7A63",
"F. c #957969",
"G. c #9A7D6A",
"H. c #A37C61",
"J. c #A58168",
/* pixels */
"Z.l.d.d.f.f.v.b.b.f.l.C.C.C.f.f.d.w.d.0.d.0.7.w.d.d.w.w.w.0.7.0.7.w.d.d.f.b.C.C.H.H.D.D.D.b.M.G.G.F.D.D.V.F.A.G.n.h.g.g.d.g.l.G ",
"B.R K K U U T U [ [ [ [ [ [ P K C C N C V C P [ P K K C Z C D V N V K K R } U p.a.a.a.}  .p.z.o.X.%.o.o.#.#.@.X.] R T U T T [ a ",
"b.K C C V B V C R p.} p.[ [ P K V V C V G G ] | ] L K V V C C C N C K U R R U p.a.a.a.o.} [ o.} X.X.%.%.&.%.$.X.{ ] T K I R R r ",
"b.T C H ) B V K D a S S B B B B p p i i p s s s s p i 9 i i p p p p p B B B B D H D F S S S S S H S H H H M ^ o.| _ _ ` ) R R r ",
"v.J F h h D D R G N 0.,.,.4.4.,.1.,.,.>.>.>.>.,.,.-.-.-.-.-.=.=.1.;.,.=.-.,.,.6.q.4.4.q.<.4.,.,.1.-.,.1.4.1.L } _ P J n b J T r ",
"v.] ) S S G G D r & & ; ; & * & - * * = * X ; & & = * @ = * & - = * & & ; e ; 1 e ; @ ; * - ; * ; * & & o o = v P P J S S D P q ",
"v.P J P ] ] D 7   . % < % < < + 2 : $ $ - # 3 - - ; ; # 2 e 6 d - ; 2 @ 3 2 - 2 < 4 @ 6 < - 4 % 3 2 # - % # # & v U K D G C K q ",
"v.] P P T J r X $ - % < < < < % 3 3 2 < < % g 3 3 5 2 # 3 2 ; ; ; 2 4 @ 3 2 ; - 2 4 % z 4 < < % 3 4 - < - ; : + & S K K K D P q ",
"k.T T G S 7 X @ % - < - % - < - 2 5 5 5 5 - W 5 5 4 4 % g 5 3 3 3 2 6 - < - < < < 3 - z 2 3 < # 6 6 2 3 < - 6 :   & s B C G P w ",
"d.P T y B X + % - - % < 2 < < - + d 6 6 6 - W t 5 2 6 2 3 6 4 < 3 2 2 @ 3 5 3 2 3 3 - ! : < 4 % W 4 2 2 3 2 3 ; - @ o 0 L P P r ",
"d.[ } v ,.@ # % < - - < < 2 3 4 - @ 6 4 6 : W 2 3 4 g % 3 g 6 < 2 - $ @ 4 5 2 < 2 6 < z 3 : # 6 g 2 3 6 d 3 g 2 ; % o ;.7.p.] r ",
"n.}  .v 4.; % % < < - - < < - 3 4 - $ 5 < - g - < g 6 % - g g 6 4 2 < @ d 6 4 5 2 4 % 6 4 - Q W % % ; 3 1 3 g 3 % $ & ,.p.T U w ",
"G. . .v 6.* - < - < 2 < 2 3 < < ; 2 - + 2 @ 6 @ 3 g 4 6 # < 6 4 2 g < < z < < 2 < 2 # 6 - g z 6 6 - - 4 3 2 : 2 % $ * ;.p.K K 8 ",
"h.R R l q.& % - 3 < < 4 6 W g 4 3 2 3 - + % 6 2 - 2 - 6 z - < - < % 2 ~ < $ % 4 3 2 + % Q Q ; 2 3 6 3 3 - 3 2 4 2 % * ,.p.p.U 8 ",
"w.C P B 5.; < 2 g 5 3 6 < 4 4 2 2 2 3 g : # g g 4 - 2 2 4 z # : $ - Q g 2 < * 4 4 2 + W Q 3 2 < 6 1 < 5 2 4 4 6 2 2 e ,.p.} ] 8 ",
"w.R P p 1.@ @ % - 3 W 4 < < 3 < 2 3 3 6 4 - @ 3 6 - 2 6 4 5 4 @ 2 W < - 5 3 : 4 2 @ g 4 : - 2 3 < - - $ - 3 % # @ + & 4.p.[ | w ",
"V.#.| s 1.O < 1 1 @ < 5 < 3 5 5 3 , 1 2 < g < $ 2 3 < 2 < ; 5 2 z 6 - $ 2 4 < 2 # W z 2 < : 2 2 - - < - < % < 6 < 2 ; 4.p.{ | q ",
"G.| | a 1., 1 d d 3 $ 1 6 * < 1 3 5 5 3 3 2 6 2 # 6 3 < 2 2 - < 2 4 3 < 2 6 2 # W g - 2 2 4 - : 3 < < 2 % < Q 6 2 < 2 ,.z.o.{ f ",
"k.R ] k ;.= 3 1 3 d 5 @ < < % < 5 d d d 3 3 2 3 % # 6 4 2 4 < 3 - 2 2 5 5 4 % 6 6 2 % 2 2 3 - 2 < 4 2 : < z 4 < % % ; ,.a.| P r ",
"M.R R k 5.= < 3 3 ; 5 5 . % 2 < - < 2 < 1 - < - ; - @ 6 4 4 6 3 6 5 3 6 4 % z 6 % 2 2 2 2 3 2 ; 4 < % < Q < 4 3 % $ & 4.a.o.T y ",
"k.T T s 5.* < 4 2 ; 2 2 -   - 3 4 2 4 < 3 g 5 4 - g 2 - W z g - < < 3 5 % W j 6 3 5 5 4 5 5 6 2 4 % + 5 2 - 3 2 : % , <.p.{ ] w ",
"j.T ] l y.X . $ % @ @ @ . + + < 6 2 4 6 4 3 5 5 2 ; 2 % @ W 5 - - < < $ z x 4 5 6 g g 4 2 3 5 5 % + # # # @ @ + + + O <.R T J r ",
"n.I T s q.; 4 g W Q Q Q g g 2 . - 3 < 2 $ 2 2 < ; 6 : 3 - $ g < 1 2 $ g 4 2 5 < < < 1 < 4 2 5 - - z 6 5 z 6 2 6 j 4 t <.E ] J r ",
"k.J P l y.= - 3 2 g g 2 < 4 3 3 + - 3 < * 2 2 - 2 2 < < 6 : @ d 2 $ x 6 < < 1 5 j 3 4 4 2 3 - 2 ! 5 2 2 : % < 4 2 % 1 1.} _ T r ",
"n.T ] c i.; < 3 5 3 d - < 2 3 4 3 @ < 3 3 3 ; 4 3 4 3 < 2 d - @ $ x g % 2 3 3 < 1 d 2 3 3 - 2 / 6 2 : 3 - - 6 < 2 < , e.R ] _ r ",
"n.| ` k u.* % 2 3 2 2 < < % - 3 6 4 # - 3 - : : 6 3 2 2 d 1 d . X x 3 3 % $ 3 3 1 d z z % < ! 5 ; 3 3 ; 3 5 2 3 2 % , ,.E { ` r ",
"S.` ` s u.* 2 6 3 < - - * < 5 5 5 g 3 @ < g - - 2 6 - < d 2 $ g 3 % d 5 3 < < 4 < < 5 1 1 W 3 1 3 2 - ; 3 d 2 d 5 4 e 3.} I G r ",
"N.] P s e.X $ % - - - @ 5 5 - < d 5 < 4 @ < 2 - ; 2 6 2 2 % ! W z < @ 5 3 3 5 2 2 1 - 1 ! d < - 2 ; - < - $ $ * * @ * 3. .I G r ",
"k.I J i 2.O $ % - ; - - % 4 < - ; 2 ; 3 4 @ - g 3 3 4 6 % W W 3 t z < $ z 3 4 5 5 < 4 / d 3 5 2 ; % % # 2 2 ; 2 1 1 1 y.s.] _ q ",
"m._ I i 5., < 5 g 6 3 1 ; # 6 4 3 4 3 2 - 4 + - 6 6 3 % W W 6 t 5 3 z < @ 5 5 5 < < ! z d d d 5 2 - # g g 2 3 t 1 3 t y.x.X.' r ",
"N.{ T l ,.* < < 2 3 g 3 5 - # 6 6 6 < 2 : : 2 . - 3 % W W 3 g g d 3 1 d < $ d 2 1 ! d 5 1 < % - 3 # g g 2 2 1 3 * - , 5.x.| | y ",
"N.| | l ,.* % % < 2 < 5 5 g 2 % 6 5 2 g 3 : < 2 .   g W 2 ; 5 g d 5 < < 5 < . < / d 5 5 5 < % % @ W W - < 3 2 3 , @ , r.z.X.' f ",
"D.#.$.v <.* : % < 3 - - 3 6 - 2 z 5 < < < 5 1 < X . 4 6 2 1 1 d d 3 3 6 6 2 + $ d g 1 1 1 < : < + 5 x < ; 2 - 3 1 $ , q.z.] ] r ",
"B.{ ] s ,.* < 2 2 - < 2 6 % - W j 3 3 4 3 6 5 : z 5 $ 1 5 3 5 5 3 1 ; 3 % 3 Q 3 % d d 4 3 < < < 2 $ 4 6 5 3 < 2 1 - , q.a.P T r ",
"b.] ] s ,.& $ 2 < : 2 3 % 2 W 6 < < 4 < 3 5 < x W < 4 $ < g d 2 < < 2 % 2 W < 5 < @ 6 5 5 * < 2 5 4 @ 3 d 3 2 2 - - = q.p.P K q ",
"M. .X.s ;.  + % % % % % 4 ~ 6 2 < 6 6 1 < < x z < < 1 5 $ < 5 3 1 5 - 2 W 1 - - 5 - % 6 < - < < 1 3 3 $ $ % % % @ $ = 1.Y K K r ",
"h.R T s =.* ; 2 4 3 4 6 W 6 4 3 3 3 3 3 $ z z : 5 < 5 5 5 % 2 6 5 % 4 Q % $ < - 3 g 2 # 5 < < 3 5 5 4 4 2 6 6 3 2 < , <.Z V K w ",
"f.U T a =.= < 2 2 4 3 4 4 2 4 2 3 5 3 * x z 4 < 6 < 5 j 4 3 % 3 2 4 ~ 5 < - , * - - d : # 2 < < 4 3 2 3 4 6 6 5 1 < 1 5.Z V C 8 ",
"g.U U k ;.* - - 2 - 2 2 2 % 2 6 2 4 * W z < < < < < < 5 g g 2   @ ! 5 < 3 5 2 < - $ < z 1 $ 5 < < - 6 2 - % 2 3 < : = 1.>.C V 8 ",
"d.U G 9 1.& - % 2 2 % % : 2 2 4 4 $ z W 5 1 5 1 $ % 1 < 3 g - $ $ 6 z < - 1 2 - - < 2 4 5 < % x z 6 2 2 - < % < < % , 3.7.K K w ",
"g.U U l =.O : < 2 2 2 2 4 2 4 3 $ z 5 - < 5 5 < ; 3 4 : 2 @ - g 5 @ 2 g < < 1 3 6 4 1 3 < 5 < $ 6 4 ; 2 ; 2 2 - $ - > 2.Y C K 8 ",
"d.U T l =.O 3 3 3 6 6 2 : 2 3 - z z < < 3 4 6 4 < 6 6 2 % 2 x 2 1 2 @ 4 z < g z g 4 5 3 5 3 5 < + 2 2 2 3 2 2 2 < - , 1.Y V V 7 ",
"t.T U l *.X . . @ % @ @ + + # W Q 3 2 5 < % 2 < - ; 3 ; < W 3 2 5 3 6 $ 5 z g d d 4 d 1 1 1 < 2 - . + # @ @ # @ +   X 3.7.C V 7 ",
"g.R { i *.> 4 6 5 6 z W g # g W 4 d 2 < 2 - % < - 2 - ; W 5 3 1 3 2 ; 2 $ < g 3 < 3 4 3 4 2 < < 6 2 # W g g 6 W z 3 t 3.Z C V 7 ",
"g.U { k *.X # % % 5 3 3 - g 6 4 6 4 < - < 1 6 5 2 - 2 W e 2 3 < 4 5 * 2 6 @ 1 z 3 5 5 5 % 4 < < 4 6 < % 6 % % 6 3 - * 5.Z C V w ",
"k.T | c *.X . : 3 3 3 % z 5 2 4 4 2 2 5 3 < 5 4 - < x 5 6 6 4 < ; 3 3 5 g 5 @ 1 d 1 5 < < < < 6 3 2 5 % # 6 3 2 < % > 1.Z C C w ",
"g.| | k =.* < < 4 3 $ z z 3 4 2 2 4 4 4 4 2 2 % 2 Q 5 5 g 3 5 5 2 2 3 3 5 d 5 $ < d 5 5 < < < 6 4 < : 4 % # g 3 4 5 , :.Z C K w ",
"g.| ] a ;.o . # $ # z 6 < 2 < < % 2 3 3 2 4 : 4 ! 6 ; 2 5 5 g 4 6 4 d < < 3 d 5 $ 2 6 5 1 5 < 1 3 < % - < < $ - $ @ O ;.9.G G 8 ",
"l.{ | l ;.= 2 < 2 Q W 2 % - < < - : : < 2 % < Q 6 2 ; < - d 2 @ $ 6 5 2 3 4 3 3 6 $ 3 d 5 < 1 < g 3 3 3 - 2 2 2 2 ; ; 1.p.K G q ",
"m.#.' l 2.1 2 - 3 6 3 2 2 < < 2 < - < 6 % $ Q 6 4 2 3 ; < < % g 2 $ 5 5 < 4 3 < 5 5 . < z 1 3 , d 2 5 5 ; - - ; 2 2 e 4.7.] ` y ",
"b. .| v 5.= % $ 2 2 2 2 3 3 4 4 < 4 6 - + @ z 4 5 g d 2 3 % z z g < % 5 3 4 4 2 - 3 @ $ d d d 5 2 2 < 3 2 6 d < * < ; 4.a.' ` r ",
"N.}  .v u.* < < < < - 2 < - 2 2 - 4 % - 5 % z < < < 5 5 $ z g 3 4 z 2 * z 5 3 2 , 1 * Q $ 1 5 g < d 5 3 g g 4 2 < < e q.a.] _ r ",
"m.E } l r.* # % @ - * - - < 2 - < % < Q 6 % 6 : < 2 3 < g W 1 2 3 5 x < 5 3 2 6 2 4 # W 6 @ 2 z 3 < 3 3 d 3 3 2 2 - , 5.p.] P w ",
"B.} { l r.= % 2 ; 2 2 2 2 2 5 6 - : Q 6 4 < g 2 3 3 6 : g 6 2 3 5 1 5 < g 4 1 ; ; 2 % W 3 2 % < 5 ; < 2 e 3 < % % - , q.7.] ] w ",
"B.O.} v Y = < 2 ; 3 5 3 5 < 3 2 2 W 2 2 4 : z 2 < < 4 < g d 3 2 < 4 6 : 6 5 3 - < - - Q 5 1 5 @ d 2 3 < < < < @ % + q R p. .| r ",
"J.s.O.O. .l * * < - - - 2 1 2 % g 6 - ; < - 6 < 3 3 g : 3 d 5 < 2 2 1 % 5 3 1 3 2 2 % x 5 3 5 < 2 5 < ; < 3 % % # t o.z.x. . .h ",
"D. .] | ] T h - $ ; 5 3 1 - < - 4 6 - % < % z < 2 < < < 5 5 2 1 2 2 4 % 5 3 - < 2 4 - 5 - 1 2 % 5 4 2 - - % @ @ e o.c.] ] o.| h ",
"l.R ] _ D K ] h - - 3 2 2 - % # 4 4 % % % $ 4 < % $ % @ 3 d 2 3 < $ * $ 5 3 % < 3 3 $ 2 - $ < $ 5 4 - $ # @ . 1 a.x.` ] { | { y ",
"b.[ ' ` P P { ] h & , , , , ; * 1 , = , = O 1 , * , , = e e ; e 1 , > * 1 f , , 1 , * t = O , > e e , = * O = p.x._ ` J ] | [ r ",
"l. ...+...] | { ) V q.5.5.5.q.5.e.q.5.1.4.1.1.6.2.1.1.1.2.1.4.4.2.3.1.2.5.<.,.q.q.4.2.5.2.1.2.r.3.6.r.r.r.6.A s.[ ` ` ' ' } [ u ",
"C. .] ( m V _ X.| o.a.p.L Y R L }  .9. .s.z.p.Z Z Z L L 7.7.Y 7.Y 7.8.9.8.U K Y R Y L L L 8.p.7.8.8.[ } } [ O.z.] ....( ^ P R y ",
"C. .] ) S _ ] | |  .} ] C K P ] | | { #.X.{ K K K C K K U U P U U K R R R T P R P K ] P P ] P ] T ] _ _ ] { | ] X.$.X.) J T P a ",
"m.[ P P T  .] } o.] T ] D D K ] | _ T J P ] P K C C C C L R P K E R U T I P J I _ _ _ ] [ R P ] ] _ J J J J ` X.X.| { 8.p.[ R w ",
"I r 8 w q a y r r 8 w r w 8 8 8 8 7 q 8 7 r w w 8 8 w 8 8 u u w u w r r w q w w r r r r a q r f f t f f f f f f f a a h w w w 7 "
};
