/* XPM */
static char *result[] = {
/* columns rows colors chars-per-pixel */
"64 64 175 2 ",
"   c #2F2823",
".  c #342D26",
"X  c #352E29",
"o  c #382F2A",
"O  c #3C332C",
"+  c #363535",
"@  c #3C3631",
"#  c #373837",
"$  c #3A3936",
"%  c #3D3C3B",
"&  c #462D1D",
"*  c #482F1F",
"=  c #56381F",
"-  c #452F20",
";  c #463224",
":  c #4B3324",
">  c #42362E",
",  c #4B3629",
"<  c #41392F",
"1  c #4B392E",
"2  c #523624",
"3  c #573A24",
"4  c #5A3C25",
"5  c #533B2B",
"6  c #593F2A",
"7  c #413730",
"8  c #443B34",
"9  c #493C33",
"0  c #433E3B",
"q  c #483F39",
"w  c #513F33",
"e  c #643D20",
"r  c #57412E",
"t  c #5A412C",
"y  c #474136",
"u  c #494137",
"i  c #41403E",
"p  c #4B433B",
"a  c #4E483E",
"s  c #554235",
"d  c #5B4432",
"f  c #53453B",
"g  c #59473C",
"h  c #52483E",
"j  c #5C4A3D",
"k  c #684226",
"l  c #63422B",
"z  c #6B462D",
"x  c #67482E",
"c  c #6E482F",
"v  c #794C2F",
"b  c #7F522D",
"n  c #624532",
"m  c #6B4730",
"M  c #634934",
"N  c #6D4A33",
"B  c #644D3C",
"V  c #6D4D3B",
"C  c #734C34",
"Z  c #7B4E31",
"A  c #724F39",
"S  c #6F513E",
"D  c #765037",
"F  c #7D5235",
"G  c #74523C",
"H  c #7A543C",
"J  c #7E583E",
"K  c #403F40",
"L  c #3F4040",
"P  c #454443",
"I  c #494745",
"U  c #474847",
"Y  c #494947",
"T  c #474748",
"R  c #474848",
"E  c #4C4C4B",
"W  c #524A41",
"Q  c #5D4D40",
"!  c #504F4D",
"~  c #4F504E",
"^  c #51514F",
"/  c #5D5149",
"(  c #504F50",
")  c #4F5050",
"_  c #545352",
"`  c #585755",
"'  c #575856",
"]  c #595856",
"[  c #565758",
"{  c #585758",
"}  c #575858",
"|  c #5C5B5A",
" . c #674E40",
".. c #6D5343",
"X. c #6D5648",
"o. c #6F594B",
"O. c #735543",
"+. c #7C5740",
"@. c #745846",
"#. c #7B5A44",
"$. c #745B4B",
"%. c #7B5D4A",
"&. c #6D5E55",
"*. c #605E5D",
"=. c #735F52",
"-. c #785F50",
";. c #7E614E",
":. c #61605E",
">. c #6E615A",
",. c #756256",
"<. c #7A6354",
"1. c #746359",
"2. c #7A665B",
"3. c #7A695F",
"4. c #605F60",
"5. c #5F6160",
"6. c #636362",
"7. c #686564",
"8. c #696967",
"9. c #6A6968",
"0. c #85501E",
"q. c #89531F",
"w. c #845224",
"e. c #8C5523",
"r. c #8F5924",
"t. c #875429",
"y. c #8C562A",
"u. c #8D592B",
"i. c #935726",
"p. c #935A26",
"a. c #995D27",
"s. c #935B2B",
"d. c #995F2A",
"f. c #835435",
"g. c #82563A",
"h. c #83593D",
"j. c #8D5C3B",
"k. c #935E32",
"l. c #915F3E",
"z. c #96622D",
"x. c #9B612C",
"c. c #8F603F",
"v. c #956233",
"b. c #996433",
"n. c #9B6939",
"m. c #835D44",
"M. c #815F49",
"N. c #81624D",
"B. c #946443",
"V. c #996746",
"C. c #956847",
"Z. c #986847",
"A. c #93674B",
"S. c #96694C",
"D. c #9A6C4C",
"F. c #836653",
"G. c #856955",
"H. c #856C5D",
"J. c #956C52",
"K. c #996E51",
"L. c #946F58",
"P. c #967056",
"I. c #9C7255",
"U. c #94735C",
"Y. c #9D7459",
"T. c #9D785D",
"R. c #A17252",
"E. c #AA7D5D",
"W. c #8D7366",
"Q. c #917360",
"!. c #9C7A63",
"~. c #957969",
"^. c #9A7D6A",
"/. c #A37C61",
"(. c #A58168",
/* pixels */
"E.D.B.B.V.V.K.S.K.S.R.R.R.D.V.V.c.c.l.j.l.j.f.l.c.B.c.j.l.j.f.f.j.l.A.B.V.K.R.R././.!.!./.I.R.^.^.!.!.!.T.~.W.^.L.D.A.S.B.Z.K.N ",
"Y.H C C A +.A +.A m.m.m.m.+.m.e c z c c z C A O.G Z c C C c c z k k C c H #.H J m.M.m.%.-.+.-.<.2.<.,.<.<.<.1.=.O.D D D G G #.2 ",
"J.A c c V e e N +.m.M.M.m.m.+.e z z x x A N G @.O.Z v x c c c c k c A O.H +.H m.%.M.M.N.#.+.-.%.<.,.<.2.3.<.1.=.$.O.G N G G J 2 ",
"J.D c B  .e N C e w 6 6 6 N 6 6 4 4 4 6 3 4 t d 6 4 3 = 3 = 4 4 3 4 e e e e l x V n n n n n n n n n B j B j Q =.@.O...X...G G , ",
"J.G M w w e N H  .e k.k.j.k.i.i.y.u.u.t.t.t.t.y.y.y.w.y.w.w.q.q.e.e.y.0.y.u.u.b.b.u.s.s.u.u.u.u.e.e.e.i.s.i.f.+...V V g f N G , ",
"A.O. .n 6 O.D 6 : o 9 w K , K > 9 % 9 p q o p 8 @ q $ @ p 9 > q q 9 9 7 K W W p Y q o I 8 9 I 9 p y 8 $ @ O 7 d A A A n n N A ; ",
"J.O.N A +.+.m -   # K ( K ( K K R T K P P $ ^ I P I Y % Y _ _ ` E E Y % ( ( Y E E ) % _ Y T E L E E L T P K $ o n A c N m c N ; ",
"J.O.A A +. ., . K K ( K ( K K K E E E Y E P ` ^ _ ! ! 0 E E E E I ! ! % E ! T Y ) ( K { ( Y E L E E R R I E Y # o n A C C m A : ",
"S.G G N n ; X $ K K I Y K I Y K E _ _ _ _ P :.` ` } ~ U _ _ ! ^ ! E _ K E I E E E W P | Y ~ Y % _ _ E _ E I { P + o l l m N A ; ",
"A.D D 1 l . # i E K K Y ( ! ! I $ _ [ | _ E :.` ^ ^ _ U _ ^ _ ! ( E ! K E ! E ! E ^ P 9.Y U ) L | _ _ ! _ ! _ Y P + o e Z A O.: ",
"B.H #.d y.@ % % ! K I E E E ( ( P % _ _ _ Y *.^ ^ ^ | P ^ | _ E ! I I % ^ _ ! E E _ U *._ T % } } E _ _ _ _ | E E I O e.g.+.O.2 ",
"L.#.$.d s.p P P I ! Y Y E Y I ! ( P 0 _ E I ] Y Y :.` P Y | | | _ ! Y % _ _ _ ( Y ~ P } _ T 6.| T P ! ^ ! ^ *._ I K 9 y.m.D A : ",
"^.%.%.d z.9 P Y Y E ^ ) ! ( E ! E ! P % Y % _ P _ | _ | P E _ _ _ | Y Y { I E _ E ~ L | P _ | | } Y Y _ E Y E E P P q y.m.D C : ",
"Z.H H t k.8 P P ! E ! _ | 6.| _ _ _ ` I % P } E E ! E _ | P Y E Y P Y 9.E % P ( _ E # L 5.6.Y E _ _ _ _ Y ) E _ E U 9 y.m.m.C * ",
"j.C A t z.q E E ` _ _ _ E _ _ ~ E ! _ | Y % | 6._ Y E ! _ | L Y 0 P 4.| ( Y P _ _ E % 5.6._ Y E _ ) E ` _ _ _ _ _ E h y.m.#.A : ",
"j.D F 4 r.O % P I _ | ) T E ) E E _ ^ _ [ Y % _ | ( E _ _ _ _ % Y 4.Y P _ _ Y ( E % _ _ P Y ) _ E Y P P Y E P L % % 7 u.m.+.$.: ",
"!.<.$.6 i.8 T E E % E ` E ^ _ _ _ E ! ! ! ` ! 0 _ ) E E E T _ ) | { P P ! ( E Y L | | E R E ) ) Y P Y T Y P P _ E Y p u.m.O.$.; ",
"^.$.$.6 p.y ! _ ^ _ 0 E _ P I _ _ [ _ _ ! ! { E K } _ E E ) Y E E ( _ Y ! | ^ % | | E ) ) E E R E ) E ) T Y | [ ) T p u.F.,.@.9 ",
"D.G O.t y.q _ ! ^ / ^ % Y E Y ) _ | ` _ _ ( E ( P L [ _ ) _ ) ( Y E E _ _ _ K _ _ E R E E ) R E ) E E P T 5._ E P P q y.N.@.V 2 ",
"I.+.G t s.q Y ^ ! ! ` _ $ I _ Y I E ! ! ! Y E Y Y U L | _ _ [ _ | { _ { ! P | } Y E ) E ) _ E E ) E L R 5.E ( ( P % @ u.;.,.G 1 ",
"S.G G 6 b.q P E E P E ! Y + E _ ) E _ E ( | _ _ Y } E Y :.:.| E Y E ! _ P | | } _ ` | } } _ } _ ) L % ) E P ( E R L y u.h.$.G , ",
"A.O.O.t v.O + 0 P L i 0 % $ + E [ _ _ | _ _ [ { ) E E P P :._ U P E Y % | | _ _ _ | ` _ E _ _ _ T % % % # % % $ % + @ u.F G S ; ",
"L.V V 4 v.I _ | | 6.7.6.| | E + E _ Y ( P E E E _ _ Y E P P | Y E E P _ _ E } Y E E ~ E ) _ _ P P | [ [ } [ _ [ } ^ W u.J G S , ",
"J.A A t b.9 I ) _ ` | ^ ! ( _ ! # T ! E P E _ I E E Y E _ Y i _ E i | { Y E ^ _ | ~ _ _ E _ P E 6._ R E E R E ) E P a z.#...S , ",
"J.G @.r n.q P _ _ _ | E E ^ _ ^ ) % E ) _ E E _ _ _ ^ E ~ _ ~ i p | | P E _ _ E ! ` ! E E p E 7.` ! I ! E E ` Y E U y z.F O.O., ",
"L.o.o.r n.8 P E _ E E E Y P Y ^ [ _ K T ) E Y Y _ _ E _ _ ^ ^ $ i | _ _ U 0 ^ E E ` :.*.P E 7.^ E ! ^ ! ^ _ ! _ ~ U y p.J @.X.1 ",
"U.o.X.6 b.q E } _ E P Y I E _ ` ` { ) % E } Y T _ } Y Y _ ~ L } ^ P | _ _ E E _ E E ^ Y E 5.^ E ! ! E ! ! ` E ^ ` ~ h x.#...N ; ",
"U.O.S 6 v.O % P P I P 0 _ _ E E ` ( Y _ % T ) T P E | ) E P :.6.| E 0 ^ E _ _ _ E E a ! :.} E E ! ! I E 0 0 0 q 0 % @ x.m.V N 1 ",
"A.S S 3 a.@ P P P Y I I P _ P P ! E Y _ E % Y | _ _ _ ' P | :./ _ | E P *.^ _ } ' U ~ 8.` _ _ ^ Y P P 0 Y E E ! E E p b.F.O.S : ",
"P.G V 3 s.a E | 6.| _ E P P _ ^ ( { _ ! P _ $ U _ _ _ P | | ` ^ _ / ] W 0 _ ~ _ U U :.:.| ` | _ ! I % { | E ! ! ! ~ W b.<.,.o., ",
"Q.O.G t s.0 U P ) _ | _ _ P P | { | _ E Y E E + T ! P *.| ^ ` | ` _ ! ] E i _ E ~ 7.` ^ ^ ^ P E E K _ | E ! ! ! p P p d.G.$.o.1 ",
"U.$.$.d y.9 P P Y ) E { ` | Y U ` ` ( { _ T T E + + ` | _ E _ | ] _ E Y ^ E + Y 8.| / ] ^ I P P % | | T E ! ! ^ I % u x.F.=.o.9 ",
"!.,.,.g u.q E T Y ^ P I _ ^ P E *._ E E ^ _ ^ ! $ @ ^ } ~ ~ ! :.*.^ ! _ ` E $ P ` ` ^ ^ W ~ Y E $ _ | Y Y E Y _ ! p p k.N.@.O., ",
"Y.+.O.6 y.p Y E E E ^ ~ _ P P :.| _ ^ _ ^ ` ^ P ` ^ i ~ ^ ~ ^ ` ^ ! Y ! I E *.E P ` ` _ ^ E E E ~ % ^ | _ _ Y E E p u k.M.A A , ",
"J.O.O.6 y.8 P Y E E ^ ^ I Y :._ ~ ~ ) E ^ ^ I :.7.E _ % E | _ ^ E E E P P *.E _ Y P _ | _ Y E E _ ^ i ~ } ~ E E L P p k.h.A C ; ",
"Y.#.$.5 t.X # P P P P i E 7._ ! E _ _ E E p | ` E E ~ _ p I _ ^ ! ^ I Y | ! P I _ T P _ ~ P ^ E E ^ ^ i P P P P % % 9 u.F A C , ",
"Z.G G t w.8 U E E _ ) } 6.| ! _ ^ ^ _ ^ i | | Y _ ^ ^ _ _ L ~ | _ P E 6.Y P I I E | E L _ _ E _ _ ` _ _ E _ _ ) Y Y p s.Z z c : ",
"Z.D D t e.9 Y ~ ~ _ _ _ ( ) ^ E ~ _ ! P | | E ^ ` } _ | _ _ i ^ Y E 8._ E Y E P P P | P % ) P P _ ^ E _ _ } _ _ E E p s.v z c * ",
"B.C V t r.8 T T E E T E ) Y E [ ^ ^ P *.:.E U U T E ~ _ | | ~ + K 9._ Y ! _ E I P P E | ~ P _ E E T ` ~ P T E _ Y U u p.f.c c * ",
"C.D D = i.@ P T E ) P P R E ) _ ^ i ` *._ _ _ ~ P p ^ E ^ | i P P _ 6.E I ! E I P Y _ _ _ Y P 5.6.| ) E Y Y T E U P u a.f.C C : ",
"C.D G t q.< U Y E ) E E _ _ [ E % ` _ Y ~ ` _ ^ E ^ ^ E E % p _ _ K ) 5.E E ! _ ` _ E ~ E _ E p _ [ E ) E ) ) Y P P u a.v c C - ",
"c.D G t q.< E E ~ _ [ E R E E P | ` I E E _ _ _ ^ _ _ ^ i E | E E Y % _ 6.E | :.| ` _ ^ ^ ^ ` E % ) E E _ E E Y P T q a.t.x z & ",
"c.G G t 0.o $ $ L P % K # # K | 6.) ( ^ U P E ! I E _ p E *.^ ! ` ! _ K ^ | ] | | _ ` ^ ^ E Y ~ Y + $ % $ % % % # + O a.f.c z & ",
"Z.H H r 0.p ~ ^ _ [ | 6.} T | 4._ | E E ^ P P Y P E P E | ^ ~ ! ^ ! I ! q ! ] ^ E ^ _ ^ ^ ^ E p _ Y K 5.| _ | 5.| E a z.Z m z & ",
"D.D $.r 0.O P U P _ _ E P | } _ | _ ~ P Y ~ ` _ ~ i E :._ ^ ^ E _ ` I E ` 0 E *.^ ^ _ _ a ~ E ! { _ E P _ U P _ _ P 9 k.Z c k : ",
"D.G $.s e.X % R _ ) ) P | _ ) _ _ _ E ) _ ~ _ _ U U :.^ } _ _ E Y ^ ^ _ ] ^ 8 ! ] _ ^ ! U U ^ ^ _ ) { P P _ _ E E L 9 s.Z z c : ",
"C.$.@.5 e.y U ~ _ ) % } | E _ ) Y _ _ ) ~ E ^ P E *._ ^ | _ _ _ E ~ _ _ _ ] ] i ! ] ` _ ~ ^ Y ` _ E P ) U L ` ~ ~ ) p e.Z m C : ",
"C.@.X.6 e.O # # % P | [ T E R T T E _ _ E _ P E 7.| ^ ^ _ ` | _ _ } _ E E ^ ] / % ! ` ` ~ ^ E ! ! Y P Y E Y i U % % 9 e.h.C N - ",
"S.$.@.t e.p T T ) 6.5.E U P Y T P P R E E P Y 6.[ E E Y Y _ _ % % } _ ~ ~ ^ ~ _ ` % ^ | ` W E ! | _ ! ^ Y E ^ E E p u p.m.N N : ",
"P.,.$.r a.p E P ) _ ) _ ^ Y R E T U E _ P % 6.` _ _ E Y Y P % ` ^ L ' ~ E } _ ~ _ _ $ E | ^ ! ! _ ^ ` _ E P Y E ! E p s.g.G o.1 ",
"J.$.$.d v.q P L Y E Y E _ _ ) _ E _ } P # L | _ ` | ` E E P | | ` ~ P _ ~ _ _ T I ^ % i ^ | ] ^ ! ^ ! ! E _ _ E P I h s.M.$.X.; ",
"P.#.#.M b.p T R Y E E E E E E ) T E P U _ L ` Y E E _ _ i ` ` _ _ | E p *._ _ ) E ^ i *.p ^ _ } E ` _ ^ | | _ E E Y W s.M.O..., ",
"I.+.@.d x.< P P 0 P Y I T E ) E R L R 6._ P } P E E ^ I _ *.! E ^ _ :.E ~ ^ ~ _ E ^ p | | % ~ *.^ E ^ ^ ] ^ ) ) Y T a s.m.O.A ; ",
"Y.#.+.t a.p R E Y _ ! E R ) _ _ P U 6._ E P } ~ _ _ _ Y | ` ! ^ _ ^ _ E } _ E ~ E E P *.^ ^ i ~ _ Y Y ! ^ _ Y p P P p b.g.O.H , ",
"Y.;.#.d F q P E Y _ _ _ _ E ) T E *.E E ) T | E Y Y _ P ` ` ! ! Y ~ _ Y _ } ^ U E U U 6._ ^ _ % _ ^ ! E E ! P % P $ 9 F m.$.$., ",
"(.<.N.;.#.d O p E E Y Y ^ ~ ) L ' } U E T P } U E _ | Y _ _ _ ! ^ ~ ~ P ^ ^ E _ E E L *._ ^ _ E ^ ^ ! I E ^ P P % p ;.F.H.#.%.w ",
"/.m.O.$.O.A d @ P E ^ ! E Y Y P ) _ T L R L | E E Y E P ^ _ ! ! E ^ ^ P ^ ^ P E _ ) L ) E ~ ^ P E ~ E P P P % $ q <.H.O.@.,.$.9 ",
"K.O.O. .N C ..f + p _ E E Y P $ E ) T P P % _ Y T % P $ ! _ ! _ Y i I % ^ ^ P Y E E % E p P U % ) _ U i L % + q N.F.X.S @.@.#.5 ",
"K.+.$.X.V A @...w O q f I p p $ a y p y y @ p y y p f 8 f W q W p u y @ f ^ p p p p 8 W % < y 1 a h u 9 8 @ < m.G.O.X.S O.$.H 1 ",
"K.#.&.>.&.O.@.@.B c k.s.a.d.k.s.v.v.s.i.s.y.a.a.p.i.i.i.a.i.s.y.x.a.a.p.s.u.s.s.k.s.p.a.p.i.x.x.a.x.x.x.x.x.b N.O.O.X.o.X.$.+.2 ",
"Y.%.O.Q g m ..=.$.$.m.M.Z F H Z m.#.+.M.M.F.m.v Z v v Z f.f.F f.F f.g.h.g.H v Z H F F v Z h.m.F g.h.+.+.#.#.;.F.O.&.&./ j G H 1 ",
"R.%.O. .n S O.$.$.-.#.O.c C A O.$.$.%.-.-.@.A C A c C C D F A D H A D H H G A O.A A O.V A O.G A G ......O.O.@.O.$.1.1. .V G H 5 ",
"I.#.A G O.%.+.#.-.O.G O.c c N O.$...O.A V O.A C c c c c A D C C H D D G G N V S G G O.G H G G @.O...V V G S X.@.=.$.+.+.m.H A : ",
"V : * : : 1 1 , : : : , - * & : - & - - - : - : : & : * : 2 2 2 , 2 1 : , : : : > 1 1 1 , : , 1 9 9 > 9 > 9 9 9 q 5 5 5 , , : & "
};
