/* XPM */
static char *result[] = {
/* columns rows colors chars-per-pixel */
"64 64 127 2 ",
"   c #3A2F28",
".  c #3E3026",
"X  c #3E342D",
"o  c #373534",
"O  c #3D3632",
"+  c #3F3934",
"@  c #3E3B38",
"#  c #433125",
"$  c #4A3426",
"%  c #43352C",
"&  c #4A362A",
"*  c #46382F",
"=  c #4B392E",
"-  c #593A26",
";  c #523B2D",
":  c #5C3E2A",
">  c #423730",
",  c #443A33",
"<  c #4B3D34",
"1  c #453E39",
"2  c #4A3F38",
"3  c #523F33",
"4  c #5E402D",
"5  c #4D4037",
"6  c #4C423C",
"7  c #544136",
"8  c #5C4334",
"9  c #53443B",
"0  c #5B463A",
"q  c #57483F",
"w  c #5D493D",
"e  c #61422E",
"r  c #644634",
"t  c #694732",
"y  c #664836",
"u  c #6A4A36",
"i  c #614738",
"p  c #644B3C",
"a  c #6B4D3B",
"s  c #714E33",
"d  c #714F3A",
"f  c #6D503E",
"g  c #755236",
"h  c #785337",
"j  c #74523D",
"k  c #7A553C",
"l  c #7D593E",
"z  c #464442",
"x  c #4B4542",
"c  c #4D4845",
"v  c #514740",
"b  c #544A43",
"n  c #5B4C43",
"m  c #544D49",
"M  c #594F49",
"N  c #5F5046",
"B  c #56514E",
"V  c #5C524C",
"C  c #575452",
"Z  c #5C5652",
"A  c #5E5855",
"S  c #634E42",
"D  c #694F40",
"F  c #645145",
"G  c #6B5243",
"H  c #64544A",
"J  c #6B5649",
"K  c #66584E",
"L  c #6C594D",
"P  c #735542",
"I  c #7A5641",
"U  c #755946",
"Y  c #7C5A44",
"T  c #735749",
"R  c #745B4C",
"E  c #7B5D4B",
"W  c #625750",
"Q  c #645A53",
"!  c #6C5C52",
"~  c #645D5A",
"^  c #6A5F59",
"/  c #735E52",
"(  c #795F51",
")  c #7F6047",
"_  c #77614E",
"`  c #7C614D",
"'  c #6F6057",
"]  c #65605D",
"[  c #6C625C",
"{  c #756155",
"}  c #7C6353",
"|  c #7F6955",
" . c #75645A",
".. c #7B665A",
"X. c #77695F",
"o. c #7D695C",
"O. c #6D6661",
"+. c #726761",
"@. c #756961",
"#. c #7D6C61",
"$. c #7F7065",
"%. c #7D726A",
"&. c #805B3F",
"*. c #825D45",
"=. c #825E49",
"-. c #846146",
";. c #886246",
":. c #84624C",
">. c #89644D",
",. c #836552",
"<. c #8A6651",
"1. c #856954",
"2. c #8A6A54",
"3. c #806759",
"4. c #836C5B",
"5. c #8A6D59",
"6. c #87715E",
"7. c #8B715C",
"8. c #826E62",
"9. c #847164",
"0. c #897362",
"q. c #83756A",
"w. c #897768",
"e. c #87786B",
"r. c #89796E",
"t. c #847A72",
"y. c #8A7D73",
/* pixels */
"*.# $ & * 4 r r r r r u u u e e e e - - e - : 4 4 4 4 # X # # _ ) . $ X * u y u P D a D D t i D H D D S D n n S i i 4 = % & & =.",
"-.% % & ; 8 0 8 r u y y u u r 4 : - - - - e e i 8 4 7 ; $ X . _ ) . X + 5 p r u D D u a D t D H H H F F J D V S i r i ; , > % *.",
"I   o 5 5 5 7 7 q u D a u r r e - : 4 : e 4 8 w i 0 7 - - X X _ _ . * 7 w i r f G D D D D y G a F H H H W J H H D D i w 9 1 > *.",
"k X O 2 7 2 3 8 w u a a D u r e : : : : 4 e p p w 4 = - ; # X { | X $ 0 i i u u D P D a D p a a a p J D H H N S D w w i 9 , % *.",
"l X + 7 9 5 8 r d u u u G D D i e 4 4 : : i F S i 4 4 4 5 # . | } % = q S i a u u d a d p D D t i t D D a i i i i i i i 9 , > =.",
"Y X , 9 9 q 0 r u u d u D G F i 4 e 4 4 e y J f u i w 4 4 # #  ...% , m V n w y t a t D D D u D a t y D a i t i i 0 y S 6 > > ,.",
"-.% 5 w n p p t u u u d a G H S p r e r f f a J a F w 9 5 * X o.| X 5 m V F p a d a a D D p u y y y y y i i i i i S r 8 2 > > =.",
") * < n F F U j u u u u D G H D J i u L ' K T K H p 0 m c , X _ ` % 2 B N F H G P P D D a a D D a a a a a a i u D i r S n = > 8.",
"4.= 3 2 9 a P j j j P P P D D d G p G { ! R J a L F q 6 , 5 % _ ) * 5 x 6 L / / T R E R T T T D P D D P D D u u G D d 3 < ; < 3.",
"..< 0 n S P I I P *.Y T P d d P P T { R E T j f U ! J w q 7 = ) _ % 6 q S R ( R ( } ( / / / T T P P P P P P P P D d D 3 3 3 2 ( ",
"4.3 S ( ( ( :.I Y ( E R E ( E ( R  .( E E E R P G { U U H w = h I 2 b G P R ,.>.:.} ( ( ( ( E T =.P T T I T Y T P D P P S 0 9 3.",
"<.q F R E ( Y P ,.=.=.,.} #.#.T E o...,.U k P j ( { { T H v 5 l Y 7 F R E Y E ,.<.3.3.3.3.8.( ,.3.( ( =.=.( ( ( =.R R R T S 3 3.",
",.9 V / ` } } P I -.E } ,.#...U Y #.#.X.E E E Y E } / L H v 5 Y h 9 H { .._ } ,.4.8.8.#.#.#...#.......3.=...3.3.3.( ( / L q 3 8.",
",.9 n / ,.} } U E =.=.:.8.#.} I ,.#.#.#.} ( E } E ` / / J w 5 Y h 7 b Q X.X.o.3.3.8.8.8.#.#...#...+...3.,.3.......#./ / Q M 2 ,.",
",.3 p J U G P R #.3.` E ,.8...3.8.#...R E E I ( ( ( } / J N 5 l l 5 x V ' o...5.3.#.8.#.( ..( ( ,.(  .3.( ....3.....+.( L n 9 3.",
"o.7 r K J G L { ..E E } } } X.X.{  ./ T Y P P E ( R L Q V x , Y } 5 z C ~  .} 3.8...( ( ( / / / ( ( T 3...( ..,.( ( / +.J b v ..",
"3.v n c 5 n T T P d j / T I ( / / T G G P j I T T / H b 6 5 , ` ..6 b m C ' X...X...` U { { R T T R ( =.( E E T E ( / M b v x } ",
"-.5 c 6 6 v p f d d P D j d P D a p a a r u d d j T F M n q = ` 3.5 9 m C ^ J ` ..{ {  .' ! L L J L T T T T ( R ( G Q m n c 1 Y ",
":., x v b w i u u d d a a a a a r u r y t u u D P T ! Q V b 2 3.o.5 x H A ~ [ { / ! L J Q K K J J T T / R G T J H H W B V 9 > Y ",
"` , 5 M V N p u u d D G D d u D y r a a r u u P P G F n n x , } o., x C A Q ! L T T f L J H F H G G L ! ! J J L D H H m M 6 = =.",
",.* 5 9 w p a p r u D D a D p a S p S u r r r G J G p 0 q 5 % &.1.5 6 M K K K L J J J H S S S p G H J J W D G D F F F n w 7 < E ",
",.= 5 w F F F N a D G G y i a S S u r r G G a T f G F S 9 5 % l ) 5 5 b F F G H H F p p i y G a D D J J J D a y p p p w 8 ; * ` ",
":.= 5 w F G J K G P R D y r a J D a u u L L T R R K H V m z + ) ) 5 6 B H H G J G p y p r r a D a D T G D D a y p G p p 0 7 * U ",
"1.5 5 H Q L ' R ( R / U j P P D P P d d P P P P U L J Q V 5 , | ) 5 c Q K R Y _ U P f f y u D P d P T R T P D a G G N K V 6 = _ ",
"-.5 b B M / ..( } ..=.E =.E j d d I *.=.=.E k k E } U n b w 5 Y l 7 V V F U ` k E Y d d P Y U P Y Y Y E E E j P U T L M x c 5 Y ",
";.9 V N L o...=.=.,.=.,.,.Y k I *.j *.>.>.:.Y =.} ` ,.L F V 6 ) l 9 Z Q R  .| } R I j Y ,.} ,.=.*.=.=.,.:.E Y E E ( { H n V 9 Y ",
";.b K ` o.9.4.2.2.7.5.5.>.*.*.:.<.*.=.2.>.>.=.:.:.-.} ' Q m 6 l -.q A [ @.X.| } E E E -.,.,.3.,.=.=.,.:.E :.,.3.,.3.} ..{ V 6 ) ",
"*.w J _ 4.w.y.0.2.2.5.0.:.*.=.<.>.>.<.8.=.:.,.,.,.E ` ' ^ V 6 k l b A ] @.o.| } } :.:.:.,.,.<.<.=.:.-.-.>.,.3.o.3.o.#.o.} F 0 l ",
"l 9 V ^ X.#.0.4.<.5.5.5.:.=.=.<.=.<.2.,.*.=.:.,.} :.` U ! S 7 l -.b Q [ o.3.| ,.E ,.,.,.:.:.<.,.>.*.=.=.Y Y >.,.,.@.@.@.X.V v *.",
"&.6 m Q [  ...{ ( :.E *.*.=.*.*.:.,.8...*.I k =.` } U Y R n 5 l l 6 B ^ ' } } } E Y =.:.:.,.:.,.:.,.>.=.Y I Y ) (  ...@.X.A 9 &.",
"g 7 w J ! { E ( ( E I Y I =.*.Y =.} ( / I j j I R U P E R n < l _ 5 v V K U ` } E Y =.=.Y ,.} ` ,.:.` Y I I E E .. ./  .} H q *.",
"s 5 B [ ] } X.{ R R Y E E E P d T R / R T j j P P P T { W b , g ) 6 c V Z J Y R / E E *.( ..{ _ E P U P Y j T / / +. .X.^ m 6 -.",
"g 9 V Z C  .X.{ ( ( :.,.E Y j j a U T T E U U k f P U F b 9 5 g g 6 9 c b U U U E E ,.,.#...|  .{ U j k ) U _ ` ` } { W m b 5 *.",
"g 6 B Z W } ,.` } ,.E ,.=.=.I Y j k I E ) | $._ Y Y k G f 0 = h l 5 q N K _ Y U E ` ,.} ..#...o.| } Y =.) ) ` 5.:.Y Y L H n 7 &.",
"h c V [ @.8.| 4.5.,.:.<.5.3.E Y &.l =.-.-.5.7.0.w.w.$.6.Y p 9 U h 9 V O.O._ ,.{ ` ) <.1.2.4.4.,.1.-.Y ,.2.>.2.2.2.:.-.:.} F 9 *.",
"h N ] @.o.9.6.7.r.w.<.7.6.4.3.) =.-.,.) :.5.7.y.y.t.%.$._ m 6 l -.9 A X.@.| 5.3.` >.:.6.9.6.6.5.1.:.-.2.7.2.2.<.1.,.} ` L H 7 l ",
"h b A [ %.#.1.w.y.r.0.4.4.6.4.| ,.-.-.:.2.7.7.w.r.q.$.o.| H 7 ) l 0 F | o.1.:.1.:.:.:.,.3.3.=.*.>.:.:.:.:.1.2.2.1.,.} ' K B 9 k ",
"h b A @.%.%.e.y.t.e.0.<.e.q.w.q.3.1.>.3.2.7.7.7.5.5.| } X.N 5 l Y 7 F ` ,.:.1.2.2.1.) ` >.=.=.*.) 1.-.:.:.:.<.2.1.:.} ! K c 6 l ",
"l 9 Z X.%.%.e.t.6.2.1.:.4.) 3.3.1.:.:.7.2.7.7.2.1.>.| R K m 5 f g 7 F _ _ ,.1.` ,.,.=.:.=.=.*.*.-.:.>.:.2.<.>.1.) ) -.` L N 7 k ",
"l 7 N ' %.#.q.q.,.:.1.:.-.E l Y h ) 5.:.>.<.<.<.:.Y _ ! V b 5 g g 9 m X.X.| 1.) Y Y Y *.*.*.*.*.Y :.<.5.<.;.:.:.Y I k } R p 8 k ",
"h 7 b V K | 6.o.=.3.3.=.R E U ) ` I E =.>.:.=.*.Y Y G q 6 9 9 l g 7 q N V E } U j k k j d j j j =.=.*.=.Y I Y I k f a n 6 6 5 l ",
"s * c M N H R ` Y I T Y P T R T { _ k =.=.=.*.T U j f 8 0 8 5 h k 5 0 0 i E T f j P P j u P j *.Y T Y Y d I P j u f f w 6 6 + l ",
"h 5 9 N L F U U d P I j d T  .T } U P E ( Y Y P j f f f u 8 = h h ; 0 p p f f S f d d a D I I T Y I T I Y P f u u a a p w < * Y ",
"h 5 w F U L U P d d P d d P !  .R f d Y E T I I f f p i p 8 = ) _ 5 7 w p u f a f j d j P P I ( T I I P T D P j j u p p w < * h ",
"d , m A ~ ^ R U j I j d d d I T I d d j Y E Y U P P F N w 0 < U U 5 9 N F a P k j k P T T I T =.E T I I j P P d j u a F q 5 % l ",
"h 2 m ~ ] ~ R Y I j d j P I I *.P k *.I I E E T L L V C F q 5 { U 5 b N Z H G k k I Y =.=.=.( =.=.=.=.I I Y j P j k G H n 7 < -.",
"l 9 V Q ^ ^ } :.I I I *.=.=.=.*.*.k I I =.*.Y P T ' ^ H H n 6 _ l 5 c H K K ` =.Y *.=.=.=.=.,.=.*.=.Y P j Y k =.I I U H a 0 7 g ",
"k q V [ O.} ,.=.*.=.=.=.<.*.*.*.*.*.*.=.*.*.I d k E R { L b 5 k s 5 w ' Q L } 5.<.2.2.=.=.>.>.=.*.=.*.I Y E =.=.Y R ! [ Q b 5 h ",
"&.v C A Q } } *.:.<.<.>.>.>.=.*.*.*.*.*.*.*.I I *.*.E H n q < g k 3 i F S R 8.8.<.2.<.>.2.5.2.>.*.=.=.=.=.Y *.=.=.,./ C m c 9 k ",
"*.n A ~ ! ,.:.:.:.:.<.>.>.>.;.>.=.*.&.*.*.*.*.=.=.E } G S n 7 l &.3 S F T ( ,...5.5.<.>.5.<.,.:.=.=.=.=.=.>.=.=.,.E E H H H v j ",
"-.n ^ X.X.3.:.>.>.=.>.;.*.>.=.=.=.>.*.*.=.*.>.<.,.=.}  .K N 9 ` &.3 F ! =.,.,.,.<.<.>.<.2.>.:.:.=.=.=.=.=.,.>.<.3.*.=.( ..Q v k ",
"-.n Q X.8.#.} >.=.;.>.>.>.;.*.*.*.*.*.*.*.*.*.>.:.,.,.} L n 0 ) *.3 F R >.3.=.,.<.<.<.<.<.>.=.Y =.*.I *.*.=.*.=.,.T / ( ^ H 2 &.",
"-.w J } 5.,.=.=.=.*.>.2.2.=.*.*.I l I *.I =.-.-.,.,.E E G r 8 ) <.i G ,.<.,.=.>.=.>.<.2.1.) l l I I d *.*.*.&.P I E ` } / M 9 E ",
"*.7 V R } ( E *.*.=.3.8.5.4.*.j l Y I I k I I ) E R E G S w ; Y =.3 a Y =.E =.=.=.*.>.8.` ) U g I P I I j u P D T T ` R F M 7 Y ",
"Y 9 m K L R R P *.=.( ,.3.I d s k I j k j f l j P P d a S n < Y ,.; 3 G P T *.*.P I I (  ._ U U d P R P s u I T j L T K F n 7 k ",
"*.9 b ^ W K J p R R E T P u u u u t e u u u j g k d u S w 3 = Y =.3 3 S D P P j j I R / ' f f f P d d P P d P G L K V Q V b 5 *.",
"I 2 x c x F J L R / / R d u u t u u u t e t u s G f u 7 5 = 5 _ ..< < 2 7 y a d j j f P G a J J G u u P L f y y J H V x z c 6 Y ",
") > z 6 2 n F H T L G G D u t t f G a t e t u u f i 8 = , , 5 o.4., 3 7 7 0 r a f G a u a f H f u u u f H p y f a p V 9 9 b 5 1.",
"l > x m b n H D G H L T u t r D H H a y e y y r e 7 4 7 9 @ + | ,., 2 9 9 q 8 y y p p u y y a f s y y f p p p y n p N p F 9 = ) ",
"&.< 5 M A S F a D G G G r e r D p p p G G f u e u 4 - 8 6 5 , ) 3.> , 3 7 9 8 i p F f y p r y r e p i i i 8 8 p w F N a p 9 = h ",
"l = 7 n n 8 p F F F D S e e 8 e p p p p F H i 4 e 4 4 7 7 , + | o.O 1 6 9 6 3 8 w r 4 e 4 u y e r r w w p i w p p V Z N p 5 & h ",
"&.* 5 v 7 w S F S S p p : e e i F p p H F p e e e 4 : 7 7 , X _ #.O @ 7 q x 7 w 9 e i 8 8 p y r r w 0 8 i w w w N K Z a i 5 % h ",
"l % , 5 q S p p D p r y : : e p p w i r i y r 4 e : : : 7 * X ` 6.+ , 7 8 8 0 w w 8 w i u u i p N p i 0 0 r w p H F p p p * * Y ",
") % & 9 0 i a r r r r r e : : e 4 : e 4 : r 4 e e : e 7 7 & & _ 1.$ ; 0 0 r e 8 p i w p y e r w N p p p F w N N H p y F 9 = = :."
};
