/* XPM */
static char *result[] = {
/* columns rows colors chars-per-pixel */
"64 64 119 2 ",
"   c #3D342E",
".  c #373534",
"X  c #3D3632",
"o  c #4B3526",
"O  c #43362D",
"+  c #4A362A",
"@  c #47382E",
"#  c #4A392E",
"$  c #573A26",
"%  c #593A26",
"&  c #543C2E",
"*  c #5D3E2A",
"=  c #443932",
"-  c #4B3D34",
";  c #453E3A",
":  c #4B3F38",
">  c #523E32",
",  c #5F402D",
"<  c #4D4037",
"1  c #4D423B",
"2  c #534136",
"3  c #5D4334",
"4  c #53443B",
"5  c #5C4639",
"6  c #57483F",
"7  c #5D493D",
"8  c #62422E",
"9  c #644633",
"0  c #684733",
"q  c #654836",
"w  c #6B4A36",
"e  c #614738",
"r  c #644B3B",
"t  c #6B4D3B",
"y  c #714E33",
"u  c #714F3A",
"i  c #6D503E",
"p  c #765236",
"a  c #785337",
"s  c #74523D",
"d  c #79553D",
"f  c #7D593E",
"g  c #4D4641",
"h  c #4F4946",
"j  c #514640",
"k  c #544A43",
"l  c #5B4D44",
"z  c #544D48",
"x  c #5A4F49",
"c  c #5F5046",
"v  c #55514E",
"b  c #5C524C",
"n  c #5D5652",
"m  c #5E5855",
"M  c #634E42",
"N  c #694F40",
"B  c #655145",
"V  c #6B5243",
"C  c #64544A",
"Z  c #6B5649",
"A  c #67584E",
"S  c #6D594D",
"D  c #735542",
"F  c #7A5641",
"G  c #765846",
"H  c #7C5A44",
"J  c #735749",
"K  c #745B4B",
"L  c #7B5D4B",
"P  c #615750",
"I  c #655A52",
"U  c #6C5C53",
"Y  c #665E59",
"T  c #6B5F59",
"R  c #725E51",
"E  c #7A5F50",
"W  c #7F6047",
"Q  c #7D614D",
"!  c #6F6057",
"~  c #65605D",
"^  c #6C625D",
"/  c #756155",
"(  c #7C6353",
")  c #7F6853",
"_  c #75645A",
"`  c #7B665A",
"'  c #74685F",
"]  c #7C695D",
"[  c #6B6561",
"{  c #706762",
"}  c #746962",
"|  c #7D6C61",
" . c #7D736B",
".. c #805B3F",
"X. c #825D45",
"o. c #825E49",
"O. c #856146",
"+. c #886246",
"@. c #84624C",
"#. c #89644D",
"$. c #89684F",
"%. c #836552",
"&. c #8A6651",
"*. c #856954",
"=. c #8A6A54",
"-. c #806759",
";. c #846B5B",
":. c #8A6D59",
">. c #87715E",
",. c #8B715C",
"<. c #826E62",
"1. c #847163",
"2. c #897463",
"3. c #83756A",
"4. c #8A7768",
"5. c #87786B",
"6. c #89796D",
"7. c #857A71",
"8. c #8A7D73",
/* pixels */
"X.o o * 3 8 e e 9 8 0 q w 0 0 8 * , * $ * * $ , , 8 , % , % $ % % % , , 8 w w 0 N i N N N 0 0 N C M N N N M l N e e 8 e & + + X.",
"O.  O & 3 3 3 3 e w q q w 0 8 , * $ % * % , 8 e 3 8 8 , , , % $ % % , , 9 i 9 9 t i t t N 0 N C C C C N C N B x e e e 3 2 @ @ X.",
"d   . - 2 < > 2 7 r t t w 0 9 8 * * * * , , 3 r q 8 , % $ , , , % , 8 8 0 w 0 i N i N N N t N N C C C C I C b B N N e 5 4 : O X.",
"a   X < 2 - 2 3 5 t t t N q 9 9 * , * * * 3 r r e 8 * % , $ , , % 8 8 0 w w w w D i N t N r t r r t C N C B C M N 7 7 e 4 =   X.",
"f   = 2 2 < 3 e t u w w N N N e 8 , , * * e B t q 8 , , , % , 3 8 9 9 t w w w w w t t u r N r 0 0 0 N N t e e r e r e e 4 ; O o.",
"f X ; 4 4 6 3 9 w w w u N Z B 5 , 8 , , 8 r Z B 9 9 r , , , , 9 q 8 q Z D i w w 0 u 0 i N N t t r 0 0 N t e 0 e e e e 7 1 . O #.",
"X.  - 7 M l r w w w u w w N C M B 9 8 9 i t t V i r r 9 r 8 8 w 0 0 t D D s u w t t t N N e e t 0 0 t e e e e e e e e e : = O %.",
"W - 2 5 i B D s w w w w N Z Z N V q 9 S T U K S V i w w w w w w w 0 u s t s s s J i s i t N N N t t t N t t 0 e N N 0 e 5 & = -.",
";.# > r N N D s s s D D D u N D N N D T R K J t Z D 0 0 u u w 0 y u s s u X.E J J J J R J J J V D u N D V N 0 u V N t 0 e > # -.",
"` - 7 Z J D F d s H H J D u u N N K R R R L u s J R D F F u u u u u s s F J E o.o.` E E E J J J D D D D D D D u D N u q e 2 - ` ",
"-.2 M K L E Q F L E L K L E L E R E E H H L J s F E J F F X.u X.F X.X.F F X.%.#.o.E E E / / o.J J J J J J J J J N N D N N l 2 -.",
"&.6 B K L ( L d %.o.o.%.( | ] K L | ` E F F D s E E E F F F X.X.X.X.@.o.X.X.o.#.%.-.-.<.-.` %.-.-.o.E E o.o.E E o.E J E J e 4 E ",
"%.4 b / Q ( ( D F O.W ( ( | ` F X.| | | E E L H X.E E o.F F X.d X.o.#.%.%.o.#.-.<.<.<.} <.} -.} } ` ` %.@.` | %.-.E E E I 6 > -.",
"%.4 l K %./ Q K Q o.o.Q 1.| ( F %.<.| | E E o.E o.o.E o.X.X.X.X.X.o.X.o.:.-.:.-.;.<.<.<.} <.-.} -.} } E @.-.E | ` ` _ T I x 4 -.",
"%.2 7 S K D V K | ` Q o.( | ` ;.<.} E E L J F o.o.E %.L X.X.X.d F X.X...#.;.-.&.-.<.-.-.-.` E E E ` -.-.%.` ` -.` ` } E J x 1 %.",
"] 2 e V D V J / ` L Q ( ( ( ] ' } E R K J D D E E o.H F F d s F u s s s o.-.%.-.-.-.-.E _ E R J E E E E E } E -.E E R R J x h E ",
"*.j l B 7 B V K G y D E J D E R K Z Z D u u F F L L F F D u u u u G L Q ) ` ` ` ` ] W K / ! S J J E E E E L K L L E R K Z k g E ",
"O.< h z 6 k r i t u D N u u D N t N t N 0 w t D u G D D G D w t s s F L / ! W Q ` / / ! ! ! S Z Z J J J J J R K R V I I P k ; G ",
"W = 1 j k 6 e w y u t t u u t t 9 q q 9 0 0 q D D K R S J R J t s s F K ! / / / / S S S S A S S S J J J J D D Z C Z n v b 1 = H ",
"( - 1 z c c t 9 q t u V N t t N q 9 t t 0 0 w N V V V t t Z N t i D V ! S K K K J J i S A B C B B N S U U S Z S N V n z l 4 # o.",
"%.# : 6 c r B r q t N N t t r t r r r q 0 0 0 N V V t 9 t r 9 V V V Z Z S S S U A S Z C M M B r N Z V Z Z B N B B B c B 5 2 - Q ",
"%.# > 6 B r r c t t V N r r r M M r 9 9 N Z N J i i i V r t q B M r t V i V i Z B B r r e q r i N N Z Z Z N t t r r 7 7 3 > O Q ",
"@.# 2 7 C V S A Z D S V w 9 r Z N N t t J R J J K S Z A V Z t r r V Z V D D i Z i w r r 9 9 r N t N J Z N t M q t V r r 5 < @ G ",
"*.- < C A S K / R L K G s s D i D D u u u D D D K S D J V t D t w J / L G K Q W K S i w w t N D u D J R J D t t V V C C c 1 - W ",
"O.< z A R / ` L -.( E L L H s u u F L o.L H s F L E K F L L D w s O.-.%.X.X.L F L F s i s F G D H F G L Q K s s D J J S b h 1 H ",
"O.6 b A / ] ` L O.%.#.#.&.L F H X.d X.#.&.#.H O.%.Q @.-.Q %.Q F H %.=.-.%.%.%.%.L f s H ( %.@.( o.o.o.%.@.Q H L L ( / U A b 4 f ",
"+.l A Q ;.3.:.=.=.:.;.:.&.H H @.&.X.X.=.&.#.L O.@.O.O.( L @.@.L o.#.;.;.:.*.*.%.L L H L &.-.*.%.o.o.%.@.L #.-.%.( -.` ` / c 1 W ",
"O.7 V / -.4.8.2.=.=.:.2.+.X.o.#.%.#.=.:.L O.&.%.-.o.@.@.@.%.@.#.#.:.:.;.;.*.-.%.Q #.@.#.*.%.#.&.@.#.O.O.@.%.` ;.*.| ] ] ` B 4 f ",
"f 1 b U ' | 2.` &.:.,.*.#.o.#.#.@.#.:.#.o.o.#.%.O.@.@.G @.o.o.#.;.;.>.;.;.-.-.%.@.( *.&.@.@.*.@.@.o.o.X.H H &.) -._ } } ' b j X.",
"H 1 z I ^ _ ` / Q Q L o.X.o.o.X.o.&.<.` o.d d O.@.Q H X.@.o.X.o.@.@.( Q o.%.( @.o.H L @.O.%.@.%.@.#.&.H H F H W ( _ _ | ] n j ..",
"p 2 7 S ! / ( / E K F H H o.L F E ( E E s s s F L G F L L H F H L H H K H G L ( G H o.o.G -.) Q %.( Q F d F K Q / _ _ ` ` B 6 ..",
"y < b ~ ! / ` / K K H L L H D u G K R Z K s s D D s G L L G s s s L F F F F G L E L L X.( ( / Q L G D F H s G K / ' _ _ U v 4 O.",
"p 4 n ~ ^ ] ] / ( L o.-.L G s s i D D J L K K s s s H H L F d d K L G H H H H H W L %.-.` ` / ` ( F s f L G K Q ( ` _ _ U z 1 X.",
"p < v ! ^ / ( Q ( ( o.@.@.O.F F a F F L W ) ;.@.X.H F o.o.f K Q ` L F L @.o.o.f H @.-.%.` | ] ] ) / H H H O.-.&.#.F H %.K l 2 ..",
"a 4 n ^ | ] *.] ;.&.@.=.;.;.L G H f o.O.O.;.,.2.4.4.>.;.X.o.%.( G W %.1.*.O.#.#.O.O.&.&.*.;.;.&.*.W H *.=.$.$.$.=.Q O.@.K C 4 ..",
"a z ^ ' | 1.>.,.6.4.=.,.:.;.*.O.O.W #.@.@.;.,.8.8.8.8.1.O.W *.Q O.#.*.,.:.%.:.$.O.@.%.1.1.,.1.:.*.@.+.*.,.=.=.$.&.%.Q / K C 5 f ",
"a k m ^  .| *.5.7.6.4.;.>.;.;.] %.W O.@.=.,.,.4.6.4.,.>.;.@.W W W W $.:.=.+.$.$.#.@.@.%.-.-.%.X.@.@.W @.&.*.=.:.*.*.Q / I z 4 a ",
"f 6 m {  . .5.8.7.5.>.=.4.3.3.3.;.%.@.*.=.:.,.,.:.:.&.@.;.( W W H W O.%.%.$.$.*.*.%.W W o.o.X.F @.*.O.O.@.@.$.:.*.@./ U n z 1 f ",
"f 4 n ' 3. .3.7.>.*.&.@.;.W ) ;.Q #.*.,.=.,.,.:.%.#.&.W Q O.f H W O.+.%.+.$.$.%.#.&.#.o.o.o.X.X.O.@.@.$.=.$.$.%.W W W Q S c 4 a ",
"f 2 c Q 1.| 3.3.*.@.%.@.@.H F H f W &.%.@.=.$.&.+.W W H F O.H X.H #.@.&.#.*.%.O.X.H H X.X.X.F X.W +.%.:.%.O.+.@.H F f X.H i 2 f ",
"a < x U ) *.>.| %.-.E o.L J K W Q F L O.#.#.X.L H H D a D G ` G F o.o.H X.@.%.X.s F s s D u u X.X.o.X.o.X.F H F s s i d B 1 < f ",
"y @ h A S Z K / F F L L D G K D / / H H o.o.L H F D s w s s K D F d G d D X.J N u D s s u u u X.H G X.G u D D s w i r B z < = f ",
"a < 4 c S V D D u F F u t K _ J / D D L E H F D D w s w u s s D D s d s u u u u u u u u u D J E H F G F D G s t w t r i 6 - @ f ",
"a < 7 B S S D G w D D u u s U _ K p s G L G F F D s w w w s s s s s s w w y u u u u u D D D D o.K F D D G u V s s w r r 6 < @ a ",
"y @ z m Y U S F u s F u u u D L D u u d G L L D s D u u u u F a d d F u u s s s F F D J J F J J J F D F s D D s s w i c 6 1 = f ",
"a ; v Y ~ Y / H F D u s s F F X.s F X.F F X.L G L G D F H F H X.X.F F d F d F F F F X.o.o.o.%.o.o.@.o.J D H d s s s V B r 2 < ..",
"f 6 b I Y ! ( #.X.F D X.o.X.o.X.X.d F F o.X.H d G E L F X.H X.o.H F X.X.X.X.X.X.X.o.o.o.o.o.%.o.X.o.X.D s H d o.H F D S B 3 2 p ",
"f 4 b T ' ` %.H X.X.X.o.&.o.X.X.X.X.X.o.X.X.F u F o.X.X.X.X.X.X.o.X.X.X.X.X.o.=.o.&.&.o.o.#.#.o.X.X.X.F F o.o.H H / ! U A l < a ",
"f g m [ { ` %.@.@.@.&.#.#.#.X.X.o.X.X.X.X.X.F X.X.F o.X.X...X.X.X.X.X.+.X.#.&.:.=.=.&.o.=.;.=.%.X.X.o.%.L X.X.X.o.%.E T Y z g d ",
"X.l m { | %.@.O.@.o.$.#.#.#.#.#.X.X...X.o.X.X.o.X.X.$.o.X.X.X.X.X.X.X.X.#.#.&.&.=.:.&.#.=.&.&.%.o.o.@.X.o.@.o.@.%.L K R R C j p ",
"+.l Y } ] -.%.#.#.#.o.+.X.#.X.#.X.#.X.X.X.X.#.#.#.#.#.#.X.#.o.X.#.#.#.X.#.#.#.#.&.=.&.&.=.#.#.O.o.o.X.o.@.&.@.&.%.o.%.E E I k a ",
"+.k I ] <.] ( #.@.o.&.#.#.X.X.X.X.X.X.X.X.X.o.#.#.#.#.#.o.X.X.o.#.#.+.#.#.#.#.#.&.#.&.&.%.#.O.H o.F F X.X.o.X.o.E J R E T P : ..",
"O.5 Z ( *.*.o.o.o.o.o.:.=.#.F X.f d F X.F X.X.X.#.#.O.X.F f X.o.&.o.#.#.#.#.#.#.+.+.&.=.@.W H f X.F s X.X...F F F G L ` T x : o.",
"X.6 c ! ( E L X.X.o.:.<.:.-.F s f X.F F d F X.X.o.L H d s H d F o.X.X.X.X.X.X.X.o.X.&.<.Q Q F s D F D d u u F N D K L K Z x 2 H ",
"f 4 l I K K K s X.X.E ( ( J u a s F s u u u F F s s s w D L u u X.u d X.X.X.X.X.F F X.E ) K Z W t D J s u u F J D S Z S B l 2 f ",
"X.1 z I A I V M K K K L D w y w w 0 0 q y u u u s s p w y u s u u d u w u F u d u D J T ! i i i D u D D F w N V U A A P A k < X.",
"H - g b c B A S K E R J u w 0 8 q w w 0 8 0 w u D D u w 0 0 N J u w u w u 0 u u a D i Z i i Z Z V w w D S B 9 r V C b c v z < H ",
"W X g z k 6 C V Z S J V N u 8 0 t Z t 0 8 8 0 w w 0 8 8 0 w F D w 0 w u 0 0 0 w i B w w i w B B w 0 w i B r w t B r c c c g < @.",
"f = g z z 7 C r N Z J J w 0 t N N B N q 0 q w 0 8 8 * 8 0 0 u 0 s i w 0 8 0 0 0 w r t 0 w w r t w w 0 i t r r w r r c r r 4 - W ",
"f - 1 b b M C V Z N C N 0 8 q r M q N N N V q 8 0 * * 8 w 0 0 0 t 0 0 8 8 8 0 0 t C r q r 8 r w 9 r r 3 7 3 3 r 7 M c B r 4 # f ",
"f # 2 l 7 3 r B B V N r , 9 9 * M M 9 M N B e * 8 8 * 8 0 0 8 8 8 8 0 0 0 8 * 8 r 9 , , , 9 w 8 8 w 7 7 5 r r 7 7 C n c 7 < + a ",
"f @ < k 4 5 r B C B r e * , 3 e M M M M N M e 8 8 * * 8 8 0 8 0 0 8 e 9 0 e 9 e 8 , 7 9 9 r 9 3 3 7 3 3 r 7 6 r C n n r r <   f ",
"f   = < 6 B r r M q q e * * , r M e e 3 e e 8 8 8 * * * 0 8 8 8 u 0 9 9 e 3 3 e 3 q r e w e r r r 7 3 7 e e 7 7 B r B w e - O f ",
"W O @ , 9 r r q 9 8 9 9 8 , * , 8 * 8 8 * 9 8 8 8 * 8 8 8 0 0 0 0 8 0 9 9 9 8 9 r 7 7 7 w 9 7 r c r r c r l c c A r r t 3 # # +."
};
