/* XPM */
static char *result[] = {
/* columns rows colors chars-per-pixel */
"64 64 183 2 ",
"   c #281F1A",
".  c #26221E",
"X  c #2C241D",
"o  c #2F281E",
"O  c #31261E",
"+  c #33291F",
"@  c #3E2A1E",
"#  c #262522",
"$  c #2A2622",
"%  c #272824",
"&  c #2C2A26",
"*  c #2D2D29",
"=  c #312720",
"-  c #342B23",
";  c #392E25",
":  c #312E2A",
">  c #392F28",
",  c #2F302C",
"<  c #373025",
"1  c #3A3125",
"2  c #34322D",
"3  c #3B332B",
"4  c #353531",
"5  c #393632",
"6  c #373834",
"7  c #3C3935",
"8  c #3D3D39",
"9  c #462D1E",
"0  c #482F1F",
"q  c #653D1E",
"w  c #432E20",
"e  c #453123",
"r  c #4C3324",
"t  c #42352C",
"y  c #4B3629",
"u  c #41382D",
"i  c #4C3A2D",
"p  c #513625",
"a  c #543925",
"s  c #5A3B24",
"d  c #533B2B",
"f  c #5B3E2A",
"g  c #433C34",
"h  c #4B3B32",
"j  c #413E3A",
"k  c #523E32",
"l  c #623F27",
"z  c #613F28",
"x  c #3F403C",
"c  c #56402D",
"v  c #5C422D",
"b  c #4E4136",
"n  c #43413D",
"m  c #4A443C",
"M  c #544135",
"N  c #5C4432",
"B  c #5D4836",
"V  c #54443B",
"C  c #59463B",
"Z  c #57493F",
"A  c #5C4A3E",
"S  c #664124",
"D  c #6A4324",
"F  c #64422B",
"G  c #6B462D",
"H  c #6D482F",
"J  c #7A4B25",
"K  c #744A2E",
"L  c #794D2A",
"P  c #7B512E",
"I  c #644632",
"U  c #6A4730",
"Y  c #644934",
"T  c #6D4A33",
"R  c #644C3C",
"E  c #6C4E3A",
"W  c #734D34",
"Q  c #7A4E31",
"!  c #724F39",
"~  c #6E513E",
"^  c #765037",
"/  c #7C5135",
"(  c #74523C",
")  c #7A543C",
"_  c #7F593E",
"`  c #454541",
"'  c #494642",
"]  c #4B4945",
"[  c #4D4C49",
"{  c #544B44",
"}  c #5E4D43",
"|  c #514E4A",
" . c #5D5149",
".. c #644F43",
"X. c #645145",
"o. c #6C5343",
"O. c #655549",
"+. c #6C574A",
"@. c #67584E",
"#. c #6E594C",
"$. c #735543",
"%. c #7B5741",
"&. c #755946",
"*. c #7B5A44",
"=. c #745B4B",
"-. c #7B5D4A",
";. c #6D5D53",
":. c #735F51",
">. c #785F50",
",. c #7D604E",
"<. c #6E615A",
"1. c #756155",
"2. c #7A6354",
"3. c #736359",
"4. c #7A665B",
"5. c #7A695F",
"6. c #834E1C",
"7. c #85511D",
"8. c #89521E",
"9. c #865323",
"0. c #8C5523",
"q. c #8E5924",
"w. c #85552A",
"e. c #8C5629",
"r. c #87582B",
"t. c #8D592C",
"y. c #925724",
"u. c #955A25",
"i. c #995D26",
"p. c #90562A",
"a. c #935B2B",
"s. c #985E2A",
"d. c #825435",
"f. c #8F5930",
"g. c #835639",
"h. c #85593C",
"j. c #8B5C3C",
"k. c #935D31",
"l. c #915F3D",
"z. c #96602E",
"x. c #9C6129",
"c. c #8F603F",
"v. c #956233",
"b. c #9A6233",
"n. c #835D44",
"m. c #8B5E41",
"M. c #805F49",
"N. c #8C6245",
"B. c #83624B",
"V. c #8B644B",
"C. c #8E694E",
"Z. c #936444",
"A. c #996746",
"S. c #956847",
"D. c #986847",
"F. c #91664A",
"G. c #95694C",
"H. c #9A6C4C",
"J. c #826451",
"K. c #866954",
"L. c #8B6B54",
"P. c #816B5C",
"I. c #8B6E5B",
"U. c #946C53",
"Y. c #996E51",
"T. c #936F58",
"R. c #8D715D",
"E. c #967056",
"W. c #9D7254",
"Q. c #92725C",
"!. c #9C7459",
"~. c #9D785D",
"^. c #A17252",
"/. c #AA7D5D",
"(. c #8A7262",
"). c #8D7668",
"_. c #8E7968",
"`. c #927461",
"'. c #9D7A63",
"]. c #947B6A",
"[. c #9B7D6A",
"{. c #A37C61",
"}. c #A58168",
/* pixels */
"/.H.Z.Z.A.A.Y.Y.Y.H.G.^.^.H.A.A.c.c.c.j.j.j.g.l.Z.Z.j.j.m.l.g.l j.l.Z.Z.A.Y.^.^.{.{.'.'.'.Y.W.[.[.'.'.'.~.].`.[.T.H.S.D.Z.S.H.T ",
"!.) W Q W n.^ ! %.n.n.M.n.$.n.l K G G K H K W ( ( Q W K W T K 0 d.K T T ) n.) %.n.M.*.M.-.n.>.2.2.1.2.2.2.2.1.:.&.( ( ( ( ( %.d ",
"E.W G G l l T l ^ n.M.M.n.n.n.l G G U H W U ( -.! W H F U U H r d.K W T W ( W n.B.M.M.,.-.%.-.-.2.3.1.4.5.1.3.2.&.$.( W ( ) ) y ",
"Y.( U R o.T l W z f z z z z z l s s s s a f B -.$.H F N f l T r d.l T $.o.^ ^ %.$.N Y Y I I Y I Y Y R R R A } =.=.o.o.o.X.( ) y ",
"U.! z C k z T ) T l s.b.l.k.p.y.0.8.8.7.6.7./ J.! U F k k z U p m.n.T A ..W ) ) I F b.z.a.t.u.y.q.u.v.z.t.w.Q -.o.o.T } C U ( y ",
"C.$.o.z z $.( z r O O > t > O O O & = 1 ; + 5 B ! ! E f s G U p m.l $...o.! ) l r o X > - = = : - - = ; + X 3 N ! ! T I I G ! y ",
"U.$.T $.$.$.z w   = * * 6 : : : & & & 2 & 8 & = R &.E U E U T d m.l ! %.%.%.W e . 2 * & 6 2 : 7 , , , * & 7 : - z ( T T T U T r ",
"U.$.W ! %.E y = # & 4 2 * g 5 : 2 2 4 * n x 2 & - Y ! W E T H a Z.g.W %.%.! y X & 4 8 : 2 8 4 4 , 4 4 , n j * % - z ^ H T T W r ",
"U.( $.U I w . & : 2 2 6 : * g 4 2 4 2 ] n 4 2 2 * - f G Q ! T p m.W n.z G p X $ : 5 4 j 2 2 j 4 , 4 : ` j : 4 4 # = z z W T ! r ",
"Z.Q ! d G = & & : : : 2 6 4 : 5 4 : ] ] j 7 8 4 > - = F ) ! H p m.d.^ p l = & : : : 2 7 8 : : 8 5 4 [ ` 8 : 4 4 : # O l Q W $.y ",
"Z.%.%.M t.  , , 2 2 : : 5 5 4 & : m j 6 7 j 4 3 7 * : s.m.) W f H.l n.s s.X 4 4 : 5 7 8 j : * * : ` ` 4 5 5 7 4 5 & > k.m.%.%.r ",
"U.*.-.N p.> & : 6 2 : : : 4 7 # * m 7 4 2 7 j 3 & 4 k s.h.^ ! f H.n.M.f a.> % 4 8 4 8 : , 8 7 # * ` 5 5 g 5 g j : 2 g a.g.! W r ",
"[.-.-.N p.; 2 * 5 7 4 4 5 5 : j 7 : 7 2 & * 4 : 4 ] 3 i.g.Q W a A.n.B.z b.@ 2 : 5 7 4 * 5 5 : ] 8 : 7 5 5 5 5 5 2 8 > a.n.%.l p ",
"D.) ) f a.- * 5 & 5 5 4 5 4 | ' j 4 : 8 4 4 * 6 ` 4 1 u.h.^ ! a m.n.l l s.= & 5 : 5 8 6 8 > ' ` j 5 , 8 5 4 : 5 ] 2 ; a.m.*.! r ",
"j.W ! f f.- : 2 8 : 5 7 4 [ [ 4 2 7 4 : j 6 8 | 4 & ; i.j.g.W p n.n.l p s.= # 2 7 * 7 8 4 [ ` > 4 8 5 2 8 2 j [ 7 , > s.n.%.%.r ",
"l.) ^ s f.- 4 5 5 j : * ` 8 4 5 2 6 g 4 & 4 { 4 4 2 ; u.d.! W p d.l n.l s.w & : 7 6 & # ` n : 5 2 5 7 : # 4 ] 4 , * > p.m.%.=.w ",
"'.2.=.f t.+ : 2 8 5 2 & j 8 7 5 5 3 7 5 - 2 m 4 & * < u.g.Q H r h.) *.v x.; & , 2 6 * % 6 5 2 4 5 : 2 : . : ` 4 : : > i.M.%.=.e ",
"[.=.:.f r.- - 3 3 2 m m 2 4 5 5 5 5 3 7 ] 5 2 n 4 & < u.V.( W p N.) %.v i.2 4 2 4 2 ' n 2 5 j 2 2 5 : 8 ` 5 : j 4 * > a.J.>.=.h ",
"H.( $.f t.- 4 u : { m g 7 & 3 8 5 3 n | 8 7 4 2 5 , < x.K.1.=.p G.%.%.v u.- , , , ' n 4 7 , 4 4 4 4 8 ' 5 6 4 : 5 : > p.B.=.E y ",
"W.) ( f 0.- 4 2 ' ' 3 5 2 2 $ 4 3 8 [ 5 5 3 7 2 $ 3 1 z.n.-.$.d G.,.-.B i.; , & x 8 2 2 4 7 : 4 4 7 ] 4 2 2 4 4 * 4 > w.B.=.( d ",
"U.( $.a 0.; - ` ' : : 5 : - : # & ] 7 4 2 2 5 7 2 . u u.m.( U f T.,.1.c u.- & ` ` 4 g 6 4 6 8 & * ] 4 * * * : 8 2 % 3 e.M.=.( y ",
"F.( $.f 8.O 7 7 4 3 3 : & : : : , x x 7 5 x 8 7 4 & + i.n.&.E i K.$.) v u.+ 8 n 6 7 j 6 6 8 4 4 4 6 7 2 & , : : : & O e.g.! o.e ",
"U.( ! f L t 4 * 7 4 7 7 4 2 7 ` 8 , 5 x 4 , 2 3 : & 3 ^ B.=.( d V.&.&.N P 3 4 , 2 5 5 5 4 , 7 { 7 & 4 7 : , : % & & > Q n.( E y ",
"U.E ! *.-.M $ & 2 4 j j 2 7 ] : & 4 $ 5 2 2 6 & . t M.,.B.W ( p j.&.1.,.B.N & & 2 2 2 5 4 7 ] 8 4 6 * 4 7 4 & * * 3 %.-.J.o.! y ",
"U.( $.$.$.o.V - & > g : 4 ] 7 2 : : 2 & 2 7 - & 3 J.M.W ( o.W 0 h.) 1.$.) ( c o & 3 4 2 6 ` 4 2 5 4 4 & 4 2 * * 3 %.M.~ E E $.y ",
"T.=.X.E ! #.o.d - : & 4 j 2 & * 2 * : 4 # : & 3 M.M.~ o.E o.~ r c.) $.+.( ( ~ b X & * 6 j : : : & , 4 3 # : * u %.-.E E E ..$.i ",
"`.=.X.W o.;.$.! v O - g 1 + + 3 3 3 > < 1 O e ^ ) U T R Y Y T r h.^ $.~ $.~ ~ E r O 3 m u - 3 3 1 1 1 1 ; + 3 -.*.E o.R E ..E r ",
"T.=.T X.+.#.:.-.I l k.f.q.0.0.p.p.t.t.p.u.t./ n.( G T R R U ! d N.$.o.+.X.~ Y ~ v D x.s.k.r.e.t.t.q.y.8.y.8.L -.~ X...+.X.Y U y ",
"F.o.Y C Z o.=.$.( ) -.%./ Q / ) / ) n.) Q Q / B.T T Y d M I H p L.,.o.Z Z R ~ ~ Y E _ ) / ^ %._ / Q Q W K K / B.o.X.X.{ { ..( r ",
"T.( Y I R $.$.! ! ( ( W W W W W ( *.>.=.W H H W ~ E I N R U W p V.( X.N I ~ R ~ Y T T ( ( &.( ( ) ( ( ^ T T W E ..X.O...} @.=.y ",
"Q.&.( ( ! $.$.$.$.! T W W ( ( W $.o.+...U F F T ~ T T ( ( ! U y B.^ T E E T ~ =.~ ^ ( ( W &.&.$.&.$.o.T T T E o.o.@.#.#.:.=.#.y ",
"o.M k V k k { k i d d k d d y r y d h y y p p p r p d d d d r 9 v c a p a p a b c d d c M b b b c y p p a p i k k V ] k k V k > ",
"}.]._._.`.Q.).I.L.L.U.Q.F.m.h.g./ N.B.B.B.V.B.g.d.j.N.N.V.N.h.F C.L.N.N.N.N.S.c.N.G.L.Q._.(.R.R.I.c._ c.N.B.K.C.T.R.(.(.I.K.K.Y ",
"!.,.&.*.=.=.$.$.&.$.( $.$.( T U G U H ! ( =.>.$.W ^ T ^ ( T W k I.&.W ( ( ( ^ T ^ ) -.=.1.3.;.1.:.~ T T ^ $.&.*._ ^ W &.$.( ) y ",
"G.$.o.~ o.o.o.o.=.( W ) &.$.U U D F H W W $.:.-.1.=.o.o.G G $.y / T E O.~ Y W W H W ( ( ( &.+.( ~ H H ( ) ( ( %.( W T H E U W r ",
"!.*.$.+.O.o.( $.@.f f F v N f s s s s s s v Y P.3.1.1.@.N F T r g.^ T +.~ H ! ! F r F N c N N F v v s v v F F Q W U F R B T T y ",
"S.) ~ V V R ! -.O.F 0.9.9.9.9.6.6.8.8.7.0.u.w.4.1.=.X.Z V I F 0 / H F C b F H ^ f q w.w.9.w.9.7.7.7.0.9.0.q.w.n.W H F k i F W r ",
"S.^ T R ..$.-.;.j = X > & : - = + > O - - o t I ( T U v B Y l 0 / H F F v H H Y w X o : $ o o o < < o o o & t I ! H G a a l H 0 ",
"S.^ E ~ #.:.@.u % * & & 6 4 & 4 : : 3 2 * 8 , + F W W F F F S 0 / K H U H T G 9 X # & & 4 : & $ % & * 6 & 8 , - f G G G F G G 0 ",
"S.^ T W :.O.t # & * : * % 4 4 4 4 4 4 : m j , $ O f ^ G F U T r h.^ T ( ^ ~ e . . # : 2 2 n 8 4 x 6 2 , n 4 & % O s G H K H W r ",
"S.^ ) T R u X # * 2 : 4 4 , 8 6 3 2 : ` j 4 4 : & O s f H T $.y j.^ ( T Y e . # : 2 2 7 2 : n 8 8 7 4 ' j : : : X X a f G H W 0 ",
"Z.^ ( d S o * 2 2 4 7 6 7 4 , n 3 : ' j 2 7 8 2 : & O q W T o.y c.^ ^ r S = , 5 7 7 4 5 8 3 < j 7 , ` 8 4 2 4 : & # = S K G F 9 ",
"c.( ( c y.X 2 5 : g 7 : % , 7 * : ] 8 4 4 2 4 7 2 & ; 0.d.W W d N.( ^ a v.o 2 n n 6 g 4 5 j 2 & : ` j 2 : 2 2 : : # - s.d.G G 0 ",
"Z.) ( v u.< % 2 7 : 4 5 7 5 8 & , [ 8 6 4 * & 2 & : h y.Q ! W p c.Q W a p.; & 5 j 3 6 g 5 5 6 . : [ 5 5 : 2 2 , : : i a.Q K G 0 ",
"D.( =.v y.+ : & 4 5 3 4 7 7 : n x 4 n : : 4 3 2 5 n > 0.d.T W r N.W Q a t.; 4 : 4 j 5 5 4 6 2 j 7 4 j 8 4 , : 4 j j > a.L H G r ",
"H.( #.M 8.+ # 2 & 8 j 6 4 : ` ` n 6 * 8 4 4 4 j ' & = y.g.Q ( p F.^ ! a w.- : 6 : 7 n 7 2 2 ] n j 4 : 8 7 4 : 7 ] 3 ; a.d.l W r ",
"S.=.=.f u.= & 4 j : 4 4 2 ' ` 6 4 6 6 2 8 4 6 ] 2 : - 9.d.W W d N.W W s p.> : 3 g : 7 7 2 ` n 7 8 8 4 , 8 4 8 [ 4 , > p.d.H T r ",
"S.&.o.v s.> * & : 7 * # m n 4 4 2 4 8 4 % 4 [ 4 5 2 > e.h.T T a h.W H s p.1 2 3 4 g = & ] m 2 2 5 4 5 : # , [ 8 : 2 > a.g.T H w ",
"G.&.&.c u.> 2 * : 7 , & 8 8 2 2 : : 6 4 & 2 ` 6 4 4 : p.d.l K r g.H G a e.- : 3 4 7 : * j j 2 3 7 g 2 : X : ' 5 : & ; y.h.W E r ",
"!.1.1.c u.- 2 2 2 2 ] n , 4 7 2 : 4 * 7 ' 4 : g 4 , > p.d.G l r g.K G s t.: 4 2 7 4 ' ` : g 7 : 7 j 5 j [ > : 5 > : ; 0.g.( +.y ",
"Y.=.&.v u.> 4 : : ' ` 4 8 : 4 8 6 2 8 [ 5 5 4 : j 5 > p.d.K T p Z.! W s r.: 4 4 - ' ' u j > g g 5 : 7 [ 5 8 : : 5 : > u.M.=.+.y ",
"!.*.*.N s.> , * ' n 4 4 4 j * 7 2 6 [ 4 & & 4 > : 5 t s.d.W U a Y.^ ! s p.; 4 : m j 3 3 n j : g 5 j | 5 8 8 j 5 : 7 t u.M.$.o.r ",
"E.) &.N s.- * ` 6 * 2 : : 2 6 # & ` 5 : , 2 4 4 * # 1 u.d.K H d T.^ ) v t.; & ` n : 7 - 8 5 5 * > ] j 5 j g 5 8 : & t s.n.( ! y ",
"~.*.) v u.O 8 7 : : : : 2 3 4 4 * 5 7 5 4 5 4 : 4 : - u.Q W T r V.^ ^ s y.O 8 8 4 2 6 : 6 4 4 4 : g g 2 7 5 4 2 3 * + u.g.&.$.r ",
"~.,.%.N J t 6 7 2 4 7 7 7 2 g [ ` 2 4 7 4 6 5 : : * ; L h.-.U p m.! W s L t 4 & * : : 8 g 2 7 | j : 5 5 : 5 2 & & % ; d.n.&.&.i ",
"}.,.B.2.*.N = : 2 3 3 3 2 j ] 4 5 7 * 5 7 5 4 : # > / Q / W W p N./ ! Q ^ s = & * : 2 7 7 7 ] j 5 8 : 5 g 2 : & & 5 -.>.K.-.-.k ",
"'.-.$.&.$.! k > - : 2 : 7 ' : 5 2 4 5 & : 5 2 & t n.n.n.l l %.f Z./ T W W G a - & * 4 : 4 ] 6 4 : 2 5 # > 7 : # 3 -.2.( $.1.-.h ",
"H.%.$.o.U ! $.k - * : 7 ' 2 * : & 2 4 2 # 2 : t n.m.l z %.! %.k m./ ! ^ W G U d = 2 4 * j 2 : * : 4 4 4 # * # ; M.*.o.o.$.=.*.d ",
"Y.%.:.+.! E =.E k - 1 b u 1 ; - > > > > 3 - e ^ d.l l l l %.! a T.*.W H T G K T d + 1 g e - + 1 1 u > > : O ; n.-.o.o.~ $.=.%.y ",
"H.*.;.<.;.$.=.&...G k.s.e.y.0.0.p.p.p.f.k.a.L g.n.l z z ..^ %.a T.%.T R R T G $.Y F t.r.w.w.e.e.a.e.e.9.e.0.K M.( o.+.=.=.=.%.y ",
"^.-.$. .Z U $.:.=.=.M.*.Q Q / Q n.M.n.M.J.J.n.n.l l l A k ! ! a m.^ W k k T l ! E W ^ Q Q ) n.Q ^ ) %.$.%.*.-.J.=.;.;.X.B ( ) i ",
"^.-.$...N ( $.=.=.-.-.&.T W ! $.=.=.$.>.J.M.l n.l ! l z z W W a Z.^ ( R R W T o.T W $.W ! %.( ! ( $.( o.$.$.=.$.=.3.:...E ( ! d ",
"Y.*.! ! %.=.$.-.>.$.( $.T H T $.#.o.~ E E $.! l l l n.l ^ g.W a H.n.( ! $.T ! o.$.$.$.( ( ) ( =.$.o...E o.! =.#.:.=.&.%.n.^ ) r ",
"E r r r r y i r r r r r r w 9 r 0 0 0 0 0 y r p d 0 p p r p r w z p p r r r r r y t i y y y y h g h y h h i g g h d d d p p p ; "
};
