/* XPM */
static char *result[] = {
/* columns rows colors chars-per-pixel */
"64 64 142 2 ",
"   c #3E2A1C",
".  c #442D1D",
"X  c #482F1F",
"o  c #49311E",
"O  c #56371F",
"+  c #56381F",
"@  c #442E20",
"#  c #482F20",
"$  c #463124",
"%  c #4B3324",
"&  c #46362C",
"*  c #4B3629",
"=  c #4D392C",
"-  c #523625",
";  c #553925",
":  c #5A3C25",
">  c #503728",
",  c #533B2B",
"<  c #5A3E2B",
"1  c #473A32",
"2  c #4B3C32",
"3  c #4A3F38",
"4  c #543E31",
"5  c #583F30",
"6  c #613F27",
"7  c #623F28",
"8  c #57412E",
"9  c #5C412D",
"0  c #554135",
"q  c #5C4333",
"w  c #5E4834",
"e  c #54443A",
"r  c #5B463A",
"t  c #57493F",
"y  c #5D493C",
"u  c #684225",
"i  c #64432C",
"p  c #6A462E",
"a  c #67492F",
"s  c #6E482F",
"d  c #774B2F",
"f  c #794D2F",
"g  c #7F522D",
"h  c #634532",
"j  c #6A4731",
"k  c #654936",
"l  c #6D4A34",
"z  c #644B3B",
"x  c #6C4E3B",
"c  c #724C35",
"v  c #7B4E31",
"b  c #724F39",
"n  c #6E513D",
"m  c #765037",
"M  c #7D5135",
"N  c #74523C",
"B  c #7A543C",
"V  c #7F583E",
"C  c #564943",
"Z  c #5D4B41",
"A  c #5E5147",
"S  c #5D5149",
"D  c #634E41",
"F  c #645145",
"G  c #6D5343",
"H  c #6F5847",
"J  c #63544B",
"K  c #6B5649",
"L  c #65584F",
"P  c #6D594C",
"I  c #735542",
"U  c #7A5641",
"Y  c #745846",
"T  c #7B5A44",
"R  c #705748",
"E  c #735B4B",
"W  c #7A5D4B",
"Q  c #6D5D52",
"!  c #735E52",
"~  c #785F50",
"^  c #7E614E",
"/  c #6E615A",
"(  c #746155",
")  c #7A6353",
"_  c #736359",
"`  c #7A665B",
"'  c #7D695C",
"]  c #7E6B60",
"[  c #86511D",
"{  c #8A531E",
"}  c #865224",
"|  c #8C5424",
" . c #8C5529",
".. c #8E592B",
"X. c #915723",
"o. c #935924",
"O. c #995C26",
"+. c #915729",
"@. c #935B2B",
"#. c #9A5E2B",
"$. c #835435",
"%. c #81563A",
"&. c #83593D",
"*. c #8D5C3B",
"=. c #955D31",
"-. c #915F3E",
";. c #97602D",
":. c #9C612B",
">. c #8F603F",
",. c #966132",
"<. c #9A6332",
"1. c #9C6938",
"2. c #A0642B",
"3. c #825D44",
"4. c #815F49",
"5. c #81624D",
"6. c #946443",
"7. c #996746",
"8. c #956847",
"9. c #93674B",
"0. c #96694C",
"q. c #9A6C4C",
"w. c #836553",
"e. c #856955",
"r. c #806758",
"t. c #836B5C",
"y. c #956C52",
"u. c #996E51",
"i. c #946F58",
"p. c #967056",
"a. c #9C7255",
"s. c #94735C",
"d. c #9D7459",
"f. c #9D785D",
"g. c #A17252",
"h. c #AA7D5D",
"j. c #8D7366",
"k. c #9C7A63",
"l. c #957969",
"z. c #9A7D6A",
"x. c #A37C61",
"c. c #A58168",
/* pixels */
"h.q.6.6.7.7.u.y.q.q.0.g.g.g.7.7.-.-.-.*.-.*.$.-.>.6.>.*.*.*.$.*.*.*.6.6.7.g.g.g.x.x.k.l.d.d.y.z.l.l.k.k.d.l.j.l.i.q.7.7.6.7.y.l ",
"d.B c v N M N m N 3.3.U U U U d d s p p p c b N B v l d v s p p 7 p c c m T B U 4.4.3.4.4.U 5.r.r._ ) 5.r.~ _ ! I U N N N N 3.> ",
"u.b p p j 7 7 s B 3.3.3.3.4.c 7 p p j p c l N Y I v s p p d s s 7 s v m B m m 3.4.4.4.r.4.3.4.4.~ r._ r.` ` _ ~ I I I c N N B > ",
"u.m l z G 7 s c 7 5 5 l 5 7 7 7 ; : : ; : < 9 q 9 : ; + ; O : : + 6 : 7 i i i l x h h 7 q 5 h 5 z 5 z r z Z Z ~ R I G G G N I % ",
"y.n l 4 4 7 s B l 7 =.=.=.=.=.+.+.+.| } } }  ...|  .}  .} { { { X.X.+.{ |  .| ;.=.+.+.=.=.+.+.+.+.| +.+.+.+.$.U G b D D 5 x b % ",
"9.I D h h b b 7 % # : 7 7 5 5 $ > - - O - @ z 5 ; : < # O - O - - - < = q i : : 7 < # z 5 5 5 * > < < 7 < : > 5 U b b 7 h l b * ",
"9.I x b I N l # @ - 7 D 7 D J 3 r h < 7 D = x D k z h * q h 6 k 7 7 x 5 z b j k x z > x h z z = 5 x 5 5 7 5 > # 7 b c j j j j % ",
"i.I c b I x * @ : 7 7 7 G G K 4 D G 7 K Q 3 ~ G F x h , r k i j j j b 5 x I N b b D 4 I z x x 5 7 I l z 7 z 5 5 > 5 c c c j c % ",
"0.N B k h $ @ < 7 b c b I l b 5 D G z Q Q 3 E x G b l 7 x b j j s j b 5 b 4.Y W I R 4 ~ R R I 5 l I 7 b G 7 z 7 5 % 7 7 d j b % ",
"6.m b = u $ < h 7 I I I b x x z 4 P E Y E 5 U b G R I 5 x c c 7 c d N 7 D 3.T Y 4.! C r.R R G 4 E U I I G G b 7 5 > X 6 d c I * ",
"6.U U q ..< k j I Y I I I E I E D e E U I 5 ~ c x R I 5 b N c U N c N 5 l T T 4.T I 4 r.E K 4 R 4.x 7 I G b b z 7 7 6 +.$.U I % ",
"p.T W w @.5 h a R I I I E ! Q x G J e ! G > N 7 G R ~ 5 < U d c B N T h U b I U T R C ] P C E 5.Q R G I I G G G I 5 5 +.3.U v % ",
"z.T W q ;.w k a p N N G H Q P l b ! J C G 4 3.7 c Y G I > 7 I c c U G D w.B U Y ~ ! C _ C _ r.P Q P P G I R ! R G D 5  .3.b 7 - ",
"q.B B 9 ;.9 k l n N N I ! / I l I _ _ S 2 2 T G b I G b b < x U U 7 5 5.5.T W W ! Q 1 C / ` Q Q Q Q Q R b ! K R D D h +.3.3.b - ",
"-.c b < :.: i l ( ( I N H ( P E ! Q P R 5 = I I G G I I m N 5 7 5 7 3.N I ~ E Y ~ P 3 Q ~ K K G G R Q R G R ! P R D z  .3.T N % ",
"*.N M : { o = r y z Y Y P H ( / P K K G Y 5 < I I U c c c x b > < U b 7 I T W ~ E C ! 5.P K G D R R I R ! P D r r 4 5 +.3.U E # ",
"f.) W : X.- 9 y k % k ! D c R P G D D l 7 N k 5 U Y b s c s j x b m I Y W ( ) Q y ( ^ I P L G F G G I R R z r G z r r +.4.U ! @ ",
"z.E E , o.; i l c b 4 z N c b G l k k x 7 c B 5 , Y I I I b s j l N B Y ( ( G r _ ' E / ( Q G G G G R U z C r.W R x 7 +.w.~ R 2 ",
"q.B N 8 +.; : u s b x , k N c k 7 7 l 7 7 7 7 U z r ! ! E E I j N m B E ( E y ( ' Q P K L L K G R R R D D 5.I G G z 5 *.4.E b = ",
"a.U B 0 @.< h a j c I Y 5 z b b l l D c c j c T W D 4 I I R G b m Y Y ) P r ( ' W Y N E K K J G R I Z F t.~ R K G z 5 =.5.E N = ",
"0.N B : ,.< y k j x I R I = z I x G G b d l c I E W h , I N j I R Y E K t ) ' ( ( E P P H G n x R C 3 ! ! K R R F y r ..3.E N % ",
"9.N G 8 <.$ & , , 5 4 4 , * & z I b j 7 Y Y I T B Y Y z 4 I b G G I G 4 ^ ^ B H H G n n k l G I 5 , e 4 e 4 4 , = & $ ..M I x * ",
"i.n x 9 ,.q P ! W W ) T b b G e D I j c E ! Y W E E E E y e I n x G 0 E ^ N N H n x h x p p l r 5 4.r.W R 4.4.I n n w @.%.I x & ",
"0.b b 9 <.q D K E E R I c b n x , z B j c c I b I H x G I q , b j 4 ! w.B Y Y W B G h a i k q r 3.U R R G 7 7 x k r 9 o.T I N * ",
"i.B H 8 1.q D D Y E I N N x p u l > D 3.b b j s b G b x x E q $ * Y t.I b N N l N x u u x q q T N b l I I n a h k q 9 ;.M I I * ",
"p.P P 8 1.q z j b b b b N l p p j l > x 3.m j x b G x G x I D . # T Y K I N I x l a i k r r W I k b l N n k p x k q 9 X.V H H * ",
"s.P H : <.r D b B U Y E b i i x c c l 4 k I j j l j j x k k , k h 5 Y Y I G x x k h h 9 q W I x p d c l l x n z z k q :.T n k & ",
"s.I N , #.4 e 0 q q r z b p p c x 7 I R > h N x x j j j k , I U N z 4 R G n x x k l 9 w T x x l l p l h , 8 0 0 5 1 = #.4.b l = ",
"0.n x : O.8 Z z k n F q , l c l c c I b l > z I l x x q = x m l I E y 0 Y G n k k r r T b l b n l s h , 9 i z z r r e <.5.I G % ",
"p.G n : @.q D b N m N m h , b c x I E G l k # z I x h , I U l c x x H r , H n H q 9 U n l n N n b x < N B l l n F y y <.w.( E & ",
"s.Y N : X.< y x G x j l m z , b I G G D 7 j l > k x = I T l l k x l l N w = G y r T m n l Y P G G q H N p p x z D Z q #.e.E P * ",
"s.E E q ..q F F x n l G x Y q > x x D D G 7 l x $ @ G T x x p p a x l l b q $ 0 ) N l N I P G G = n U k l a x G F A y 2.w.( P 1 ",
"z.) ( r ..q J F G N N E l N 9 , l l k k z l x x % $ z B N l p i x G k b N h $ , U I I Y ! K H K 0 k l p l l G n n y r ,.^ I I * ",
"a.U I ,  .< y z x n b n I r , B u p a l n H J = n B = z B p h n F x j n w 9 B h , Y Y G K Q P L L 0 h N l x G I n i : =.5.N N * ",
"p.B I <  .5 y n H x b N r y N a i < a l l n e ( ' ( H 0 9 x n z i l x y r B m B 7 , I b n K G x n x % z I N N N N i 9 ;.&.N l % ",
"a.W E < | & 8 0 Z y 9 , y W n a i u l p h 0 Y ' _ E _ H > 9 n a u k q y 5.b b x j 5 5 Y H G G x l l l = q h q < , > o @.M c l > ",
"8.B n 8 { : q z L L D x ^ n z z h u i k , E W E P E G I G = 9 l l , 9 T b p s s j c 5 , G b x 7 p p p l w h k x h < ; o.f s c o ",
"8.m m 8 { w G / ( ! E N P P K L n l k , B U N N n l l p n k $ 9 , , m c s p s l c s j < > b 7 7 a p i p s c m m l a : @.f u p $ ",
"7.c c 8 X.0 J L G l l h z a z z k k , I V I N N c p l i i h i   . B l s l l l l c x 7 c 5 > x 7 i p s p b b p j 7 ; + o.M l d X ",
"1.m c + X.q F L n l N l l h u i i = Y U l N N N l a l i i l 8 > > k m N b N N p 7 j 7 s x < % b s l N B b p c l 7 ; O O.$.v c o ",
"8.m m 9 { 9 F H n I H n l x x z , n Y c B m b l l l a 7 j 5 y Y b ; k B b I G j 7 j i 7 7 c < = I b b b j j c i 7 ; O O.f s c X ",
"6.N m 8 { 8 y n x x x n x z y 8 ! W b m I B m b l l a p 9 , ) l c n , k b b x j j j j p 7 7 c 7 , b I x j j x j 7 < : O.$.p p . ",
"6.N m 8 [ . * = % , , * * & 0 K ) n l I E B b b n p l 9 8 B b l b b b > 7 b c j c j j j s x b W z # = 5 5 , > % # @ X O.$.s p . ",
"6.N Y : [ w n N N B I m x , Q _ Y j l N I N b b l l , , I b l l p l l x * 7 b j j j i c x x c U T k , Y Y I Y b x h 7 #.} s p . ",
"8.N Y 8 [ 8 x p p l l a > x I G l p p l N G N l l q , B l p l j s c c c j > h b j c j x b I b G G N 7 4 b b j i i ; : @.v p p # ",
"q.N E 8 { 8 k l l l h > l m l l s s c s p N n n r r U b l l b c c c c s s x > h b c b b b x G b N I 3.5 , I b j 7 < : @.v p d % ",
"8.E E 8 | : x x j h > x T b b d p p p p l l l 9 q E N j j c s b l p c s j s b 5 h N b b b b b b l b x 7 5 - b b j 7 : o.v j j # ",
"8.Y G 9 | % , ; ; , n V n c c l l p p N l l , , m l l p j p c k k l p s j c m Y 5 x Y l b b b x 7 l b 7 l 5 > 5 , > > X.%.c c $ ",
"q.E Y 9 X.- q h h B T s b c s s j p i p j < , m j 7 l p p i j % , 7 7 v 7 v I I G 5 k B N I N n l 7 b b 7 b z 7 5 5 < +.3.c x $ ",
"p.( E 9 O.: j j c c b c c j j c j u 7 j < % m c j a l j p h > h 5 > U 7 c 7 c G I I * k T N l l l j b 7 7 b x c I 7 6 +.$.b R & ",
"u.E E q ;.7 i j j j s j s j j j j c j 5 > * B x l l l c a > x c 3.5 , b b c c c c I * > z N l p x c 7 k b b l b x : : +.4.R H * ",
"a.U W w <.5 h j l c m b c s j c l l < < N > B l b b m x , N m b I 3.5 < U B d c m b 5 T 4 k N p 7 7 7 7 7 x 7 b k < : =.4.I G * ",
"p.U T 9 :.9 i l s c b Y U b j j l , < B l , m l N b c , i m s l I b 3.5 b B c B c c 5 5.H , w l c 7 7 7 l 7 7 j i < : @.3.I b $ ",
"d.W I 9 :.< 9 p j b ! R ! R j j 7 5 T c h , B b N l b < h N p j b 7 U 7 x N c b N x 5 ` N n = 9 b l l j 7 j 7 7 9 9 < <.%.U I > ",
"d.^ U w M * , i j U I ! R I j 7 < T l j k ; U b l l s , k I p p b 7 7 5 b U B m c x 4 ` H H n 1 x x I 7 j 7 x z i , , $.3.E Y > ",
"c.5.^ ^ T w $ - D K I I x 7 j , a l : u l > B l b l l ; a b c j v b b 7 l N c c j b 4 ` P z n w z l l b b l k 5 0 3 ~ w.e.W W 4 ",
"x.T Y E I N q & y F L I j j 7 > h l i 6 9 % b j b k j - 7 l j I b 7 x , 7 x 7 c b x , E k h G e z l i n F z : > 0 ) t.I E ! W 4 ",
"u.U I F j l I e & r D z k i 7 % r n w < < $ k i h h 7 # 5 x k D 7 5 7 5 7 k 7 k k y & l k k y = q a 9 k y 0 > , 5.w.H n I E T = ",
"u.U E H b b E N 4 2 k h i 9 h = r y w : : O a : : ; ; - < 7 7 7 x 7 7 > , 7 : 7 9 9 % a 9 9 9 8 9 i u w 9 8 , 3.e.I F N I E U = ",
"0.T Q / Q I E Y D j =.@.o.#.=.@.<.,.@.o.o.o.X.O.O.X.O.+.O.o.+.+.#.#.#.#.@. .=.+.,...o.O.O.o.:.:.:.O.:.:.:.:.g 5.U H R P H W B * ",
"g.W G A C p n ! E E 4.T v M M c 3.T B 4.5.w.U v f d v v M $.M $.M $.%.&.%.M d M B B M v v %.3.$.M &.U U T 3.W w.I ! Q S y N B = ",
"h.Y I D h n Y E E W T Y s c m I ! E W ~ ~ Y b c v p s c M N c N N v B B I N c I c c B N b I N N N I G G R I E I Q / _ x x N b , ",
"a.U b b N W U Y ~ I B I s p b I E G b x b I b c s p s s M M c c U M N b I b b b I N I N U B N I Y G x D n N H E ! E T U U B B % ",
"x > X % * * = * - % % * o X X $ # # # # @ * - # # # - # # > - # > > % * # * $ $ & & 1 * * % * 1 1 = = 1 & 1 1 2 3 , , , > > >   "
};
