/* XPM */
static char *result[] = {
/* columns rows colors chars-per-pixel */
"64 64 153 2 ",
"   c #221F1B",
".  c #24221E",
"X  c #2D231C",
"o  c #31261D",
"O  c #33291E",
"+  c #262522",
"@  c #2A2623",
"#  c #272926",
"$  c #2C2A26",
"%  c #2E2D2A",
"&  c #342C24",
"*  c #382E24",
"=  c #312E2A",
"-  c #392F28",
";  c #2F302D",
":  c #373025",
">  c #3A3125",
",  c #34322D",
"<  c #3A342D",
"1  c #363531",
"2  c #393632",
"3  c #373834",
"4  c #3C3935",
"5  c #3D3C39",
"6  c #41362A",
"7  c #42392D",
"8  c #4C3C2F",
"9  c #413C35",
"0  c #4F3F31",
"q  c #423E3A",
"w  c #3F403B",
"e  c #5E4027",
"r  c #4E4135",
"t  c #44413D",
"y  c #4B443D",
"u  c #524436",
"i  c #52463B",
"p  c #54493D",
"a  c #594C3E",
"s  c #63452D",
"d  c #664A34",
"f  c #454441",
"g  c #4A4642",
"h  c #4C4945",
"j  c #4D4C4A",
"k  c #514740",
"l  c #544B43",
"z  c #5A4E43",
"x  c #534D4A",
"c  c #5A4F4A",
"v  c #5C5045",
"b  c #57504B",
"n  c #5D524C",
"m  c #575655",
"M  c #5C5552",
"N  c #5E5855",
"B  c #5E5759",
"V  c #5D5A5A",
"C  c #624C41",
"Z  c #655043",
"A  c #6B5547",
"S  c #61554D",
"D  c #6B564A",
"F  c #65594E",
"G  c #6C5A4C",
"H  c #7B5E43",
"J  c #725C4D",
"K  c #615751",
"L  c #685650",
"P  c #645A53",
"I  c #6A5D54",
"U  c #635D5B",
"Y  c #6A5F59",
"T  c #715D51",
"R  c #6B6156",
"E  c #65615D",
"W  c #6B625C",
"Q  c #6F685E",
"!  c #746154",
"~  c #786352",
"^  c #73655C",
"/  c #74695D",
"(  c #7A6A5D",
")  c #5E5E62",
"_  c #615F62",
"`  c #656262",
"'  c #6A6663",
"]  c #6D6A65",
"[  c #666769",
"{  c #6B6668",
"}  c #67686E",
"|  c #6D6B6B",
" . c #736662",
".. c #736B63",
"X. c #7C6E63",
"o. c #736E6C",
"O. c #7A6F69",
"+. c #767165",
"@. c #7D7164",
"#. c #74716E",
"$. c #7C726C",
"%. c #6C6C72",
"&. c #706F73",
"*. c #6D7177",
"=. c #6D7279",
"-. c #747272",
";. c #7B7573",
":. c #7C7873",
">. c #74757B",
",. c #85511F",
"<. c #855223",
"1. c #8C5524",
"2. c #8E5924",
"3. c #865429",
"4. c #8A562A",
"5. c #8D592C",
"6. c #915726",
"7. c #935A26",
"8. c #925C2B",
"9. c #995E29",
"0. c #8F5E31",
"q. c #925D32",
"w. c #94612D",
"e. c #9A612B",
"r. c #956234",
"t. c #996434",
"y. c #97673A",
"u. c #996838",
"i. c #826D59",
"p. c #806F65",
"a. c #82746A",
"s. c #84786E",
"d. c #8B7C6C",
"f. c #807771",
"g. c #847A73",
"h. c #8B7E74",
"j. c #837C7A",
"k. c #887E79",
"l. c #8E8175",
"z. c #87817B",
"x. c #8B837B",
"c. c #928374",
"v. c #92857B",
"b. c #94897E",
"n. c #867E80",
"m. c #838283",
"M. c #8C8583",
"N. c #8F8C8C",
"B. c #938B83",
"V. c #938D8B",
"C. c #999289",
"Z. c #A2998E",
"A. c #A6A29F",
/* pixels */
"Z.b.h.a.p.k.V.k.O.a.l.v.h.c.h.c.v.b.s.( a.a.p.p.p.p.p.X.X.X.( ( ( T Y ^ X.O.g.X.;.j.n.j.j.k.s.M.m.&.o.-.z.m.>.m.k.g.h.d.a.X.( x ",
"x.O.P M Y ' ^ Y  .W .. .I W ^ Y I Y S S v I Y ' P S S z K L S S S z c z c M n S M B K _ ` P ` o.{ V V U { | } } E E W R W S S 9 ",
";.Y S l c P Y L ^ E ' Y P L K P K S n n P K U { Y S z z z S P P S K n n P I v K U U U _ P P ' E ` ) [ [ *.*.=.>.o.{ ' E U K n 4 ",
"j.P M K c L S Y P y p p z z a p i u i i p p k l z u u 0 8 0 u 0 0 u 0 u u i u u i i k 0 l l p l p p b k b n m -.#.| | E M U W t ",
"n.U x g f K c L c s 0.5.5.5.5.4.1.4.5.4.3.3.<.4.4.4.<.3.<.<.,.,.1.1.4.,.4.4.4.w.q.5.q.8.5.5.4.5.1.<.4.1.6.6.H -.' ` E j h P U q ",
"j.B m g g S S c 4 @ & - * & & o * & & - * X , & & & & @ * & & & * & & & - 6 - > - - @ - & & - = , : o & o o , N | U N n x n K 5 ",
";.K M M B B c ,   + % ; % , = @ 1 ; $ $ % # 2 = = , , @ 1 7 4 9 - = , @ 4 2 = 1 , 3 # 5 , % 1 # 1 1 $ % % % + % n W S K n S n 2 ",
"$._ c K Y K 4 . $ = , , = 1 - % 2 2 1 , , % 5 3 1 2 < $ 1 1 1 - - 1 2 @ 2 1 = = , 4 % q 2 1 1 % 3 1 , , = = , + % b P P W K K 1 ",
"$.U E K P 5 + @ % = = = % = 1 % 2 3 4 9 3 = f 4 4 4 2 % 5 4 4 4 1 2 5 = , = , , , 2 % t 1 1 1 $ 5 3 , 4 , , 5 = . $ g z S P P 4 ",
"a.W  .h a X + $ % = = = 3 , , = + 9 5 5 4 , y 4 4 3 4 , 4 2 4 , 2 , 1 $ 1 4 4 1 < 4 % h ; , 1 % g 4 3 2 2 , 3 = % . @ e S Q _ 5 ",
"g.' #.v 4.o # $ 1 = = 1 , 1 2 4 = @ 4 3 4 1 q 2 3 3 w % 2 t 3 1 3 & @ @ 4 3 3 , 3 3 , f 1 = # q 5 1 3 5 9 2 5 , , % O 1.(  .&.g ",
"v.o.#.z 5.- % % , , % = , = = 1 3 = $ 4 1 = q = , t 4 % % t q 5 3 1 1 @ 9 3 4 4 , 3 % 5 5 = g t % % - 2 < < q 4 % % O 1.p.o. .y ",
"A.-.o.z w.& % , = , 1 1 2 2 , , , 1 % + 1 + 5 $ , w 4 4 $ 1 5 1 1 5 , , t , , 1 , 2 $ 5 % t t q 4 = , 5 2 1 = 1 % $ * 4.a. .Y q ",
"B.O...a q.& % , < , 1 3 5 f q 3 2 1 4 % + % 5 , , , , 4 q % 1 % 1 % 1 j , $ % 4 4 1 + % h t , , 3 4 1 2 = 1 1 3 1 % & 5.a.o.Y t ",
"p.I ..a 8.: 1 1 9 4 3 5 , 3 3 1 , 4 4 5 , + w 5 4 ; 1 1 4 5 @ % @ = g q 1 , = 1 1 1 + f g 3 1 1 2 2 , 4 1 4 3 3 1 1 > 5.X.o.^ t ",
"d. .^ u 1.X @ % = 2 t 1 , 1 2 , , 2 2 2 5 , @ 4 4 , 1 4 3 5 4 + 1 f , = 3 2 , 1 1 $ q 3 % = , 2 1 = = $ % 5 ; $ # + & 5.p.O.o.g ",
"Z.j.#.i ,.O , < < @ , 9 , < 4 4 < < < , 4 t , $ 2 2 , 1 , , 4 1 t 5 = $ 1 1 1 1 $ f w 1 , , , 1 - = , = = % , 4 1 1 > 0.g.f.;.f ",
"C.o.-.v 9.> < 9 9 2 @ 2 5 % , 2 < 4 4 4 < , 5 1 + 5 2 , , 1 1 = 1 3 3 - 2 5 1 # f q 1 1 1 3 , ; 1 , 1 1 % , f 5 2 , , 4.g.-.#.j ",
"b. ...p 4.* 4 < < 9 3 @ , : % , 4 9 9 4 4 1 1 2 % @ 4 3 1 5 1 1 = 1 1 4 4 3 % 5 3 3 % , , 3 = , 1 1 1 % , f 3 1 = % - 4.h.-.^ h ",
"B...#.v 8.* , < 4 , 4 4 . % 1 , = , 1 , , = , = , = $ q 3 3 4 2 5 3 3 5 3 % w 5 % , 1 1 1 2 1 , 1 1 % , g ; 4 2 % @ & 5.x.:.^ t ",
"k.Q ..a w.* % 3 < , 1 < -   = 3 1 1 3 1 2 q 3 3 , q 1 % t t q = , , 1 4 % w w 5 4 4 9 3 5 4 4 4 3 % + 3 2 , 2 1 , % , 5.s.-.| 9 ",
"M.| | z r.X + @ % @ $ + + + . , 5 1 3 4 4 2 4 4 < , 1 % $ f 4 = = < , $ y t 5 3 5 5 5 4 , 2 4 4 % + + # + # + + + + O 5.@.-.{ q ",
"V.' W p r.- 3 q f g g f q 5 , . = 3 , 1 % 1 2 , 2 3 , 2 = % q 1 , < % 5 4 3 3 : 1 , , , 3 1 4 = = t 5 5 q 3 2 5 5 3 7 5.O.;.o.g ",
"x.W ^ z r.& - 2 1 5 q 1 1 3 4 1 @ = < = = < 1 % , , , , 3 , @ 4 2 % t q , , 1 4 w < 3 4 1 3 = 4 h 5 , , 1 % 1 3 1 % < 8.f.&. .g ",
"B...] z y.* = 1 4 4 9 = , , 4 1 4 + = 4 4 1 - 5 1 4 1 , , 9 = @ $ t t % , 4 1 , < 5 2 < 2 : 1 h 4 1 = 1 = = 5 = 1 = > w.X.o.' t ",
"V.o.[ k y.* % 1 4 , 1 , , % - 2 5 4 # = 4 = % = 5 1 , 1 9 2 9 + @ y 2 < % $ 2 < , 9 t t % , h < , 2 2 , 2 4 1 4 2 = , 2.( | | h ",
"N.-.| p u.- 1 5 2 1 % = % , 4 5 4 5 4 + 1 4 , = 2 5 = 1 4 1 $ q 2 = 9 4 2 , 1 4 , , < 2 3 y 4 , 7 1 = , 2 9 - 9 5 4 6 e.O.{ U g ",
"V.-.$.l 8.X $ % % = & @ 4 3 : , 9 2 = 4 @ , 2 = , 2 3 1 1 = g f t , @ 4 2 2 3 1 , 2 , < h 4 , , 1 - - = % % = = $ @ O 9.a.W I g ",
"B.#.] p 9.O $ % = = - % % 3 , % , 1 , 2 1 $ = 5 4 2 3 5 = f f 7 7 t , = t 2 3 4 5 , < x 9 4 4 1 = = = $ 1 1 - < 1 , > y.j.&.o.g ",
"C.o.] p 8.: , 5 q q 2 1 , $ 4 4 2 3 1 2 = 3 + = 3 4 3 % f f 4 9 4 4 9 , @ 4 4 4 ; 2 h t 9 4 9 4 1 = + q q 2 2 2 < 2 7 t.j.&.&.k ",
"B.+.W u 2.* % , 1 2 q 2 4 % $ 5 5 q , 1 = , 1   , 2 = f t 2 9 q 4 2 < 9 , $ 4 1 , h 4 < < < % = 1 $ q 5 1 1 < 1 & = > 9.k.-.-.j ",
"b.Q E r 4.& % % , 2 , 2 2 t 1 % 9 4 2 5 3 = = 1 .   q t 2 , 4 q 9 9 , , 4 , . , l t 4 5 4 , % % @ f f = - 1 1 1 - & > e.j.| ' f ",
"B.| { g 4.* , % , 4 $ , 4 3 % 1 t 2 < , 2 < , 2 . . 4 w 1 < < 9 q 2 1 3 5 1 + $ t 5 < < 2 , ; , . 5 t , - 1 = 2 < = , q.O.{ U q ",
"x.E U i 3.- % 1 , , , , 5 % = g w 4 < 3 2 w 4 ; t 5 @ , 4 2 4 4 < , - 2 , 2 y 2 % 9 4 < < , , 2 3 @ < t 4 4 , , , & : 0.O.Y P q ",
"x.E U y 3.& $ 1 , ; 1 2 = 1 g 5 1 , 3 , 2 3 , y y , 4 o , t 4 3 , , 2 % 1 g 1 4 , $ 5 3 4 % , , 4 4 @ < 4 2 , 1 = - - q.^ M n 9 ",
"z.Q ..p 1.  + % ; % % % 3 j 3 1 , w 3 2 2 % y t , , , 5 @ , 4 2 , 4 , 1 f < % = 4 , $ 5 2 $ , , , 3 3 $ % % = $ $ $ O 8.J K K q ",
"@./ +.u 1.& = 2 1 3 3 5 g w 3 1 2 < 4 4 % t t % 4 , 3 3 4 $ 1 q 4 = 1 g % @ , : 1 q 1 $ 3 , , < 4 5 3 3 1 3 5 4 2 , > 5.T D F 9 ",
"l.R Q a ,.* , 2 1 4 3 3 3 1 3 1 , 4 < % t t 2 , 4 2 4 w 4 3 % 2 1 3 h 4 , , , = = = q % @ 4 , , 4 , 1 3 5 5 3 9 , , > 8.J S Z 4 ",
"c./ Q a 1.O = , 1 , = 1 1 % 1 4 1 3 % y t , , , , : , 4 t 5 < . $ h 3 , 1 4 , , = & , q 2 $ 4 , , ; 4 1 = % 1 3 , ; > 7.~ R F r ",
"c.+.@.u 1.& % = , 1 % % ; 1 3 1 4 $ t f 4 4 4 < $ $ 4 , 2 5 % $ $ 5 t , , 2 , * % , 1 4 4 , ; f y 4 1 3 , = % , , ; > e.i.F G t ",
"c./ @.a 2.O : ; 1 1 1 1 3 1 3 3 @ t 5 : , 3 4 1 = 4 4 , 1 @ , q 4 $ 1 t , , < 2 3 4 , < , 4 , @ 3 5 = 1 = , 1 = $ = : 9.J F I 7 ",
"c.( / a ,.O 1 1 2 q 5 1 ; 1 4 % t t , , 1 3 4 3 , q 4 1 % 1 t 1 , , @ 3 t 1 t t t 4 4 3 4 2 4 , @ 1 1 1 4 1 1 1 ; , : 7.A v S 7 ",
"l.R R a ,.X . # $ $ $ @ + + + f g 3 < 4 , = 1 1 - = 4 - = f 2 2 4 1 4 $ < t 9 9 4 4 9 < < 2 , 3 = . + @ @ @ $ + . . O 9.D z a 7 ",
"i./ +.a s : 1 w 4 4 t t 5 % q f 3 5 , , 1 % % , = = % , g 4 , < 2 2 , 2 % , 5 4 , , 4 3 1 1 , = 5 , @ f f 9 5 f t < > e.J S z 9 ",
"c.R +.a 2.o O O % 4 4 1 % q 5 3 5 3 , = , < 5 4 2 % 1 g 7 1 1 1 3 4 = , 9 @ < t 4 < 4 < ; 2 , < 5 4 1 $ 3 , % 5 2 $ * q.A n v q ",
"l.Q *.b ,.o . ; 2 3 2 % t 5 1 3 3 1 1 1 1 , 3 5 % , y 4 4 4 4 , , 2 4 4 9 4 @ < t 4 4 , ; : , 4 3 1 5 % % 3 3 1 < = & 4.d z S q ",
"@.] *.i ,.: ; < 3 1 $ t t < 3 1 , 3 3 4 3 , , ; 1 g 4 4 q 4 3 4 , , 4 < 4 9 4 @ , t 4 4 3 4 , w 1 1 % 1 % $ q 1 4 4 > 6.A c S 7 ",
"z.] [ i 2.O . . @ % t 5 , 1 , , ; 1 4 4 1 3 ; 1 j 5 - , 4 4 q 4 4 5 9 , , 4 5 4 @ , 5 4 , < , , 2 , % , , , $ % $ @ O 1.( K K 4 ",
":.[ ` p 6.- , = 2 g f 1 % = , , % % , 1 1 % , g 5 1 < - = 6 4 # @ w 5 3 , 3 < 4 5 @ , t 4 , , < q 2 2 2 * 1 1 , , = > 7.( n M q ",
"a._ _ p 7., 1 = 2 5 3 2 1 , , 1 , ; , 4 % @ g 5 3 3 , , 1 ; % 5 , @ 5 < , 4 4 , 4 5 . , 9 4 < < 4 1 4 4 , = - , 2 1 < 5.! n V q ",
"f.` ` h 8.* % $ 1 1 1 , 2 4 1 3 1 3 5 % + @ f 3 4 q 9 1 2 % t t t , % 4 4 4 3 , : 2 @ & 9 t 9 < 1 2 1 2 1 5 4 , - = > 8. ._ ) 5 ",
"j.U U h t.- , = = 1 = 1 , = 1 1 ; 3 % , 9 $ q , , , 4 4 @ f q 2 4 t , % t 4 4 , , 2 @ y & , 5 5 - 9 2 2 q q 4 1 1 , < q. ._ _ 5 ",
"j.U ` k e.& % % @ % = = = , 1 = , % , g 3 ; w % , 1 2 , q f 2 1 < 4 t , 4 < , 5 , 2 % t 5 @ 1 t 2 , 2 2 q 2 4 , = 1 > q.Y Y Y f ",
"k.o.' y 9.* = 1 = 2 , 1 1 1 4 5 % , g 4 3 , 5 1 3 1 3 , q 5 1 2 4 2 4 , 5 4 , , , , % y 1 < % 1 2 , - 2 2 2 , = % = > q.T ' P f ",
"M.' E l H , = , , 2 4 1 4 1 2 , 2 f 1 , 3 , f 1 , 1 4 = q 9 2 - , 1 4 ; 5 5 , , , , , g 4 , 5 @ 5 2 1 - = 1 = @ % @ 2 H X.o.{ q ",
"x._ | o.| j = $ = - - - 1 , 2 % q 4 , , , = q = 1 2 q , 4 4 4 1 1 2 2 , 4 2 < 4 1 , % t 4 < 5 , 2 2 1 = 1 2 $ = $ 5 o.;.j. .' f ",
"j.E { &.' K t % & , 2 2 , = 1 = 4 4 , $ , % q , 1 , 1 % 4 4 2 , 1 1 < ; 4 4 % , 1 3 = 2 - 1 1 % 4 4 , = % ; # @ 5 -.-.E ' [ E t ",
"s.' { ) n M _ j = % 4 1 1 = = @ 1 2 ; % , # 5 , = @ % $ 2 9 2 2 ; $ = @ 4 2 % , 4 2 $ 1 = % , % 4 3 , = $ @ . 5 -.-.` V ` ` V 4 ",
"s.Y ` V n N U E j = - > < - - & 6 - - - & & > > : > : & 6 6 > 6 > > : O 7 7 > > > > & 7 & O * O 6 > > O & O < s.j.U ` N _ U n q ",
"X.N V ` ) M V ' U d q.8.8.8.q.8.q.q.q.6.4.6.6.7.7.1.7.6.7.7.5.5.w.8.7.2.5.5.5.q.q.5.8.9.7.7.9.e.e.e.e.e.w.9.H :.E U _ ` N U W q ",
"B.W M m x x P #.o.'  . .A C Z D  .T L T _  .Y D G G G J T G A D A C C L G L D ^ p.( ( T T ( i.T J ^ ^ T / ( O.m.+.%.| N b K / h ",
"x. ...E b E ' ` ` P ` ' S S Y Y _ _ _ _ ' U M L F S F P Y L I L L S c P P N P E '  .O.` I O...X...] ` V E [ [ ' *.*.} U E R P 9 ",
"g.W n P Y { Y  .U M Y Y C C L _ _ K K M K U P P S c S S Y P P P P S c P U N M N _ ` ' P M P _ _ _ B V N V V ' | | | E I / ^ I 9 ",
"E 9 , < 4 q q 9 2 4 q g q 9 9 7 9 6 9 6 2 9 9 6 9 2 9 < 6 q 9 7 9 4 1 4 q q 9 q q 5 f 4 , 9 y f t 3 5 5 f f g f h t q 9 9 9 9 , "
};
