/* XPM */
static char *result[] = {
/* columns rows colors chars-per-pixel */
"64 64 172 2 ",
"   c #2A2827",
".  c #2D2C2A",
"X  c #342E2A",
"o  c #392F29",
"O  c #35312E",
"+  c #3B332D",
"@  c #2F2F30",
"#  c #2F3030",
"$  c #353533",
"%  c #3C3632",
"&  c #3C3935",
"*  c #373838",
"=  c #3C3C3B",
"-  c #40362F",
";  c #41392F",
":  c #4A3B2E",
">  c #413730",
",  c #443C35",
"<  c #4A3E34",
"1  c #443E3A",
"2  c #483F39",
"3  c #3F403F",
"4  c #5D432B",
"5  c #474037",
"6  c #4B4135",
"7  c #43413E",
"8  c #4B433C",
"9  c #524436",
"0  c #51463C",
"q  c #55493E",
"w  c #594C3D",
"e  c #63452C",
"r  c #68492D",
"t  c #644A34",
"y  c #6D4C30",
"u  c #755234",
"i  c #71543A",
"p  c #77593E",
"a  c #7A5A3F",
"s  c #3D3F41",
"d  c #3F4040",
"f  c #444443",
"g  c #4A4643",
"h  c #474847",
"j  c #4B4846",
"k  c #464748",
"l  c #4A4748",
"z  c #474848",
"x  c #4C4C4B",
"c  c #524740",
"v  c #544B43",
"b  c #5A4E44",
"n  c #524E4C",
"m  c #5A4F48",
"M  c #4F504E",
"N  c #575047",
"B  c #5C5046",
"V  c #52504E",
"C  c #5C524B",
"Z  c #4F4F50",
"A  c #4F5050",
"S  c #545353",
"D  c #5B5653",
"F  c #575857",
"G  c #5B5956",
"H  c #575758",
"J  c #5E5759",
"K  c #575858",
"L  c #5C5B5A",
"P  c #654F43",
"I  c #635344",
"U  c #6B5547",
"Y  c #61564D",
"T  c #6A564B",
"R  c #65594E",
"E  c #6C5B4D",
"W  c #765942",
"Q  c #7A5D43",
"!  c #745D4C",
"~  c #615751",
"^  c #645B54",
"/  c #6A5D54",
"(  c #635D5B",
")  c #695F59",
"_  c #725E51",
"`  c #76614F",
"'  c #6C6056",
"]  c #65615E",
"[  c #6B625C",
"{  c #6F6A5E",
"}  c #736255",
"|  c #7A6452",
" . c #72655B",
".. c #78675B",
"X. c #75695E",
"o. c #7A6A5D",
"O. c #5C5D62",
"+. c #615F61",
"@. c #5F6060",
"#. c #646262",
"$. c #6A6562",
"%. c #6D6965",
"&. c #66676A",
"*. c #6A6768",
"=. c #67696D",
"-. c #6D6B6B",
";. c #736662",
":. c #736B63",
">. c #7A6D63",
",. c #726E6B",
"<. c #786F68",
"1. c #6F706F",
"2. c #757067",
"3. c #7E7266",
"4. c #74716D",
"5. c #7C736C",
"6. c #6D6D72",
"7. c #706F73",
"8. c #6D7177",
"9. c #6D7279",
"0. c #757272",
"q. c #7B7573",
"w. c #777976",
"e. c #7C7876",
"r. c #75797B",
"t. c #7D7B7C",
"y. c #85511E",
"u. c #865422",
"i. c #8A5524",
"p. c #8D5826",
"a. c #865529",
"s. c #8B5729",
"d. c #85592E",
"f. c #8C592C",
"g. c #935A26",
"h. c #945C2B",
"j. c #985E29",
"k. c #8E5C31",
"l. c #935D31",
"z. c #97612D",
"x. c #9B622C",
"c. c #956033",
"v. c #996536",
"b. c #806F65",
"n. c #817165",
"m. c #82756B",
"M. c #85796E",
"N. c #8B7C6C",
"B. c #807771",
"V. c #847B73",
"C. c #8B7E74",
"Z. c #827C7A",
"A. c #887E79",
"S. c #8C806E",
"D. c #868077",
"F. c #8D8175",
"G. c #86817B",
"H. c #8B827A",
"J. c #928374",
"K. c #92857B",
"L. c #94897E",
"P. c #847F80",
"I. c #848382",
"U. c #8B8584",
"Y. c #8D8982",
"T. c #8E8D8C",
"R. c #948B83",
"E. c #938D8A",
"W. c #97938F",
"Q. c #99928A",
"!. c #A2998E",
"~. c #A6A29F",
/* pixels */
"!.R.C.m.b.A.E.A.>.m.C.K.C.K.C.C.K.L.M.>.m.m.b.b.b.n.n.>.>.b...b b._ _ ;.;.<.V.>.q.Z.U.Z.Z.A.V.U.I.7.,.q.A.I.0.I.P.V.C.M.n.>.>.v ",
"H.2.^ Y ) ;.;.) ;.[ X.;./ ) ;._ ) / Y I m / ) $.^ I I m Y ^ Y , ;.I b b C ^ C ~ D G ~ #.#.~ [ -.&.L K L -.=.=.=.$.( [ [ [ Y ~ , ",
"B.) C v m ^ ) / [ ) +.) ^ ^ ^ / ^ Y C Y ^ ~ ) *.( m m c b m ~ 2 ..^ m m C ~ b m ^ ( G ( ^ ^ $.] #.+.&.&.9.0.9.r.7.&.$.[ ) ~ C & ",
"Z.( D ~ m Y Y ) / g b w b b w 0 9 9 9 9 0 0 c 7.$.Y m m c 0 D 1 _ ~ v V m Y ^ C n 5 b 0 v c q b q v N v N D S 0.,.-.;.] F ^ ] 7 ",
"Z.( n l g Y m ~ m e x.v.v.h.j.p.i.i.i.i.u.y.i -.$.^ m g g 0 m 1 ..D m l n ^ Y m g e v.c.l.f.h.h.g.z.c.c.h.d.! 4.%.#.] n j ~ ) 1 ",
"P.~ m l l Y Y m > + + 8 0 , , , , $ , 5 , X 1 S _ ^ ( c b Y m 1 +.b b n S ( P 2 O X X 2 , 7 5 8 5 , & , , X 7 L %.^ G C n Y D = ",
"q.J C J ~ ~ m O . = f = x x f 1 f d d g = l d = ( $.( ~ ( ~ m 2 } b c n ( +.m O X x f = M h x z z z d z = x f $ D [ Y D ~ C C % ",
"0.+.m ~ ) J & . = f Z l d S l f g x Z f S L g f = c m m ~ ~ Y 1 ..^ m ^ ) ~ $ . 3 x S f f S x z f x x f D S z * $ N ^ ^ [ ~ C % ",
"5.( [ ~ ^ = X * f f h x f 3 S j x x j #.L S V V 7 $ v v Y ~ C , _ T b D m & . = f z n H j f S x x S f @.F j S f $ $ j b Y / ( $ ",
"q.[ ;.j t O = = f f g j F x d V n f L #.F S V n j f & r ^ Y B & ) ^ b , r + d z z n n L M f d K S h L L S n S x d = O e Y [ +.1 ",
"V.;.<.N f.+ d x j f g l x V x 3 s H L x F K V V V f , h...^ ~ 2 _ Y b < j.o f x x Z S S S S z = d K L S D S G n M f + c.o.;.7.g ",
"Y.%.0.b s.8 * j S x f h x x M * = H S j g D x n f x N j. .) ~ , ;./ ( c j.2 = x n S x z K L L * * K V V x V L H g d v l.b.,.;.2 ",
"~.q.,.b h., x 3 x S M x V V f F V f V j f d j g l L 8 z._ ^ Y & ) ) +.w j.> l 1 x H l S F x f L S f S F x z S x f S 0 l.m.;.[ 2 ",
"L.<.>.0 l., f x f x D F L M #.] F V f L K F h x H z < j._ R ~ 2 _ ^ E < x.o d S f x K K K j F F K S f G x D x x L x < c.m.,.) 8 ",
">./ ;.w k.2 h x F g M L f L L M x G M f F S S &.S f 5 j._ ^ ~ , / b I < j., 1 Z S f A S x L K x S S x j S M x #.S x 8 c.m.:.[ 8 ",
"N.;. .9 h., f V D F f * K K M x x S F x $ g ] x V f , g._ ~ Y 1 / Y m < x.< s l V S = @ S S V D x j n z $ f @.S f f , l.n.,.-.g ",
"!.Z.2.0 f., f x V S 7 & D K S S A A S n = z ( V f k 5 h.} Y N , _ [ [ 0 j., f f M K f * S S x Z x k A h $ f F x x x 8 h.V.e.q.8 ",
"W.,.w.b f.5 l V V g F L f x D V S K x n L M x L x h 5 j.3.) Y 1 >.[ [ 6 j.8 f f S f S K f A S z x S z x O.x f K x f 5 h.V.0.4.x ",
"L.:.:.w f.2 D S g ( L V V = x K G n n #.H H x d S f 5 x.V.-.$.2 q.;.) < h.2 k x f K S A S f x S S x x @.Z A x f x f 2 l.F.0.X.j ",
"R.:.:.B p.5 x f L G V V j x d x x x #.S n f S z * M 8 z.m.,.%.8 3.$.D 0 j., k s S L A x S K f x x x K z x f S Z = z , d.H.w.[ 8 ",
"H.$.%.w p.< = H F g j l z z A $ = #.K V V L S K f = v g.b.$.Y g e.( +.v j., = L ( S L F F F L * = O.x d f d x S f * 8 h.M.0.:.1 ",
"U.;.-.b i.+ x D S x x j z x z f f S K F S D H A M d + j.b.[ Y z 0.L D 0 h.+ n S S K L V M K V f f x F x f x f g x s + f.n.4.*.= ",
"E.$.[ v p , f l A S K F D j f S S f x F f x x h f g 7 Q V.,.( g ;.( ( v i , z f z x x M S x n @.S d x A x f f f f d f W m.q.7.g ",
"H.[  .5.q.n $ f h D K D x l #.f f Z = x x x x = = g 5.4.:./ ^ 5 X.) #.] ) z $ 7 M z M D x x L F A S d x S k z z 1 z e.t.P.7.;.g ",
"R.:.%.:.,.[ x * g x D g f L D x z k Z = x V 7 3 j V.5.[ ) G C , X.~ ( L Y D 1 X 1 x x f f L x V V x x 7 z x x = f q.U.7.$.*.$.8 ",
"E.-.#.( %.-.$.8 $ = d d S 7 = x x k z k * 7 = g q.5.:.#.^ ] ^ 8 m.) $.-.^ ^ L 2 X f l l S x x g f j x j = f f f ,.q.,.#.( $.=.g ",
"T.0.*.^ $.*.$.^ 8 O + v 5 , 8 8 8 8 1 5 8 ; 8 3.X.' [ [ ( ) ) 8 ;./ ( ^ D G D n , O , I 0 7 5 7 8 5 5 5 5 - , 2.q.-.$.$.+.+.( c ",
"E.0.:.#.] -.-.$.N e c.k.p.p.s.h.h.k.k.l.g.g.` 5.^ B D ] ] ) ^ 8 V.5.+.L ( ^ D ^ n e x.h.k.k.f.k.f.p.g.p.g.y.Q 0.;.-.-.-.$.( / g ",
"E.4.[ G G $.-.[ { X.3.X.} } }  ._ } ;.o.| | X.e.] ' ] j C G / g U.e.&.D n ( ( ( ^ ^ [ / E X.>. .Y U E U E E >.q.#.0.=.#.L $.-.g ",
"Q.,.] C L ] $.[ [ ' [ X.' [ [ ^ [ %.0.:.' ' R ' [ [ ^ C L ~ ^ j Z.<.$.V V ( L #.^ ^ ^ ] ] 2.[ [ ) [ ;.^ R R [ ^ [ =.6.#.&.=.7.c ",
"R.2.[ ] [ { ] [ %.[ R R R ^ [ / :.<.4.4.X.' R ' %.] ^ ] [ ^ ~ 8 5.) [ ^ [ [ ) &.G C ] ] ^ [ ] ] 4.2.%.^ ~ C Y ] -.-.6.7.0.,.,.l ",
"' j 0 7 8 j V x j j j v j g 8 , g l x n j q 8 8 8 7 7 0 j 8 2 & m n n 8 8 g 8 7 g , , 8 j j g x N 0 j 0 v 8 8 g x x S x V l z = ",
"R.I.G.q.,.H.T.T.V.V.M.I.V.V.>.;.X.A.V.H.V.V.H.:.o.X.:.3.m.3.o.b A.E.H.V.5.m.X. .2.:.2.5.G.I.D.Y.Y.5.3.S.F.F.D.V.D.D.I.I.t.t.5.N ",
"Y.#.#.$.+.] %.%.$.$.[ -.,.:./ ( ~ [ ^ [ [ $.1.[ ' / Y / ' ' R j G.;.[ ' R ^ N C ' ' ' ^ ] 1.%.%.%.2.{ X.X.X.5.q.2.' ' %.-.] ' 3 ",
"F.] L L L +.$.] -./ E [ $.:.) ~ ^ b R [ ) $.-.,.4.-.] [ b N X.n B.:.2.] C v R / E R [ [ ' 2.%.2.X.' E { 2.3.2.:.[ R C ' G N C * ",
"D.{ $.$.( ( ] #.#.g q b b m b < 9 9 w q q q N r.r.1.1.-.N b [ n M.;.[ L V v C ^ N 6 w B B R C w i w w I I w B X./ D B ' N C D 5 ",
"m.{ { D V D ~ %.O.e s.s.u.i.i.u.i.i.y.y.h.g.a q.-.#.[ G v ~ / 8 ;.T m g 7 0 m m v 4 d.a.a.s.s.u.u p.u.u.p.p.p ' ^ / C N j B R , ",
"S.' ' G L %.%.] f $ X 2 1 , , > , 8 < 2 , + 2 N [ ^ / N n D E , } m m v 8 v b n & X O , + + O + 3 3 5 5 3 + 5 N R R B 8 q B B ; ",
"J.{ { { %.w.=.s @ s = = Z f f x f x n x 3 x 3 $ n ' ' B m C Y , / ^ Y m b m b X   $ = 3 D x f f 5 3 M h * j f % q B C B R R E 5 ",
"J.o.X./ %.&.s @ = f k f s A Z x x l x f F F j = + v X.R C ~ Y , o.;.) ( m n &   $ d M x f K F F G D M 7 V M 3 * O 0 B E _ R E 5 ",
"S.o.3.R D 3 # 3 f x z S Z f L S g x 7 F K V x h = $ n v Y ~ ( g m. .) C g = @ f n n x S j g F F n S f L S x x g * * w B B ~ / , ",
"S.3.2.q e + h 7 x S K z k x k L x f F F n S D x f f + e / ^ $.g 3.^ ^ 8 e O l S S S S S F x g K S f K S M x z f 3 = $ e I I Y + ",
"S.' ' w p.o 3 M x S x x f H S d z L ( M f f x x g = ; p...^ ~ 7 3./ ) 9 l.% l L D V D x V D j = f F K h f f x z 7 * + z.E b w ; ",
"N.' X.w g.5 3 h A z A S S H S * = &.V x M g f x f 1 v i._ R / 8 X.Y ^ 9 l.2 = x S M S S M S S # = #.S A x x x S j 3 N h.! I b , ",
"J.[ 4.w g.; j & x L D x S A f L F h F j j A L M x S 5 i.} / ~ 2 >.Y Y 9 l.2 l 2 M F D V h S g F D z L K z f x Z l S < l.U I b 2 ",
"N. .0.N y.+ 3 S f A S H S f L @.K M f K S S M x L f < h._ / ~ , >./ Y < p., f S 7 V F V x 7 G ] S x f K L A x x ( f , l.P v C 1 ",
"3.%.6.j g.5 f M S k x A f L L M x K A k F j j @.x f 5 s.E Y C 2 <.Y ^ < k.2 l n D g V F h L F D S S z d K x S L S A 8 h.T C Y % ",
"F.-.%.0 z.5 = 3 x K = $ K K x x f x K x $ h #.S x x 8 s._ Y m 2 >.^ Y < f.< x n M F 3 = F L V x x j x x . g &.n f f 6 l...~ Y % ",
"q.#.$.v j.2 z f Z L g * A A z z f f A x * f K S n f 2 k._ I m ,  .I B : s.2 k x V F 7 7 D D x V L A S M % 7 L z h f 5 j.o.~ D , ",
"q.+.O.q j.8 f f x k F L g x A x x x z x L x f L S k , h.T b m < } I B : k.8 z x D h L F f V G j D D n M ( j 7 D l j 5 p.} N J d ",
"B.#.#.c j.2 k f f L K M L f A L S x M @.x x x f K S g j.! I B , 3.^ ^ < k.8 x x 7 L ] F L j D F V x x ] S K M f V j 8 h...O.O.= ",
"Z.L #.0 x.8 x s K S x x M S d M z x L x f h S f 7 l 8 x.o.^ B 2 V.) Y < f.2 k f F L j V D F 7 S x V &.D L F F x f A b h.;.+.+.1 ",
"Z.+.#.0 h.< = S x j h h f A S $ * L x x x x x x z = 8 x.` R C 8 A./ ^ 9 l., = H D x x x D x S = 3 ] S M F V S S j = v h._ ( +.g ",
"A.,.$.8 g.% S H x V x x x S M k f A K A A S z x A 7 ; g.` R Y 5 V./ ( 0 p.+ x S f x S S M V S h 7 x D V V S x g x f ; g._ $.( 2 ",
"H.$.$.c u 2 x x l S D S K x x @.L f x S A K x h f = , u o.%.Y , ;.~ m < y , f 3 f g S F K x V ] L 7 M V x l f = f = 2 Q >.,.*.1 ",
"H.#.*.7.7.n % d n l j x x x L A M S d x M A z s = 1 ' } o./ Y ; } I m b B , $ = h h j S V x #.F x S f l S V f f = z *.0.A.;.$.f ",
"Z.] *.7.$.D 2 * 7 j S x j L x x l Z Z = k S x = x ;. .I b Y ) c ;.Y v b c c , O f x x f h L S l h x S = z x 3 * g ,.=.( $.&.] 1 ",
"V.;.*.+.C ~ +.Z = f x j K x d f l n x x * f g g 3.} B b m Y ^ g o.b 8 b b v b 2 $ j g = D h f j M x x j * = = j 4.%.#.K ] #.( % ",
"m.) +.L D ~ ] ( n & , N v 8 5 , 2 < 2 g 8 - , Y [ b 0 b Y C m 1 X.N 0 0 0 b C m 5 + ; n 5 , , 8 8 8 , 5 5 o 5 q.4.L #.^ #.L D 2 ",
"<.~ ( +.O.D K $.L t c.h.f.p.s.p.s.s.f.l.l.h.u Y ^ b 0 m D b m > X.v 0 m c m m ) G t f.f.d.d.p.d.f.f.f.a.f.s.a q.] ] +.#.H ( ) 1 ",
"R.[ D D x n ^ 4.-.$.;. .U b P T _ ) T  .$.;.[ _ R Y N j g m I , } b c g g m m [ %.[ ../ / o.o.} E X.[ /  .X.4.I.1.1.=.L N ~ X.j ",
"H.;.:.] C [ $.#.#.( $.$.Y m ) ) +.+.+.+.+.( D ^ C N Y b m Y / 1 >.~ c v n m D ( [ :.<.[ / 2.:.;.;.%.$.G ] #.$.$.1.8.=.^ [ ' ~ , ",
"V.[ D R ] $.) $.( m ( [ m P / +.+.( ~ D ~ ) ^ ~ ^ m Y Y ) / ^ 2 m.~ m ~ ( D D ~ ( #.#.^ C / [ ) #.J L H ( L $.1.-.%.] / { X.^ 7 ",
"[ 2 X + % 1 2 1 & & 2 2 2 , > > > > > > O 1 , % > % > % $ 2 > O v > % & f 1 = , 7 = f * + , g d = % = 1 f f f f j 7 1 , , , & + "
};
