/* XPM */
static char *result[] = {
/* columns rows colors chars-per-pixel */
"64 64 120 2 ",
"   c #3E332D",
".  c #3E3734",
"X  c #423126",
"o  c #4C3426",
"O  c #45352B",
"+  c #49372B",
"@  c #46382E",
"#  c #4C392D",
"$  c #563E2F",
"%  c #423730",
"&  c #443A33",
"*  c #4C3D34",
"=  c #453D39",
"-  c #493E3A",
";  c #503F33",
":  c #4F4137",
">  c #47413D",
",  c #4D433C",
"<  c #534136",
"1  c #584437",
"2  c #52453C",
"3  c #59473A",
"4  c #56483E",
"5  c #5C4A3D",
"6  c #604D3F",
"7  c #474240",
"8  c #4D4541",
"9  c #4F4945",
"0  c #4A4748",
"q  c #4E4B4B",
"w  c #514741",
"e  c #544A44",
"r  c #5A4D44",
"t  c #544D4A",
"y  c #594F49",
"u  c #5D5046",
"i  c #56514E",
"p  c #5C534C",
"a  c #524F51",
"s  c #555353",
"d  c #5B5552",
"f  c #5E5955",
"g  c #57565A",
"h  c #57585C",
"j  c #5D5B5A",
"k  c #635245",
"l  c #695545",
"z  c #62554C",
"x  c #69564A",
"c  c #65584E",
"v  c #69594E",
"b  c #725E4E",
"n  c #615750",
"m  c #645B54",
"M  c #6A5D55",
"N  c #635D5A",
"B  c #695F59",
"V  c #705E52",
"C  c #6D6156",
"Z  c #65615D",
"A  c #6C625B",
"S  c #746355",
"D  c #786657",
"F  c #72655C",
"G  c #75695E",
"H  c #7C6C5E",
"J  c #5C5D60",
"K  c #625F60",
"L  c #5E6165",
"P  c #646262",
"I  c #6B6662",
"U  c #6D6965",
"Y  c #64676B",
"T  c #6A6768",
"R  c #67696C",
"E  c #6D6B6B",
"W  c #716761",
"Q  c #746B64",
"!  c #796E64",
"~  c #746E6A",
"^  c #796F69",
"/  c #6F706D",
"(  c #7D7166",
")  c #76716D",
"_  c #7C736C",
"`  c #7F786E",
"'  c #6D6E71",
"]  c #726E71",
"[  c #747373",
"{  c #7B7672",
"}  c #777876",
"|  c #7E7975",
" . c #75767A",
".. c #797679",
"X. c #76797D",
"o. c #7C7B7A",
"O. c #816E61",
"+. c #817366",
"@. c #81766B",
"#. c #83796E",
"$. c #887C6E",
"%. c #807771",
"&. c #827B74",
"*. c #897F74",
"=. c #827D7A",
"-. c #878076",
";. c #888077",
":. c #85817C",
">. c #8A837B",
",. c #7B7E81",
"<. c #7E8184",
"1. c #7E8389",
"2. c #838382",
"3. c #8A8682",
"4. c #8C8985",
"5. c #81858A",
"6. c #878A8C",
"7. c #8C8C89",
"8. c #918C84",
"9. c #8B8E90",
/* pixels */
"c = > . = y N p 9 e p z u z p p c f e 2 e e e e 8 w 4 e , e , , 2 , > > , 9 i , q a f a t i p s s 0 0 q i s q s s i r > . .   C ",
"u @ + & w y y y p d n n t i p y e p e , , p p f t , , , w y e 2 2 > , : , 9 2 8 9 9 9 i s e s j g q q q g j h h i p y 2 , O   c ",
"u o o * 1 r k r k y d s e y y y e e 8 9 t 9 i s i e , , , w e y , e 8 e e p 8 e q t q y i t d p s a g g L L L L J N f p 5 + X l ",
"z X # < $ 1 r r z d a y f i s y r e e r y t t g f e e 2 , - 9 9 , e 8 8 9 r e e t t t q q s i i i t j a h J J h P J Z p 4 : + z ",
"c X % - 3 r 1 y p m C p N j f m p u r p y j j s f p w w e 2 , t 8 e 8 e d p r e e y s t s f f i s y i j s f j f j f f y 2 : + C ",
"m O * ; ; 5 w y u p f f n R / N p p p p p f P f z i f y y u y e e , 9 s s f 2 : 2 p y f j j n s d d p J j j Z Z j p u u 1 + X M ",
"m O - w y y y y p 4 8 p f P E U N p p p s y p P N f f i f f e p e , 8 i s f i p y g s j L j N f d f d d f N Z N f u u y < : + C ",
"N & * y n m m y p y 4 e Z N T I P m n P Y P Z P j i e e p p u p r p e f m m i s j f N K P Z N N f p d Z Z Z N N Z f u f u : > / ",
"K - w e a M N M f i y f I m Z m A Z A P L R E j P N f p p z p p p p e Z m N j T T E E E E E U Z N m B U I U f C A Z y , > 2 > J ",
"g - d N B B B K N I ~ I I N A A A I R Z P U A A P E A m m p p p p p u m B n N ~ Q E E E ' [ E E T T I I E E A I A C Z 6 4 u , U ",
"K 8 N ~ ~ W W N ^ [ ~ E ) ) o.| [ E U A A U U Z m E E C A N N N z m p m B B I I A Q E ' [  .[ Q ] E W T E ~ U ~ F C C A v p i R ",
"N y I W F W m n U ~ ^ E / ) ,.~ Q } } [ A F m m U E ' I A A A C m A I ) W M B I ) [ ..X.X.[ ) { =.1.<.} { } { ) U ! G G F Z r U ",
"f r M F B F F M n ) ! I ) [ E A A } 1.2.{ { ^ K I ~ ~ U Z C Z p n W ~ ~ ~ m B U } <.1.1.1.,.| 2.6.5.1.2.&.:.o.} ^ | %.@.Q c 4 Z ",
"s r v F ! ! W F Q W I I ' ,.U A !  . .} =.{ ^ ] ^ [ [ U C C A C n B C B ~ E T U ,.<.,.1.1.,.,.,.,.,.,.2.=.2.| | [ { @.! D c 2 d ",
"s 2 v V M M M C o.) I I E X./ E .. .[ E ^ I M T T U ] W Z A A C n z M B ^ I K P ' ,.,.X. . .,.[ I ' ,.<.=._ U [ o.&.=.{ G z 2 f ",
"K r z m m M M A  .U U :./ ) ' ' [ } o.^ [ I M K U I N N m m C C f m m M ) E N K ' ' ' ' R [ R E T ~ ~ { E T E { =.=.~ | I c e Z ",
"I z n t 2 l B B B B Q o.T N T K T ] ..W I B m B Z U C C f m p f d A A A [ } Y J / U Z A / R L U ~ ) Q R I Z U ) ` Q F N f v y I ",
"m < z k ; r v M m M I U N n N j m I I N y r p m C A m U U m m c Z Z A f E U f d L L P J L R P Z T P m Z U U ) U ! A F M n c 3 G ",
"B $ 5 k k k z M M n m T d y d f p m N n y y p n f P P Z R P Z p d C f p j Z U J j j J j h P Y N Z Z f f N Z U Z U A C l S p : C ",
"m - r v B M n z n y g N d y n N y i B N y y y m j N N Z Z U Z p d m s J P N Z J s j p J P j h Z j s N f J Z [ T Z Z A c A f & e ",
"N = y x v m m d y p j d d f j N d s Z d y y y m Z Z d c m m y f d s g P Z j j J h N Z L Z N j p f f f j j j A U T B N m C i > s ",
"T 7 e z m B B m f N N j f p d f f s r r m j i d Z Z m Z N f i j s i i f f i s d j j f A Z m Z Z d d Z j s d Z Z I T N f f i 7 U ",
"j > e n A A U T I Z P A m z N Z Z d p p I I Z A Z U Z U I P n N i d j j f j N j d f d f Z C A A c f j s i f Z Z I T I f f j 9 j ",
"f * r W I A E T ~ E U W F B f m f Z C m f C A F A U I I Z m n f p j Z N N N f f N Z f c m n A A C f d f m m C F I I I ~ A u 8 N ",
"p 4 k m N W ~ Q U ] ^ U _ I m c m C Q ! G G A H ( ) / G W I m M C Z U A Z A m n A N B F W A F I A n m Z I U A ! ^ ~ %.T y k 3 m ",
"m y m n ~ &.%.Q W O.@.~ ^ ! G G H C G ` +.@.G _ ` { &.| ^ _ ^ W ! G } :.Q ~ ) I I A M Q o.) [ ~ A ! W U ~ Q Q | { } =.W m m r m ",
"z s ~ Q =.2.&.+.! @._ >.@.! G _ _ G ( -.#.-.@.&.! _ -.o.%.{ ^ _ G ) { { ) ) Q U A Q F ! _ ) =.o.I ! _ _ Q _ ` { &.=.=.=._ B e B ",
"p f ! _ %.2.2.=.@._ %.:.` ( ! _ ( ( &.-.+.@.&.&._ G _ ` =.| @.` | >.o.) _ { ) ) ) ) ~ ! ) ` =.^ A Q A ! &.&.| o.=.:.*.=.=.B r B ",
"r u V O.+.*.2.@.#.*.=.&._ ( _ _ ( _ &.#.@.@.` #.` _ ` ! =._ ^ @.<.4.2.o.| } { [ ) _ [ ! ( | :.[ W A W W Q ^ %.{ &.2.=.>.,.V k n ",
"r r v D O.+.{ +.! _ ) @.( ( ^ ! _ ` :.o.@.G F _ &.o.Q ) o.Q Q _ { &.=.[ ) ) ~ { ! U Q ~ ~ &._ ! ! _ &.Q F F ^ ! { =.=.2.,.A u p ",
"r y z M F ^ W ~ ^ Q A F F I ! F _ | o.&.( G S G ) ) A ~ ~ W A ^ W I Q A Q ! U [ Z C U ~ Q ~ U / &.o._ W F B A Q ........%.K y n ",
"k < r z v Q ..^ ! Q _ ^ U ~ A B I ) | [ _ G Q U A A A Q I Q C A B _ ` I Q Q I I U f C Z ! ) U ! ` Q ! Q ! Q W I ~ ] ....~ z w m ",
"y w k t e ! o.o.! Q Q ..^ Q B B m ^ E _ ~ Q ) A C Z A F W F C B ^ %._ Q I W N M F Z A U ) } ) ` } F F ( ( ( ( Q ( / ) Z s u 2 k ",
"u * k n p U { ^ ~ ^ Q } } | Q U A ^ W ^ ~ ^ } ) Q F C F G G A _ ) { ^ Q C W m B F G U F U } [ { ` ` ! ` _ #.:.:.` G G U Z p 2 c ",
"k 1 x D ^ { =...o._ ! %.| =._ ! ! F ! _ _ | o.:.3.:.&.o.G G &.=.{ &.>.| W F ! @.( ! ` ` ` :.o.:.-.H ( -.-.;.;.-.-.H G #.Q u 2 C ",
"z r F ! %.=.=.&.3.=.&.*.=.2.&.! _ _ =.` &.&.=.3.9.6.7.3.Q W *.=.&.=.:.%.! Q _ { ( ( &.=.:.8.>.>.-.-.-.-.>.-.-.#._ _ ( _ F c 3 u ",
"z 6 S O.! @._ =.2.2.2.=.:.:.=.o.%.! ^ _ %.=.=.2.2.:.:.:.| ` @.&.^ ^ _ ^ Q W ! Q ^ @.@.&.:.>.;.$.-.-.@.@.-.@.` _ ` #.( H D l 5 k ",
"z 5 b O.$.*.=.2.2.2.=.@.4.6.2.<.o.^ ^ _ { &.&.&.&.| #.@.{ { @._ Q W ^ _ Q W ! ) { &.` ( @.&.#.#.-.#.+.+.+.( ` ` _ ( H S b 6 1 z ",
"x k S +.=.8.4.,.&.&.%._ 3._ ` } ~ ^ _ =.{ { | _ _ _ -.( Q ^ ! ! F _ _ ^ F Q ^ ~ ^ =.@.@.#.` @.#.` #.` +.-.-.( ! G G ( F G b 3 l ",
"z k D ! o.o.2.2.&.#.=._ ` _ Q ! A F ] { Q ! ^ ` #.Q ` Q F ! Q ! W &._ _ A ~ [ W W _ ! @.@.@.@.#.@.+.-.-.-.S H G A G C ` ( k 4 z ",
"z 3 b M f ( =.} ! | } ` Q &.( ) ~ A U Q Q Q ! ~ ^ Q W B A W ~ Q ! ^ Q W A E ~ W A ! Q F F F G G G ( +.-.G C C C S M b m e 3 < p ",
"u 1 6 c M S ( U A Q W ) A ! { ) o._ B A I ^ I I I A m m N B E I M B A C n I T I I Q Q A B C F F G G Q F C F F C v v C u < $ $ c ",
"c , 6 G G C F C B W ! F m Q <.) | I m Z U Q A Q I n m B B m m B B B A m u B B B W W A A I I Q ~ G Z Z Z Z G C Z c k c z 5 : + c ",
"c < z S G / A G A W W B m C )  .~ p n A E I A Q I m m n m m B B n z B B n n B F W A m W ^ Q G ! A p f A G A G F A z z k 5 < O r ",
"k ; l D G F A G C F A C m n A U A c p m I E W Q W A N m N C C m B m m B C M F F Q Q C ~ T ) ^ E Z p c G C F A C C v c l 5 < + k ",
"m 1 v Q C S F A W B m F F m A I C m m m C Q Q ) [ _ Q I C C A B B C B B M B W ! G G A ^ ~ W ~ A A Q ( A Z Q C A m M M l 5 : : M ",
"F y B B S F +.! Q W C I W A _ F m m p C Q G I A Q { Q C A B C A A A Q F B C Q ! F Q ` _ ! ! ` I C U G f f A G G C C S v k 4 : u ",
"F r m W ! H ( ! Q ^ ^ ! Q ! G F A B C G F A C C B U A B A F F G Q F F W ! +.@.=._ { _ Q ( &.` _ G ! Q F C F Q ( H H +.( F 5 : l ",
"V 5 l M B O.O.+.^ %.=.W ^ ^ V A W B F V M B V W B W W B F F F F F F F W +.$.>.2.>.>.` ` ` -.-.-.~ _ #.) A F G @.+.+.Q m z 3 ; r ",
"F w c B F O.+.+.O.^ ^ ^ +.! W Q ! ! F W Q D F ^ ^ ! +.B C C F ! F S F F ! @.*.=.4.>.&.! ` ` -.$._ ( ` _ ) ( Q Q ( H F V M r < x ",
"V y m ! G G O.&.^ O.^ W Q Q W W W +.Q M F ! W W Q &.&.%.! F F ! ! ! O.F B F H Q ` -.) G } ` -./ ! ! ` ` } o.Q Q Q ! ( +.W n e v ",
"V ; m W ^ ~ O.O.Q @.^ Q O.! Q Q F F M M F ! ! ^ ^ %.@.%._ H F ! @._ W F F F C Q ! ! ! G ` -.( ( ) ( H Q ! ` G Q A H ! D V z r V ",
"A e m E ] +.F F B ! ~ ~ %.Q B B m z z B A F Q _ _ ^ Q ! F F C W %.! Q ~ ! A C A C G _ U ( ( G G #.( C U W G F C B B O.W B k w Q ",
"V r z B W ^ F B B B [ ] o...B M p z m m C C A Q ^ Q Q F M F A C Q A W W W A m m C C ! ) U ` A C Q Q A C A A F c M F ^ F x n 3 B ",
"n - k m K W W u B W W ] =.K n n f m p m p u A Z B B B M C W C m m m n m Z m m Z C C A / / / Z C C A U Z c m F Z m M W B v m e n ",
"y - r B A B n r W ~ K K B u p c u p p i e r C A M m z M m M n p y z y y u u p p p Z U / / f C G _ C m C A m Z C T B m I M r - n ",
"N * e p t z u f K I P N N n n z d p p r 8 e p A A Z p p u p C Z n y e e w y u e p p Z Z Z A / / U p u Z U Z n c I N y w t e - m ",
"W $ r - ; r m P J N j N N m n z p f f e e 9 p Z Z u r r u p f f y 4 2 w e w e y f Z m m Z U / N p 4 d A Z j p m n f d y y 2 & B ",
"M + 2 r 3 r p f P j P P d y i N j j d i e t r e 4 4 , e p e e e y 8 , , , 4 e e p Z Z m m m G f z p n P j s j Z j y j d p 8 % N ",
"p % 8 y s r i f K j j s e w w t i i h s s i 8 , p 4 , 2 r e 8 , w > , 2 , e e f c Z j c f i c p 6 f d p d d d f s f f s y 9 & u ",
"p % - d p , p P K j f s w - , w s t 9 i a s q 4 t e e e r e e 2 , , , 8 e e e f Z d p i t p f u t p s i s d d N Z J Z f y , & r ",
"M * r z u p f f d t s s w w i y s s i a s i q 4 e 4 4 t e y r e e 8 8 e e 9 e i d j Z d u C f f f f i q i i s f Z P f m c : X 2 ",
"C % # ; r d p d s 8 p d w ; y d s i t q q p t t t , t 4 p y p e p e 8 t i t t q i s j i 4 i p f s i i q i i h J J f p e u < @ m ",
"W O   - 8 i s y 9 e p m p r e w 4 4 e 4 , t t 4 4 4 t , 8 p e e e 8 8 e i i t y i q j 4 > i f g a q q s j j j j Z p p p e & & ! "
};
