/* XPM */
static char *result[] = {
/* columns rows colors chars-per-pixel */
"64 64 128 2 ",
"   c #3B2D23",
".  c #3F3127",
"X  c #3E332C",
"o  c #3F3631",
"O  c #3E3833",
"+  c #472F21",
"@  c #433125",
"#  c #4C3425",
"$  c #44352B",
"%  c #4A372B",
"&  c #46382E",
"*  c #4B392D",
"=  c #533D2F",
"-  c #413730",
";  c #443A33",
":  c #4C3D34",
">  c #463E39",
",  c #493D3A",
"<  c #513E32",
"1  c #4F4037",
"2  c #46413E",
"3  c #4D433B",
"4  c #534136",
"5  c #594436",
"6  c #53453B",
"7  c #59463A",
"8  c #56483E",
"9  c #5B493D",
"0  c #614C3D",
"q  c #474240",
"w  c #4D4542",
"e  c #4F4946",
"r  c #4A4748",
"t  c #4E4B4B",
"y  c #514641",
"u  c #544A44",
"i  c #5B4D44",
"p  c #544E4B",
"a  c #594F49",
"s  c #5E5046",
"d  c #56514E",
"f  c #5C524C",
"g  c #524F51",
"h  c #555353",
"j  c #5B5552",
"k  c #5E5955",
"l  c #57565A",
"z  c #57585C",
"x  c #5C5B5A",
"c  c #614F43",
"v  c #635145",
"b  c #695445",
"n  c #63554C",
"m  c #69564A",
"M  c #65584E",
"N  c #6B594D",
"B  c #715C4D",
"V  c #615751",
"C  c #645B54",
"Z  c #6A5D54",
"A  c #635D5A",
"S  c #6A5F59",
"D  c #725E51",
"F  c #76614F",
"G  c #676057",
"H  c #6D6156",
"J  c #65615D",
"K  c #6C635C",
"L  c #736255",
"P  c #786557",
"I  c #72655C",
"U  c #79675A",
"Y  c #75695E",
"T  c #7B6B5D",
"R  c #5C5D60",
"E  c #635F60",
"W  c #5E6165",
"Q  c #646262",
"!  c #6B6662",
"~  c #6D6965",
"^  c #64676B",
"/  c #696769",
"(  c #67696C",
")  c #6D6B6B",
"_  c #716761",
"`  c #746B64",
"'  c #7A6D64",
"]  c #736E6A",
"[  c #796F69",
"{  c #6F706D",
"}  c #7D7166",
"|  c #75716D",
" . c #7C736B",
".. c #7F786E",
"X. c #6D6E71",
"o. c #716D71",
"O. c #757373",
"+. c #7B7672",
"@. c #777876",
"#. c #7D7975",
"$. c #75767A",
"%. c #797679",
"&. c #76797D",
"*. c #7C7B7A",
"=. c #816D5B",
"-. c #806E61",
";. c #817365",
":. c #81766B",
">. c #83796E",
",. c #887C6E",
"<. c #817770",
"1. c #827B74",
"2. c #897F75",
"3. c #837D7A",
"4. c #878076",
"5. c #888077",
"6. c #85817D",
"7. c #8A837B",
"8. c #7B7E81",
"9. c #7E8184",
"0. c #7E8389",
"q. c #838383",
"w. c #8A8682",
"e. c #8D8984",
"r. c #81858A",
"t. c #878A8C",
"y. c #8B8E8F",
"u. c #918C84",
/* pixels */
"M > 2 6 u d A a e u f f s n f f f j i w i i w u u 8 8 3 3 ; X J C X . > 3 u i w t d l h t d d k h r r t d h t l d d a a 6 & O G ",
"s & & 3 a a f a f j C V p d f s s d y 3 3 d f h p 3 3 3 3 & $ ~ x   @ & 1 w 3 w u r r s h u h x h t t g k z z z d d a s 8 & . M ",
"s # # : 5 9 c c c f j d u p p a u u e w e y d j d 7 4 1 3 $ $ ! J X & 1 8 i 3 u t p t d d p h f h g h z W R W ^ J k x f 8 % @ v ",
"n @ % 4 5 7 u i n j p d C f d d i u u i d d d j k 8 6 6 : . o ) Q o $ 1 e i i u u p d u d d d d d p z g l W x z Q R G j 9 1 & M ",
"C @ & , 7 9 8 i f A C j A k j A f f i f s A l j j s u 6 4 $ o ) / $ - 6 s s 9 8 u p j d h j j h h a d x j l x z x k k a 6 4 & G ",
"S @ ; 4 5 i 8 u s f C C k ( { A s f f f d j Q x f f n u u : - X.( . % 8 i f 6 1 6 d p j z x C j j j f R x x J J G s d s 5 % # Z ",
"C $ , u a i a a s w w s G J ) ~ A f f d j p j A G C s a i 3 & Q K . @ 4 a n s u d j h k J R A j j k j j C A J k j s s s 5 1 $ H ",
"A ; : u V C C d f d w u J x ! ~ Q C C Q ^ Q J Q x p 6 9 9 < & K K & * i v b a d A l A J Q Q Q k k f j J J J A A G j f f f 2 1 { ",
"Q , u V S S C S C s d C ! C C A K J K W Q ) ~ C J C v 9 9 1 & G G * * v n n V ! ! ( ! ) ) ( ~ K S A K ~ ! ~ C Z ~ x f f u y 2 J ",
"l , a / ` I E E A ! ) ! ! A K K G ~ ) J Q ~ J K J ~ H M s 1 1 G K * * f Z v A ] ~ ] ( X.X.| ) ~ / / Q ! ) ) Q K K H G M 0 s 3 ) ",
"E w S ] ` _ ` C ] | ] ) | | *.#.| ) ) K G ! ~ S C ~ ~ H M 9 1 G I : 5 f Z Z S K K ] ~ o.$.$.| [ ] / ~ ! ] ] ] ] Y H H H N f d ) ",
"K u ! ` K _ C V ) ] ] ] { { 8.[ ] @.@.| K ! C C ! ! { K M 9 4 I K 3 s _ _ Z S ! ] O.%.8.%.$.|  .8.0.9.%. .%.+.| ~ ' Y Y _ C u / ",
"k u Z I I K K C C ] | ! | O.) K I %.9.0.+.<.' S K ` ` H M 9 4 H L 7 v I ` N Z ` @.9.0.r.0.8.@.q.t.r.r.6.1.6.*.@.] 3. . .` n 8 J ",
"h i Z I ` ' ` I ~ I _ ! O.8.! K ] $.%.@.3.| ] O.] +.| _ M 8 4 H M 1 0 N Y K ! ! 8.8.8.r.0.8.9.8.8.8.8.q.2.q.@.@.%.+.;.' T m 6 k ",
"j 6 N D S Z Z H *.| ! K ( &.X.) %.$.o.] o.E S / E ~ ] S v 9 3 H M % 5 0 U ! A Q X.$.8.$.$.$.8.o.! ) 8.3.3.+.) | *.1.3.1.` v 6 k ",
"E a V n Z D Z K $.~ ~ 6.| | X.X.O.%.3.| | ` Z E ] S M m 0 5 4 I ` 4 4 0 P ! A A ) O.X.X.( o.X.) ) ] O.O.) ! ) | 6.3.| %.I C u Q ",
"! f Z Z c m Z A K S _ *.) C ! ^ Q o.%.` S S A K K K m m v 5 * K ) 6 i V ` ] ! R { / A K { ( Q / ] ] ) ~ Q ! ] | +.[ ` ' _ N s ! ",
"C 5 n N 0 0 n Z C Z ! / S V A j Z / ! A a a f V C K C L G 8 : x K < 9 c Z K M f x W Q W W ( Q J ! / C J ~ ! ~ ! [ L Y Y K C 8 I ",
"A : 9 b c v n Z C V A / j a j j f C A V u a s j C Q J G K u 3 ~ ~ : 4 9 m m H R x R R x x W ^ A Q G x k x K ~ J K I K m K f 4 H ",
"C : i N Z Z C V V a j A h d C A a d S A s p s C x A C M n i 4 _ _ : < c n n G x h k f R Q x z J k j x k R J O.~ J J G m I f 1 u ",
"A , u b Z C k n s j A x j k k A j j J j d p a C Q G j v n 6 & j G ; 3 k G j x x k A Q Q J x x d k x x x k x ~ / ! ! A C G d q j ",
"! q p V C S A C j C k x j j j j l d s u A C f j G K k G n 1 $ s M O > s j i f j R x x K A A I G f k J k h j J G ! Q E k j d q / ",
"x 2 u C ! K ~ ! ! J Q K C C K J J j f n ! ! G J J K K K m 7 % s f & 4 i f C k k h k j j A H G ! k f z j j j J G ! ! ! C C k e x ",
"k : i H _ K ] ( ) ) ~ ] H Z k j x G G G j G I I K ~ K K f 7 : A C : u n k G k k G J C M C C K K G C x k x M K I ! / ! _ K f 3 J ",
"f 6 b Y ' ` ] ` / | [ )  .I A M C H ` } I Y H Y  .| ` Y H s 2 A v , f C Z S C V K A Z K ` K ` I G C C A ~ ~ K } ] | 3.<.D m y C ",
"A a C I <.3.<.' I ' :.` ] ] U Y T H Y  ...>.Y .... .1.+.I N 8 Z f 4 N  .` Y ` _ K K H ` #.] | o.K ] _ ~ ~ ` _ 1.| %.3.[ S Z i C ",
"V j ~ ` 3.9.<.:. . . .7.:.} Y  . .Y } 4.:.,...,.}  .,...T m 5 K A 7 m P U ' ` ! I _ I ` +.+.*.1._ '  . .]  . .@.3.3.3.3.[ S u S ",
"s V [  .<.w.q.3.:. .<.6.:.} }  . .} 1.4.:...1.1. .I ' } ' N 9 K H b Z L ' [ [ [ ' ] ] [ |  .3.] K _ I } >.1.+.3.3.7.2.3.3.S i S ",
"a i L =.:.3.q.<.>.2.3.1. . . . .'  .3...:.:. .#. . . .'  .N 8 Z _ C _ '  .+.+.|  .| O.[ } 1.6.| ! K ` I ] ' <.+.3.q.3.w.8.I c V ",
"i i N P -.;.<.;. .} } :.} } ' ]  .:.6.#.:.Y I  .1.:.`  .| n 7 ` _ c D D Y [ ] | } ! ` ] { #. .[ ] :.1.` K I ' ] +.3.3.6.8.S a n ",
"i u n Z U ' ~ ` [ ` K I K I ] _ +.#.3.1.} Y I ` | ] K ] ! v 4 ] [ 5 c N L ` ` o.! G ! ] I | ~ ] 2.1.| ` I K K ` O.%.%.%.3.E a V ",
"s 4 v n N ` %.[ ` `  .] ] ~ K Z K O.+.O. .Y Y Y K Z H _ Z c : n K i N N D I ` ! K C G K [ | ~ |  .` ` ` ' ` _ ! [ o.%.%.` n y M ",
"i 6 n Z M ' *.%.` ] ` +.] ] K S Z ] ] | ] ] | G H K K K H 9 1 M n i m D D K S C I G K ~ | @.{ ....Y Y ' }  .' ` { ` | O.~ f 4 s ",
"v , v D S ` +.O.] [ ` %.+.+._ I H ] _ [ ] ] *.| _ I H I I M 1 M V u V D Z D C Z I Y ~ K ~ @.@.O.@...' } ..:.4.6...Y I  .] s 6 m ",
"f 7 m Y ' %.1.+.*.:. .+.1.6. .` [ I ' <.} +.3.6.w.6.:.:.K v 0 I Z c U ` D D ' -.T T ......6.3.4.4.} } 4.4.4.7.4.4.} Y ..~ s 8 H ",
"v i L ' <.3.3.3.q.3.:.3.6.6.3.]  . .5.+.:.3.3.q.y.w.7.4.K v v H Z c L T P Y [ ;.} } 1.5.6.u.7.7.4.4.4.4.7.4.4...>.} } ..I M 8 s ",
"n 0 P T ;.;.+.3.q.q.3.3.6.4.3.3.<.'  . .<.3.3.6.q.3.>.2. .Z i K M i C _ I ` ' `  . .:.1.4.7.5.2.4.4.....>.>... .....} T P m 7 v ",
"n 9 B ;.>.2.3.q.q.q.3.:.t.t.q.9.*.] ' | +.1.3.1.#.1.;.:.] Z 9 C V , N ' ` _ ` ]  .1. .} +.1.:.>.4...>.;.} ;....... .T P B 0 5 M ",
"M 0 P :.6.e.q.q.1.+.2. .w. .| +.[ ] +.3. .+.*. . . .>.T Z b 5 C V i N S D ' ' _ ' 3.:.:.1.:.>.>.>.4...;.4.4.;.' Y Y } T U N 7 b ",
"M s U U 3.3.q.9.1.1.2. .....' ' K K +. .` '  . .:.` :.U N v 4 M M c N _ D ` [ ` `  .'  .:.:.;.>.;.;.>.4.4.L T Y H I H } } M 7 M ",
"M 9 F T } ..*.@.| +.+...] :.[ | ` ! / ` ` [ ` ` [ ` I Z m c u K V u m Z Z ` ] ! _ ` ` Y I Y Y ` Y } :.4.Y G H I H H L I b 9 5 s ",
"s 5 0 L Y L } ~ K _ ` | I [ ..| 1.| S K ! ` ! ` ! K C V V a r H I 3 a V n K / S K ] ` S Z H I K I I } ` H H I G M H H N 9 5 * M ",
"M 3 0 I I H K K Z _ ] I A ] 8.| *.! A G ! ` ! ` ! V C Z C u 2 K H 3 i v a Z S Z I ! K K I ! T ] I G x G K Y K G M s M v 9 4 * M ",
"M 1 M L I ` Y Y K Y _ K M G | $.] f n K ) ! K ` K V C v s u 6 ` K : u m n m Z H I I A _ ] ` Y ] K f f Y ~ I Y K H n M v 0 4 & 9 ",
"s : b P Y Y K Y S I K Z C C K ) K C f M _ ] ! ] K K Z b f i 3 ~ ! : 7 m N n L I Y ` H ] ! ] ] ] J f C I H Y K H H M M b 9 4 % v ",
"m 6 Z _ H L Y K _ Z C I H C K I A m A C K ! ] ` ]  .L m M 0 6 ] K : 7 b m m Y ` Y Y I ] ] ` | K K { ' I J ' H K G G B v 9 1 1 G ",
"I s K H U U } [ ` ` H I ` K  .I H C j H ' I I K _ } L N b 9 4 ! K < 0 B B B P ' K `  . .[ '  .! G ~ Y G j K Y Y H H L L M 8 1 v ",
"I s H H T T } ` ` [ ' ] _ ] ` I Z A G Y I H H H K I H N H 9 4 m a 4 s Z U T -.3.| <.+.' ' 1.1.| I ` ] H G K ' } T T =.=.I 0 4 s ",
"H 9 m T -.-.-. .[ 1.3._ [ ' I S _ S I D S S D _ K I S D H c : n n 6 a D -.;.2.2.7.e.......4.7.4.} }  .| K K Y :.;.;.' U P 0 < c ",
"H u C T -.' ;.;.' ' | ' :.` ' ` ' ' U I Y I I [ ` ' ' D N 0 4 C n , v Z ' ;.,.<.6.e.1.' ....1.....} 1. .| | ` ' } T I T P i 3 b ",
"S i Z Y ' ' -.2.;.;.' _ ' ` I _ ` [ ' S I ' _ ~ _ <.:.;.L 9 6 K S i m D D S U ` :.2. .Y ..1.4.} ] '  ...+.3.` ` _ } :.;.I j u Z ",
"D 6 V ` [ ` -.-._ :.[ ` ' _ ' _ _ I M C I ' ' ` ] <.:.;.U v 6 K H 6 v D _ D Z Y ' ' ' ~ ..1.} } }  .T [ [  .I ' ! Y T I L m i Z ",
"K u C / o.[ _ I I ` ` ] 3.` S S V n V Z K I `  .<.' Y Y D a 3 ! ) u n I ` S D S H Y  .! } ' ` Y :.} K _ _ Y I L Z I ' I S c y ` ",
"Z i n S _ ' S S S K O.o.%.+.S M f V C Z Z Z H ] ' S Y D N i 3 I H 3 n ! _ D C S Z K ]  .! ..K G ' ` K K H K K C Z S  .I m n y S ",
"n 4 i S _ _ ` a A ! / ] %.! C V V S d C j s K K S S D Z m n : J K : 6 f C M C A Z K K | { { G G H H ~ C C C K H V S ` S Z C u V ",
"a , a Z S S C i I ] A ! A a n V f s a d s u G K S M V Z n u : K K - , i a s n f V C ! { { G K ~ | G C K K A K G Q K Z S D a , n ",
"S : i S Z n s x J Q Q J A n V n j a d u u y f K Y M M f 9 1 3 ~ | : : 6 8 u a 6 f j G G Q G ` { ~ f f J ~ J V M ! A j v V a : C ",
"_ * i i 9 s C J R J x x A A C f C k A u u u s S G s 8 8 5 1 * | O.. $ 6 8 4 9 d k J k G G ~ { G f 8 f G Q x f A A j V f n y ; K ",
"S $ 6 i 6 i f C Q R Q J j a f A k z x p e u d u u 3 3 5 5 # @ K K @ @ * = 4 8 u d G G G G G K k M f V Q x j k A j h x j f w - A ",
"v - w a d i d x A x x j u 6 w p p h j h g g y w f 8 3 4 6 * @ f j   @ 1 < 7 9 f G x x M k f k f 8 k j d k f k C j j j j u e ; s ",
"j - , j d 8 d J Q x j h w , 3 y d t u p d h p e u u 8 8 8 & . j x   + : 4 4 9 s M k M f 8 j x 8 f f j d h j h k G R G k d 3 & a ",
"Z : u n s f j j j t j j u y a d h h d h h d e u u 8 u 8 7 * @ H ! @ + 4 8 4 y a s k x j f G G M k k h t h d x j Q J x G C 4 . 8 ",
"H ; % 4 s j f x h w a j 6 , a j d d p e p d u u p 3 u 8 8 * & G ~ . $ 6 p u u u d h x d 8 d k j h d t t d d z A R x f u f 4 $ C ",
"_ O . : y d d s y r d C n i u y e 8 i u 3 p p 8 e 8 p 3 3 3 ; K K O ; w j d p p h t x 8 2 d k h h t t h x x x l J f d s 8 1 $ [ "
};
