/* XPM */
static char *result[] = {
/* columns rows colors chars-per-pixel */
"64 64 127 2 ",
"   c #3B2D23",
".  c #3F3127",
"X  c #3D332D",
"o  c #3D3632",
"O  c #3E3833",
"+  c #3F3A38",
"@  c #472F21",
"#  c #433125",
"$  c #4C3426",
"%  c #44352B",
"&  c #4A372A",
"*  c #46382E",
"=  c #4B392D",
"-  c #543E2F",
";  c #423730",
":  c #443A33",
">  c #4C3D34",
",  c #453E39",
"<  c #493E3A",
"1  c #503E32",
"2  c #4F4037",
"3  c #47413D",
"4  c #4D433B",
"5  c #534136",
"6  c #594537",
"7  c #53453C",
"8  c #59463A",
"9  c #55483F",
"0  c #5B493D",
"q  c #604D3F",
"w  c #474240",
"e  c #4D4642",
"r  c #4F4945",
"t  c #4A4748",
"y  c #4E4B4B",
"u  c #514741",
"i  c #544A44",
"p  c #5B4D44",
"a  c #544E4B",
"s  c #594F49",
"d  c #5E5046",
"f  c #56514E",
"g  c #5C524C",
"h  c #524F51",
"j  c #555353",
"k  c #5B5552",
"l  c #5E5955",
"z  c #57565A",
"x  c #57585C",
"c  c #5C5B5A",
"v  c #614F42",
"b  c #635145",
"n  c #6A5546",
"m  c #63554B",
"M  c #69564A",
"N  c #65584E",
"B  c #6A594D",
"V  c #725D4D",
"C  c #615751",
"Z  c #645A54",
"A  c #6A5D54",
"S  c #635D5A",
"D  c #695F58",
"F  c #705E52",
"G  c #676057",
"H  c #6D6156",
"J  c #65615D",
"K  c #6C635B",
"L  c #736255",
"P  c #786657",
"I  c #72655C",
"U  c #79675A",
"Y  c #75695E",
"T  c #7B6B5E",
"R  c #5C5D60",
"E  c #635F60",
"W  c #5E6165",
"Q  c #646262",
"!  c #6B6662",
"~  c #6D6965",
"^  c #64676B",
"/  c #696769",
"(  c #67696C",
")  c #6D6B6B",
"_  c #716761",
"`  c #746B64",
"'  c #796D64",
"]  c #736E6A",
"[  c #796F69",
"{  c #6F706D",
"}  c #7D7166",
"|  c #75716D",
" . c #7C736B",
".. c #7F786E",
"X. c #6D6E71",
"o. c #716D71",
"O. c #747373",
"+. c #7B7672",
"@. c #777876",
"#. c #7E7975",
"$. c #75767A",
"%. c #797679",
"&. c #76797D",
"*. c #7C7B7A",
"=. c #816E61",
"-. c #817366",
";. c #81766B",
":. c #83796E",
">. c #887C6E",
",. c #817771",
"<. c #837B74",
"1. c #897F75",
"2. c #827D7A",
"3. c #878076",
"4. c #888077",
"5. c #84817C",
"6. c #8A837B",
"7. c #7B7E81",
"8. c #7E8184",
"9. c #7E8389",
"0. c #838383",
"q. c #8A8682",
"w. c #8D8984",
"e. c #81858A",
"r. c #878A8C",
"t. c #8B8E8F",
"y. c #918C84",
/* pixels */
"N , , + , a Z f r i g C d g m g g l p 4 a s 9 i e 9 7 + o % o J G X . X o t a 9 a f j f f f f l j t t y f f y z f f g 3 O % o H ",
"d * = : u s k p g k C C a f f g s d 9 4 4 a f k f 2 4 : : * % ! c   # # O 7 4 e e t y f j i j c j y y h z x x x f f f 7 2 % . m ",
"b # $ > 1 v b v b s k f i s i s i r e 7 i r s k f 7 2 4 2 % % / J X * 2 9 p 7 r a a r a a a k f j j z z W W W W J c c g 0 = # m ",
"m # & 5 6 0 u p m k h s C f g f s i i s f f y l l 0 7 7 2 X % ) W o % 2 9 p p r y a f a j a f f f y z h x R R c W G G f 9 2 % N ",
"Z # % < 7 v 7 p d G Z k J l k S f g p g f l c j l d i 7 5 % X ) / o : 7 s g 9 7 i a f f j k c f g a j c j k c c c k l p 7 5 * G ",
"Z % > 5 7 0 u p g g Z Z l ( { S d g g g g l Q c g g m i p , : ) ~ # % 8 d d 7 2 e g g k c c Z f k k k c c l J Q G g f g 6 & $ A ",
"Z % < u p p s p g 4 u f c J { ! D k g d k a k J G Z d s p 1 % Q J # # 5 p m d i j k j c E E S k l l g k c D S Z k g g p 8 * % H ",
"D : > a k Z Z j g g u i G S / ! Q S C Q ^ Q J J l i 7 i i > * ! K * = d g g d g l k c J Q J J S l k k G J Q S S G l g l g 2 2 { ",
"E , u y s D S S C g a Z ! c Z Z J J K W ^ ) / Z J C p 4 3 2 * G G = % u i g C ! ! ) / ) ) ) / J S S D ~ / ~ Z D K J f e 3 7 3 J ",
"z 7 s S E D D D S ! ) ! ! D K K G ! ) J J ! K K Q ~ G d 7 7 * G K > = 9 b b E ] ~ ) / ] X.O.] / ! ! E ! ~ ) J ! I G Z d 7 d 3 ) ",
"E r S ] ` ` ` S ] | | ] | | 2.#. .{ ) K J / ! G Z ~ ~ H M 9 2 G I = 7 m A A K J K ) ) X.O.$.| ' o.o._ ) ] ] ` ] I A K L B g f ) ",
"J u ! _ I _ Z C ) ] ] ) ) { 8.] ` @.@.O.K I Z Z ! ~ { I N 0 5 I I 5 s ~ Y Z D _ ` +.%.&.$.$.| +.2.9.7.@.+.@.+.| ~ ' I Y I Z s / ",
"l p A I K I K Z k | ] ! | O.) K I %.8.9.+.,.` D I ] _ D M 0 5 H K 7 d I ` M A ~ %.9.9.e.9.*.@.0.r.e.e.0.<.5.*.@.[ *.:. .` m 9 J ",
"j p A I ' ' _ I ` I ~ ! O.7./ K ] $.%.O.2.+.] +.` +.[ _ N 9 2 H B 5 q n Y I J / 7.8.7.e.9.8.7.7.7.7.9.7.<.5.*.@.O.+.} ' U B 7 l ",
"h 7 B F A A A H 7.| ! I ) $.{ ) %.$.o.] o.D A / ! ~ ] D b 0 2 K N $ 6 n Y K S Q X.&.7.&.$.&.&.O.~ X.*.5.2.+.~ O.2.2.2.+._ m 7 l ",
"E p N C Z H A K O.! ` 7.| | X.X.O.%.2.| O.! Z E ) D C B d 5 5 I ` 2 5 q H ~ D E ) X.X.o.( X.X.] ) ` o.O.] / ) | 5.#. .@.! N i J ",
"~ m C i e n D S K D ` *./ Z / ^ E o.o.` J D D D K K M i 4 5 = K ` 7 p i Z ] Q S ) ) J K { ( R ( ] ` ) ) Q ! ) | ..' I D l B g ! ",
"Z 1 N v 1 v B Z Z D ! ) S C S l Z ) / S s s g Z D G Z N m u > S K < 8 8 k H C j S R ^ R W ( ! K / ! c G ! ! ` / | H Y B Z g 7 I ",
"D 1 p n n b B Z Z C Z / k s k l s Z S Z i s d Z S Q S G G s < ! ~ 2 1 0 b B G J c x c c z W Q R Q G c c S J ) J K I H B H g 5 H ",
"Z < p B D Z Z m C s k S k s Z Z s g S D g s d k l S Z M N p 5 _ ~ > 1 p N N G c k S l R J c c Q c k Z l E J | ) J J G Z I g 2 i ",
"Z , p m B Z C C g g l z k l Z S j k J k s s s Z J G k m b 7 * C Z : 4 C G k Z c z c K W Q c c f k c S c l c ) / ! ! S Z G f 3 j ",
"/ w i C Z D S Z C Z S R k k k k l f s p Z l f l G J l G m 4 % d C O , g k s f k x S S J D D K G g l J l j l G G / Q E Z l j w ) ",
"S w u C ! K ) / ! J Q K Z Z G Q J k k m ! / G K K K G G M 8 & s g % 5 d g N l c j k k k G G K K N l c f j l G Z J ~ / C l l e c ",
"k , p _ _ D ) ~ ) ) ) ` H D l l c G Z G C G K I I ~ G ~ k 7 : D Z > 7 N k G l k G Q G N Z Z K J G l k c l C K _ ! ~ ! ] J d e G ",
"g 7 b Z S _ ] _ ] ] ] ] } _ D m Z G ` } Y Y K Y } | ~ c s a 4 D g 2 d f a Z Z C K S Z I _ K K ! J Z Z G ! ) K ' ] [ ,.! g m < D ",
"D s Z Z ' %.+.' I ' ;.` ] ' Y Y T H Y ;...:.Y } ....<.` B Z 7 D g 7 Z I D Y ` _ K K G ' *.] +. .! ` _ ~ ` ` _ ,.+.+.2._ Z B p Z ",
"m j ) ` 2.0.<.[ }  . .6. .' '  . .Y } 4.:.>.;.>.} } :.;.T M 8 A Z 8 m P _ ' ` _ H ' H | +. .2.%.I ' }  .'  .} @.*.2.2.2. .D p D ",
"g Z [ } ,.q.q.2.:. .+.5.:.} ' } } } ,.3. .:.<.<.} Y ' } =.B 0 I H n A L ' [ } ] | | ' ' ] +.2.] K _ ~ ' <.#.2.*.2.6.2.2.%.D p D ",
"s v F =.-.1.0.,.:.4.2.<. .}  . .} } *.,.;.-...#.+.}  .` } Z i Z ! Z _ ' } @.+.|  .| O.' ' <.5..._ K ` I ` ' +.#.2.2.2.q.2.F b C ",
"p p B P =.-.,.-.} } } :.} } ' `  .+.5.<.} T I } ,.,.' [  .m 8 ] ` v F F U  .] | ' Y ` ] ] #.| [ ]  .2.` I Y [ ' %.2.2.2.7.! b g ",
"i i N A U ' ~ ` [ ` K I ! ! ] ` +.#.<.#.} Y K Y  .] I ] ! b 1 ` ' 1 n n I ` _ o.J J Y ] ` | ~ ] <.<. ._ K D K ` +.%.*.%.+.E f C ",
"b 5 p Z C ` %.[ ' ~ } ] ) ` K A ! | @.+...' Y ~ J H J ` Z v 1 C E b M Z F I _ ~ ! l G K [ ] ~ |  .` ` ` ' ` _ ) ` o.%.*.] m u C ",
"b 7 b i i ' *.2.] ` ` +.] ` D D Z ] ] | ) ' } G H H G l g 8 2 N M p n s p K D B H J K I O.@.| ..@.Y Y T }  .| ] | ` | K k d 2 g ",
"s 1 s m m ~ +.o.] [ ` @.#.#.` _ K ' _ [ ] | &.| ` I A Z l m 2 A C i m C m D Z Z Y I ~ I ~ @.@.{ @...T ..} :.3.3...I Y ) J g 7 N ",
"m 7 B I ` %.2.+.*.;.} ,.#.2. .] [ I [ ,.} #.*.5.q.5. .,.H m v H Z b U U F F ' =.T T .. ...5.2.5.3.T } 3.3.3.6.3.3.} Y ..` d 7 H ",
"b p I =.+.2.2.2.0.2.:.2.2.0.<.'  .} 1.+.,.<.2.q.t.q.6.4.L b b H F v I U P _ [ -.} } 1.5.5.y.6.6.6.3.3.3.6.3.3.:...} } } P B 7 g ",
"N q L =.-.;.+.2.0.0.5.2.5.5.2.*.,.' }  .+.2.2.5.0.2.1.1.} D p H B v Z _ _ _ ' ` }  .:.<.5.6.4.1.3.......-.3...} ....} T L n 0 m ",
"m 0 V =.,.1.2.5.0.0.2.,.q.r.0.0.*.[ ] +.,.<.<.2.,.,.;.} ' Z p Z Z < C [ ' U ` [ +.<.;.} :.,.:.:.3.3.:.-.-.} .... . .T P V q 5 m ",
"B q P -.1.w.q.0.2.<.,. .q.....@.] [  .2. .+.2.+.,.} :.Y F M 6 Z C p B F F ` ' ` ] <.:.:.:. .:.:.:.3.} -.3.3.} ' Y Y } I P B 0 n ",
"m m P ` &.2.5.7.2.<.<.} .. .` ' K I o.+.` ' ]  . .Y -.' Z b 5 C C v M ` D ` [ ` _ } '  .:.-.-.:.-.} 3.4.3.L T Y K Y H ..} n 9 m ",
"m 0 V G G ] 2.@.| #.#. .' ,.' | ] K ` _ ] ` ] ` [ ` D s i p u G C 7 b j p / ] _ _ ` _ _ H Y ` ` Y } ..3.I G H H H F F k 9 0 5 m ",
"d 6 q N B Y } ~ H _ _ ] I | ..| *. .G K ~ ` ` _ _ K Z s s p y H I 4 s s i _ E I K ] [ D D H Y H I Y ` Y G I Y H N B H d 5 5 & B ",
"B 2 0 P I G H H D ` [ I Z ) 7.| 2.! Z J ~ ` J ` ! C C Z Z i 4 H D 4 s b v Z D A K _ K K K ~ ` ] I G G G I Y H G B m N n 0 2 & B ",
"N 2 N I Y ` Y Y K _ _ D Z H | &.` g C J ] ! J ` _ C Z b g i e ` J > p n m N D H _ I Z _ ] ' Y ' K g k Y ~ K ~ I H g m m 0 5 % d ",
"b 1 n P Y I I I H I K A Z Z J ) J Z m N _ ] ~ ` _ J Z n m 0 4 ) ~ > 8 m B B I I Y ` H ` ~ ] ] ] G k N I K I H H G N B n q 5 & m ",
"Z 5 Z ' K L I K _ Z Z Y I Z H _ H C Z Z G ` ] ` [ } L V M d 5 ` D - 6 n n B U _ Y Y _ ] ] ] | K ! ) } I G ] H K G A A m 8 2 2 B ",
"Y s A D L P } | ` _ H _ _ G } _ D Z C D ' _ K K ` ' L B m 8 5 ~ J 1 v B M V U [ I `  .[ ' ' +.! G ~ Y Z k H Y Y F F L V m 9 2 m ",
"U p Z ! } T } ' ' [ [ ` ] ' Y I D D G _ I L H G G I A G A 0 5 C d 5 p I T P =.2. .+.+.' ' ,.,.} Y ' ] H G I [ } T T =.} H q 5 d ",
"A 8 M Z D ' =.-.-.2.2._ ' ' F ! _ F _ F Z F A I I U D k i 0 5 m m 7 s k D =.1.2.6.6.#.} ..3.5.6.' } ..| ! H ` -.-.-.` Z m 8 1 v ",
"H i Z A F =.-.-.' ` o.' ;.' _ _ ' ' U _ _ _ I [ ` _ ` m b 0 5 Z m 5 v b F -.>.>.6.w.3.' ....3.....} #. .} | ` ' } ' I H Z v 7 N ",
"D p A _ ' ' =.1.-.-.' _ ` =._ _ ` [ U I Y ' _ _ ` ;.-.-.L 0 7 J D 7 M F I F U _ ..4.| Y ....3.' ' ' } ..@.<.` ` _ } -.=._ C i m ",
"F 7 B ` ] ` =.;._ ;.] ' -._ _ ' _ I Z Z I ' ' [ [ ,.;.-.U n 7 K ! 8 v A _ F Z U ' ' } ` | 3.} } | } ' ' '  .Y ` ! Y T U F m p F ",
"_ u Z ) o.[ _ F _ ` ` ] 2.] D D C m C A K I ` } ;.' Y Y F s 4 ~ ) i b _ _ F F I H Y } ` ' ' ' Y ;.} H ` _ _ I Y D I ' U F b i _ ",
"F p m S ` ' D D D K O.o.%.| D Z g C Z Z D G K ' ` U U L B p 4 I H 4 k K Y F Z S D G ' O.~  .K G ` ' _ H H H K Z B K [ _ C m u D ",
"C < v D E _ _ s D ! / ] %.! B C C D g C g d K K D A D A B b < J K > 7 m Z Z Z Z D H K | { | G G H K ~ Z Z Z K G Z D ` D B Z i C ",
"s > p D ! A C v ! ] S ! D s s Z d f g s s a G K D C N Z m u 2 H K : < i a s C g C Z ~ X.{ G K ~ | G Z G K D K G Q D C _ D p < m ",
"S > p k a b d l S ! Q S D k C g g g f a u i g K Y N d t 3 2 4 ~ | : * : , 7 s 7 f N G G Q G ~ { ~ g g G ~ G N g / S k u y p > Z ",
"_ 1 8 < 5 p Z J R S x J J Z m N l c l i u u g G G d 0 2 2 2 = | | % % > 4 7 i g l J l G G ~ { G g i g K Q c k G S k k i i u : D ",
"A & 7 p p p g Z Q R Q S k s g Z l c z f i a d i i 4 7 7 6 $ # H ~ # # = 1 7 8 i N c G G G G K l g N N Q c j l G k j l k j e ; D ",
"s ; e s j i f c S c c k i e r h f f k f j h e 4 g 9 2 2 6 & # k k   # > 1 6 8 g Z c c N l f N k 9 l k f k k l l k k l k u r : g ",
"C ; < k f 4 f Q Q x k j u > e u f f r f h z y 9 i i 9 9 8 = # C S   @ > 5 6 7 b G l N g i l G 9 9 f k f g k z S G E S G d 4 : p ",
"A > 8 N d m l k k a j k u u a f j j f j j f r i i 9 i 9 7 = # G ! # @ 5 7 7 7 s 9 Z c k f G l Z G c f y j j j l Q E c Z Z 5 # 7 ",
"K ; : 5 p k f l j e a C u 7 b k j a a r r j a i f 3 i 9 7 = * G Q % % 7 a i i i f j c f 9 a N j z y y y f f z S R c g i d 5 : Z ",
"_ ; . < e f g g e r f Z m i i 4 r 9 p 9 4 a a 9 9 9 9 r 3 4 : K K O o r j j a a j y c 9 3 g l c y f y j z c c z S k g g u : : ' "
};
