/* XPM */
static char *result[] = {
/* columns rows colors chars-per-pixel */
"64 64 126 2 ",
"   c #3A2F28",
".  c #3E3026",
"X  c #3D342D",
"o  c #373534",
"O  c #3D3632",
"+  c #3F3934",
"@  c #3E3B39",
"#  c #443125",
"$  c #4B3526",
"%  c #43352C",
"&  c #4A362A",
"*  c #47382F",
"=  c #4B392E",
"-  c #593A26",
";  c #533C2D",
":  c #5C3E2B",
">  c #423730",
",  c #443A33",
"<  c #4B3D34",
"1  c #453E39",
"2  c #4A3F38",
"3  c #523E32",
"4  c #5E402D",
"5  c #4E4037",
"6  c #4D423B",
"7  c #544136",
"8  c #5C4334",
"9  c #53443B",
"0  c #5B4639",
"q  c #57483F",
"w  c #5D493D",
"e  c #62422E",
"r  c #634633",
"t  c #694732",
"y  c #664836",
"u  c #6A4A36",
"i  c #614738",
"p  c #644B3C",
"a  c #6B4D3B",
"s  c #714E33",
"d  c #714F3A",
"f  c #6D503E",
"g  c #755236",
"h  c #785337",
"j  c #74523D",
"k  c #7A553C",
"l  c #7D593E",
"z  c #474442",
"x  c #4D4542",
"c  c #4F4946",
"v  c #514740",
"b  c #544A43",
"n  c #5B4C43",
"m  c #544D49",
"M  c #5A4F48",
"N  c #5F5046",
"B  c #56514E",
"V  c #5D524C",
"C  c #5D5652",
"Z  c #5E5854",
"A  c #624E42",
"S  c #694F40",
"D  c #655145",
"F  c #6B5243",
"G  c #64544A",
"H  c #6B5649",
"J  c #67584E",
"K  c #6C594D",
"L  c #735542",
"P  c #7A5641",
"I  c #755946",
"U  c #7C5A44",
"Y  c #735749",
"T  c #745B4B",
"R  c #7B5D4B",
"E  c #615750",
"W  c #655A53",
"Q  c #6C5C53",
"!  c #655E5A",
"~  c #6B5F59",
"^  c #725E52",
"/  c #795F51",
"(  c #7F6047",
")  c #77614E",
"_  c #7D614D",
"`  c #6F6057",
"'  c #65605D",
"]  c #6C625C",
"[  c #756155",
"{  c #7C6353",
"}  c #7F6955",
"|  c #75645A",
" . c #7B665A",
".. c #76685F",
"X. c #7D695D",
"o. c #6C6661",
"O. c #706762",
"+. c #746962",
"@. c #7D6C61",
"#. c #7F7065",
"$. c #7D736B",
"%. c #805B3F",
"&. c #825D45",
"*. c #825E49",
"=. c #846146",
"-. c #886246",
";. c #84624C",
":. c #89644D",
">. c #836552",
",. c #8A6651",
"<. c #856954",
"1. c #8A6A54",
"2. c #806759",
"3. c #836B5B",
"4. c #8A6D59",
"5. c #87715E",
"6. c #8B715C",
"7. c #826E62",
"8. c #847164",
"9. c #897362",
"0. c #84756A",
"q. c #897768",
"w. c #87786B",
"e. c #89796E",
"r. c #847A72",
"t. c #8A7D73",
/* pixels */
"&.# $ : e e y y r r t y u u t e e e - - : : - 4 4 4 4 - 7 # . ) ( . * ; e y a y S S S S S u p S D S S S S n n D i r e r ; & & *.",
"=.% % ; 8 8 8 8 i t y y u y t : - : - : - e e 0 r 4 7 4 4 .   ) ( . X 5 0 p y u d S u a S u S G G D D D H S V A i r 8 8 7 , & &.",
"l X o 5 7 1 3 7 q u a a u r e e : - : : e 4 r p p 8 7 - - .   } ) % * 5 w r r f S L S S S a S a S G G E W H V D S i i 0 9 , > &.",
"h X o 5 9 5 3 8 0 a a a S y r r - e : : : e p w w 4 = ; 7 # . [ ) % $ 8 i r u u S L S a p p a p S a G S G D V S A A S 0 9 , % &.",
"U X + 7 9 < 7 y a u u u F S p i 4 4 e : : i D A r 8 8 4 5 # # [ { % = q D i a y d a u d p S a i i t a S p p i i i i r i 9 , > :.",
"%.X 1 9 q q 8 t u u d d S H D i e 4 4 : e p F F r r w 4 ; # .  .{ X 1 m V n w y t d t S S S u a p u a a u i i i i A i n x o > *.",
"&.% < w n A p u u u s u a D G S p y e t f a a F F D q 0 9 % X ..{ X 6 m V D a p S S a S S p u y u p u p i i i i i 0 r i 6 > > >.",
"( , 3 i a D L j t d u u F H D S H p r K ] K T J D p w q q 5 X ) _ * 6 n N D G F L S d d S S S S a u u p a a u u S S u a 3 ; * 2.",
"7.* 3 S S S L k j d L L L L a d F a F | Q T H a K D w n q 5 * ) ( * 6 N D ^ ^ ^ Y T T Y Y Y H L d S d L L S u a F S d u r ; * / ",
" .< 0 S Y L P k L &.U Y L d d F F Y ^ T T R j f Y Q H D D 7 = I ) % 6 D F T / T *. .[ / ^ ^ Y Y L L L L L L F L L a a i n 3 < 7.",
"2.3 A ^ R / R P U / / Y *.T / T T  ./ R U R T L L [ T L G w = h P 1 q F L T >.>.;./ / { / / R Y Y Y Y Y Y Y Y U S S L L A n 3  .",
",.q D T R { R P >.*.&.>.{ 7.+.R R X. .{ P L L j ) [ [ T D v 5 l U 7 D T R I R ,.,.>.2.X.2. .>.>.2.>./ *.*./ R R *.Y / Y F A 3 2.",
">.9 V ^ _ } { L P *.R { 2.@. .P U @.@.3.R R U P R { ^ K G 9 6 l h 9 V [  .[ { >.7.7.7.@.@.@. .@. . . .>.,. . .2./  ./ [ K n 3 2.",
"<.9 n T >.[ / Y R *.&.;.7.@.{ P } 8.@...{ { R 2.R _ / ^ H n 9 P h 7 v ` +. .3.3.2.7.7.7.7.+.@. . .+.+. .*. . . . . .| Q Q M 2 { ",
">.3 p K I L L T @.2.>.R >.@. .2.@.@.| _ R R P / / / / Q K w 5 l l 5 9 V ] 3.X.>.2.@.2.7./ /  ./ / / / 2./ 2.X.2. . .+./ K M v >.",
"X.9 i F L F K [  .R R { { / ..@.{ [ ^ Y Y L L R / T K W V x 1 U { 1 z B ' [ { 2.2.@./ /  .^ ^ ^ / / / 2. ./  .R 2./ [ / Y n v  .",
"<.v n A A D Y T I s L T R P / ^ T Y H F d d U Y I ^ G G n 9 , _  .6 n ! ] | .. .X.| R T [ [ K T Y Y / / / R T R R / ^ ^ D b x { ",
"=.6 c m 6 b p a a d F F d d L S a S a a t d d d j Y H G D q * _ >.6 9 E ' ! K )  .[ [ [ ` ` K F Y K Y R Y Y ^ Y T H W W W b 1 U ",
"( , 6 v v n r y s d d a a a a a r r y r t t t F L T Q E V b 1 }  .5 x V ! Z ] [ [ Q K K J J J K K Y Y T Y L Y D K H W m V v > U ",
"{ , 6 n V D a y t a F S F d u S r r S a t t a L F F D n n x 1 >...5 z C E E J T Y Y f K J D D G S S K Q Q H K K A D V m n 9 = U ",
">.= 5 9 w p p p y u S S a a p a i S S y r y y S H F p 0 q , % ( } 5 6 m J J J J H H H G A A A a D H K D K F S F D D D n w 7 = ( ",
">.= 5 q D D D N a a F F p i a A S i r r S F F H f f D D q 5 % l ( 5 5 n D G F J D D p p i y a A a S K D D A a a a i p w 8 < , _ ",
";.= < p D F K J H L K F u y a G S S u u T T Y Y Q J G V B 6 O ( ( , 6 B G D H L F p p p y r a S a S Y H S S a t a D D p i 7 * I ",
"<.< 6 D Q Q T T / T T I L d L f L L d d F L L L T L H H N 6 5 ) ( 5 m J I T T T I L f f t a S L d L T T Y L F a F F D G V 6 , ( ",
"=.5 m J Q [ ../ 2. .*./ *.U L d d P &.*.R U k k R / R L I N 5 ( l 8 J K ( R R P R I j d L L L Y P U U _ R R j L Y F T J V b 1 U ",
"=.q V K / @.{ *.*.;.,.;.>.U k P U P &.:.,.:.U ;.{ _ { } K N 6 U l 9 C ] } | { { R L k P >.>.;.>.*.*.*.;._ R U R _ { { ^ W V 9 l ",
"=.b J _ 3.8.3.1.1.4.4.4.:.&.&.;.,.&.*.1.:.:.&.*._ ( / | Z B 6 l ( 9 Z ] ....} } R R U *.>.>.<.>.*.*.:.;.*.>.<.} >.>.| | [ V 9 U ",
"=.w H [ 3.q.t.9.1.,.4.9.;.*.*.:.;.:.,.7.*.;.>.>.>.;._ Q ` V 6 k l b Z ] ..X. .} { ;.;.:.>.>.>.,.;.;.&.;.;.>.2.2.>.@.@.X.{ D 0 U ",
"l 9 V ~ ..@.7.3.,.4.4.4.;.&.;.:.;.,.4.,.&.*.;.>.>._ { I K n 9 k ( n E ] X.X.{ >._ >.>.>.;.;.>.>.;.&.&.*.U U :.>.2.+.+.+...V b &.",
"%.6 m W ] |  .{ { _ R *.&.*.&.&.*.,.7.2.R k P *.;./ P R T D 7 l U 6 B ! [ { { { R U R ;.*.>.;.>.;.:.>.*.U P U _ / |  .+...C 9 %.",
"g 7 w H Q [ / / / R P U U *.*.P ;./ / ^ P d d P T I L R T n < P _ 6 b V W I R } R U *.R &.>.} _ >.;._ U P P R ^ { | [  .{ G q l ",
"s 5 V ' ] { ..[ Y T U R R R L d L ^ ^ K I j L P L L Y R K v , g I 6 v V G F R T / R U *./  .[ _ T I P L P j I / [ | ..| Q B 9 =.",
"g 9 C ' ] | ..[ / { *.} R U j j f Y Y T T Y T k f L R U K 9 , g h 6 q C J T ( I R R >.>.@.[ { [ { P j l U I ) R _ } | | ~ b 6 &.",
"g 6 B ] ] { >._ >./ *.>.;.*.L U j k l U ;.<.X._ U U k U U r 5 g k 7 q Q T ) U Y R _ >.>.X.@.X...X.{ U U ( =.} <.;.U U >.T n 9 %.",
"h 9 V ] +.7.} 3.3.>.:.,.3.1.U U l k U ;.=.4.5.9.q.0.#.3.U n 6 ( l 9 V ] o.T } [ R _ <.<.3.7.4.<.<.U U <.<.,.,.1.1.>.;.;.{ D 7 &.",
"h N ] +.X.8.5.5.t.9.1.6.3.3.3.( =.;.>.;.;.1.6.t.t.r.$.8.) m 9 l ( 9 C ..+.} 4.>.( =.<.5.8.4.5.1.<.:.;.1.6.1.1.:.>.>.R _ T D 7 l ",
"j b Z ] #.@.3.q.t.e.9.4.4.8.3.3.;.;._ :.1.5.6.q.t.0.#.X.} G 5 ( l 0 F  .} ;.<.<.;.;.;.;.3.<.>.*.<.:._ =.<.<.1.1.<.<.) | E m 9 k ",
"l 9 Z O.$.$.q.t.r.0.9.<.w.0.8.$.3.;.;.<.1.6.6.6.4.1.} }  .N 5 l l 9 p ) } <.<.<.1.<._ ;.;.*.&.P ( ;.;.;.:.=.<.4.<.;.{ J E m 6 l ",
"l 7 Z ..0.$.$.e.8.<.<.:.<.( <.3._ :.<.4.1.6.6.1.,.;.{ ) J m 5 g h 9 N [ } ;.;.<.>.>.*.*.*.*.&.&.=.;.:.;.1.,.:.:.;.( ;._ K N 6 h ",
"k 8 N ) 8.#.w.0.>.:.;.;.;.R P P l ( <.,.:.,.,.<.:.U _ K V m 5 h g 0 N | [ } >.( U U U *.&.&.&.&.=.;.:.1.<.=.:.;.P l P &.U a 8 l ",
"k 5 m )  .<.5.@.*.2.2.*.Y R I R ( I R ;.:.;.&.&.U U F D D q 9 I g 5 q K T } / U j P j j d j j k &.*.&.:.P &.U P k a f k a 6 5 l ",
"s = c W H H T ) &.P L R L Y T T [ ) P &.*.*.*.P I j f a p 8 5 g k 5 p f F I Y f j L k j d j j P U Y U P d P L d a f D D c 6 + l ",
"h 5 9 D F F Y Y d j L j d T | Y { Y k R / R I L I f f p a 8 = h k ; 0 w a f F p f j a d d L L *.U P U L P L d a u u a a w < * U ",
"h 5 q N K K L I d j L j d d ^ | T j a I R P P P j f p r r 8 = ( ( 5 7 q i a f F a j a j L L L / R P L I Y S F L j u p p w < * h ",
"s , c C ' ~ T P j k L d d d L R P d d k P R U I L F D N N 8 5 I I 5 9 D D p j j j P d Y Y R Y / Y Y P L j L L d j y p N q 5 * l ",
"h 2 m ! ' ! K U P L d d j P P &.k L &.k P R R Y K K V C D 9 5 ) L 5 9 N J G L L k P U *.*.*.*./ *.*.*.P L R k j h k Y D n 7 = &.",
"l q C ! ] ^ } ;.P P P &.*.*.*.&.P k P P *.&.U L I [ Q J H q 6 ) k 6 c C Z J T ( &.*.*.*.*.*.:.*.&.*.R j k P P &.U I L H F 0 7 h ",
"l 9 V ~ | | >.&.&.*.&.*.,.*.&.*.&.&.&.*.*.U P j P T ) T Y n 6 k s 5 w ) T ` ;.4.,.,.,.*.*.:.:.*.&.&.&.&.U &.*.R U T ` ` J b 5 h ",
"l v Z o.+. .;.*.;.:.,.:.:.:.-.&.*.&.&.&.&.&.P &.&.P *.R Y q 7 g j : S Y / *.7.7.1.4.,.*.1.4.1.>.&.&.*.*.*.&.&.*.*.>.^ ~ ~ m 2 k ",
"&.n Z o.@.>.;.;.;.;.:.:.:.:.;.:.&.&.%.&.*.&.&.*.*.Y } R K n 5 k %.3 A K / / 2.2.1.4.,.:.1.,.,.:.*.*.>.*.*.:.*.*.>./ / T T E b j ",
"&.n ! +...2.>.:.;.*.:.-.:.-.*.*.*.:.&.*.&.*.:.:.;.>.{ / J N 9 =.&.3 D ^ *.*.>./ ,.1.,.,.,.:.;.;.:.*.&.*.*.,.*.*.>.*./ /  .W b h ",
"-.n W @.7.X.{ :.*.:.:.:.-.&.&.*.*.&.&.&.&.&.*.:.;.,.2.[ K A 7 ( &.3 A / ,.2.*.:.,.:.,.,.,.,.*.U &.P P &.*.*.*.*.>.Y / / ~ V 9 k ",
"=.w G } <.2.*.*.*.*.*.4.1.*.&.&.U k &.k U &.&.=.,./ R R F i 7 ( >.i F *.:.*.>.:.*.:.,.,.:.( U l &.P d &.&.&.&.L I I R { ^ M 6 R ",
"&.q V T / / R U &.*.4.7.4.3.&.j k U P P k P P ( R T U F A w 7 U *.3 S &.*.R *.*.*.&.:.7.) ( P j L L P j d d P S L Y _ _ D M 7 &.",
"l 9 n Q T T Y j &.&./ / >.R d d j k j h j f k k L L j a D n = ( *.3 3 F L R &.&.k P U / [ ) j ) d P Y L s d P Y L T K J G n 9 k ",
"&.6 m E J Q K a Y / R Y L t u t u u t u u u j j L j u u r 7 = U >.3 3 a a L L j j L R ~ ` L F f L u L L L d S S K J G E G b 7 l ",
"U 5 c V G D J H / ^ / Y d u t t u s y t e t u s f f u y 8 5 = } } , 3 w a p a d j I f L F u G F F s u L J f y y G G G m V m 5 U ",
"( X 6 c 9 q D H Y H H Y a a t e p F f r e t u u f w e 8 6 5 5 X.3.> 3 p i 0 i a f F u u p f G f u y u f F p y f p p V D N c 5 _ ",
"l , x m m n G D S H Q H t t u S H H p y e u u r r 7 ; 8 6 @ + ;.>.1 1 9 q 9 8 u y p y a u y f f s p y f p p p y p p N p N 9 = =.",
"l = 6 V V D D p S F S S y r y p p p p F F f y 4 r 4 4 7 6 5 % _ 1.+ % 3 7 9 8 i p H p y p r y r r r y 8 p 0 0 p w D V p p 9 = l ",
"l = 5 N w 8 a D D D A a 4 e r : p p y D F G r e e 4 4 7 7 , X } 5.O @ 9 9 6 7 8 9 r r 4 8 y y r r y p w w y w w w C C G p 5 % k ",
"l = 5 c 9 0 D D D D a i : 4 r i D p p D D p 8 e e 4 4 4 5 , X } X.o @ 6 q 6 7 q 9 r r 8 t i r r 8 0 0 8 r p w p D J C p r 5 % h ",
"l % , 5 w D p p D r y i : : 4 p N 0 r e 0 y e 4 e : - 7 7 , X ( X.* , 8 w 8 8 0 0 r i r y y y p a w 8 0 0 0 q p D D p y w = * l ",
"( % $ 7 8 i a y y 4 r t e : : 4 4 4 e 4 4 r 4 e e : e 4 4 & * ) <.= ; 4 r 4 r i p w w i y r r q N p D p D p N N D p p f 8 = = ;."
};
