/* XPM */
static char *result[] = {
/* columns rows colors chars-per-pixel */
"64 64 156 2 ",
"   c #2E2C2B",
".  c #352E2A",
"X  c #382F29",
"o  c #37322D",
"O  c #3B332D",
"+  c #363534",
"@  c #3C3632",
"#  c #373837",
"$  c #3C3935",
"%  c #3D3C3B",
"&  c #41392F",
"*  c #4C3C2E",
"=  c #413730",
"-  c #433B34",
";  c #4A3E35",
":  c #433E3B",
">  c #493F39",
",  c #5E4128",
"<  c #474136",
"1  c #4B4136",
"2  c #42403E",
"3  c #4B433B",
"4  c #534436",
"5  c #52463B",
"6  c #54493E",
"7  c #594C3D",
"8  c #64462E",
"9  c #604734",
"0  c #664B35",
"q  c #77583F",
"w  c #403F40",
"e  c #3F4040",
"r  c #454443",
"t  c #494645",
"y  c #474847",
"u  c #4A4947",
"i  c #474748",
"p  c #474848",
"a  c #4C4C4B",
"s  c #514740",
"d  c #544B43",
"f  c #5A4E43",
"g  c #504F4D",
"h  c #5A4F4A",
"j  c #4F504E",
"k  c #5C5046",
"l  c #52514F",
"z  c #5D524C",
"x  c #504F50",
"c  c #4F5050",
"v  c #545352",
"b  c #595654",
"n  c #575856",
"m  c #5A5856",
"M  c #565758",
"N  c #5B5759",
"B  c #575858",
"V  c #5C5B5A",
"C  c #624C41",
"Z  c #655043",
"A  c #6B5547",
"S  c #61554D",
"D  c #6B564A",
"F  c #65594E",
"G  c #6C5A4D",
"H  c #7C5E44",
"J  c #715C4C",
"K  c #615751",
"L  c #685650",
"P  c #645A53",
"I  c #6A5D54",
"U  c #625D5B",
"Y  c #6A5F59",
"T  c #715D51",
"R  c #7C6049",
"E  c #6B6156",
"W  c #64615E",
"Q  c #6B625C",
"!  c #6F685E",
"~  c #746154",
"^  c #786352",
"/  c #73655C",
"(  c #796759",
")  c #736A5D",
"_  c #7A6A5D",
"`  c #5E5E62",
"'  c #615F61",
"]  c #5F6160",
"[  c #646262",
"{  c #6A6663",
"}  c #6C6965",
"|  c #666769",
" . c #6B6668",
".. c #67686E",
"X. c #6D6B6B",
"o. c #756761",
"O. c #736B63",
"+. c #7C6D63",
"@. c #726E6B",
"#. c #796F69",
"$. c #767165",
"%. c #7D7164",
"&. c #74716E",
"*. c #7C726C",
"=. c #6C6C72",
"-. c #706F73",
";. c #6D7177",
":. c #6D7279",
">. c #747372",
",. c #7B7573",
"<. c #7B7875",
"1. c #74757B",
"2. c #7F7B79",
"3. c #85521F",
"4. c #855223",
"5. c #8A5423",
"6. c #8E5925",
"7. c #87552A",
"8. c #8A552A",
"9. c #8D5A2D",
"0. c #925A27",
"q. c #935B2B",
"w. c #995E2A",
"e. c #8C5C30",
"r. c #925E32",
"t. c #96612D",
"y. c #9B622D",
"u. c #966234",
"i. c #996433",
"p. c #996638",
"a. c #9A693B",
"s. c #826D59",
"d. c #806F64",
"f. c #82746A",
"g. c #84786E",
"h. c #8B7C6C",
"j. c #807771",
"k. c #847A73",
"l. c #8B7E74",
"z. c #837C7A",
"x. c #887E79",
"c. c #8E8175",
"v. c #87817B",
"b. c #8B837B",
"n. c #928374",
"m. c #92857B",
"M. c #94897E",
"N. c #867E80",
"B. c #838283",
"V. c #8C8583",
"C. c #8F8C8C",
"Z. c #938B83",
"A. c #938D8B",
"S. c #999289",
"D. c #A2998E",
"F. c #A6A29F",
/* pixels */
"D.M.l.f.f.l.A.x.#.f.c.m.l.n.l.n.m.M.g._ f.f.+.d.+.f.d.+.+.d._ _ _ ~ ~ / o.*.g.+.,.z.V.z.2.x.k.V.N.-.@.>.v.B.1.B.x.k.l.h.f.+.+.d ",
"b.#.L b Y Q o.Y { Q o.O.Y Q Q Y I E S S z I Y o.U Z h h S S S S S f f d z m z S K N N Y [ P { X.| V N U  .X.....[ Y Q Q Q z m - ",
"j.Y z d h P Y I / Q { Y P I L P L S z z P P U  .Y S Z f k S P P z S K S P I z S N U P U U P { Q [ ` | | ;.>.:.1.-. .{ Q U K z $ ",
"z.P b P h K S Y P 3 5 5 d 7 d 7 5 4 5 5 5 5 5 d d 4 4 ; * * 4 1 * 4 4 1 4 5 4 4 5 5 s 5 s s 7 d 6 5 h d h g B >.@.X.} W m P W 3 ",
"N.U h w w L Z P h 8 r.9.q.r.q.8.8.9.9.7.7.7.7.9.8.8.4.7.4.5.5.3.5.5.8.5.5.8.9.i.p.9.r.9.e.9.9.9.9.4.6.5.q.0.H >.{ W U g s m U > ",
"z.N N w d L h h @ @ - > > - > X - - - 3 - O : - @ > $ O 3 - = 3 ; - - @ > d t 3 s : . 3 = : 3 - 3 < - $ = X - U } E b b h z b % ",
",.K b b U K h .   + i i r i i $ p p % r i % j i i u t % a v v b g a t % g g i a a c % v i i a e u a e r r w $ + b Q S K S S z @ ",
"*.' h K Y N $   % r t i a a i w a c a u u r m v l l j e a a a u s a g % a g a u a c r b g a a e c a p a i a i # + k P P E b S O ",
",.P Q m m %   # e i t y r t p e u v v v v u W v v n j r n v l l x a v r u t u u u j 2 U a j p % v v a l a u v i + + t d S I P + ",
"*.Y O.t 9 o # e r r r t j p j t % v B B v u W v l j n t v l v g x g g : j l g j l l r  .t t j e V v v g v a v a e + o , F Q ' : ",
"k.o.&.k 8.= % : u r t a u j j c r % v v b u U v v l V r j m v a v r w % l v j a j v r ] c t e v N a v v v v V a a r O 5.( O.-.t ",
"V.} ,.d q.3 r r u a t t a p t j v r : l u i m u u W m r u V V n v x a % v v v j t j r n v i [ ] r i g v g l U v i r - 9.d.@.o.3 ",
"F.*.>.d t.- r t u a j a j l j j a j r % u % v r v V B N r a v v v N r t V t a j a j e V r n V n B i t v a u a a i r - 9.*.o.Q > ",
"M.*.O.7 r.- r i a a j v V W V v v v v a % r n a u a a v V r a a t i a  .a % t v v j # r ] ] a a v B v v u a a v a i < 9.f.@.Y 3 ",
"+.I o.7 t.< a a m n v n a v j j a l v N u % V ] v u a v v V e u % i [ N j a r c c a % V W v a a v j a v v v v v v a 3 e.f.O.Q 3 ",
"h.O./ 4 6.O % r t l V c t a j j a l v v B u e v N c a v v v v % u V u i v j t c a e v c t t j c j t t r u a r e % % = r.+.@.X.r ",
"D.z.&.5 0.- u a a % a m a l v v v a g g h V a w c c a c a p v c V v i r a v a u r V V a p a a c p y p t u r i v a u 3 9.g.<.>.3 ",
"S.&.>.k 0.< g l v l : a v r u v v v v v a a N g e M v a a a a u a c v u l V a % N N a j c c a p a a a c i u V v c p 3 e.k.1.&.j ",
"M.O.O.d 9.- v l l z l : u u u c v V b v v x a c t e n v c M a x u a a v v v e n v a p a a c p a c a a e u ` v a i r - 9.c.>.) 6 ",
"Z.O.O.k r.; a l l g v v $ i c a u a x g a i a u p t e N v v B v N N v N a r V V p a a c c v c a c c e p ' i x x r % $ 9.b.<.Q 2 ",
"b.{ O.7 i.- i g a u a g u + a v v a v l v V v v u B a i V ] V a a a j v r N N B n v V n n v B v c e % c a r c a a e < 9.g.>.} : ",
"V.} X.k u.O + % 2 e 2 % % # + a B v c N v v v B j j a i r ] n t r a t % m V n c v V V l a v v v r % % e # % % % % # @ 9.%.&. .- ",
"A.{ Q 7 u.t v N ] [ [ [ V V a # p v i a i a a a l v u a i r m t a a r v v j n a a j j a a v v i y B v B B B x v n j f 9.+.,.-.t ",
"b.Q Q 7 i.; u l j m V l l c c a # p v u r a v u a a u a v u 2 n a 2 V n u a j v N a v v a v r l | v a p a p a v u r t q.*.-.O.t ",
"Z.O.} f a.> y x b v N a j j v v v % a c c v u v c v v a a n u % 2 V V r a l v a k n j j a r a [ b g t g u a B u a u 3 t.%.&. .3 ",
"A.@.| 6 a.- r a v a j a t r t v B v e y c a u t b v u v n l n $ 2 W j v t e l j u b W V r p [ l u g v g v v g v j p 3 6._  . .r ",
"C.>.X.6 i.> a B v a r i t a l n b N c % a B u i v B u a n a 2 n l 3 ] n v u a v a a l u j ] c a v g a g g v u v v v 6 y.*. .W t ",
"A.>.*.d r.O % r r t r : v m u a v x a c % p c y i a B c u r W W V u % l a v n l j a r j W n a a g g t a : : : 3 2 % @ y.f.Q F t ",
"Z.@.} 7 t.& e y i t i i r v t r g a u v a e y N v v v n i N W v b W u r U j v N n u j } b n v a i y i % u a a a g u 3 p.z.-.@.t ",
"S.@.! 5 w.3 a V [ N v a u 2 v l x N v a i v % y v v v r V V n l l l m d 2 v j v r p [ U V m V b a u % b N g g l d g d p.z.>.-.t ",
"Z.$.Q 4 9.> y y j v V v l t e B N V v a i u a # i a r V ] l b V b l l m a 2 v a j [ b l l a r u g % v V x a g g r r 1 i.x.>.&.u ",
"M.} Q 1 9.- r r u c a n m V a t v n v B x t u a + + m V l a l U m v a u v u + p } V z m l t r r % ` V y a x a l u - < i.k.X.} 3 ",
"Z.X. .s 9.> p y t l r t v l r a ] v a a l v j a $ + l b l l a V U l l v v a % r n m l j a a u u % b U t u a u l g 3 3 u.@.{ U > ",
"v.W W 3 8.: a a j a l j v r r W V v l l l m l r m v 2 g l l l n l a u l t a U a r N b v l g u j j % l n v v a a u r 3 r.#.U P - ",
"b.W Y 3 8.= r a a p j l r u [ v l a l a l l t [ [ j l 2 u V n l a a a r i W a v a 2 v n v u a u n l e j v l j a r t < r./ v v - ",
"v.! } s 8.. # r r r r 2 j { v a u n v a a r V m a a l v r u v l a v u u V g r r v t r v j 2 l j u l l e r r r e % % - q.J P P - ",
"%.) $.4 5.= y a j c v n W N c l l l l l r V m u v l l v v e j V v i c ] i r u u j N a e v j a l v V c c j v v c u u 3 e.T F F : ",
"n.E Q 7 6.- u c a M v j v a v a l b a r V V j a m v v V v v 2 l u a [ v u u p 3 2 i V t % c t i l l j v v B v n a a 3 w.J A k O ",
"n.) ) 7 6.- p p a a u c c y a v a l r U W a p t a a j n V V l + e  .v u l v u a r e u ] l r v u a t m a i t a v u p < 0.^ E G < ",
"n.%.$.4 0.@ r r a a r i a a v x v e m W v v v l 2 2 l u l m r 2 r v [ a i g a i i u v v v u i [ [ V j c t u p p t i < y.s.I G < ",
"n.( %.7 6.< 2 y a c a a M c v c % b v u c v v l u l v a u % 2 b v e c V a a a v n v a j a v a r v M c a a a j u r e < w.J P I & ",
"n.$.) 7 3.< u a a v B a i c c r B m t u j v v v l b n l r p V j a u : v W a V W V n v l l l b u % a a a v a a u t p < 0.A Z Z & ",
"c.E E 7 3.o # $ r r % % # # e V | c v v r r a g r a v r u ] j l v g v r l U m V V l b l l a u l p + % % % % e % # + O q.D k k @ ",
"s.~ $.7 3.< j v v v ] ] B r V ` v m u a l i r u u u r u W l j u v g u a 2 g m l u l n l l l a r v a e V V n N ] V a 6 t.J z k & ",
"n.Q &.7 3.O r y i v v a r N B v B v j i u j m v j r u W l l j a v v r l b : l U v l n l r l a j n n a r c p t v v r - r.D z k - ",
"c.Q >.h 3.O % u v c c r N v c v v v a c v j v v r t W v n n l a u v l v m l % d V l l j r r a v v a v i y c c j t r < 9.0 f z < ",
"%.{ ;.6 5.< p j v c % B V c c j u v v c j a j r a W n l V v n v a j v l v m b 2 u m z n l l u m v c r a t e N a j v 6 6.D z S $ ",
"c.X. .3 5.O # # % r V B p a a p y a v c a v t a [ m l l v n m v v n n a u v b v 2 j n n l l j d a u r u a t r r % % = 6.( S S $ ",
"*.[ [ d 0.> y y c [ [ u t p p p r r p a a r u [ B a a u u l v % 2 n v j j v v v v % l V v a a l V v l l t a l u a t 3 9._ z b - ",
"<.[ ' 6 q.3 a r c v c v c u p a p y p v r % [ v v v a u u r 2 m j 2 v l a n c a v v % a V j k u v l b v a r u a u g 3 q.^ z N w ",
"j.[ [ s i.> r e a u a a v v c c a v n i % % V v N N B a a e N V m a 2 n j n v p u l % : v V b l a l g l j v v a t u 6 q.o.` ` % ",
"z.V ' d i.> y i i u a a a a c c i a r p v e N u a a v v e V V l n V l 2 V v v c u l r V 3 g n m a m v l N m v g a u 6 e.o.[ ' : ",
"z.' [ s y.- e y r t u u r a c a p e p ] c r B i a a l t v V l a l v W t v j j v g g r U m % a ] l a l l m l g g a p 3 r.Y U Y w ",
"x.@.{ 3 w.> a a u x g a a a v v r y [ v j i v j v v v t V N l l v l n a v v a j a a i V l l i a v u u g l v a r r r 3 r.T { Y > ",
"b.{ { d q > y a u v v v v a c p a [ j a j p V j u a v t m m j a u j v t v n v t a u y [ v l v 2 v l l a a a r % r # 3 H +.#. .: ",
"b.'  .@.@.a + : u a t u g c c e n v p p t r B t a j V u l n v a j j j r l j j c a a 2 V v l v u l l a u a l r r % y @.<.z.{ { r ",
"z.Q  .-.o.b w # r t l g g u u r x v y r r r V a a u a r l l g g a l l r l g r g v a r c p l l r a j a r r r e $ r >.>.U { { [ r ",
"k.{  .' z K [ a $ r v a a u r % a c y r i # v u t % r % g v g v t 2 r % l l r t a a % a r r i : c v t 2 e % + 2 ,.,.[ m W [ U + ",
"g.U ' V h b W Y g @ ; 3 6 3 > $ s 3 > > : = 3 - < 3 3 & 5 7 3 d 3 < < = 6 k 3 3 3 3 $ 6 - & < < 6 6 < < < O < ,.2.U [ U W U z > ",
"+.K U ' ' b m } V 0 r.r.q.r.e.w.r.r.r.q.6.8.0.w.q.6.q.0.q.0.q.q.t.w.q.q.e.9.e.r.u.q.q.w.0.0.t.y.w.t.y.y.y.t.R 2.W U ` [ b U U > ",
"Z.Q b b a d P >.@.[ o./ A C A D o.T L T Q { I D F D D J T G D D D C C A F G D ( +.+.( T G _ _ T J / / I _ ) #.v.@.=. .m l K _ u ",
"c.O.O.W z Q [ [ [ U { { S h Y U ' ' ' '  .Y b P F S F P I P I S P K h P P b L ' { O.#.{ I *.+.+.O.} Q V [ W [  .&.;.=.W E E K - ",
"k.Q S K Y { U o.Y x P Y h S I Y ' P K b b Y P K S z P S P I P P I z h b Y b b m U { [ P z P Q ' [ N V N U V [ &.X.} W P Q ! W - ",
"Q : . O $ : : : $ = > t - = = @ @ = - = . - - @ - @ = O @ > - = - @ @ $ w : - - % % r $ @ - 3 w w % $ % r r t r p 2 > < - - - O "
};
