/* XPM */
static char *_a9b148ad41c4b599da1613ddc364df4bvm9shmYQaAcrQQa[] = {
/* columns rows colors chars-per-pixel */
"64 64 18 1 ",
"  c #595957",
". c #555453",
"X c #494847",
"o c #4D4D4B",
"O c #51514F",
"+ c #5D5D5B",
"@ c #2B2B2A",
"# c #62615F",
"$ c #434241",
"% c #666563",
"& c #6A6A68",
"* c #393937",
"= c #706F6D",
"- c #757573",
"; c #7D7B7A",
": c #868584",
"> c #82817F",
", c #8E8E8C",
/* pixels */
" -&&%%%%#%#+# %#  ++ .OO..ooo$@@o=--=%==%%&&=&%&=&%#%&%#+#.+%.*@",
"=;%=%&&---;::>-;-=&-=%%#%&+. .X@%;#%##%&%%=&&&---:,:::>;--&=&#O@",
"# XX$$$o.   %&%&##+%#  .....O.o@%#XXoOoX$$o$$$oXO.#%&=%# +OOoo$@",
"% $XoX$oOXXXo   ++O.+ .OoOXOXoo@%#oo..OoXoXoooXXX.oX &%.ooXXoXX@",
"&#XXoOooXoXoOo .O+%%%#+#  XoX$X*% ooXooooXXooOoOXoOOoO# oXoooo$@",
"#+X$Xo.X$Oo..o....%==&##  O  Oo*&.Xoo   +.OO.   OoO.OO#+...oooX@",
"#+XXXO.OXoOOO  .   +%&%#%++ .+ *&#oo.OOO.+.   +.O.O  .+++## OOO@",
"=#XooOO.OOOoO.   +##%=-==&% . .*%=oXoooXo. .  + .    +##%%%+ Oo@",
"-#ooOo.O.O.OoO.++#&&&=-;-=&%#%+*#; .XXOooO +  . +++###&&%#+  .O@",
"-#oOXXoo.Oo. O.. #&&&-;;;-=%+  @ ;#Oo.+ O. ++  +++##%&-&#+ +#+.*",
"=-OoooXo.OO..   +#&==-%#%&&+.+ * =#. +%%#####++++#&===-&%+ooOOo@",
"%-o.  .OoOoO  +%&%%% +...+.oXO.* =+ooO.+  ..+%&%##+#++# . oXXoX@",
"%;.OO. +  +###+  O..OooXo.ooo$$@.= X$$XoXoXXXXO  .O ..ooXXXOXX$@",
" >#+# ### .  + OOOXXoO.O$XXooo*@X+oo$$$$X$oOOooXo.oOXOoooX$$$X$@",
"$+#+ ... OO oooXXXoXXXXXX*$$*$*@@X$X****$*$$$$$$XX$$$X$$$X$$$$$@",
"@@@*@@@@**@@@@@@@@@*@@@@@@@@@@@@@@@@@@@@@@@@@@@@@@@@@@@@@@@@@@@@",
"#&+ ++++##++  $@*.##%%%% ++++++.++.O  .OO..Oo$*@*  .O #++%%#+ #+",
":>;--;;::::,,>%@+ OO... .+#%&---;>>--;=&&&%# .$@ #  ..%=&%&==&&=",
"XXOoo ++++ ##%+@% oXXXX$$$$XXoo.. %&# OOoOXXoo$@ o$$$*$XX$XXooXO",
"Xo.OOO.. o.   O@ oX$$$X$$XXXXO.. .O+ ooX$XX$XX$@+o$$X$ooX$$XXXOo",
"Xo  .oo..XXo.oo@#.X$XOooX....  oOOo.#+. ...OOOX@ o$$$$oXX$oX$ooo",
"ooO .oX.+.  ooX@++XOooO.oXXoXOOXXOoo.# O  .OooX@ X$X$X$$XXXXooXX",
"XoXo oO.+%=#.OX@+%XX$oOoOOXoo..XoOOoO+%...Oo.OO@ X$$X$$XOooXooXX",
"oOO.OO.+#=%.oOO@ %XoXO.oOOo.. OOoO.O. #&&+   .O*+O$$X$XOOXooOOOo",
"oo... +#%+ ooXX@ &OoOOo   OOO .O.OOO.+#+##OOOOX*+o$XXXOoO.OooooX",
"oO..O+% OXXXX$$@ ;&OOOXO  OO.O  ..O . # O+# $XX@++oXoOO.... Oooo",
"O..+##  XX$$$$$@ -+.  ..##  + . +   + oOXXo.OX$@ %XoO.o.+ .#+ OO",
" O.oXXooXX$$$$*@.%oXooXXo.#+ #&%%# # OoXX$XoXo*@O&oooOO. + +#%# ",
"Oo$$$*$*$$$$$$*@o oX$$$XXoOOO. +#&%%+ooooooo$X$@o&.oXoO.. OO + O",
"XoXXX$*$$$$*$$*@X X$*$$$$XoooO .O.   OoXXXXXoX$@X+X$$$XoXOoXO.Xo",
"X$$**$$******@*@*o******$$$$XXoOoXooOOoo$$$$$*@@*O$****X$$$$$X$X",
"@@@@@@@@@@@@@@@@@@@@@@@@@@@@@@@@@*@@@*@*@*@*@@@@@*@@@@@@@@@@@@@@",
"$.oOooOOO.oo.OOo..O.OOoooO..Oo*@$    #+ . ....ooO +.OOoO.O.O.X*@",
"+;-=&&&&=&&&&&&=-&===---&&==&=#@ -=---;;;-====&&&&=--=%&===&%#o@",
"+>=%#+    +#++%&#+%++#&&&+###& @O=#+#++##%###  +#####++++##   o@",
"%:& .. ++ +%%##% ##  #&#+ .+%+.@.-+OO.. ++%#+.   ++ .    + .O..@",
"&,=%%#&&##%&%&&==&%&%&%#&#%%&&#* -#OXo. #&&==&&&&=&#%&% . ++++ *",
"%>&+%=-=#%%#&&%%%%+##++ #++%+ %$#>&.OO  +%-%###%&&&%%==%##%#+.o@",
"#>=%&&=&#    .+# + . ....OO #. *+:%O ++%%#+&&## ++#+  %-=% X$$$@",
"+=%%&&=&%#..   ++.    #+OoOO...*+:&..+%%+ +#+ #%&% +  +%+ .X$$*@",
"+%  #+%&&#++#+++.....   ..OooXO*+:%++%&%# ...  +++ . +# O.ooX$*@",
" %.O.O+%&==+  ##  . .......OooO*+:&%=%&%#++.   ...  +#+ooXXXX$$@",
".+oXXo..#&%%#%%+%#+ OooOoOOOOX.*%,;&%### . .  .OO   +#+o$$$$o$$@",
". oXXoOOOO+#%&%&&=+  OoO..OOOo+*#,-+  ..OO... OO + ++ .OOXX$X$*@",
"oOXXX$XXXOOo.oO+&##+##%+ .....#$%,# #+++.. .o.O.#. ##Oo..XXXXX*@",
"$OX*$*$XOXXooXXOOoO ++#&%+++#+%*#;+  OO .O.Ooo.   +%% ....oOX$*@",
"@$X$$X$$XX$$XXX$$XoOOooo. +#&#+@$&##### ...... &%#  O. OO.oXX$*@",
"@@@@@@@@@@@@@@@@@@@@*@*@@*@****@*$$$*$$$$$XX$*****@@@@*@@@@@@*@@",
"  .O.  O.++.OO*@$  ++#+#%###+##%&&&%##++&%%#+O*@$  #  +. +#+ +##",
">>>,,,,;:,:;;-+@ :;;;;;::::>>;;>::,,,,,:::>-=%.@ ;>>;;>>:,,,;;>:",
"+ #+#%&&==#+++.@+;.Ooo.  #+.   +#%&&=>;=##%## o@O=#+#&=&&=-& +++",
" +.OO..++Oooooo@+-XX$Xoooo..OO. #%%%%=%+.OXO.o$@o=+.+#+  #=#    ",
"   .oO..OoXXXoX@+%XOoooOOO. .O.. +%%%##+.OXXOXX*O%.O+.  .#&% oo.",
"O.++.++++ OOOOO@%#XOO.oOooO ..O +.+%##% Ooooo$X@o%OOO..OO+%+  Oo",
"   + %%%#+ . OO@&%Xo..O..O..  +.  ++#%&+ O..OXX@O& OO...+#&##%# ",
"#+ +#%%#&+.O..O*%=oO. ..   .. #  +++#%&&# .OOoX@O&.o.+.%&&&#%###",
"+#++&%#%&&&+ Oo*%;Oo.++.  ++++#++###%&&%%#+oooX@.-+o...%&&####+#",
"  ##%%&%=-=#+ O@#> O.  +.o ++%%&#++#&&==&%+ooo$@+;#... &%=%++#+ ",
"+#%%=;=&%&&&%+.@+-%#  +##+++#%%&&&%%=--;-%+.X$$@.=+OOOO+#&=%#+%%",
"==%&%##+. ##++ @.= OO.  +#+  #%==&&%#%  #%=%.o$@O& .Oo. +%=&%&&=",
"+++.O    oO...O*.#OX$$oOX..oXo.+##+  OoXoO.  .X@X&.OOo.#++ .O  +",
"..oOoOXoOooooOX@O.oXoXXo$oOooO.  +.ooo.OOX$Xo.X@X#OoO.# OooOO # ",
"oXo$$X$$$XXX$X$@*o$$$$*$X$XooXXoOOXX$$$X$XX**$*@@ooXoOOX$$$XXoOO",
"@@@@@@@@@@@@@@@@@@@@@@@@@@@@@@@@@@@*@@@@@@@@@@@@@@@*@@@@@@@@@@@@"
};
