/* XPM */
static char *_5a27a0eb82c41e3f8e772f7215f4d77uLiALZ93Qg5RiEIM[] = {
/* columns rows colors chars-per-pixel */
"64 64 16 1 ",
"  c #464544",
". c #393938",
"X c #403F3E",
"o c #333231",
"O c #4B4B49",
"+ c #50504E",
"@ c #565554",
"# c #5C5B59",
"$ c #2B2B2A",
"% c #626260",
"& c #696866",
"* c #1F1F1E",
"= c #71706E",
"- c #7B7A78",
"; c #858382",
": c #8B8B89",
/* pixels */
"@=&&%&&%%%%#%#%%@@###@++@@OOO $*.@@@+O@+OO++++O+@+OOO+OO  X OX$*",
"=-&=&&==---;;;--==&==&%%&&#@@@O$O#OOOOO+OO++++@@#%&%%&%#@#+@+OX*",
"%@     O@@##&&&&%%#&%##@@@@@+@OoOO...X..oo.ooo...XOO++OO  X...o*",
"&@ OO  ++OOOO@@###+@##@+++O+OOOoOO..XX.........o.X..X+OX.......*",
"&% OO+OOOOOO++@@+#&&&%#%#@OO  OoO .......o...X....X..XOX......o*",
"%#O O+@O ++@@+@@@@%==&%%##+@@+O.+Xo..X   X.XXXX ..XXX.  XXX....*",
"%#O  +@+OO+++@@@#@@#%&&%%##@@#@.+O..XX.XX XX   XXX.XXX      X.X*",
"=% OO++@+++++@@##%%%&====&%#@@@oO@.o.....XXX    X     OOOOO  ..*",
"=%O+++@+@+@+O+@##%&&&==;-=&%%%#oO# Xoo...X    X    OOO++O   XXX*",
"=%O+O OO@++@@+@@#%&&&=---==&#@#oX# ..X XXXX  X    OOO+@+O     X$",
"==+O+OOO@++@@@###%&===&%&&&#@##oX+OX  OO  O O    OO+@+@+O ..XX.*",
"%=+@@#@+++++###%&&&%##@@@#@+ +@. @ ..XX  XXX O+OO  O  O XX.....*",
"%-@++@@####%%%##@+@@+OOO+@+OO  $X@ .ooo........X X. XX.......oo*",
"#;%#%#%%%@@###@+++OOO+@+X  O+O.*. ..o$oooo.X.....X........ooo.o*",
"X#%%@@@@@++@O++O OO  OOO X XX .*$.oo$$$$$$oooooo.oooooooooooooo*",
"$$ooo$$oooooo$$$*$oo$$$$$$$$$$**********************************",
"%&######%%####X*$XOO##  X   XX .o.oo..XXo..oo$**$XXX.XO  OOO  O ",
";;-==--;:;;::;&oOOX OX.XXX O+@@+XOO  O++  XX..$*XOXXXXO@+O++@++@",
"OO+O+@%####%%%#$+X.....o$$$$oo.    OOX..oooooo$* .ooo$o.ooo...o.",
" O@+++@@#O@@@#+$Xo$$$$o$$o$oooo. OOO o$.$$o$oo$* .$ooo..ooooo.X.",
"O+@#@+O@@OO+@OO$Xoo$oooo$o..o..oo...XX$X.o..ooo*X.o$oo..oo..o...",
"OO+#@OO@#@@#OOO$X.ooooo.oooooooooooo.X$oX.ooooo*X.oooooo.o......",
" +OO@++@%&=%@+ $XX$o$oooooooo..ooooo.  $o.o$$$.*X.ooooo.X......o",
"O++@++@#%=&@O++$.X$o$o.ooooo..oooo.o..O+.oo.ooo$ .o.ooo.X.....X.",
"O+@@@@#%&##OO O$. ooooo...ooo..o.ooo..XOO.oooo$* .ooo.X.XXX.....",
"++@@+%%#+ O O X$.+ ooooo..oo.o....o...X..OO.$$$*  ....XXXXXXX...",
"+@@#%%##O XXXXX$.O......XX............oooo.X.o$* O..XX.X XX  X..",
"#+@OO OOOO XXX.$.Xoooo$oo.X..X XXX.X.ooo$$$o..**X+....XX  X OO  ",
"+O XXXX.X XXX .*o.oo$$$$ooooo...X X Xooooooo$o$*.+X...XXXXXXX  .",
"OOOO  XX XXXXX.$o.$$$$$$$$oooo..o....ooo$$$oo$$*o .oooo.....XX..",
" XX..XX......oo**o$$*$**$$$$$$oooooooooo$$$$$***$.o$$$$oooooo.o.",
"$$$$$$$$$$$$$$***********************************$**************",
" @+++++++@OO@++++++@++OO+++++O.$o X    XX XXX....  XXX.XXXXXX.$*",
"#-===&&&=&&&=&&==&=======&==&=%$X#@#@####@@@@+++++@@@@O+@@@+O .*",
"#;=%%#####%%##%&%#&#%%&=&#%%%&@$X+O    OOO OOX  OOOOO    O  X .*",
"&;&@@@###@#%&%%&#%%@#%&%#@@#%#@$X@ X.XXX  OO X XX   X XX  XXXXX$",
"&:=%%%&&%%%&%&&==&&&%&&%&%%&&&%o @O...X O+++@++++++OO+O X     X$",
"&;&#%===%%%%&&%%&&#%%%##%##%##%.O%+X.X X O#+O  O+++OO@+OOOO  X.*",
"%;=&&==&%#@##@#%###@@@@@@++@%@@. %OXX  OO  ++O X  O XXO@+OX.ooo*",
"#=%&&&=&&%@@@@###@####%#+O++@@@. &+XX OO      OO+O  X  O  X.oo$*",
"#&@#%#%&&%#%%###@@@@@###@@+OO +o &O  O+OO XXXXX   XXX OX.X..oo$*",
"#%@+@+#%&==#@@%%##@@@@@+@@@+OO+. %+O+O+OO  XX XXXX X O ...o..oo*",
"@%+ O+@@%&&%%&&#%%##++++O++++O@.O&#+OOOO X XXXXXX    O .oooo.oo*",
"@#OOOO++++#%%&&&&=%@#+++@@++++#.O=@   XX.XXXXXX.      XXX.ooooo*",
"O+O   O O+++@O+#&%%#%%%%@@@@@@%XO&O     XXXX.XXX X OOX.XX.o.oo$*",
"X+OXXXXO+ OOO O++O+@%#%&%###%#&.O#   XX XXX...XX   OO XXXX.Xoo$*",
"o  X      XX     OO@++O+@##%&%%$o+OOOO  XXXXXXX+OO X.X XXX...o$*",
"$$$$o$$*$o$$$$$$*$$$$$$$$$$ooo$$$$o$$ooooooo$$$$$$****$******$**",
"@#@+@#@+@##@++X**oo.o.............X...oo....o$**o    X XX O   O ",
";--::::-;:;--=%$o##%%%%&&&&&%%%%&&=---=&&&%@@OX*X#%%##%%%&=&%#%%",
"##%#%%&&==%###@$.%OOOO+@@##+@@@##%&&=--&##%##@O$X@O  ++++@#+    ",
"##@++@@##++OOOO$.# O  O++O@@+@@#%%&&&=&#@+O@@O o.+ X O X O+O  X ",
"###@++@@+OOO OO$oO +OO++++@@@+@@##&%&%%#@+OO+O oXOXX X XX +OX..X",
"+@##@#%###+++++$.  ++@+++++#@@+##@#%%%%#+OO+O  $.OX.XXXXX +   X.",
"#@###%&%%##@#++$ O +@@+@@+@@###@###%%&&%@+@@+  $X+XXXXXX O+OOO  ",
"%###%&&%&#@+@@+$.@O+@@@@#@#@@#%##%##%&=&%@@++OOoX+X.X XO+++OOO O",
"#%##&%%%&&&#@++$.%+O@##@@#####%##%%%&&&&%%#O++ $X@ .XXXO++O OO O",
"##%%%%=&=-=%##+$.&@+@###@+###%&&%##%&&==&&#OOO $ #OXXX +O+O    X",
"#%&&=-=&&&&=%#@$o#%%@##%%###%&%&&&%&=-=--&#@O  $X+ XX.X O+@O  OO",
"==&&&%%#@#%%#%@$o+@++@#@#%###%&==&&&%&@#%%=%@O $X+XXX.X  O@+O++@",
"###@+@@##++@@@+ooOO   O+O@@OO+@#%%#@#+OOO+@##@O$.+X.X.XO  XXXX  ",
"@@O+O+O+++++++O$$XOOO O+ O+OO+@@##@OO+@++   O@O$oO...XO ...X.   ",
"OO+ X X XO    X**. XXXXX X OO  O++OO       X. .**....XXooooo...X",
"$$o$*$$$$$$$o$$***$$*$$$$$$$$$$$$ooo$$$o$$$$$$*****$************"
};
